<?xml version="1.0" encoding="utf-8" standalone="no"?>
<!DOCTYPE svg PUBLIC "-//W3C//DTD SVG 1.1//EN"
  "http://www.w3.org/Graphics/SVG/1.1/DTD/svg11.dtd">
<svg xmlns:xlink="http://www.w3.org/1999/xlink" width="460.8pt" height="345.6pt" viewBox="0 0 460.8 345.6" xmlns="http://www.w3.org/2000/svg" version="1.1">
 <metadata>
  <rdf:RDF xmlns:dc="http://purl.org/dc/elements/1.1/" xmlns:cc="http://creativecommons.org/ns#" xmlns:rdf="http://www.w3.org/1999/02/22-rdf-syntax-ns#">
   <cc:Work>
    <dc:type rdf:resource="http://purl.org/dc/dcmitype/StillImage"/>
    <dc:date>2022-11-18T12:21:22.088384</dc:date>
    <dc:format>image/svg+xml</dc:format>
    <dc:creator>
     <cc:Agent>
      <dc:title>Matplotlib v3.6.2, https://matplotlib.org/</dc:title>
     </cc:Agent>
    </dc:creator>
   </cc:Work>
  </rdf:RDF>
 </metadata>
 <defs>
  <style type="text/css">*{stroke-linejoin: round; stroke-linecap: butt}</style>
 </defs>
 <g id="figure_1">
  <g id="patch_1">
   <path d="M 0 345.6 
L 460.8 345.6 
L 460.8 0 
L 0 0 
z
" style="fill: #ffffff"/>
  </g>
  <g id="axes_1">
   <g id="patch_2">
    <path d="M 57.6 307.584 
L 414.72 307.584 
L 414.72 41.472 
L 57.6 41.472 
z
" style="fill: #ffffff"/>
   </g>
   <g id="matplotlib.axis_1">
    <g id="xtick_1">
     <g id="line2d_1">
      <path d="M 73.832727 307.584 
L 73.832727 41.472 
" clip-path="url(#p54765c8da3)" style="fill: none; stroke: #b0b0b0; stroke-width: 0.8; stroke-linecap: square"/>
     </g>
     <g id="line2d_2">
      <defs>
       <path id="m10be4b9a43" d="M 0 0 
L 0 3.5 
" style="stroke: #000000; stroke-width: 0.8"/>
      </defs>
      <g>
       <use xlink:href="#m10be4b9a43" x="73.832727" y="307.584" style="stroke: #000000; stroke-width: 0.8"/>
      </g>
     </g>
     <g id="text_1">
      <!-- 0 -->
      <g transform="translate(70.651477 322.182437) scale(0.1 -0.1)">
       <defs>
        <path id="DejaVuSans-30" d="M 2034 4250 
Q 1547 4250 1301 3770 
Q 1056 3291 1056 2328 
Q 1056 1369 1301 889 
Q 1547 409 2034 409 
Q 2525 409 2770 889 
Q 3016 1369 3016 2328 
Q 3016 3291 2770 3770 
Q 2525 4250 2034 4250 
z
M 2034 4750 
Q 2819 4750 3233 4129 
Q 3647 3509 3647 2328 
Q 3647 1150 3233 529 
Q 2819 -91 2034 -91 
Q 1250 -91 836 529 
Q 422 1150 422 2328 
Q 422 3509 836 4129 
Q 1250 4750 2034 4750 
z
" transform="scale(0.015625)"/>
       </defs>
       <use xlink:href="#DejaVuSans-30"/>
      </g>
     </g>
    </g>
    <g id="xtick_2">
     <g id="line2d_3">
      <path d="M 138.893758 307.584 
L 138.893758 41.472 
" clip-path="url(#p54765c8da3)" style="fill: none; stroke: #b0b0b0; stroke-width: 0.8; stroke-linecap: square"/>
     </g>
     <g id="line2d_4">
      <g>
       <use xlink:href="#m10be4b9a43" x="138.893758" y="307.584" style="stroke: #000000; stroke-width: 0.8"/>
      </g>
     </g>
     <g id="text_2">
      <!-- 100 -->
      <g transform="translate(129.350008 322.182437) scale(0.1 -0.1)">
       <defs>
        <path id="DejaVuSans-31" d="M 794 531 
L 1825 531 
L 1825 4091 
L 703 3866 
L 703 4441 
L 1819 4666 
L 2450 4666 
L 2450 531 
L 3481 531 
L 3481 0 
L 794 0 
L 794 531 
z
" transform="scale(0.015625)"/>
       </defs>
       <use xlink:href="#DejaVuSans-31"/>
       <use xlink:href="#DejaVuSans-30" x="63.623047"/>
       <use xlink:href="#DejaVuSans-30" x="127.246094"/>
      </g>
     </g>
    </g>
    <g id="xtick_3">
     <g id="line2d_5">
      <path d="M 203.95479 307.584 
L 203.95479 41.472 
" clip-path="url(#p54765c8da3)" style="fill: none; stroke: #b0b0b0; stroke-width: 0.8; stroke-linecap: square"/>
     </g>
     <g id="line2d_6">
      <g>
       <use xlink:href="#m10be4b9a43" x="203.95479" y="307.584" style="stroke: #000000; stroke-width: 0.8"/>
      </g>
     </g>
     <g id="text_3">
      <!-- 200 -->
      <g transform="translate(194.41104 322.182437) scale(0.1 -0.1)">
       <defs>
        <path id="DejaVuSans-32" d="M 1228 531 
L 3431 531 
L 3431 0 
L 469 0 
L 469 531 
Q 828 903 1448 1529 
Q 2069 2156 2228 2338 
Q 2531 2678 2651 2914 
Q 2772 3150 2772 3378 
Q 2772 3750 2511 3984 
Q 2250 4219 1831 4219 
Q 1534 4219 1204 4116 
Q 875 4013 500 3803 
L 500 4441 
Q 881 4594 1212 4672 
Q 1544 4750 1819 4750 
Q 2544 4750 2975 4387 
Q 3406 4025 3406 3419 
Q 3406 3131 3298 2873 
Q 3191 2616 2906 2266 
Q 2828 2175 2409 1742 
Q 1991 1309 1228 531 
z
" transform="scale(0.015625)"/>
       </defs>
       <use xlink:href="#DejaVuSans-32"/>
       <use xlink:href="#DejaVuSans-30" x="63.623047"/>
       <use xlink:href="#DejaVuSans-30" x="127.246094"/>
      </g>
     </g>
    </g>
    <g id="xtick_4">
     <g id="line2d_7">
      <path d="M 269.015821 307.584 
L 269.015821 41.472 
" clip-path="url(#p54765c8da3)" style="fill: none; stroke: #b0b0b0; stroke-width: 0.8; stroke-linecap: square"/>
     </g>
     <g id="line2d_8">
      <g>
       <use xlink:href="#m10be4b9a43" x="269.015821" y="307.584" style="stroke: #000000; stroke-width: 0.8"/>
      </g>
     </g>
     <g id="text_4">
      <!-- 300 -->
      <g transform="translate(259.472071 322.182437) scale(0.1 -0.1)">
       <defs>
        <path id="DejaVuSans-33" d="M 2597 2516 
Q 3050 2419 3304 2112 
Q 3559 1806 3559 1356 
Q 3559 666 3084 287 
Q 2609 -91 1734 -91 
Q 1441 -91 1130 -33 
Q 819 25 488 141 
L 488 750 
Q 750 597 1062 519 
Q 1375 441 1716 441 
Q 2309 441 2620 675 
Q 2931 909 2931 1356 
Q 2931 1769 2642 2001 
Q 2353 2234 1838 2234 
L 1294 2234 
L 1294 2753 
L 1863 2753 
Q 2328 2753 2575 2939 
Q 2822 3125 2822 3475 
Q 2822 3834 2567 4026 
Q 2313 4219 1838 4219 
Q 1578 4219 1281 4162 
Q 984 4106 628 3988 
L 628 4550 
Q 988 4650 1302 4700 
Q 1616 4750 1894 4750 
Q 2613 4750 3031 4423 
Q 3450 4097 3450 3541 
Q 3450 3153 3228 2886 
Q 3006 2619 2597 2516 
z
" transform="scale(0.015625)"/>
       </defs>
       <use xlink:href="#DejaVuSans-33"/>
       <use xlink:href="#DejaVuSans-30" x="63.623047"/>
       <use xlink:href="#DejaVuSans-30" x="127.246094"/>
      </g>
     </g>
    </g>
    <g id="xtick_5">
     <g id="line2d_9">
      <path d="M 334.076852 307.584 
L 334.076852 41.472 
" clip-path="url(#p54765c8da3)" style="fill: none; stroke: #b0b0b0; stroke-width: 0.8; stroke-linecap: square"/>
     </g>
     <g id="line2d_10">
      <g>
       <use xlink:href="#m10be4b9a43" x="334.076852" y="307.584" style="stroke: #000000; stroke-width: 0.8"/>
      </g>
     </g>
     <g id="text_5">
      <!-- 400 -->
      <g transform="translate(324.533102 322.182437) scale(0.1 -0.1)">
       <defs>
        <path id="DejaVuSans-34" d="M 2419 4116 
L 825 1625 
L 2419 1625 
L 2419 4116 
z
M 2253 4666 
L 3047 4666 
L 3047 1625 
L 3713 1625 
L 3713 1100 
L 3047 1100 
L 3047 0 
L 2419 0 
L 2419 1100 
L 313 1100 
L 313 1709 
L 2253 4666 
z
" transform="scale(0.015625)"/>
       </defs>
       <use xlink:href="#DejaVuSans-34"/>
       <use xlink:href="#DejaVuSans-30" x="63.623047"/>
       <use xlink:href="#DejaVuSans-30" x="127.246094"/>
      </g>
     </g>
    </g>
    <g id="xtick_6">
     <g id="line2d_11">
      <path d="M 399.137883 307.584 
L 399.137883 41.472 
" clip-path="url(#p54765c8da3)" style="fill: none; stroke: #b0b0b0; stroke-width: 0.8; stroke-linecap: square"/>
     </g>
     <g id="line2d_12">
      <g>
       <use xlink:href="#m10be4b9a43" x="399.137883" y="307.584" style="stroke: #000000; stroke-width: 0.8"/>
      </g>
     </g>
     <g id="text_6">
      <!-- 500 -->
      <g transform="translate(389.594133 322.182437) scale(0.1 -0.1)">
       <defs>
        <path id="DejaVuSans-35" d="M 691 4666 
L 3169 4666 
L 3169 4134 
L 1269 4134 
L 1269 2991 
Q 1406 3038 1543 3061 
Q 1681 3084 1819 3084 
Q 2600 3084 3056 2656 
Q 3513 2228 3513 1497 
Q 3513 744 3044 326 
Q 2575 -91 1722 -91 
Q 1428 -91 1123 -41 
Q 819 9 494 109 
L 494 744 
Q 775 591 1075 516 
Q 1375 441 1709 441 
Q 2250 441 2565 725 
Q 2881 1009 2881 1497 
Q 2881 1984 2565 2268 
Q 2250 2553 1709 2553 
Q 1456 2553 1204 2497 
Q 953 2441 691 2322 
L 691 4666 
z
" transform="scale(0.015625)"/>
       </defs>
       <use xlink:href="#DejaVuSans-35"/>
       <use xlink:href="#DejaVuSans-30" x="63.623047"/>
       <use xlink:href="#DejaVuSans-30" x="127.246094"/>
      </g>
     </g>
    </g>
    <g id="text_7">
     <!-- Generations -->
     <g transform="translate(205.662344 335.860562) scale(0.1 -0.1)">
      <defs>
       <path id="DejaVuSans-47" d="M 3809 666 
L 3809 1919 
L 2778 1919 
L 2778 2438 
L 4434 2438 
L 4434 434 
Q 4069 175 3628 42 
Q 3188 -91 2688 -91 
Q 1594 -91 976 548 
Q 359 1188 359 2328 
Q 359 3472 976 4111 
Q 1594 4750 2688 4750 
Q 3144 4750 3555 4637 
Q 3966 4525 4313 4306 
L 4313 3634 
Q 3963 3931 3569 4081 
Q 3175 4231 2741 4231 
Q 1884 4231 1454 3753 
Q 1025 3275 1025 2328 
Q 1025 1384 1454 906 
Q 1884 428 2741 428 
Q 3075 428 3337 486 
Q 3600 544 3809 666 
z
" transform="scale(0.015625)"/>
       <path id="DejaVuSans-65" d="M 3597 1894 
L 3597 1613 
L 953 1613 
Q 991 1019 1311 708 
Q 1631 397 2203 397 
Q 2534 397 2845 478 
Q 3156 559 3463 722 
L 3463 178 
Q 3153 47 2828 -22 
Q 2503 -91 2169 -91 
Q 1331 -91 842 396 
Q 353 884 353 1716 
Q 353 2575 817 3079 
Q 1281 3584 2069 3584 
Q 2775 3584 3186 3129 
Q 3597 2675 3597 1894 
z
M 3022 2063 
Q 3016 2534 2758 2815 
Q 2500 3097 2075 3097 
Q 1594 3097 1305 2825 
Q 1016 2553 972 2059 
L 3022 2063 
z
" transform="scale(0.015625)"/>
       <path id="DejaVuSans-6e" d="M 3513 2113 
L 3513 0 
L 2938 0 
L 2938 2094 
Q 2938 2591 2744 2837 
Q 2550 3084 2163 3084 
Q 1697 3084 1428 2787 
Q 1159 2491 1159 1978 
L 1159 0 
L 581 0 
L 581 3500 
L 1159 3500 
L 1159 2956 
Q 1366 3272 1645 3428 
Q 1925 3584 2291 3584 
Q 2894 3584 3203 3211 
Q 3513 2838 3513 2113 
z
" transform="scale(0.015625)"/>
       <path id="DejaVuSans-72" d="M 2631 2963 
Q 2534 3019 2420 3045 
Q 2306 3072 2169 3072 
Q 1681 3072 1420 2755 
Q 1159 2438 1159 1844 
L 1159 0 
L 581 0 
L 581 3500 
L 1159 3500 
L 1159 2956 
Q 1341 3275 1631 3429 
Q 1922 3584 2338 3584 
Q 2397 3584 2469 3576 
Q 2541 3569 2628 3553 
L 2631 2963 
z
" transform="scale(0.015625)"/>
       <path id="DejaVuSans-61" d="M 2194 1759 
Q 1497 1759 1228 1600 
Q 959 1441 959 1056 
Q 959 750 1161 570 
Q 1363 391 1709 391 
Q 2188 391 2477 730 
Q 2766 1069 2766 1631 
L 2766 1759 
L 2194 1759 
z
M 3341 1997 
L 3341 0 
L 2766 0 
L 2766 531 
Q 2569 213 2275 61 
Q 1981 -91 1556 -91 
Q 1019 -91 701 211 
Q 384 513 384 1019 
Q 384 1609 779 1909 
Q 1175 2209 1959 2209 
L 2766 2209 
L 2766 2266 
Q 2766 2663 2505 2880 
Q 2244 3097 1772 3097 
Q 1472 3097 1187 3025 
Q 903 2953 641 2809 
L 641 3341 
Q 956 3463 1253 3523 
Q 1550 3584 1831 3584 
Q 2591 3584 2966 3190 
Q 3341 2797 3341 1997 
z
" transform="scale(0.015625)"/>
       <path id="DejaVuSans-74" d="M 1172 4494 
L 1172 3500 
L 2356 3500 
L 2356 3053 
L 1172 3053 
L 1172 1153 
Q 1172 725 1289 603 
Q 1406 481 1766 481 
L 2356 481 
L 2356 0 
L 1766 0 
Q 1100 0 847 248 
Q 594 497 594 1153 
L 594 3053 
L 172 3053 
L 172 3500 
L 594 3500 
L 594 4494 
L 1172 4494 
z
" transform="scale(0.015625)"/>
       <path id="DejaVuSans-69" d="M 603 3500 
L 1178 3500 
L 1178 0 
L 603 0 
L 603 3500 
z
M 603 4863 
L 1178 4863 
L 1178 4134 
L 603 4134 
L 603 4863 
z
" transform="scale(0.015625)"/>
       <path id="DejaVuSans-6f" d="M 1959 3097 
Q 1497 3097 1228 2736 
Q 959 2375 959 1747 
Q 959 1119 1226 758 
Q 1494 397 1959 397 
Q 2419 397 2687 759 
Q 2956 1122 2956 1747 
Q 2956 2369 2687 2733 
Q 2419 3097 1959 3097 
z
M 1959 3584 
Q 2709 3584 3137 3096 
Q 3566 2609 3566 1747 
Q 3566 888 3137 398 
Q 2709 -91 1959 -91 
Q 1206 -91 779 398 
Q 353 888 353 1747 
Q 353 2609 779 3096 
Q 1206 3584 1959 3584 
z
" transform="scale(0.015625)"/>
       <path id="DejaVuSans-73" d="M 2834 3397 
L 2834 2853 
Q 2591 2978 2328 3040 
Q 2066 3103 1784 3103 
Q 1356 3103 1142 2972 
Q 928 2841 928 2578 
Q 928 2378 1081 2264 
Q 1234 2150 1697 2047 
L 1894 2003 
Q 2506 1872 2764 1633 
Q 3022 1394 3022 966 
Q 3022 478 2636 193 
Q 2250 -91 1575 -91 
Q 1294 -91 989 -36 
Q 684 19 347 128 
L 347 722 
Q 666 556 975 473 
Q 1284 391 1588 391 
Q 1994 391 2212 530 
Q 2431 669 2431 922 
Q 2431 1156 2273 1281 
Q 2116 1406 1581 1522 
L 1381 1569 
Q 847 1681 609 1914 
Q 372 2147 372 2553 
Q 372 3047 722 3315 
Q 1072 3584 1716 3584 
Q 2034 3584 2315 3537 
Q 2597 3491 2834 3397 
z
" transform="scale(0.015625)"/>
      </defs>
      <use xlink:href="#DejaVuSans-47"/>
      <use xlink:href="#DejaVuSans-65" x="77.490234"/>
      <use xlink:href="#DejaVuSans-6e" x="139.013672"/>
      <use xlink:href="#DejaVuSans-65" x="202.392578"/>
      <use xlink:href="#DejaVuSans-72" x="263.916016"/>
      <use xlink:href="#DejaVuSans-61" x="305.029297"/>
      <use xlink:href="#DejaVuSans-74" x="366.308594"/>
      <use xlink:href="#DejaVuSans-69" x="405.517578"/>
      <use xlink:href="#DejaVuSans-6f" x="433.300781"/>
      <use xlink:href="#DejaVuSans-6e" x="494.482422"/>
      <use xlink:href="#DejaVuSans-73" x="557.861328"/>
     </g>
    </g>
   </g>
   <g id="matplotlib.axis_2">
    <g id="ytick_1">
     <g id="line2d_13">
      <path d="M 57.6 304.632095 
L 414.72 304.632095 
" clip-path="url(#p54765c8da3)" style="fill: none; stroke: #b0b0b0; stroke-width: 0.8; stroke-linecap: square"/>
     </g>
     <g id="line2d_14">
      <defs>
       <path id="mbc0942c2ce" d="M 0 0 
L -3.5 0 
" style="stroke: #000000; stroke-width: 0.8"/>
      </defs>
      <g>
       <use xlink:href="#mbc0942c2ce" x="57.6" y="304.632095" style="stroke: #000000; stroke-width: 0.8"/>
      </g>
     </g>
     <g id="text_8">
      <!-- −500 -->
      <g transform="translate(23.132812 308.431314) scale(0.1 -0.1)">
       <defs>
        <path id="DejaVuSans-2212" d="M 678 2272 
L 4684 2272 
L 4684 1741 
L 678 1741 
L 678 2272 
z
" transform="scale(0.015625)"/>
       </defs>
       <use xlink:href="#DejaVuSans-2212"/>
       <use xlink:href="#DejaVuSans-35" x="83.789062"/>
       <use xlink:href="#DejaVuSans-30" x="147.412109"/>
       <use xlink:href="#DejaVuSans-30" x="211.035156"/>
      </g>
     </g>
    </g>
    <g id="ytick_2">
     <g id="line2d_15">
      <path d="M 57.6 269.410178 
L 414.72 269.410178 
" clip-path="url(#p54765c8da3)" style="fill: none; stroke: #b0b0b0; stroke-width: 0.8; stroke-linecap: square"/>
     </g>
     <g id="line2d_16">
      <g>
       <use xlink:href="#mbc0942c2ce" x="57.6" y="269.410178" style="stroke: #000000; stroke-width: 0.8"/>
      </g>
     </g>
     <g id="text_9">
      <!-- 0 -->
      <g transform="translate(44.2375 273.209397) scale(0.1 -0.1)">
       <use xlink:href="#DejaVuSans-30"/>
      </g>
     </g>
    </g>
    <g id="ytick_3">
     <g id="line2d_17">
      <path d="M 57.6 234.188261 
L 414.72 234.188261 
" clip-path="url(#p54765c8da3)" style="fill: none; stroke: #b0b0b0; stroke-width: 0.8; stroke-linecap: square"/>
     </g>
     <g id="line2d_18">
      <g>
       <use xlink:href="#mbc0942c2ce" x="57.6" y="234.188261" style="stroke: #000000; stroke-width: 0.8"/>
      </g>
     </g>
     <g id="text_10">
      <!-- 500 -->
      <g transform="translate(31.5125 237.98748) scale(0.1 -0.1)">
       <use xlink:href="#DejaVuSans-35"/>
       <use xlink:href="#DejaVuSans-30" x="63.623047"/>
       <use xlink:href="#DejaVuSans-30" x="127.246094"/>
      </g>
     </g>
    </g>
    <g id="ytick_4">
     <g id="line2d_19">
      <path d="M 57.6 198.966344 
L 414.72 198.966344 
" clip-path="url(#p54765c8da3)" style="fill: none; stroke: #b0b0b0; stroke-width: 0.8; stroke-linecap: square"/>
     </g>
     <g id="line2d_20">
      <g>
       <use xlink:href="#mbc0942c2ce" x="57.6" y="198.966344" style="stroke: #000000; stroke-width: 0.8"/>
      </g>
     </g>
     <g id="text_11">
      <!-- 1000 -->
      <g transform="translate(25.15 202.765563) scale(0.1 -0.1)">
       <use xlink:href="#DejaVuSans-31"/>
       <use xlink:href="#DejaVuSans-30" x="63.623047"/>
       <use xlink:href="#DejaVuSans-30" x="127.246094"/>
       <use xlink:href="#DejaVuSans-30" x="190.869141"/>
      </g>
     </g>
    </g>
    <g id="ytick_5">
     <g id="line2d_21">
      <path d="M 57.6 163.744427 
L 414.72 163.744427 
" clip-path="url(#p54765c8da3)" style="fill: none; stroke: #b0b0b0; stroke-width: 0.8; stroke-linecap: square"/>
     </g>
     <g id="line2d_22">
      <g>
       <use xlink:href="#mbc0942c2ce" x="57.6" y="163.744427" style="stroke: #000000; stroke-width: 0.8"/>
      </g>
     </g>
     <g id="text_12">
      <!-- 1500 -->
      <g transform="translate(25.15 167.543646) scale(0.1 -0.1)">
       <use xlink:href="#DejaVuSans-31"/>
       <use xlink:href="#DejaVuSans-35" x="63.623047"/>
       <use xlink:href="#DejaVuSans-30" x="127.246094"/>
       <use xlink:href="#DejaVuSans-30" x="190.869141"/>
      </g>
     </g>
    </g>
    <g id="ytick_6">
     <g id="line2d_23">
      <path d="M 57.6 128.52251 
L 414.72 128.52251 
" clip-path="url(#p54765c8da3)" style="fill: none; stroke: #b0b0b0; stroke-width: 0.8; stroke-linecap: square"/>
     </g>
     <g id="line2d_24">
      <g>
       <use xlink:href="#mbc0942c2ce" x="57.6" y="128.52251" style="stroke: #000000; stroke-width: 0.8"/>
      </g>
     </g>
     <g id="text_13">
      <!-- 2000 -->
      <g transform="translate(25.15 132.321729) scale(0.1 -0.1)">
       <use xlink:href="#DejaVuSans-32"/>
       <use xlink:href="#DejaVuSans-30" x="63.623047"/>
       <use xlink:href="#DejaVuSans-30" x="127.246094"/>
       <use xlink:href="#DejaVuSans-30" x="190.869141"/>
      </g>
     </g>
    </g>
    <g id="ytick_7">
     <g id="line2d_25">
      <path d="M 57.6 93.300593 
L 414.72 93.300593 
" clip-path="url(#p54765c8da3)" style="fill: none; stroke: #b0b0b0; stroke-width: 0.8; stroke-linecap: square"/>
     </g>
     <g id="line2d_26">
      <g>
       <use xlink:href="#mbc0942c2ce" x="57.6" y="93.300593" style="stroke: #000000; stroke-width: 0.8"/>
      </g>
     </g>
     <g id="text_14">
      <!-- 2500 -->
      <g transform="translate(25.15 97.099812) scale(0.1 -0.1)">
       <use xlink:href="#DejaVuSans-32"/>
       <use xlink:href="#DejaVuSans-35" x="63.623047"/>
       <use xlink:href="#DejaVuSans-30" x="127.246094"/>
       <use xlink:href="#DejaVuSans-30" x="190.869141"/>
      </g>
     </g>
    </g>
    <g id="ytick_8">
     <g id="line2d_27">
      <path d="M 57.6 58.078677 
L 414.72 58.078677 
" clip-path="url(#p54765c8da3)" style="fill: none; stroke: #b0b0b0; stroke-width: 0.8; stroke-linecap: square"/>
     </g>
     <g id="line2d_28">
      <g>
       <use xlink:href="#mbc0942c2ce" x="57.6" y="58.078677" style="stroke: #000000; stroke-width: 0.8"/>
      </g>
     </g>
     <g id="text_15">
      <!-- 3000 -->
      <g transform="translate(25.15 61.877895) scale(0.1 -0.1)">
       <use xlink:href="#DejaVuSans-33"/>
       <use xlink:href="#DejaVuSans-30" x="63.623047"/>
       <use xlink:href="#DejaVuSans-30" x="127.246094"/>
       <use xlink:href="#DejaVuSans-30" x="190.869141"/>
      </g>
     </g>
    </g>
    <g id="text_16">
     <!-- Fitness -->
     <g transform="translate(17.053125 191.845187) rotate(-90) scale(0.1 -0.1)">
      <defs>
       <path id="DejaVuSans-46" d="M 628 4666 
L 3309 4666 
L 3309 4134 
L 1259 4134 
L 1259 2759 
L 3109 2759 
L 3109 2228 
L 1259 2228 
L 1259 0 
L 628 0 
L 628 4666 
z
" transform="scale(0.015625)"/>
      </defs>
      <use xlink:href="#DejaVuSans-46"/>
      <use xlink:href="#DejaVuSans-69" x="50.269531"/>
      <use xlink:href="#DejaVuSans-74" x="78.052734"/>
      <use xlink:href="#DejaVuSans-6e" x="117.261719"/>
      <use xlink:href="#DejaVuSans-65" x="180.640625"/>
      <use xlink:href="#DejaVuSans-73" x="242.164062"/>
      <use xlink:href="#DejaVuSans-73" x="294.263672"/>
     </g>
    </g>
   </g>
   <g id="line2d_29">
    <path d="M 73.832727 269.410178 
L 74.483338 269.318557 
L 75.133948 268.939274 
L 75.784558 269.130191 
L 76.435169 268.233011 
L 77.085779 267.766573 
L 78.386999 267.331425 
L 79.03761 266.625769 
L 79.68822 267.971287 
L 80.33883 266.902539 
L 80.989441 267.726027 
L 81.640051 267.084248 
L 82.290661 267.435717 
L 82.941272 268.903594 
L 84.242492 267.910264 
L 84.893103 267.834967 
L 86.194323 261.091297 
L 86.844934 259.809264 
L 87.495544 257.293616 
L 88.146154 260.900042 
L 88.796764 257.332375 
L 89.447375 251.994506 
L 90.097985 255.406654 
L 90.748595 256.492976 
L 91.399206 255.639438 
L 92.049816 251.194092 
L 92.700426 257.502769 
L 93.351037 253.271607 
L 94.001647 252.476979 
L 94.652257 251.941856 
L 95.302868 255.573777 
L 95.953478 252.757714 
L 96.604088 254.999365 
L 97.254698 252.101428 
L 97.905309 252.145807 
L 98.555919 254.909727 
L 99.206529 253.184421 
L 99.85714 252.595453 
L 100.50775 251.645039 
L 101.15836 252.644271 
L 101.808971 251.752867 
L 102.459581 254.467775 
L 103.110191 251.382551 
L 103.760802 252.18571 
L 104.411412 253.770132 
L 105.062022 254.232035 
L 105.712633 252.135625 
L 106.363243 252.546991 
L 107.013853 253.384995 
L 107.664463 251.547579 
L 108.315074 252.229938 
L 108.965684 252.127704 
L 109.616294 253.234427 
L 110.266905 252.506628 
L 110.917515 252.161594 
L 111.568125 251.165385 
L 112.218736 251.616684 
L 112.869346 251.906995 
L 113.519956 251.632703 
L 114.170567 251.628869 
L 114.821177 253.093365 
L 115.471787 253.23492 
L 116.122398 253.248631 
L 116.773008 252.71578 
L 117.423618 251.455012 
L 118.074228 252.1502 
L 118.724839 253.114585 
L 119.375449 252.736182 
L 120.026059 254.383782 
L 120.67667 251.21676 
L 121.32728 253.914828 
L 121.97789 253.270749 
L 122.628501 252.952962 
L 123.279111 252.901757 
L 123.929721 251.63787 
L 124.580332 252.360928 
L 125.230942 252.664796 
L 125.881552 252.747649 
L 127.182773 252.29414 
L 127.833383 253.793857 
L 128.483993 252.564013 
L 129.134604 252.717099 
L 129.785214 251.91864 
L 130.435824 254.230286 
L 131.086435 255.133814 
L 131.737045 252.315092 
L 132.387655 252.128276 
L 133.038266 252.790562 
L 133.688876 251.977885 
L 134.339486 252.525681 
L 134.990097 252.14064 
L 135.640707 253.048678 
L 136.291317 251.311636 
L 136.941927 252.766926 
L 137.592538 252.143467 
L 138.243148 252.154512 
L 138.893758 253.219055 
L 139.544369 253.023079 
L 140.194979 252.349621 
L 140.845589 252.126525 
L 141.4962 252.843762 
L 142.14681 252.627689 
L 142.79742 252.891389 
L 144.098641 252.719237 
L 144.749251 252.59003 
L 145.399862 252.865669 
L 146.050472 252.74682 
L 146.701082 252.799778 
L 147.351692 254.419271 
L 148.002303 252.451411 
L 148.652913 257.262732 
L 149.303523 252.875146 
L 149.954134 251.89342 
L 150.604744 252.830568 
L 151.255354 251.889629 
L 151.905965 251.740842 
L 152.556575 252.601967 
L 153.207185 251.932781 
L 153.857796 253.225742 
L 154.508406 253.315593 
L 155.159016 253.09195 
L 155.809627 253.541055 
L 156.460237 253.136185 
L 157.761457 252.54933 
L 158.412068 251.996849 
L 159.062678 252.216646 
L 159.713288 253.271909 
L 160.363899 252.307618 
L 161.014509 255.190819 
L 161.665119 253.980454 
L 162.31573 253.084707 
L 162.96634 252.818473 
L 163.61695 252.091558 
L 164.267561 252.684619 
L 164.918171 254.00995 
L 165.568781 252.037031 
L 166.219392 253.002216 
L 166.870002 253.463457 
L 167.520612 251.955156 
L 168.171222 252.073718 
L 168.821833 253.304081 
L 169.472443 253.680382 
L 170.123053 254.8875 
L 170.773664 252.972964 
L 171.424274 252.298461 
L 172.074884 252.532828 
L 172.725495 252.516288 
L 173.376105 253.396325 
L 174.677326 252.407752 
L 175.327936 250.658989 
L 175.978546 252.466548 
L 176.629156 252.742798 
L 177.279767 251.595086 
L 177.930377 251.816128 
L 178.580987 252.17892 
L 179.231598 252.744866 
L 179.882208 252.45032 
L 180.532818 251.683402 
L 181.183429 252.002359 
L 182.484649 253.266253 
L 183.78587 251.51036 
L 184.43648 251.53625 
L 185.087091 253.102329 
L 185.737701 252.347939 
L 186.388311 252.237783 
L 187.038921 252.490734 
L 187.689532 253.428504 
L 188.340142 252.818194 
L 188.990752 251.511265 
L 189.641363 253.163173 
L 190.291973 251.510015 
L 190.942583 252.268118 
L 191.593194 251.671129 
L 192.243804 252.729827 
L 192.894414 252.682546 
L 193.545025 254.179286 
L 194.195635 253.550422 
L 195.496856 253.915668 
L 196.147466 252.862498 
L 197.448686 252.656022 
L 198.099297 252.09755 
L 198.749907 252.319524 
L 199.400517 251.273056 
L 200.051128 251.741161 
L 200.701738 253.093269 
L 201.352348 252.152376 
L 202.653569 253.421416 
L 203.304179 252.272459 
L 203.95479 251.582112 
L 204.6054 254.924345 
L 205.25601 251.82378 
L 205.906621 253.600966 
L 206.557231 253.374635 
L 207.207841 252.342732 
L 207.858451 253.20688 
L 208.509062 252.506534 
L 209.159672 252.979526 
L 209.810282 251.262081 
L 211.111503 254.274248 
L 211.762113 252.115689 
L 212.412724 252.315835 
L 213.063334 251.178167 
L 213.713944 252.011535 
L 214.364555 252.130724 
L 215.015165 251.576888 
L 215.665775 252.970287 
L 216.316385 252.976052 
L 216.966996 253.192814 
L 217.617606 252.287905 
L 218.268216 254.906153 
L 219.569437 251.596473 
L 220.220047 252.612933 
L 220.870658 253.270918 
L 221.521268 252.327981 
L 222.171878 252.920416 
L 222.822489 252.764381 
L 223.473099 252.151423 
L 224.123709 252.20702 
L 224.77432 252.39198 
L 225.42493 252.93336 
L 227.376761 252.40129 
L 228.027371 251.516319 
L 228.677981 252.342518 
L 230.629812 252.142961 
L 231.280423 252.7875 
L 231.931033 252.011301 
L 232.581643 252.288896 
L 233.232254 252.804142 
L 233.882864 251.999879 
L 234.533474 252.531484 
L 235.184085 251.220393 
L 235.834695 251.887579 
L 236.485305 252.895237 
L 237.135915 251.60874 
L 237.786526 251.613736 
L 238.437136 252.952974 
L 239.087746 251.668069 
L 239.738357 251.439993 
L 240.388967 252.050391 
L 241.039577 251.850817 
L 241.690188 252.134094 
L 242.991408 251.718595 
L 243.642019 251.142414 
L 244.943239 254.357636 
L 246.24446 251.731573 
L 246.89507 252.227763 
L 247.54568 252.195278 
L 248.196291 251.954649 
L 248.846901 251.434256 
L 249.497511 251.612544 
L 250.148122 253.510399 
L 250.798732 252.894764 
L 251.449342 252.719569 
L 252.099953 252.000778 
L 252.750563 251.607935 
L 253.401173 252.41922 
L 254.051784 252.92932 
L 254.702394 252.808376 
L 255.353004 252.055247 
L 256.003615 253.021614 
L 256.654225 252.152242 
L 257.304835 252.957765 
L 258.606056 252.88222 
L 259.256666 251.997021 
L 259.907276 252.581184 
L 260.557887 251.798308 
L 261.208497 253.657836 
L 261.859107 252.807525 
L 262.509718 252.933612 
L 263.160328 252.742896 
L 265.112159 253.175297 
L 265.762769 253.073512 
L 266.413379 252.524141 
L 267.06399 252.700381 
L 268.36521 252.545732 
L 269.015821 253.20465 
L 269.666431 253.301039 
L 270.317041 253.144581 
L 270.967652 252.686993 
L 271.618262 253.789179 
L 272.268872 254.515959 
L 272.919483 252.904205 
L 273.570093 252.02879 
L 274.220703 251.603033 
L 274.871314 252.058163 
L 275.521924 251.709526 
L 276.172534 251.77399 
L 276.823144 252.320048 
L 277.473755 253.210138 
L 278.124365 252.483308 
L 278.774975 253.135587 
L 279.425586 251.450995 
L 280.076196 253.685859 
L 280.726806 252.390805 
L 281.377417 252.022055 
L 282.028027 252.136813 
L 282.678637 252.901262 
L 283.329248 251.402693 
L 283.979858 252.716803 
L 284.630468 252.141427 
L 285.281079 252.187151 
L 285.931689 252.376976 
L 286.582299 252.895457 
L 287.232909 252.574426 
L 287.88352 251.944187 
L 288.53413 253.338093 
L 289.18474 252.097322 
L 289.835351 255.205757 
L 290.485961 252.410004 
L 291.136571 253.30493 
L 291.787182 253.05554 
L 292.437792 251.483039 
L 293.088402 252.719703 
L 293.739013 251.527007 
L 294.389623 251.033252 
L 295.040233 251.662959 
L 295.690844 251.803177 
L 296.341454 252.682036 
L 296.992064 252.802373 
L 297.642674 254.629074 
L 298.293285 251.630188 
L 298.943895 252.795695 
L 299.594505 251.062332 
L 300.245116 252.003176 
L 300.895726 252.064041 
L 301.546336 252.522899 
L 302.196947 252.138695 
L 302.847557 250.814502 
L 303.498167 253.341305 
L 304.148778 253.093547 
L 304.799388 252.54643 
L 305.449998 254.552667 
L 306.100608 251.240694 
L 306.751219 253.168504 
L 307.401829 252.433664 
L 308.052439 252.058932 
L 308.70305 253.902334 
L 309.35366 253.244715 
L 310.00427 252.302186 
L 310.654881 252.12742 
L 311.956101 253.363148 
L 312.606712 252.059553 
L 313.257322 252.548077 
L 313.907932 252.388185 
L 314.558543 253.476666 
L 315.209153 252.066651 
L 315.859763 253.168445 
L 316.510373 252.376479 
L 317.160984 253.801179 
L 317.811594 253.02361 
L 318.462204 252.545407 
L 319.112815 253.801184 
L 320.414035 253.132976 
L 321.064646 251.598688 
L 321.715256 252.884279 
L 322.365866 251.985467 
L 323.016477 252.41762 
L 323.667087 253.613701 
L 324.317697 251.933002 
L 325.618918 252.627936 
L 326.269528 254.404336 
L 326.920138 252.717894 
L 327.570749 252.355653 
L 328.221359 254.508775 
L 328.871969 252.816984 
L 329.52258 252.572355 
L 330.8238 252.381337 
L 331.474411 250.830495 
L 332.125021 252.936031 
L 332.775631 253.817423 
L 333.426242 251.844785 
L 334.076852 252.805185 
L 334.727462 252.177127 
L 335.378073 253.266641 
L 336.028683 252.69612 
L 336.679293 251.812998 
L 337.329903 252.775129 
L 337.980514 251.964212 
L 338.631124 253.187077 
L 339.281734 251.389086 
L 339.932345 252.29695 
L 340.582955 252.718443 
L 341.233565 251.341097 
L 341.884176 253.785782 
L 342.534786 251.765777 
L 343.185396 251.978329 
L 343.836007 252.814251 
L 344.486617 252.373465 
L 345.137227 252.57438 
L 345.787837 252.915593 
L 346.438448 251.929181 
L 347.089058 253.949024 
L 347.739668 251.93013 
L 348.390279 252.69664 
L 349.040889 252.50423 
L 349.691499 253.158769 
L 350.34211 252.570874 
L 350.99272 251.802271 
L 351.64333 252.001073 
L 352.293941 252.046801 
L 352.944551 252.886921 
L 353.595161 254.557375 
L 354.245772 253.027541 
L 354.896382 251.818896 
L 355.546992 253.060536 
L 356.197602 251.764115 
L 356.848213 251.974844 
L 357.498823 253.161442 
L 358.149433 253.052211 
L 358.800044 252.579295 
L 359.450654 253.820951 
L 360.751875 251.67215 
L 361.402485 252.770483 
L 362.053095 250.618531 
L 362.703706 251.832399 
L 363.354316 255.119448 
L 364.004926 251.770751 
L 365.306147 251.627624 
L 365.956757 253.086316 
L 366.607367 255.417256 
L 367.257978 250.92117 
L 367.908588 253.45819 
L 368.559198 251.393562 
L 369.209809 252.120193 
L 369.860419 251.528773 
L 370.511029 253.641654 
L 371.16164 251.151864 
L 371.81225 251.98476 
L 372.46286 254.456378 
L 373.113471 253.748263 
L 373.764081 251.868505 
L 374.414691 251.314608 
L 375.065302 255.383482 
L 375.715912 252.334482 
L 376.366522 252.714385 
L 377.017132 252.390821 
L 377.667743 253.18558 
L 378.968963 251.921549 
L 379.619574 251.961219 
L 380.270184 252.64196 
L 380.920794 251.948979 
L 381.571405 252.517904 
L 382.222015 252.659989 
L 383.523236 251.443013 
L 384.173846 252.145802 
L 384.824456 251.911367 
L 385.475066 252.617354 
L 386.125677 252.446774 
L 386.776287 252.410925 
L 387.426897 252.628493 
L 388.077508 252.012346 
L 388.728118 253.66131 
L 389.378728 252.390809 
L 390.029339 251.385209 
L 390.679949 252.785668 
L 391.330559 252.300047 
L 391.98117 253.936552 
L 392.63178 252.034006 
L 393.28239 252.197569 
L 393.933001 253.036282 
L 394.583611 252.819732 
L 395.234221 252.010315 
L 395.884831 251.425367 
L 396.535442 251.416112 
L 397.836662 252.311467 
L 398.487273 252.339058 
L 398.487273 252.339058 
" clip-path="url(#p54765c8da3)" style="fill: none; stroke: #0000ff; stroke-width: 1.5; stroke-linecap: square"/>
   </g>
   <g id="line2d_30">
    <path d="M 73.832727 269.410178 
L 74.483338 269.9599 
L 75.133948 271.663644 
L 75.784558 270.239352 
L 76.435169 272.147033 
L 77.085779 271.00871 
L 77.736389 272.26993 
L 78.386999 272.528863 
L 79.03761 275.184044 
L 79.68822 271.882361 
L 80.33883 273.772822 
L 80.989441 272.267481 
L 81.640051 272.201734 
L 82.290661 271.529632 
L 82.941272 270.429174 
L 83.591882 271.478048 
L 84.242492 271.80675 
L 84.893103 271.734908 
L 85.543713 284.882076 
L 86.194323 286.586325 
L 86.844934 287.454036 
L 87.495544 289.800404 
L 88.146154 284.055805 
L 88.796764 295.488 
L 89.447375 286.442081 
L 90.097985 292.365973 
L 90.748595 285.509513 
L 91.399206 289.293201 
L 92.049816 289.716485 
L 92.700426 284.895237 
L 93.351037 284.954088 
L 94.001647 284.253596 
L 94.652257 279.766571 
L 95.302868 279.090522 
L 95.953478 277.62323 
L 96.604088 277.956213 
L 97.254698 281.869352 
L 97.905309 277.668665 
L 98.555919 280.516543 
L 99.206529 280.009209 
L 99.85714 283.431056 
L 100.50775 279.931766 
L 101.15836 275.08906 
L 101.808971 287.26324 
L 102.459581 274.976243 
L 103.110191 280.598896 
L 103.760802 280.710679 
L 104.411412 278.008662 
L 105.062022 279.043166 
L 105.712633 279.406203 
L 106.363243 274.371293 
L 107.013853 276.095914 
L 107.664463 283.409727 
L 108.315074 279.675379 
L 108.965684 276.832722 
L 109.616294 275.632451 
L 110.266905 279.2581 
L 110.917515 276.48775 
L 111.568125 278.958527 
L 112.218736 276.146687 
L 112.869346 276.804138 
L 113.519956 283.387265 
L 114.170567 280.476761 
L 114.821177 272.722205 
L 116.122398 278.393196 
L 116.773008 279.121887 
L 117.423618 278.856623 
L 118.724839 274.570922 
L 119.375449 275.621885 
L 120.026059 276.261352 
L 120.67667 281.180243 
L 121.32728 273.692523 
L 121.97789 290.764103 
L 122.628501 273.429441 
L 123.279111 279.190013 
L 123.929721 278.955886 
L 124.580332 278.240585 
L 125.230942 273.950057 
L 125.881552 272.112458 
L 126.532163 274.768861 
L 127.182773 275.258058 
L 127.833383 274.924957 
L 128.483993 276.653234 
L 129.134604 272.722438 
L 129.785214 275.603499 
L 130.435824 272.226126 
L 131.086435 274.954596 
L 132.387655 282.3291 
L 133.038266 276.585254 
L 133.688876 276.384045 
L 134.339486 272.96217 
L 134.990097 277.352717 
L 135.640707 276.298149 
L 136.291317 278.370656 
L 136.941927 277.62669 
L 137.592538 285.258269 
L 138.243148 280.647848 
L 138.893758 274.634234 
L 139.544369 276.768637 
L 140.194979 274.682363 
L 140.845589 276.171047 
L 141.4962 275.554715 
L 142.14681 275.273462 
L 142.79742 274.010399 
L 143.448031 284.63788 
L 144.098641 272.658662 
L 144.749251 277.994765 
L 145.399862 277.290422 
L 146.050472 279.546288 
L 146.701082 279.726854 
L 147.351692 281.259247 
L 148.002303 271.553692 
L 148.652913 276.54488 
L 149.303523 278.948183 
L 149.954134 280.007302 
L 150.604744 280.559758 
L 151.255354 277.145095 
L 152.556575 277.00671 
L 153.207185 272.931262 
L 154.508406 282.212404 
L 155.159016 276.442046 
L 155.809627 278.01301 
L 156.460237 275.3873 
L 157.110847 274.753743 
L 157.761457 278.735939 
L 158.412068 278.541186 
L 159.062678 276.290609 
L 159.713288 278.427904 
L 160.363899 276.084514 
L 161.014509 274.306022 
L 161.665119 277.622888 
L 162.31573 271.16759 
L 162.96634 272.570073 
L 163.61695 278.356233 
L 164.267561 280.661843 
L 164.918171 272.358408 
L 165.568781 278.568256 
L 166.219392 274.006332 
L 166.870002 274.746467 
L 167.520612 275.863182 
L 168.171222 279.914237 
L 168.821833 273.633212 
L 169.472443 271.115745 
L 170.123053 272.086526 
L 170.773664 276.127127 
L 171.424274 279.453623 
L 172.074884 274.209305 
L 172.725495 275.453363 
L 173.376105 283.563823 
L 174.026715 274.175351 
L 174.677326 274.713021 
L 175.327936 279.473785 
L 175.978546 280.687393 
L 176.629156 274.771098 
L 177.279767 278.562031 
L 177.930377 281.289096 
L 178.580987 271.969146 
L 179.231598 273.573919 
L 179.882208 274.276655 
L 180.532818 276.402643 
L 181.183429 277.749023 
L 181.834039 276.094218 
L 182.484649 277.982361 
L 183.13526 276.731478 
L 183.78587 279.681992 
L 184.43648 281.417319 
L 185.087091 273.050624 
L 185.737701 274.419309 
L 186.388311 274.59282 
L 187.038921 276.407418 
L 187.689532 277.034944 
L 188.340142 276.906208 
L 188.990752 275.078934 
L 189.641363 274.210034 
L 190.291973 278.040419 
L 190.942583 273.994927 
L 191.593194 278.127399 
L 192.243804 274.053601 
L 192.894414 277.583175 
L 193.545025 276.722222 
L 194.195635 277.514627 
L 194.846245 275.107073 
L 195.496856 275.044356 
L 196.147466 275.115005 
L 196.798076 271.486537 
L 197.448686 276.921173 
L 198.099297 278.525256 
L 198.749907 276.327208 
L 199.400517 277.016451 
L 200.701738 281.365199 
L 201.352348 276.053124 
L 202.002959 275.24485 
L 202.653569 282.237199 
L 203.304179 284.954 
L 203.95479 279.005048 
L 204.6054 277.505474 
L 205.25601 276.836146 
L 205.906621 274.645457 
L 206.557231 281.621186 
L 207.207841 275.062042 
L 207.858451 282.905795 
L 208.509062 277.189562 
L 209.159672 279.309479 
L 209.810282 278.403918 
L 210.460893 272.702669 
L 211.111503 271.630883 
L 211.762113 274.920695 
L 212.412724 275.142224 
L 213.063334 282.360112 
L 213.713944 278.608493 
L 214.364555 275.717321 
L 215.015165 280.714141 
L 215.665775 278.026555 
L 216.316385 274.438957 
L 216.966996 277.289687 
L 217.617606 278.937356 
L 218.268216 279.895805 
L 218.918827 272.870394 
L 219.569437 278.010053 
L 220.220047 271.363129 
L 220.870658 274.056493 
L 221.521268 272.800929 
L 222.171878 273.261969 
L 222.822489 276.412441 
L 223.473099 277.934005 
L 224.123709 281.478266 
L 224.77432 276.118475 
L 225.42493 276.062838 
L 226.07554 276.457886 
L 226.72615 275.157173 
L 227.376761 271.7509 
L 228.027371 276.96701 
L 228.677981 277.707764 
L 229.328592 276.06788 
L 229.979202 275.302451 
L 230.629812 275.723063 
L 231.280423 275.787717 
L 232.581643 275.377604 
L 233.232254 276.210359 
L 233.882864 274.928823 
L 234.533474 278.384717 
L 235.184085 279.274437 
L 236.485305 275.750673 
L 237.135915 277.563461 
L 237.786526 279.020419 
L 238.437136 275.957786 
L 239.087746 272.222392 
L 239.738357 275.114977 
L 240.388967 273.668306 
L 241.039577 274.478219 
L 241.690188 274.342726 
L 242.340798 273.770258 
L 242.991408 276.14939 
L 243.642019 275.653518 
L 244.292629 274.447249 
L 244.943239 271.059549 
L 245.59385 272.460182 
L 246.24446 280.187796 
L 246.89507 273.781747 
L 247.54568 276.931745 
L 248.196291 278.227824 
L 248.846901 274.964807 
L 249.497511 276.604385 
L 250.148122 271.998449 
L 250.798732 271.567568 
L 251.449342 276.634373 
L 252.099953 279.526518 
L 252.750563 274.092727 
L 253.401173 271.594484 
L 254.051784 276.512003 
L 254.702394 274.166237 
L 255.353004 275.910249 
L 256.003615 275.637307 
L 257.304835 271.492219 
L 257.955445 274.866929 
L 258.606056 273.316511 
L 259.256666 279.553527 
L 259.907276 276.775142 
L 260.557887 278.328971 
L 261.208497 278.203202 
L 261.859107 275.157262 
L 262.509718 271.039977 
L 263.160328 273.739178 
L 263.810938 274.400905 
L 264.461549 274.624173 
L 265.112159 273.955818 
L 265.762769 270.850943 
L 266.413379 274.560496 
L 267.06399 279.910956 
L 267.7146 271.834877 
L 268.36521 276.831845 
L 269.015821 276.350154 
L 269.666431 272.745239 
L 270.317041 280.881918 
L 270.967652 275.968465 
L 271.618262 279.451943 
L 272.268872 274.871268 
L 272.919483 275.903049 
L 273.570093 277.843532 
L 274.220703 278.4629 
L 274.871314 280.095039 
L 275.521924 277.853889 
L 276.172534 280.569457 
L 276.823144 276.866133 
L 277.473755 282.881581 
L 278.124365 275.089394 
L 278.774975 280.258606 
L 279.425586 275.311335 
L 280.076196 275.135737 
L 280.726806 277.43647 
L 281.377417 276.151868 
L 282.028027 278.383239 
L 282.678637 276.473082 
L 283.329248 277.939134 
L 283.979858 278.922498 
L 284.630468 276.081525 
L 285.281079 275.230697 
L 285.931689 271.915661 
L 286.582299 275.774562 
L 287.232909 274.607059 
L 287.88352 279.550776 
L 288.53413 276.056402 
L 289.18474 274.61708 
L 289.835351 276.57986 
L 290.485961 274.420326 
L 291.136571 279.141567 
L 291.787182 279.743489 
L 292.437792 275.582266 
L 293.088402 273.914313 
L 293.739013 277.796518 
L 294.389623 276.201121 
L 295.040233 278.697588 
L 295.690844 276.889611 
L 296.341454 276.794388 
L 296.992064 274.24863 
L 297.642674 275.27495 
L 298.293285 275.650859 
L 298.943895 273.889347 
L 299.594505 279.885595 
L 300.245116 276.255421 
L 300.895726 278.530319 
L 301.546336 275.44493 
L 302.196947 281.761655 
L 302.847557 282.750958 
L 303.498167 280.715532 
L 304.148778 276.72532 
L 304.799388 277.41239 
L 305.449998 276.593931 
L 306.100608 282.138456 
L 306.751219 277.461613 
L 307.401829 277.309023 
L 308.052439 275.152515 
L 308.70305 279.969307 
L 309.35366 276.495245 
L 310.00427 278.880171 
L 310.654881 276.817563 
L 311.305491 278.722103 
L 312.606712 272.043012 
L 313.257322 278.888438 
L 313.907932 273.068963 
L 314.558543 273.215474 
L 315.209153 277.62863 
L 315.859763 274.965444 
L 316.510373 280.301111 
L 317.160984 277.364592 
L 317.811594 277.748645 
L 318.462204 272.556963 
L 319.112815 271.396755 
L 319.763425 276.651077 
L 320.414035 271.433099 
L 321.064646 278.051701 
L 321.715256 275.528652 
L 322.365866 276.02506 
L 323.016477 279.73369 
L 323.667087 275.807846 
L 324.317697 279.848423 
L 326.269528 274.495256 
L 326.920138 273.048122 
L 328.221359 279.128693 
L 328.871969 276.101492 
L 329.52258 278.004023 
L 330.17319 275.051813 
L 330.8238 275.959214 
L 331.474411 283.255183 
L 332.125021 272.241905 
L 332.775631 278.42424 
L 333.426242 276.371887 
L 334.076852 276.390001 
L 334.727462 274.164705 
L 335.378073 279.912405 
L 336.028683 270.130541 
L 336.679293 278.365267 
L 337.329903 275.386912 
L 337.980514 273.562982 
L 338.631124 277.988534 
L 339.281734 285.636204 
L 339.932345 274.564426 
L 340.582955 275.043618 
L 341.233565 278.677592 
L 341.884176 273.460649 
L 342.534786 281.260588 
L 343.185396 274.679543 
L 343.836007 284.582821 
L 344.486617 275.594341 
L 345.137227 274.928399 
L 345.787837 274.790165 
L 346.438448 277.313197 
L 347.089058 278.948713 
L 347.739668 281.963136 
L 348.390279 277.291656 
L 349.040889 275.179229 
L 349.691499 270.543568 
L 350.34211 275.302704 
L 350.99272 276.016918 
L 352.293941 283.297829 
L 352.944551 274.803001 
L 353.595161 275.039063 
L 354.245772 274.313983 
L 354.896382 277.536968 
L 355.546992 274.498831 
L 356.197602 282.154741 
L 356.848213 275.312279 
L 357.498823 276.405409 
L 358.149433 281.1995 
L 358.800044 276.31152 
L 359.450654 278.483681 
L 360.751875 281.065728 
L 361.402485 276.08391 
L 362.053095 283.64422 
L 362.703706 277.093791 
L 363.354316 279.67313 
L 364.655537 278.542152 
L 365.306147 279.629938 
L 365.956757 274.763694 
L 366.607367 281.133677 
L 367.257978 281.825377 
L 367.908588 285.834524 
L 368.559198 282.557835 
L 369.209809 281.358907 
L 369.860419 285.850475 
L 370.511029 280.536436 
L 371.16164 277.406504 
L 372.46286 281.987318 
L 373.113471 278.300666 
L 373.764081 278.054179 
L 374.414691 280.29836 
L 375.065302 287.628076 
L 375.715912 281.865153 
L 376.366522 278.77111 
L 377.017132 283.536727 
L 377.667743 272.107344 
L 378.318353 273.82944 
L 378.968963 279.270785 
L 379.619574 274.665517 
L 380.270184 273.377192 
L 380.920794 278.016255 
L 381.571405 273.77342 
L 382.222015 273.422393 
L 382.872625 277.214079 
L 383.523236 275.642593 
L 384.173846 279.924139 
L 384.824456 275.471646 
L 385.475066 276.400233 
L 386.125677 283.104959 
L 386.776287 278.996507 
L 387.426897 277.025009 
L 388.077508 279.16515 
L 388.728118 275.10712 
L 389.378728 279.949111 
L 390.029339 281.674025 
L 390.679949 275.348137 
L 391.330559 275.23449 
L 391.98117 271.011285 
L 392.63178 280.739971 
L 393.933001 273.254651 
L 394.583611 277.42208 
L 395.234221 275.397046 
L 395.884831 276.327129 
L 396.535442 279.947988 
L 397.186052 276.135353 
L 397.836662 277.837223 
L 398.487273 272.840458 
L 398.487273 272.840458 
" clip-path="url(#p54765c8da3)" style="fill: none; stroke-dasharray: 9.6,2.4,1.5,2.4; stroke-dashoffset: 0; stroke: #008000; stroke-width: 1.5"/>
   </g>
   <g id="line2d_31">
    <path d="M 73.832727 269.410178 
L 74.483338 268.677214 
L 75.133948 266.214905 
L 75.784558 268.02103 
L 76.435169 264.318989 
L 77.085779 264.524436 
L 77.736389 262.834368 
L 78.386999 262.133988 
L 79.03761 258.067494 
L 79.68822 264.060212 
L 80.33883 260.032256 
L 80.989441 263.184573 
L 81.640051 261.966762 
L 82.290661 263.341803 
L 82.941272 267.378014 
L 83.591882 265.223894 
L 84.242492 264.013778 
L 84.893103 263.935025 
L 85.543713 244.230583 
L 86.194323 235.596269 
L 86.844934 232.164493 
L 87.495544 224.786828 
L 88.146154 237.744278 
L 88.796764 219.176749 
L 89.447375 217.546931 
L 90.097985 218.447335 
L 90.748595 227.476438 
L 91.399206 221.985676 
L 92.049816 212.671699 
L 92.700426 230.1103 
L 93.351037 221.589126 
L 94.001647 220.700363 
L 94.652257 224.117142 
L 95.302868 232.057032 
L 95.953478 227.892197 
L 96.604088 232.042517 
L 97.254698 222.333504 
L 97.905309 226.622949 
L 98.555919 229.302912 
L 99.206529 226.359633 
L 99.85714 221.759851 
L 100.50775 223.358312 
L 101.15836 230.199482 
L 101.808971 216.242493 
L 102.459581 233.959306 
L 103.110191 222.166206 
L 103.760802 223.660742 
L 104.411412 229.531603 
L 105.062022 229.420904 
L 105.712633 224.865047 
L 106.363243 230.722689 
L 107.013853 230.674076 
L 107.664463 219.685431 
L 108.315074 224.784496 
L 108.965684 227.422687 
L 109.616294 230.836403 
L 110.266905 225.755157 
L 110.917515 227.835439 
L 111.568125 223.372243 
L 112.218736 227.086681 
L 112.869346 227.009851 
L 113.519956 219.87814 
L 114.170567 222.780978 
L 114.821177 233.464525 
L 116.122398 228.104066 
L 116.773008 226.309673 
L 117.423618 224.053401 
L 118.074228 227.425918 
L 118.724839 231.658248 
L 119.375449 229.850479 
L 120.026059 232.506212 
L 120.67667 221.253278 
L 121.32728 234.137133 
L 121.97789 215.777396 
L 122.628501 232.476484 
L 123.279111 226.613501 
L 123.929721 224.319854 
L 124.580332 226.481272 
L 125.230942 231.379535 
L 125.881552 233.38284 
L 126.532163 230.288107 
L 127.182773 229.330221 
L 127.833383 232.662756 
L 128.483993 228.474792 
L 129.134604 232.71176 
L 129.785214 228.233781 
L 130.435824 236.234446 
L 131.086435 235.313032 
L 131.737045 226.247079 
L 132.387655 221.927451 
L 133.038266 228.995869 
L 133.688876 227.571724 
L 134.339486 232.089192 
L 134.990097 226.928563 
L 135.640707 229.799208 
L 136.291317 224.252616 
L 136.941927 227.907162 
L 137.592538 219.028665 
L 138.243148 223.661175 
L 138.893758 231.803876 
L 139.544369 229.27752 
L 140.194979 230.016878 
L 140.845589 228.082002 
L 141.4962 230.13281 
L 142.14681 229.981916 
L 142.79742 231.772379 
L 143.448031 220.866427 
L 144.098641 232.779813 
L 144.749251 227.185295 
L 145.399862 228.440916 
L 146.050472 225.947351 
L 146.701082 225.872703 
L 147.351692 227.579294 
L 148.002303 233.34913 
L 148.652913 237.980585 
L 149.303523 226.802108 
L 149.954134 223.779539 
L 151.255354 226.634163 
L 151.905965 226.378285 
L 152.556575 228.197224 
L 153.207185 230.934301 
L 153.857796 229.1941 
L 154.508406 224.418782 
L 155.159016 229.741854 
L 155.809627 229.0691 
L 156.460237 230.88507 
L 157.110847 230.999897 
L 157.761457 226.362721 
L 158.412068 225.452511 
L 159.062678 228.142682 
L 159.713288 228.115913 
L 160.363899 228.530723 
L 161.014509 236.075616 
L 161.665119 230.338019 
L 162.31573 235.001824 
L 162.96634 233.066874 
L 163.61695 225.826883 
L 164.267561 224.707395 
L 164.918171 235.661491 
L 165.568781 225.505805 
L 166.219392 231.998101 
L 166.870002 232.180446 
L 168.171222 224.233199 
L 168.821833 232.97495 
L 169.472443 236.24502 
L 170.123053 237.688474 
L 170.773664 229.818801 
L 171.424274 225.143299 
L 172.074884 230.856351 
L 172.725495 229.579214 
L 173.376105 223.228827 
L 174.026715 231.483716 
L 174.677326 230.102482 
L 175.327936 221.844192 
L 175.978546 224.245703 
L 176.629156 230.714499 
L 177.279767 224.628141 
L 177.930377 222.34316 
L 178.580987 232.388694 
L 179.231598 231.915813 
L 179.882208 230.623986 
L 180.532818 226.964161 
L 181.183429 226.255695 
L 181.834039 229.308748 
L 182.484649 228.550145 
L 183.13526 227.972647 
L 183.78587 223.338727 
L 184.43648 221.655181 
L 185.087091 233.154034 
L 185.737701 230.27657 
L 186.388311 229.882747 
L 187.038921 228.574051 
L 187.689532 229.822064 
L 188.340142 228.730179 
L 188.990752 227.943595 
L 189.641363 232.116311 
L 190.291973 224.979611 
L 190.942583 230.541309 
L 191.593194 225.214859 
L 192.243804 231.406053 
L 192.894414 227.781917 
L 193.545025 231.63635 
L 194.195635 229.586216 
L 194.846245 232.317341 
L 195.496856 232.786981 
L 196.147466 230.609992 
L 196.798076 234.028292 
L 197.448686 228.39087 
L 198.099297 225.669844 
L 198.749907 228.311841 
L 199.400517 225.529661 
L 200.051128 224.320451 
L 200.701738 224.821338 
L 201.352348 228.251628 
L 202.002959 230.382104 
L 203.304179 219.590919 
L 203.95479 224.159176 
L 204.6054 232.343215 
L 205.25601 226.811414 
L 205.906621 232.556476 
L 206.557231 225.128084 
L 207.207841 229.623423 
L 207.858451 223.507964 
L 208.509062 227.823506 
L 209.159672 226.649573 
L 209.810282 224.120244 
L 210.460893 232.713842 
L 211.111503 236.917613 
L 211.762113 229.310682 
L 212.412724 229.489445 
L 213.063334 219.996221 
L 213.713944 225.414578 
L 214.364555 228.544126 
L 215.015165 222.439634 
L 215.665775 227.914019 
L 216.316385 231.513146 
L 216.966996 229.095941 
L 217.617606 225.638455 
L 218.918827 233.488337 
L 219.569437 225.182892 
L 220.220047 233.862737 
L 220.870658 232.485342 
L 221.521268 231.855033 
L 222.171878 232.578863 
L 222.822489 229.116321 
L 223.473099 226.368842 
L 224.123709 222.935773 
L 224.77432 228.665486 
L 225.42493 229.803882 
L 226.07554 229.106367 
L 226.72615 230.276514 
L 227.376761 233.05168 
L 228.027371 226.065628 
L 228.677981 226.977272 
L 229.328592 228.505358 
L 229.979202 229.161573 
L 230.629812 228.562859 
L 231.280423 229.787283 
L 231.931033 228.436344 
L 232.581643 229.200188 
L 233.232254 229.397925 
L 233.882864 229.070935 
L 234.533474 226.678251 
L 235.184085 223.166349 
L 236.485305 230.039801 
L 237.135915 225.654019 
L 237.786526 224.207053 
L 238.437136 229.948162 
L 239.087746 231.113746 
L 239.738357 227.76501 
L 240.388967 230.432477 
L 241.039577 229.223416 
L 241.690188 229.925461 
L 242.340798 230.091074 
L 242.991408 227.287799 
L 243.642019 226.63131 
L 244.292629 231.33514 
L 244.943239 237.655722 
L 245.59385 233.75108 
L 246.24446 223.275351 
L 246.89507 230.673779 
L 247.54568 227.458811 
L 248.196291 225.681473 
L 248.846901 227.903705 
L 249.497511 226.620703 
L 250.148122 235.022349 
L 250.798732 234.221961 
L 251.449342 228.804765 
L 252.099953 224.475037 
L 253.401173 233.243956 
L 254.051784 229.346636 
L 254.702394 231.450514 
L 255.353004 228.200245 
L 256.003615 230.405921 
L 256.654225 230.916909 
L 257.304835 234.423311 
L 257.955445 230.873789 
L 258.606056 232.447929 
L 259.256666 224.440515 
L 259.907276 228.387226 
L 260.557887 225.267644 
L 261.208497 229.11247 
L 261.859107 230.457788 
L 262.509718 234.827246 
L 263.160328 231.746614 
L 263.810938 231.347174 
L 264.461549 231.285463 
L 265.112159 232.394776 
L 265.762769 235.296081 
L 267.06399 225.489806 
L 267.7146 233.415361 
L 268.36521 228.259618 
L 269.015821 230.059147 
L 269.666431 233.856839 
L 270.317041 225.407245 
L 270.967652 229.405522 
L 271.618262 228.126414 
L 272.268872 234.16065 
L 273.570093 226.214048 
L 274.220703 224.743167 
L 274.871314 224.021286 
L 275.521924 225.565162 
L 276.172534 222.978524 
L 276.823144 227.773963 
L 277.473755 223.538695 
L 278.124365 229.877222 
L 278.774975 226.012569 
L 279.425586 227.590655 
L 280.076196 232.235981 
L 280.726806 227.34514 
L 281.377417 227.892243 
L 282.028027 225.890387 
L 282.678637 229.329442 
L 283.329248 224.866253 
L 284.630468 228.20133 
L 285.281079 229.143605 
L 285.931689 232.838292 
L 286.582299 230.016352 
L 287.232909 230.541794 
L 287.88352 224.337597 
L 288.53413 230.619784 
L 289.18474 229.577565 
L 289.835351 233.831653 
L 291.136571 227.468293 
L 291.787182 226.367592 
L 292.437792 227.383811 
L 293.088402 231.525093 
L 293.739013 225.257496 
L 294.389623 225.865384 
L 295.040233 224.628329 
L 296.341454 228.569685 
L 297.642674 233.983198 
L 298.293285 227.609517 
L 298.943895 231.702042 
L 299.594505 222.23907 
L 300.245116 227.75093 
L 300.895726 225.597763 
L 301.546336 229.600867 
L 302.196947 222.515736 
L 302.847557 218.878047 
L 303.498167 225.967078 
L 304.148778 229.461775 
L 304.799388 227.68047 
L 305.449998 232.511403 
L 306.100608 220.342931 
L 306.751219 228.875394 
L 307.401829 227.558305 
L 308.052439 228.965349 
L 308.70305 227.83536 
L 309.35366 229.994185 
L 310.00427 225.724202 
L 310.654881 227.437278 
L 311.305491 226.634852 
L 311.956101 231.315578 
L 312.606712 232.076094 
L 313.257322 226.207717 
L 313.907932 231.707407 
L 314.558543 233.737858 
L 315.209153 226.504672 
L 315.859763 231.371446 
L 316.510373 224.451848 
L 317.160984 230.237766 
L 317.811594 228.298574 
L 319.112815 236.205614 
L 319.763425 230.159429 
L 320.414035 234.832852 
L 321.064646 225.145674 
L 321.715256 230.239905 
L 322.365866 227.945874 
L 323.016477 225.10155 
L 323.667087 231.419556 
L 324.317697 224.01758 
L 325.618918 229.050554 
L 326.269528 234.313416 
L 326.920138 232.387665 
L 327.570749 228.604695 
L 328.221359 229.888857 
L 328.871969 229.532476 
L 329.52258 227.140687 
L 330.17319 229.97446 
L 330.8238 228.803461 
L 331.474411 218.405807 
L 332.125021 233.630158 
L 332.775631 229.210605 
L 333.426242 227.317684 
L 334.076852 229.220368 
L 334.727462 230.18955 
L 335.378073 226.620877 
L 336.028683 235.261699 
L 336.679293 225.26073 
L 337.329903 230.163347 
L 337.980514 230.365442 
L 338.631124 228.385621 
L 339.281734 217.141968 
L 339.932345 230.029474 
L 340.582955 230.393269 
L 341.233565 224.004601 
L 341.884176 234.110914 
L 342.534786 222.270966 
L 343.185396 229.277116 
L 343.836007 221.04568 
L 344.486617 229.152589 
L 345.137227 230.22036 
L 345.787837 231.041022 
L 346.438448 226.545165 
L 347.089058 228.949334 
L 347.739668 221.897124 
L 348.390279 228.101623 
L 349.040889 229.82923 
L 349.691499 235.77397 
L 350.34211 229.839044 
L 350.99272 227.587624 
L 351.64333 224.523171 
L 352.293941 220.795774 
L 352.944551 230.970842 
L 353.595161 234.075687 
L 354.245772 231.741099 
L 354.896382 226.100825 
L 355.546992 231.62224 
L 356.197602 221.373489 
L 356.848213 228.637408 
L 357.498823 229.917475 
L 358.149433 224.904923 
L 358.800044 228.84707 
L 359.450654 229.158222 
L 360.751875 222.278573 
L 361.402485 229.457056 
L 362.053095 217.592842 
L 362.703706 226.571006 
L 363.354316 230.565766 
L 364.004926 224.381254 
L 364.655537 224.765193 
L 365.306147 223.62531 
L 365.956757 231.408937 
L 366.607367 229.700834 
L 367.257978 220.016962 
L 367.908588 221.081856 
L 368.559198 220.229288 
L 369.209809 222.88148 
L 369.860419 217.20707 
L 370.511029 226.746873 
L 371.16164 224.897224 
L 371.81225 224.456475 
L 373.113471 229.195859 
L 374.414691 222.330856 
L 375.065302 223.138888 
L 375.715912 222.803812 
L 376.366522 226.657661 
L 377.017132 221.244915 
L 377.667743 234.263816 
L 378.318353 231.297143 
L 378.968963 224.572313 
L 379.619574 229.256922 
L 380.270184 231.906729 
L 380.920794 225.881703 
L 381.571405 231.262389 
L 382.222015 231.897584 
L 382.872625 226.828745 
L 383.523236 227.243434 
L 384.173846 224.367466 
L 384.824456 228.351088 
L 385.475066 228.834475 
L 386.125677 221.788588 
L 386.776287 225.825344 
L 387.426897 228.231977 
L 388.077508 224.859543 
L 388.728118 232.215501 
L 389.378728 224.832506 
L 390.029339 221.096393 
L 390.679949 230.223198 
L 391.330559 229.365603 
L 391.98117 236.861819 
L 392.63178 223.328041 
L 393.28239 227.484195 
L 393.933001 232.817912 
L 394.583611 228.217383 
L 395.234221 228.623584 
L 395.884831 226.523606 
L 396.535442 222.884236 
L 397.186052 227.651763 
L 397.836662 226.785711 
L 398.487273 231.837657 
L 398.487273 231.837657 
" clip-path="url(#p54765c8da3)" style="fill: none; stroke-dasharray: 9.6,2.4,1.5,2.4; stroke-dashoffset: 0; stroke: #008000; stroke-width: 1.5"/>
   </g>
   <g id="line2d_32">
    <path d="M 73.832727 269.410178 
L 74.483338 264.829156 
L 75.133948 250.391577 
L 75.784558 264.480343 
L 76.435169 250.18178 
L 77.085779 250.812828 
L 77.736389 249.181238 
L 78.386999 249.556384 
L 79.03761 222.635472 
L 79.68822 250.811865 
L 80.33883 236.72354 
L 80.989441 250.811409 
L 81.640051 250.801157 
L 82.290661 250.253463 
L 82.941272 263.750857 
L 83.591882 249.783572 
L 84.242492 250.80585 
L 84.893103 250.8064 
L 85.543713 152.191638 
L 86.194323 152.191636 
L 87.495544 124.011727 
L 88.146154 152.191632 
L 88.796764 67.658943 
L 89.447375 109.925034 
L 90.097985 95.836494 
L 90.748595 124.012822 
L 91.399206 138.102729 
L 92.049816 124.009529 
L 92.700426 152.191191 
L 93.351037 152.190231 
L 94.001647 138.102864 
L 94.652257 152.19163 
L 95.302868 194.223573 
L 95.953478 166.279642 
L 96.604088 166.007886 
L 97.254698 152.191367 
L 98.555919 152.191438 
L 99.206529 137.18027 
L 99.85714 95.403388 
L 100.50775 166.243997 
L 101.15836 194.455186 
L 101.808971 109.924454 
L 102.459581 180.17167 
L 103.110191 152.191627 
L 103.760802 166.188245 
L 104.411412 166.111072 
L 105.062022 164.754099 
L 105.712633 152.188786 
L 106.363243 194.455086 
L 107.013853 180.369171 
L 107.664463 95.836571 
L 108.315074 152.191188 
L 108.965684 180.368537 
L 109.616294 194.457937 
L 110.266905 166.280379 
L 110.917515 166.010325 
L 111.568125 152.186726 
L 112.218736 194.457929 
L 112.869346 166.280405 
L 113.519956 124.012888 
L 114.170567 138.102867 
L 114.821177 194.457914 
L 115.471787 179.739696 
L 116.122398 138.102872 
L 116.773008 138.102869 
L 117.423618 166.280405 
L 118.724839 194.413844 
L 119.375449 180.346224 
L 120.026059 179.48432 
L 120.67667 151.865701 
L 121.32728 194.456697 
L 121.97789 53.568 
L 122.628501 207.253936 
L 123.279111 152.191364 
L 123.929721 166.275635 
L 124.580332 166.280393 
L 125.230942 180.195409 
L 125.881552 208.259072 
L 126.532163 166.279481 
L 127.182773 166.280402 
L 127.833383 194.456888 
L 128.483993 166.277468 
L 129.134604 207.088896 
L 129.785214 178.98102 
L 130.435824 194.408872 
L 131.086435 194.031963 
L 131.737045 180.364232 
L 132.387655 123.945803 
L 133.038266 180.361164 
L 133.688876 180.343161 
L 134.339486 207.273178 
L 134.990097 152.191638 
L 135.640707 166.211621 
L 136.291317 152.188956 
L 136.941927 179.515957 
L 137.592538 124.001916 
L 138.893758 180.36911 
L 139.544369 193.88936 
L 140.845589 166.271736 
L 141.4962 166.280405 
L 142.79742 193.998737 
L 143.448031 109.670366 
L 144.098641 193.305284 
L 144.749251 165.708124 
L 145.399862 166.277503 
L 146.050472 164.894592 
L 146.701082 166.265708 
L 147.351692 151.847366 
L 148.002303 208.5208 
L 148.652913 194.452841 
L 149.303523 138.102842 
L 150.604744 166.275307 
L 151.255354 166.274532 
L 151.905965 180.313604 
L 153.207185 180.365214 
L 153.857796 166.273768 
L 154.508406 109.925203 
L 155.159016 193.606149 
L 155.809627 165.428615 
L 156.460237 194.457939 
L 157.110847 179.370952 
L 157.761457 180.369168 
L 158.412068 152.180457 
L 159.062678 166.280397 
L 160.363899 166.280287 
L 161.014509 208.546572 
L 161.665119 166.280272 
L 162.31573 208.546703 
L 162.96634 207.943573 
L 163.61695 166.277944 
L 164.267561 152.191107 
L 164.918171 194.457906 
L 165.568781 151.741551 
L 166.219392 194.442059 
L 166.870002 166.279755 
L 167.520612 194.452959 
L 168.171222 123.41663 
L 168.821833 194.371041 
L 169.472443 208.111362 
L 170.123053 208.546705 
L 170.773664 152.165901 
L 171.424274 151.396631 
L 172.074884 194.318521 
L 172.725495 180.369171 
L 173.376105 124.014104 
L 174.026715 194.423024 
L 174.677326 180.36883 
L 175.327936 152.191637 
L 175.978546 138.1027 
L 176.629156 194.457937 
L 177.279767 166.278934 
L 177.930377 124.014103 
L 178.580987 208.163631 
L 179.231598 194.442456 
L 179.882208 194.435343 
L 180.532818 166.248235 
L 181.183429 166.00419 
L 181.834039 180.296495 
L 183.13526 152.156429 
L 184.43648 152.191635 
L 185.087091 194.336019 
L 186.388311 166.262615 
L 187.038921 166.278876 
L 187.689532 180.368178 
L 188.340142 166.280405 
L 188.990752 194.456088 
L 189.641363 194.446803 
L 190.291973 166.280079 
L 190.942583 180.369062 
L 191.593194 166.280405 
L 192.243804 194.457929 
L 192.894414 165.107159 
L 193.545025 166.279569 
L 194.195635 152.191638 
L 194.846245 194.45786 
L 195.496856 166.278447 
L 196.147466 180.368719 
L 196.798076 208.541246 
L 197.448686 166.280401 
L 198.099297 166.053272 
L 198.749907 165.961183 
L 199.400517 192.65618 
L 200.051128 151.222077 
L 200.701738 124.013443 
L 201.352348 180.369172 
L 202.002959 151.356283 
L 203.304179 124.014088 
L 203.95479 166.280402 
L 204.6054 180.369172 
L 205.25601 180.369171 
L 205.906621 194.44978 
L 206.557231 123.695263 
L 207.207841 194.454142 
L 207.858451 95.830338 
L 208.509062 152.191635 
L 209.159672 138.102803 
L 209.810282 152.191507 
L 210.460893 208.542055 
L 211.111503 194.457939 
L 211.762113 194.457939 
L 212.412724 179.988692 
L 213.063334 95.833341 
L 213.713944 152.188408 
L 214.364555 166.229528 
L 215.015165 138.074922 
L 216.316385 194.450447 
L 216.966996 166.253635 
L 217.617606 180.214204 
L 218.268216 166.280306 
L 218.918827 194.439022 
L 219.569437 152.191637 
L 220.220047 194.457158 
L 220.870658 208.426486 
L 222.171878 180.369171 
L 222.822489 180.369103 
L 223.473099 166.280392 
L 224.123709 124.014105 
L 224.77432 166.279913 
L 226.07554 194.004527 
L 226.72615 180.369172 
L 227.376761 207.957278 
L 228.027371 180.365338 
L 228.677981 166.276571 
L 229.979202 194.454105 
L 230.629812 194.457939 
L 231.280423 180.369172 
L 233.232254 180.369155 
L 233.882864 179.553033 
L 234.533474 166.280158 
L 235.184085 166.278695 
L 235.834695 152.191063 
L 236.485305 180.367602 
L 237.135915 166.278747 
L 237.786526 166.217707 
L 238.437136 180.350908 
L 239.087746 208.487219 
L 239.738357 180.367265 
L 240.388967 194.438957 
L 241.039577 180.34715 
L 241.690188 194.32874 
L 242.340798 194.168354 
L 242.991408 166.114825 
L 244.943239 208.54669 
L 245.59385 194.456735 
L 246.24446 166.280142 
L 246.89507 180.296665 
L 247.54568 166.280394 
L 248.846901 166.280405 
L 249.497511 166.261626 
L 250.148122 208.507207 
L 250.798732 208.507207 
L 251.449342 180.343734 
L 252.099953 138.102862 
L 252.750563 208.351427 
L 253.401173 208.546399 
L 254.051784 166.280405 
L 254.702394 194.457837 
L 255.353004 166.280405 
L 256.003615 194.457934 
L 256.654225 208.489843 
L 257.304835 208.535712 
L 257.955445 180.369076 
L 258.606056 194.453008 
L 259.256666 152.191072 
L 259.907276 166.280403 
L 260.557887 138.102872 
L 261.208497 180.369149 
L 261.859107 194.456511 
L 262.509718 194.218814 
L 263.160328 194.218814 
L 263.810938 166.280405 
L 265.762769 208.546254 
L 266.413379 180.348827 
L 267.06399 109.917007 
L 267.7146 208.53291 
L 268.36521 180.348272 
L 269.015821 180.359325 
L 269.666431 194.457771 
L 270.317041 138.023455 
L 270.967652 180.369075 
L 271.618262 152.191629 
L 272.268872 180.369115 
L 272.919483 180.348433 
L 273.570093 179.441356 
L 274.220703 152.0867 
L 274.871314 166.038404 
L 275.521924 166.280362 
L 276.172534 152.09887 
L 276.823144 180.368599 
L 277.473755 109.889763 
L 278.124365 179.523367 
L 278.774975 152.186452 
L 279.425586 180.369172 
L 280.076196 180.36917 
L 281.377417 151.71965 
L 282.678637 180.369111 
L 283.329248 166.261679 
L 283.979858 166.280405 
L 284.630468 152.191639 
L 285.281079 194.455859 
L 285.931689 208.546652 
L 286.582299 166.280373 
L 287.232909 166.200119 
L 287.88352 152.189968 
L 289.18474 208.150489 
L 289.835351 180.369172 
L 290.485961 194.283109 
L 291.787182 137.998025 
L 292.437792 180.36917 
L 293.088402 180.369172 
L 293.739013 166.280405 
L 294.389623 193.683235 
L 295.040233 180.071185 
L 295.690844 193.969214 
L 296.341454 166.280348 
L 296.992064 180.369172 
L 297.642674 208.361786 
L 298.293285 194.457491 
L 298.943895 166.279938 
L 299.594505 166.182067 
L 300.245116 180.369172 
L 301.546336 180.369152 
L 302.196947 109.925334 
L 302.847557 138.102867 
L 304.148778 166.219544 
L 304.799388 152.191631 
L 305.449998 166.051969 
L 306.751219 138.043868 
L 307.401829 166.280405 
L 308.052439 180.369172 
L 309.35366 180.368765 
L 310.654881 152.191192 
L 311.305491 180.369159 
L 311.956101 180.368148 
L 312.606712 208.54089 
L 313.257322 138.102872 
L 313.907932 194.457925 
L 314.558543 194.453835 
L 315.209153 152.191633 
L 315.859763 180.368529 
L 317.160984 152.189943 
L 318.462204 208.546314 
L 319.112815 194.457706 
L 319.763425 166.219596 
L 320.414035 208.545996 
L 321.064646 152.191626 
L 321.715256 194.457823 
L 322.365866 166.280358 
L 323.016477 152.191638 
L 323.667087 152.191638 
L 324.317697 123.994583 
L 324.968308 180.345376 
L 326.269528 180.368995 
L 326.920138 194.456657 
L 327.570749 180.369172 
L 328.221359 138.102855 
L 328.871969 180.366892 
L 329.52258 165.945337 
L 330.8238 194.447766 
L 331.474411 123.669149 
L 332.125021 194.427104 
L 332.775631 166.280405 
L 333.426242 180.352659 
L 334.727462 180.362021 
L 335.378073 138.102871 
L 336.028683 220.896128 
L 336.679293 138.102872 
L 337.980514 194.455429 
L 338.631124 138.102872 
L 339.281734 109.896769 
L 339.932345 194.362126 
L 341.233565 166.259098 
L 341.884176 208.544207 
L 342.534786 124.014105 
L 343.185396 180.366073 
L 343.836007 95.836533 
L 344.486617 180.369127 
L 345.137227 194.436402 
L 345.787837 194.457907 
L 346.438448 166.263655 
L 347.089058 180.369101 
L 347.739668 137.613773 
L 348.390279 152.191637 
L 349.691499 208.546705 
L 350.34211 152.191638 
L 350.99272 166.280405 
L 352.293941 109.925338 
L 352.944551 194.366557 
L 353.595161 180.368935 
L 354.245772 194.457927 
L 354.896382 152.191157 
L 355.546992 194.105375 
L 356.197602 123.947235 
L 356.848213 193.565844 
L 357.498823 166.280404 
L 358.149433 124.014098 
L 358.800044 193.191115 
L 359.450654 166.241337 
L 360.101264 166.280401 
L 360.751875 138.102013 
L 361.402485 194.457939 
L 362.053095 137.998594 
L 362.703706 180.180679 
L 363.354316 152.098716 
L 364.004926 138.089964 
L 364.655537 166.223251 
L 365.306147 152.191638 
L 365.956757 180.368689 
L 367.908588 137.525901 
L 368.559198 152.187567 
L 369.209809 152.131738 
L 369.860419 124.014105 
L 370.511029 138.102872 
L 371.16164 180.366424 
L 371.81225 166.280131 
L 372.46286 138.10255 
L 373.764081 166.280405 
L 374.414691 166.272205 
L 375.065302 95.836571 
L 375.715912 152.191638 
L 376.366522 124.014105 
L 377.017132 138.102872 
L 377.667743 208.546659 
L 378.318353 194.457892 
L 378.968963 152.191449 
L 379.619574 180.369159 
L 380.270184 194.457939 
L 380.920794 180.369172 
L 381.571405 194.457813 
L 383.523236 194.456316 
L 384.173846 124.014105 
L 384.824456 194.37515 
L 385.475066 166.280405 
L 386.125677 109.918502 
L 386.776287 152.184802 
L 387.426897 180.369061 
L 388.077508 152.191639 
L 388.728118 194.456504 
L 389.378728 152.191636 
L 390.029339 138.102863 
L 390.679949 166.280249 
L 391.330559 180.369172 
L 391.98117 208.546705 
L 392.63178 138.101521 
L 393.933001 194.29676 
L 394.583611 166.27809 
L 395.234221 194.457935 
L 395.884831 180.335084 
L 396.535442 152.191638 
L 397.186052 194.457906 
L 397.836662 166.280403 
L 398.487273 194.304315 
L 398.487273 194.304315 
" clip-path="url(#p54765c8da3)" style="fill: none; stroke: #ff0000; stroke-width: 1.5; stroke-linecap: square"/>
   </g>
   <g id="patch_3">
    <path d="M 57.6 307.584 
L 57.6 41.472 
" style="fill: none; stroke: #000000; stroke-width: 0.8; stroke-linejoin: miter; stroke-linecap: square"/>
   </g>
   <g id="patch_4">
    <path d="M 414.72 307.584 
L 414.72 41.472 
" style="fill: none; stroke: #000000; stroke-width: 0.8; stroke-linejoin: miter; stroke-linecap: square"/>
   </g>
   <g id="patch_5">
    <path d="M 57.6 307.584 
L 414.72 307.584 
" style="fill: none; stroke: #000000; stroke-width: 0.8; stroke-linejoin: miter; stroke-linecap: square"/>
   </g>
   <g id="patch_6">
    <path d="M 57.6 41.472 
L 414.72 41.472 
" style="fill: none; stroke: #000000; stroke-width: 0.8; stroke-linejoin: miter; stroke-linecap: square"/>
   </g>
   <g id="text_17">
    <!-- Population's average and best fitness -->
    <g transform="translate(123.529687 35.472) scale(0.12 -0.12)">
     <defs>
      <path id="DejaVuSans-50" d="M 1259 4147 
L 1259 2394 
L 2053 2394 
Q 2494 2394 2734 2622 
Q 2975 2850 2975 3272 
Q 2975 3691 2734 3919 
Q 2494 4147 2053 4147 
L 1259 4147 
z
M 628 4666 
L 2053 4666 
Q 2838 4666 3239 4311 
Q 3641 3956 3641 3272 
Q 3641 2581 3239 2228 
Q 2838 1875 2053 1875 
L 1259 1875 
L 1259 0 
L 628 0 
L 628 4666 
z
" transform="scale(0.015625)"/>
      <path id="DejaVuSans-70" d="M 1159 525 
L 1159 -1331 
L 581 -1331 
L 581 3500 
L 1159 3500 
L 1159 2969 
Q 1341 3281 1617 3432 
Q 1894 3584 2278 3584 
Q 2916 3584 3314 3078 
Q 3713 2572 3713 1747 
Q 3713 922 3314 415 
Q 2916 -91 2278 -91 
Q 1894 -91 1617 61 
Q 1341 213 1159 525 
z
M 3116 1747 
Q 3116 2381 2855 2742 
Q 2594 3103 2138 3103 
Q 1681 3103 1420 2742 
Q 1159 2381 1159 1747 
Q 1159 1113 1420 752 
Q 1681 391 2138 391 
Q 2594 391 2855 752 
Q 3116 1113 3116 1747 
z
" transform="scale(0.015625)"/>
      <path id="DejaVuSans-75" d="M 544 1381 
L 544 3500 
L 1119 3500 
L 1119 1403 
Q 1119 906 1312 657 
Q 1506 409 1894 409 
Q 2359 409 2629 706 
Q 2900 1003 2900 1516 
L 2900 3500 
L 3475 3500 
L 3475 0 
L 2900 0 
L 2900 538 
Q 2691 219 2414 64 
Q 2138 -91 1772 -91 
Q 1169 -91 856 284 
Q 544 659 544 1381 
z
M 1991 3584 
L 1991 3584 
z
" transform="scale(0.015625)"/>
      <path id="DejaVuSans-6c" d="M 603 4863 
L 1178 4863 
L 1178 0 
L 603 0 
L 603 4863 
z
" transform="scale(0.015625)"/>
      <path id="DejaVuSans-27" d="M 1147 4666 
L 1147 2931 
L 616 2931 
L 616 4666 
L 1147 4666 
z
" transform="scale(0.015625)"/>
      <path id="DejaVuSans-20" transform="scale(0.015625)"/>
      <path id="DejaVuSans-76" d="M 191 3500 
L 800 3500 
L 1894 563 
L 2988 3500 
L 3597 3500 
L 2284 0 
L 1503 0 
L 191 3500 
z
" transform="scale(0.015625)"/>
      <path id="DejaVuSans-67" d="M 2906 1791 
Q 2906 2416 2648 2759 
Q 2391 3103 1925 3103 
Q 1463 3103 1205 2759 
Q 947 2416 947 1791 
Q 947 1169 1205 825 
Q 1463 481 1925 481 
Q 2391 481 2648 825 
Q 2906 1169 2906 1791 
z
M 3481 434 
Q 3481 -459 3084 -895 
Q 2688 -1331 1869 -1331 
Q 1566 -1331 1297 -1286 
Q 1028 -1241 775 -1147 
L 775 -588 
Q 1028 -725 1275 -790 
Q 1522 -856 1778 -856 
Q 2344 -856 2625 -561 
Q 2906 -266 2906 331 
L 2906 616 
Q 2728 306 2450 153 
Q 2172 0 1784 0 
Q 1141 0 747 490 
Q 353 981 353 1791 
Q 353 2603 747 3093 
Q 1141 3584 1784 3584 
Q 2172 3584 2450 3431 
Q 2728 3278 2906 2969 
L 2906 3500 
L 3481 3500 
L 3481 434 
z
" transform="scale(0.015625)"/>
      <path id="DejaVuSans-64" d="M 2906 2969 
L 2906 4863 
L 3481 4863 
L 3481 0 
L 2906 0 
L 2906 525 
Q 2725 213 2448 61 
Q 2172 -91 1784 -91 
Q 1150 -91 751 415 
Q 353 922 353 1747 
Q 353 2572 751 3078 
Q 1150 3584 1784 3584 
Q 2172 3584 2448 3432 
Q 2725 3281 2906 2969 
z
M 947 1747 
Q 947 1113 1208 752 
Q 1469 391 1925 391 
Q 2381 391 2643 752 
Q 2906 1113 2906 1747 
Q 2906 2381 2643 2742 
Q 2381 3103 1925 3103 
Q 1469 3103 1208 2742 
Q 947 2381 947 1747 
z
" transform="scale(0.015625)"/>
      <path id="DejaVuSans-62" d="M 3116 1747 
Q 3116 2381 2855 2742 
Q 2594 3103 2138 3103 
Q 1681 3103 1420 2742 
Q 1159 2381 1159 1747 
Q 1159 1113 1420 752 
Q 1681 391 2138 391 
Q 2594 391 2855 752 
Q 3116 1113 3116 1747 
z
M 1159 2969 
Q 1341 3281 1617 3432 
Q 1894 3584 2278 3584 
Q 2916 3584 3314 3078 
Q 3713 2572 3713 1747 
Q 3713 922 3314 415 
Q 2916 -91 2278 -91 
Q 1894 -91 1617 61 
Q 1341 213 1159 525 
L 1159 0 
L 581 0 
L 581 4863 
L 1159 4863 
L 1159 2969 
z
" transform="scale(0.015625)"/>
      <path id="DejaVuSans-66" d="M 2375 4863 
L 2375 4384 
L 1825 4384 
Q 1516 4384 1395 4259 
Q 1275 4134 1275 3809 
L 1275 3500 
L 2222 3500 
L 2222 3053 
L 1275 3053 
L 1275 0 
L 697 0 
L 697 3053 
L 147 3053 
L 147 3500 
L 697 3500 
L 697 3744 
Q 697 4328 969 4595 
Q 1241 4863 1831 4863 
L 2375 4863 
z
" transform="scale(0.015625)"/>
     </defs>
     <use xlink:href="#DejaVuSans-50"/>
     <use xlink:href="#DejaVuSans-6f" x="56.677734"/>
     <use xlink:href="#DejaVuSans-70" x="117.859375"/>
     <use xlink:href="#DejaVuSans-75" x="181.335938"/>
     <use xlink:href="#DejaVuSans-6c" x="244.714844"/>
     <use xlink:href="#DejaVuSans-61" x="272.498047"/>
     <use xlink:href="#DejaVuSans-74" x="333.777344"/>
     <use xlink:href="#DejaVuSans-69" x="372.986328"/>
     <use xlink:href="#DejaVuSans-6f" x="400.769531"/>
     <use xlink:href="#DejaVuSans-6e" x="461.951172"/>
     <use xlink:href="#DejaVuSans-27" x="525.330078"/>
     <use xlink:href="#DejaVuSans-73" x="552.820312"/>
     <use xlink:href="#DejaVuSans-20" x="604.919922"/>
     <use xlink:href="#DejaVuSans-61" x="636.707031"/>
     <use xlink:href="#DejaVuSans-76" x="697.986328"/>
     <use xlink:href="#DejaVuSans-65" x="757.166016"/>
     <use xlink:href="#DejaVuSans-72" x="818.689453"/>
     <use xlink:href="#DejaVuSans-61" x="859.802734"/>
     <use xlink:href="#DejaVuSans-67" x="921.082031"/>
     <use xlink:href="#DejaVuSans-65" x="984.558594"/>
     <use xlink:href="#DejaVuSans-20" x="1046.082031"/>
     <use xlink:href="#DejaVuSans-61" x="1077.869141"/>
     <use xlink:href="#DejaVuSans-6e" x="1139.148438"/>
     <use xlink:href="#DejaVuSans-64" x="1202.527344"/>
     <use xlink:href="#DejaVuSans-20" x="1266.003906"/>
     <use xlink:href="#DejaVuSans-62" x="1297.791016"/>
     <use xlink:href="#DejaVuSans-65" x="1361.267578"/>
     <use xlink:href="#DejaVuSans-73" x="1422.791016"/>
     <use xlink:href="#DejaVuSans-74" x="1474.890625"/>
     <use xlink:href="#DejaVuSans-20" x="1514.099609"/>
     <use xlink:href="#DejaVuSans-66" x="1545.886719"/>
     <use xlink:href="#DejaVuSans-69" x="1581.091797"/>
     <use xlink:href="#DejaVuSans-74" x="1608.875"/>
     <use xlink:href="#DejaVuSans-6e" x="1648.083984"/>
     <use xlink:href="#DejaVuSans-65" x="1711.462891"/>
     <use xlink:href="#DejaVuSans-73" x="1772.986328"/>
     <use xlink:href="#DejaVuSans-73" x="1825.085938"/>
    </g>
   </g>
   <g id="legend_1">
    <g id="patch_7">
     <path d="M 334.779375 108.1845 
L 407.72 108.1845 
Q 409.72 108.1845 409.72 106.1845 
L 409.72 48.472 
Q 409.72 46.472 407.72 46.472 
L 334.779375 46.472 
Q 332.779375 46.472 332.779375 48.472 
L 332.779375 106.1845 
Q 332.779375 108.1845 334.779375 108.1845 
z
" style="fill: #ffffff; opacity: 0.8; stroke: #cccccc; stroke-linejoin: miter"/>
    </g>
    <g id="line2d_33">
     <path d="M 336.779375 54.570438 
L 346.779375 54.570438 
L 356.779375 54.570438 
" style="fill: none; stroke: #0000ff; stroke-width: 1.5; stroke-linecap: square"/>
    </g>
    <g id="text_18">
     <!-- average -->
     <g transform="translate(364.779375 58.070438) scale(0.1 -0.1)">
      <use xlink:href="#DejaVuSans-61"/>
      <use xlink:href="#DejaVuSans-76" x="61.279297"/>
      <use xlink:href="#DejaVuSans-65" x="120.458984"/>
      <use xlink:href="#DejaVuSans-72" x="181.982422"/>
      <use xlink:href="#DejaVuSans-61" x="223.095703"/>
      <use xlink:href="#DejaVuSans-67" x="284.375"/>
      <use xlink:href="#DejaVuSans-65" x="347.851562"/>
     </g>
    </g>
    <g id="line2d_34">
     <path d="M 336.779375 69.248563 
L 346.779375 69.248563 
L 356.779375 69.248563 
" style="fill: none; stroke-dasharray: 9.6,2.4,1.5,2.4; stroke-dashoffset: 0; stroke: #008000; stroke-width: 1.5"/>
    </g>
    <g id="text_19">
     <!-- -1 sd -->
     <g transform="translate(364.779375 72.748563) scale(0.1 -0.1)">
      <defs>
       <path id="DejaVuSans-2d" d="M 313 2009 
L 1997 2009 
L 1997 1497 
L 313 1497 
L 313 2009 
z
" transform="scale(0.015625)"/>
      </defs>
      <use xlink:href="#DejaVuSans-2d"/>
      <use xlink:href="#DejaVuSans-31" x="36.083984"/>
      <use xlink:href="#DejaVuSans-20" x="99.707031"/>
      <use xlink:href="#DejaVuSans-73" x="131.494141"/>
      <use xlink:href="#DejaVuSans-64" x="183.59375"/>
     </g>
    </g>
    <g id="line2d_35">
     <path d="M 336.779375 83.926688 
L 346.779375 83.926688 
L 356.779375 83.926688 
" style="fill: none; stroke-dasharray: 9.6,2.4,1.5,2.4; stroke-dashoffset: 0; stroke: #008000; stroke-width: 1.5"/>
    </g>
    <g id="text_20">
     <!-- +1 sd -->
     <g transform="translate(364.779375 87.426688) scale(0.1 -0.1)">
      <defs>
       <path id="DejaVuSans-2b" d="M 2944 4013 
L 2944 2272 
L 4684 2272 
L 4684 1741 
L 2944 1741 
L 2944 0 
L 2419 0 
L 2419 1741 
L 678 1741 
L 678 2272 
L 2419 2272 
L 2419 4013 
L 2944 4013 
z
" transform="scale(0.015625)"/>
      </defs>
      <use xlink:href="#DejaVuSans-2b"/>
      <use xlink:href="#DejaVuSans-31" x="83.789062"/>
      <use xlink:href="#DejaVuSans-20" x="147.412109"/>
      <use xlink:href="#DejaVuSans-73" x="179.199219"/>
      <use xlink:href="#DejaVuSans-64" x="231.298828"/>
     </g>
    </g>
    <g id="line2d_36">
     <path d="M 336.779375 98.604813 
L 346.779375 98.604813 
L 356.779375 98.604813 
" style="fill: none; stroke: #ff0000; stroke-width: 1.5; stroke-linecap: square"/>
    </g>
    <g id="text_21">
     <!-- best -->
     <g transform="translate(364.779375 102.104813) scale(0.1 -0.1)">
      <use xlink:href="#DejaVuSans-62"/>
      <use xlink:href="#DejaVuSans-65" x="63.476562"/>
      <use xlink:href="#DejaVuSans-73" x="125"/>
      <use xlink:href="#DejaVuSans-74" x="177.099609"/>
     </g>
    </g>
   </g>
  </g>
 </g>
 <defs>
  <clipPath id="p54765c8da3">
   <rect x="57.6" y="41.472" width="357.12" height="266.112"/>
  </clipPath>
 </defs>
</svg>
