<?xml version="1.0" encoding="utf-8" standalone="no"?>
<!DOCTYPE svg PUBLIC "-//W3C//DTD SVG 1.1//EN"
  "http://www.w3.org/Graphics/SVG/1.1/DTD/svg11.dtd">
<svg xmlns:xlink="http://www.w3.org/1999/xlink" width="460.8pt" height="345.6pt" viewBox="0 0 460.8 345.6" xmlns="http://www.w3.org/2000/svg" version="1.1">
 <metadata>
  <rdf:RDF xmlns:dc="http://purl.org/dc/elements/1.1/" xmlns:cc="http://creativecommons.org/ns#" xmlns:rdf="http://www.w3.org/1999/02/22-rdf-syntax-ns#">
   <cc:Work>
    <dc:type rdf:resource="http://purl.org/dc/dcmitype/StillImage"/>
    <dc:date>2022-11-05T21:09:31.058804</dc:date>
    <dc:format>image/svg+xml</dc:format>
    <dc:creator>
     <cc:Agent>
      <dc:title>Matplotlib v3.6.2, https://matplotlib.org/</dc:title>
     </cc:Agent>
    </dc:creator>
   </cc:Work>
  </rdf:RDF>
 </metadata>
 <defs>
  <style type="text/css">*{stroke-linejoin: round; stroke-linecap: butt}</style>
 </defs>
 <g id="figure_1">
  <g id="patch_1">
   <path d="M 0 345.6 
L 460.8 345.6 
L 460.8 0 
L 0 0 
z
" style="fill: #ffffff"/>
  </g>
  <g id="axes_1">
   <g id="patch_2">
    <path d="M 57.6 307.584 
L 414.72 307.584 
L 414.72 41.472 
L 57.6 41.472 
z
" style="fill: #ffffff"/>
   </g>
   <g id="matplotlib.axis_1">
    <g id="xtick_1">
     <g id="line2d_1">
      <path d="M 73.832727 307.584 
L 73.832727 41.472 
" clip-path="url(#p90432b26d6)" style="fill: none; stroke: #b0b0b0; stroke-width: 0.8; stroke-linecap: square"/>
     </g>
     <g id="line2d_2">
      <defs>
       <path id="m3a242a16f6" d="M 0 0 
L 0 3.5 
" style="stroke: #000000; stroke-width: 0.8"/>
      </defs>
      <g>
       <use xlink:href="#m3a242a16f6" x="73.832727" y="307.584" style="stroke: #000000; stroke-width: 0.8"/>
      </g>
     </g>
     <g id="text_1">
      <!-- 0 -->
      <g transform="translate(70.651477 322.182437) scale(0.1 -0.1)">
       <defs>
        <path id="DejaVuSans-30" d="M 2034 4250 
Q 1547 4250 1301 3770 
Q 1056 3291 1056 2328 
Q 1056 1369 1301 889 
Q 1547 409 2034 409 
Q 2525 409 2770 889 
Q 3016 1369 3016 2328 
Q 3016 3291 2770 3770 
Q 2525 4250 2034 4250 
z
M 2034 4750 
Q 2819 4750 3233 4129 
Q 3647 3509 3647 2328 
Q 3647 1150 3233 529 
Q 2819 -91 2034 -91 
Q 1250 -91 836 529 
Q 422 1150 422 2328 
Q 422 3509 836 4129 
Q 1250 4750 2034 4750 
z
" transform="scale(0.015625)"/>
       </defs>
       <use xlink:href="#DejaVuSans-30"/>
      </g>
     </g>
    </g>
    <g id="xtick_2">
     <g id="line2d_3">
      <path d="M 142.68841 307.584 
L 142.68841 41.472 
" clip-path="url(#p90432b26d6)" style="fill: none; stroke: #b0b0b0; stroke-width: 0.8; stroke-linecap: square"/>
     </g>
     <g id="line2d_4">
      <g>
       <use xlink:href="#m3a242a16f6" x="142.68841" y="307.584" style="stroke: #000000; stroke-width: 0.8"/>
      </g>
     </g>
     <g id="text_2">
      <!-- 200 -->
      <g transform="translate(133.14466 322.182437) scale(0.1 -0.1)">
       <defs>
        <path id="DejaVuSans-32" d="M 1228 531 
L 3431 531 
L 3431 0 
L 469 0 
L 469 531 
Q 828 903 1448 1529 
Q 2069 2156 2228 2338 
Q 2531 2678 2651 2914 
Q 2772 3150 2772 3378 
Q 2772 3750 2511 3984 
Q 2250 4219 1831 4219 
Q 1534 4219 1204 4116 
Q 875 4013 500 3803 
L 500 4441 
Q 881 4594 1212 4672 
Q 1544 4750 1819 4750 
Q 2544 4750 2975 4387 
Q 3406 4025 3406 3419 
Q 3406 3131 3298 2873 
Q 3191 2616 2906 2266 
Q 2828 2175 2409 1742 
Q 1991 1309 1228 531 
z
" transform="scale(0.015625)"/>
       </defs>
       <use xlink:href="#DejaVuSans-32"/>
       <use xlink:href="#DejaVuSans-30" x="63.623047"/>
       <use xlink:href="#DejaVuSans-30" x="127.246094"/>
      </g>
     </g>
    </g>
    <g id="xtick_3">
     <g id="line2d_5">
      <path d="M 211.544093 307.584 
L 211.544093 41.472 
" clip-path="url(#p90432b26d6)" style="fill: none; stroke: #b0b0b0; stroke-width: 0.8; stroke-linecap: square"/>
     </g>
     <g id="line2d_6">
      <g>
       <use xlink:href="#m3a242a16f6" x="211.544093" y="307.584" style="stroke: #000000; stroke-width: 0.8"/>
      </g>
     </g>
     <g id="text_3">
      <!-- 400 -->
      <g transform="translate(202.000343 322.182437) scale(0.1 -0.1)">
       <defs>
        <path id="DejaVuSans-34" d="M 2419 4116 
L 825 1625 
L 2419 1625 
L 2419 4116 
z
M 2253 4666 
L 3047 4666 
L 3047 1625 
L 3713 1625 
L 3713 1100 
L 3047 1100 
L 3047 0 
L 2419 0 
L 2419 1100 
L 313 1100 
L 313 1709 
L 2253 4666 
z
" transform="scale(0.015625)"/>
       </defs>
       <use xlink:href="#DejaVuSans-34"/>
       <use xlink:href="#DejaVuSans-30" x="63.623047"/>
       <use xlink:href="#DejaVuSans-30" x="127.246094"/>
      </g>
     </g>
    </g>
    <g id="xtick_4">
     <g id="line2d_7">
      <path d="M 280.399776 307.584 
L 280.399776 41.472 
" clip-path="url(#p90432b26d6)" style="fill: none; stroke: #b0b0b0; stroke-width: 0.8; stroke-linecap: square"/>
     </g>
     <g id="line2d_8">
      <g>
       <use xlink:href="#m3a242a16f6" x="280.399776" y="307.584" style="stroke: #000000; stroke-width: 0.8"/>
      </g>
     </g>
     <g id="text_4">
      <!-- 600 -->
      <g transform="translate(270.856026 322.182437) scale(0.1 -0.1)">
       <defs>
        <path id="DejaVuSans-36" d="M 2113 2584 
Q 1688 2584 1439 2293 
Q 1191 2003 1191 1497 
Q 1191 994 1439 701 
Q 1688 409 2113 409 
Q 2538 409 2786 701 
Q 3034 994 3034 1497 
Q 3034 2003 2786 2293 
Q 2538 2584 2113 2584 
z
M 3366 4563 
L 3366 3988 
Q 3128 4100 2886 4159 
Q 2644 4219 2406 4219 
Q 1781 4219 1451 3797 
Q 1122 3375 1075 2522 
Q 1259 2794 1537 2939 
Q 1816 3084 2150 3084 
Q 2853 3084 3261 2657 
Q 3669 2231 3669 1497 
Q 3669 778 3244 343 
Q 2819 -91 2113 -91 
Q 1303 -91 875 529 
Q 447 1150 447 2328 
Q 447 3434 972 4092 
Q 1497 4750 2381 4750 
Q 2619 4750 2861 4703 
Q 3103 4656 3366 4563 
z
" transform="scale(0.015625)"/>
       </defs>
       <use xlink:href="#DejaVuSans-36"/>
       <use xlink:href="#DejaVuSans-30" x="63.623047"/>
       <use xlink:href="#DejaVuSans-30" x="127.246094"/>
      </g>
     </g>
    </g>
    <g id="xtick_5">
     <g id="line2d_9">
      <path d="M 349.255459 307.584 
L 349.255459 41.472 
" clip-path="url(#p90432b26d6)" style="fill: none; stroke: #b0b0b0; stroke-width: 0.8; stroke-linecap: square"/>
     </g>
     <g id="line2d_10">
      <g>
       <use xlink:href="#m3a242a16f6" x="349.255459" y="307.584" style="stroke: #000000; stroke-width: 0.8"/>
      </g>
     </g>
     <g id="text_5">
      <!-- 800 -->
      <g transform="translate(339.711709 322.182437) scale(0.1 -0.1)">
       <defs>
        <path id="DejaVuSans-38" d="M 2034 2216 
Q 1584 2216 1326 1975 
Q 1069 1734 1069 1313 
Q 1069 891 1326 650 
Q 1584 409 2034 409 
Q 2484 409 2743 651 
Q 3003 894 3003 1313 
Q 3003 1734 2745 1975 
Q 2488 2216 2034 2216 
z
M 1403 2484 
Q 997 2584 770 2862 
Q 544 3141 544 3541 
Q 544 4100 942 4425 
Q 1341 4750 2034 4750 
Q 2731 4750 3128 4425 
Q 3525 4100 3525 3541 
Q 3525 3141 3298 2862 
Q 3072 2584 2669 2484 
Q 3125 2378 3379 2068 
Q 3634 1759 3634 1313 
Q 3634 634 3220 271 
Q 2806 -91 2034 -91 
Q 1263 -91 848 271 
Q 434 634 434 1313 
Q 434 1759 690 2068 
Q 947 2378 1403 2484 
z
M 1172 3481 
Q 1172 3119 1398 2916 
Q 1625 2713 2034 2713 
Q 2441 2713 2670 2916 
Q 2900 3119 2900 3481 
Q 2900 3844 2670 4047 
Q 2441 4250 2034 4250 
Q 1625 4250 1398 4047 
Q 1172 3844 1172 3481 
z
" transform="scale(0.015625)"/>
       </defs>
       <use xlink:href="#DejaVuSans-38"/>
       <use xlink:href="#DejaVuSans-30" x="63.623047"/>
       <use xlink:href="#DejaVuSans-30" x="127.246094"/>
      </g>
     </g>
    </g>
    <g id="text_6">
     <!-- Generations -->
     <g transform="translate(205.662344 335.860562) scale(0.1 -0.1)">
      <defs>
       <path id="DejaVuSans-47" d="M 3809 666 
L 3809 1919 
L 2778 1919 
L 2778 2438 
L 4434 2438 
L 4434 434 
Q 4069 175 3628 42 
Q 3188 -91 2688 -91 
Q 1594 -91 976 548 
Q 359 1188 359 2328 
Q 359 3472 976 4111 
Q 1594 4750 2688 4750 
Q 3144 4750 3555 4637 
Q 3966 4525 4313 4306 
L 4313 3634 
Q 3963 3931 3569 4081 
Q 3175 4231 2741 4231 
Q 1884 4231 1454 3753 
Q 1025 3275 1025 2328 
Q 1025 1384 1454 906 
Q 1884 428 2741 428 
Q 3075 428 3337 486 
Q 3600 544 3809 666 
z
" transform="scale(0.015625)"/>
       <path id="DejaVuSans-65" d="M 3597 1894 
L 3597 1613 
L 953 1613 
Q 991 1019 1311 708 
Q 1631 397 2203 397 
Q 2534 397 2845 478 
Q 3156 559 3463 722 
L 3463 178 
Q 3153 47 2828 -22 
Q 2503 -91 2169 -91 
Q 1331 -91 842 396 
Q 353 884 353 1716 
Q 353 2575 817 3079 
Q 1281 3584 2069 3584 
Q 2775 3584 3186 3129 
Q 3597 2675 3597 1894 
z
M 3022 2063 
Q 3016 2534 2758 2815 
Q 2500 3097 2075 3097 
Q 1594 3097 1305 2825 
Q 1016 2553 972 2059 
L 3022 2063 
z
" transform="scale(0.015625)"/>
       <path id="DejaVuSans-6e" d="M 3513 2113 
L 3513 0 
L 2938 0 
L 2938 2094 
Q 2938 2591 2744 2837 
Q 2550 3084 2163 3084 
Q 1697 3084 1428 2787 
Q 1159 2491 1159 1978 
L 1159 0 
L 581 0 
L 581 3500 
L 1159 3500 
L 1159 2956 
Q 1366 3272 1645 3428 
Q 1925 3584 2291 3584 
Q 2894 3584 3203 3211 
Q 3513 2838 3513 2113 
z
" transform="scale(0.015625)"/>
       <path id="DejaVuSans-72" d="M 2631 2963 
Q 2534 3019 2420 3045 
Q 2306 3072 2169 3072 
Q 1681 3072 1420 2755 
Q 1159 2438 1159 1844 
L 1159 0 
L 581 0 
L 581 3500 
L 1159 3500 
L 1159 2956 
Q 1341 3275 1631 3429 
Q 1922 3584 2338 3584 
Q 2397 3584 2469 3576 
Q 2541 3569 2628 3553 
L 2631 2963 
z
" transform="scale(0.015625)"/>
       <path id="DejaVuSans-61" d="M 2194 1759 
Q 1497 1759 1228 1600 
Q 959 1441 959 1056 
Q 959 750 1161 570 
Q 1363 391 1709 391 
Q 2188 391 2477 730 
Q 2766 1069 2766 1631 
L 2766 1759 
L 2194 1759 
z
M 3341 1997 
L 3341 0 
L 2766 0 
L 2766 531 
Q 2569 213 2275 61 
Q 1981 -91 1556 -91 
Q 1019 -91 701 211 
Q 384 513 384 1019 
Q 384 1609 779 1909 
Q 1175 2209 1959 2209 
L 2766 2209 
L 2766 2266 
Q 2766 2663 2505 2880 
Q 2244 3097 1772 3097 
Q 1472 3097 1187 3025 
Q 903 2953 641 2809 
L 641 3341 
Q 956 3463 1253 3523 
Q 1550 3584 1831 3584 
Q 2591 3584 2966 3190 
Q 3341 2797 3341 1997 
z
" transform="scale(0.015625)"/>
       <path id="DejaVuSans-74" d="M 1172 4494 
L 1172 3500 
L 2356 3500 
L 2356 3053 
L 1172 3053 
L 1172 1153 
Q 1172 725 1289 603 
Q 1406 481 1766 481 
L 2356 481 
L 2356 0 
L 1766 0 
Q 1100 0 847 248 
Q 594 497 594 1153 
L 594 3053 
L 172 3053 
L 172 3500 
L 594 3500 
L 594 4494 
L 1172 4494 
z
" transform="scale(0.015625)"/>
       <path id="DejaVuSans-69" d="M 603 3500 
L 1178 3500 
L 1178 0 
L 603 0 
L 603 3500 
z
M 603 4863 
L 1178 4863 
L 1178 4134 
L 603 4134 
L 603 4863 
z
" transform="scale(0.015625)"/>
       <path id="DejaVuSans-6f" d="M 1959 3097 
Q 1497 3097 1228 2736 
Q 959 2375 959 1747 
Q 959 1119 1226 758 
Q 1494 397 1959 397 
Q 2419 397 2687 759 
Q 2956 1122 2956 1747 
Q 2956 2369 2687 2733 
Q 2419 3097 1959 3097 
z
M 1959 3584 
Q 2709 3584 3137 3096 
Q 3566 2609 3566 1747 
Q 3566 888 3137 398 
Q 2709 -91 1959 -91 
Q 1206 -91 779 398 
Q 353 888 353 1747 
Q 353 2609 779 3096 
Q 1206 3584 1959 3584 
z
" transform="scale(0.015625)"/>
       <path id="DejaVuSans-73" d="M 2834 3397 
L 2834 2853 
Q 2591 2978 2328 3040 
Q 2066 3103 1784 3103 
Q 1356 3103 1142 2972 
Q 928 2841 928 2578 
Q 928 2378 1081 2264 
Q 1234 2150 1697 2047 
L 1894 2003 
Q 2506 1872 2764 1633 
Q 3022 1394 3022 966 
Q 3022 478 2636 193 
Q 2250 -91 1575 -91 
Q 1294 -91 989 -36 
Q 684 19 347 128 
L 347 722 
Q 666 556 975 473 
Q 1284 391 1588 391 
Q 1994 391 2212 530 
Q 2431 669 2431 922 
Q 2431 1156 2273 1281 
Q 2116 1406 1581 1522 
L 1381 1569 
Q 847 1681 609 1914 
Q 372 2147 372 2553 
Q 372 3047 722 3315 
Q 1072 3584 1716 3584 
Q 2034 3584 2315 3537 
Q 2597 3491 2834 3397 
z
" transform="scale(0.015625)"/>
      </defs>
      <use xlink:href="#DejaVuSans-47"/>
      <use xlink:href="#DejaVuSans-65" x="77.490234"/>
      <use xlink:href="#DejaVuSans-6e" x="139.013672"/>
      <use xlink:href="#DejaVuSans-65" x="202.392578"/>
      <use xlink:href="#DejaVuSans-72" x="263.916016"/>
      <use xlink:href="#DejaVuSans-61" x="305.029297"/>
      <use xlink:href="#DejaVuSans-74" x="366.308594"/>
      <use xlink:href="#DejaVuSans-69" x="405.517578"/>
      <use xlink:href="#DejaVuSans-6f" x="433.300781"/>
      <use xlink:href="#DejaVuSans-6e" x="494.482422"/>
      <use xlink:href="#DejaVuSans-73" x="557.861328"/>
     </g>
    </g>
   </g>
   <g id="matplotlib.axis_2">
    <g id="ytick_1">
     <g id="line2d_11">
      <path d="M 57.6 304.490595 
L 414.72 304.490595 
" clip-path="url(#p90432b26d6)" style="fill: none; stroke: #b0b0b0; stroke-width: 0.8; stroke-linecap: square"/>
     </g>
     <g id="line2d_12">
      <defs>
       <path id="m2a30d29941" d="M 0 0 
L -3.5 0 
" style="stroke: #000000; stroke-width: 0.8"/>
      </defs>
      <g>
       <use xlink:href="#m2a30d29941" x="57.6" y="304.490595" style="stroke: #000000; stroke-width: 0.8"/>
      </g>
     </g>
     <g id="text_7">
      <!-- −2 -->
      <g transform="translate(35.857813 308.289814) scale(0.1 -0.1)">
       <defs>
        <path id="DejaVuSans-2212" d="M 678 2272 
L 4684 2272 
L 4684 1741 
L 678 1741 
L 678 2272 
z
" transform="scale(0.015625)"/>
       </defs>
       <use xlink:href="#DejaVuSans-2212"/>
       <use xlink:href="#DejaVuSans-32" x="83.789062"/>
      </g>
     </g>
    </g>
    <g id="ytick_2">
     <g id="line2d_13">
      <path d="M 57.6 268.825541 
L 414.72 268.825541 
" clip-path="url(#p90432b26d6)" style="fill: none; stroke: #b0b0b0; stroke-width: 0.8; stroke-linecap: square"/>
     </g>
     <g id="line2d_14">
      <g>
       <use xlink:href="#m2a30d29941" x="57.6" y="268.825541" style="stroke: #000000; stroke-width: 0.8"/>
      </g>
     </g>
     <g id="text_8">
      <!-- 0 -->
      <g transform="translate(44.2375 272.62476) scale(0.1 -0.1)">
       <use xlink:href="#DejaVuSans-30"/>
      </g>
     </g>
    </g>
    <g id="ytick_3">
     <g id="line2d_15">
      <path d="M 57.6 233.160487 
L 414.72 233.160487 
" clip-path="url(#p90432b26d6)" style="fill: none; stroke: #b0b0b0; stroke-width: 0.8; stroke-linecap: square"/>
     </g>
     <g id="line2d_16">
      <g>
       <use xlink:href="#m2a30d29941" x="57.6" y="233.160487" style="stroke: #000000; stroke-width: 0.8"/>
      </g>
     </g>
     <g id="text_9">
      <!-- 2 -->
      <g transform="translate(44.2375 236.959706) scale(0.1 -0.1)">
       <use xlink:href="#DejaVuSans-32"/>
      </g>
     </g>
    </g>
    <g id="ytick_4">
     <g id="line2d_17">
      <path d="M 57.6 197.495433 
L 414.72 197.495433 
" clip-path="url(#p90432b26d6)" style="fill: none; stroke: #b0b0b0; stroke-width: 0.8; stroke-linecap: square"/>
     </g>
     <g id="line2d_18">
      <g>
       <use xlink:href="#m2a30d29941" x="57.6" y="197.495433" style="stroke: #000000; stroke-width: 0.8"/>
      </g>
     </g>
     <g id="text_10">
      <!-- 4 -->
      <g transform="translate(44.2375 201.294652) scale(0.1 -0.1)">
       <use xlink:href="#DejaVuSans-34"/>
      </g>
     </g>
    </g>
    <g id="ytick_5">
     <g id="line2d_19">
      <path d="M 57.6 161.830379 
L 414.72 161.830379 
" clip-path="url(#p90432b26d6)" style="fill: none; stroke: #b0b0b0; stroke-width: 0.8; stroke-linecap: square"/>
     </g>
     <g id="line2d_20">
      <g>
       <use xlink:href="#m2a30d29941" x="57.6" y="161.830379" style="stroke: #000000; stroke-width: 0.8"/>
      </g>
     </g>
     <g id="text_11">
      <!-- 6 -->
      <g transform="translate(44.2375 165.629598) scale(0.1 -0.1)">
       <use xlink:href="#DejaVuSans-36"/>
      </g>
     </g>
    </g>
    <g id="ytick_6">
     <g id="line2d_21">
      <path d="M 57.6 126.165326 
L 414.72 126.165326 
" clip-path="url(#p90432b26d6)" style="fill: none; stroke: #b0b0b0; stroke-width: 0.8; stroke-linecap: square"/>
     </g>
     <g id="line2d_22">
      <g>
       <use xlink:href="#m2a30d29941" x="57.6" y="126.165326" style="stroke: #000000; stroke-width: 0.8"/>
      </g>
     </g>
     <g id="text_12">
      <!-- 8 -->
      <g transform="translate(44.2375 129.964544) scale(0.1 -0.1)">
       <use xlink:href="#DejaVuSans-38"/>
      </g>
     </g>
    </g>
    <g id="ytick_7">
     <g id="line2d_23">
      <path d="M 57.6 90.500272 
L 414.72 90.500272 
" clip-path="url(#p90432b26d6)" style="fill: none; stroke: #b0b0b0; stroke-width: 0.8; stroke-linecap: square"/>
     </g>
     <g id="line2d_24">
      <g>
       <use xlink:href="#m2a30d29941" x="57.6" y="90.500272" style="stroke: #000000; stroke-width: 0.8"/>
      </g>
     </g>
     <g id="text_13">
      <!-- 10 -->
      <g transform="translate(37.875 94.299491) scale(0.1 -0.1)">
       <defs>
        <path id="DejaVuSans-31" d="M 794 531 
L 1825 531 
L 1825 4091 
L 703 3866 
L 703 4441 
L 1819 4666 
L 2450 4666 
L 2450 531 
L 3481 531 
L 3481 0 
L 794 0 
L 794 531 
z
" transform="scale(0.015625)"/>
       </defs>
       <use xlink:href="#DejaVuSans-31"/>
       <use xlink:href="#DejaVuSans-30" x="63.623047"/>
      </g>
     </g>
    </g>
    <g id="ytick_8">
     <g id="line2d_25">
      <path d="M 57.6 54.835218 
L 414.72 54.835218 
" clip-path="url(#p90432b26d6)" style="fill: none; stroke: #b0b0b0; stroke-width: 0.8; stroke-linecap: square"/>
     </g>
     <g id="line2d_26">
      <g>
       <use xlink:href="#m2a30d29941" x="57.6" y="54.835218" style="stroke: #000000; stroke-width: 0.8"/>
      </g>
     </g>
     <g id="text_14">
      <!-- 12 -->
      <g transform="translate(37.875 58.634437) scale(0.1 -0.1)">
       <use xlink:href="#DejaVuSans-31"/>
       <use xlink:href="#DejaVuSans-32" x="63.623047"/>
      </g>
     </g>
    </g>
    <g id="text_15">
     <!-- Fitness -->
     <g transform="translate(29.778125 191.845187) rotate(-90) scale(0.1 -0.1)">
      <defs>
       <path id="DejaVuSans-46" d="M 628 4666 
L 3309 4666 
L 3309 4134 
L 1259 4134 
L 1259 2759 
L 3109 2759 
L 3109 2228 
L 1259 2228 
L 1259 0 
L 628 0 
L 628 4666 
z
" transform="scale(0.015625)"/>
      </defs>
      <use xlink:href="#DejaVuSans-46"/>
      <use xlink:href="#DejaVuSans-69" x="50.269531"/>
      <use xlink:href="#DejaVuSans-74" x="78.052734"/>
      <use xlink:href="#DejaVuSans-6e" x="117.261719"/>
      <use xlink:href="#DejaVuSans-65" x="180.640625"/>
      <use xlink:href="#DejaVuSans-73" x="242.164062"/>
      <use xlink:href="#DejaVuSans-73" x="294.263672"/>
     </g>
    </g>
   </g>
   <g id="line2d_27">
    <path d="M 73.832727 212.653081 
L 74.177006 178.77128 
L 74.865563 159.333826 
L 75.209841 161.652054 
L 75.554119 160.938753 
L 76.586955 155.232344 
L 76.931233 154.340718 
L 77.275511 148.99096 
L 77.61979 153.984068 
L 77.964068 146.851057 
L 78.308347 151.844164 
L 78.652625 151.665839 
L 78.996903 148.99096 
L 79.341182 145.424455 
L 79.68546 144.889479 
L 80.029739 144.711154 
L 80.374017 140.253022 
L 80.718296 140.966323 
L 81.062574 143.641202 
L 81.406852 140.431347 
L 81.751131 132.40671 
L 82.439688 141.144648 
L 82.783966 136.151541 
L 83.128244 136.151541 
L 83.472523 137.221492 
L 83.816801 134.189963 
L 84.16108 134.189963 
L 84.505358 137.399818 
L 85.193915 149.525936 
L 85.538193 145.424455 
L 85.882472 152.914116 
L 86.22675 147.921008 
L 86.571029 152.914116 
L 86.915307 145.067804 
L 87.259585 147.921008 
L 87.603864 148.812635 
L 87.948142 149.347611 
L 88.636699 148.455984 
L 88.980978 152.02249 
L 89.325256 141.501299 
L 89.669534 152.557465 
L 90.013813 146.672732 
L 90.358091 150.239237 
L 90.70237 143.694396 
L 91.046648 139.718046 
L 91.390926 133.654987 
L 91.735205 138.113119 
L 92.079483 136.151541 
L 92.423762 132.763361 
L 92.76804 131.336758 
L 93.112319 141.806643 
L 93.456597 143.997853 
L 93.800875 137.089757 
L 94.145154 138.339283 
L 94.489432 145.479434 
L 94.833711 141.552351 
L 95.177989 135.483223 
L 95.866546 142.087862 
L 96.210824 146.371953 
L 96.555103 140.710092 
L 96.899381 141.730855 
L 97.24366 139.312583 
L 97.587938 135.79489 
L 97.932216 134.903264 
L 98.620773 137.043167 
L 98.965052 134.189963 
L 99.30933 128.623756 
L 99.653608 125.951549 
L 99.997887 128.343072 
L 100.342165 129.37518 
L 100.686444 131.734643 
L 101.030722 128.126904 
L 101.375 126.664138 
L 101.719279 129.692639 
L 102.063557 138.291444 
L 102.407836 136.996671 
L 102.752114 142.036275 
L 103.096393 135.259914 
L 103.784949 147.863645 
L 104.129228 152.976592 
L 104.473506 155.475645 
L 104.817785 153.690607 
L 105.506341 145.369585 
L 105.85062 153.092441 
L 106.194898 146.794762 
L 106.539177 147.029382 
L 106.883455 148.099334 
L 107.227734 143.997853 
L 107.572012 143.588114 
L 107.91629 140.074697 
L 108.260569 139.718046 
L 108.604847 136.864842 
L 108.949126 120.102266 
L 109.637682 130.623457 
L 109.981961 131.158433 
L 111.014796 139.18307 
L 111.359075 145.246129 
L 111.703353 140.609672 
L 112.047631 145.067804 
L 112.39191 142.927901 
L 112.736188 142.519231 
L 113.080467 145.547733 
L 113.424745 135.616565 
L 113.769023 139.004745 
L 114.113302 134.146317 
L 114.45758 135.749641 
L 114.801859 129.514492 
L 115.146137 128.305229 
L 115.490416 128.661879 
L 115.834694 130.266807 
L 116.178972 130.445132 
L 116.867529 123.880477 
L 117.211808 129.37518 
L 117.556086 130.801783 
L 117.900364 121.707194 
L 118.244643 122.955471 
L 118.588921 120.845913 
L 118.9332 122.987958 
L 119.277478 127.056952 
L 119.621756 121.202921 
L 119.966035 127.591928 
L 120.310313 119.745616 
L 120.654592 124.560398 
L 120.99887 127.80756 
L 121.343149 129.01853 
L 121.687427 132.228385 
L 122.031705 124.772996 
L 122.375984 123.701974 
L 122.720262 126.736538 
L 123.064541 122.063844 
L 123.408819 125.452025 
L 123.753097 119.745616 
L 124.097376 119.21064 
L 124.785933 119.21064 
L 125.130211 124.917049 
L 125.47449 126.307843 
L 125.818768 123.101195 
L 126.163046 114.752508 
L 126.507325 120.458917 
L 126.851603 115.644135 
L 127.195882 115.287484 
L 127.54016 112.79093 
L 127.884438 116.026311 
L 128.228717 116.535761 
L 128.572995 123.166462 
L 128.917274 127.629057 
L 129.261552 126.915041 
L 129.605831 127.056952 
L 129.950109 126.842285 
L 130.294387 123.133796 
L 130.982944 121.497871 
L 131.327223 127.591928 
L 131.671501 122.273943 
L 132.015779 123.847097 
L 132.360058 130.801783 
L 132.704336 130.485117 
L 133.048615 128.661879 
L 133.392893 133.833312 
L 133.737172 133.833312 
L 134.08145 127.235277 
L 134.425728 129.553506 
L 134.770007 126.878627 
L 135.114285 131.55614 
L 135.458564 131.913147 
L 135.802842 130.306613 
L 136.491399 134.546613 
L 136.835677 133.120011 
L 137.179956 134.724939 
L 137.524234 132.270155 
L 137.868512 127.629057 
L 138.212791 127.591928 
L 138.557069 132.763361 
L 138.901348 126.201026 
L 139.245626 136.508191 
L 139.589905 136.329866 
L 139.934183 140.966323 
L 140.278461 147.386033 
L 140.62274 137.531112 
L 140.967018 140.074697 
L 141.311297 141.094054 
L 141.655575 137.578143 
L 141.999853 139.637996 
L 142.344132 135.79489 
L 142.68841 141.501299 
L 143.032689 142.036275 
L 143.376967 148.15699 
L 143.721246 148.99096 
L 144.065524 150.952538 
L 144.409802 148.812635 
L 144.754081 144.532828 
L 145.098359 144.711154 
L 145.442638 144.122556 
L 145.786916 140.481328 
L 146.131194 139.539721 
L 146.475473 135.973215 
L 146.819751 136.329866 
L 147.16403 129.731831 
L 147.508308 135.483223 
L 147.852587 131.158433 
L 148.196865 130.623457 
L 148.541143 127.986064 
L 148.885422 131.734643 
L 149.2297 132.40671 
L 149.573979 136.375741 
L 150.262535 132.763361 
L 150.606814 134.011637 
L 150.951092 133.654987 
L 151.295371 123.490447 
L 151.639649 128.521575 
L 151.983928 122.987958 
L 152.328206 128.840205 
L 152.672484 125.808675 
L 153.016763 127.056952 
L 153.361041 133.476662 
L 153.70532 127.948578 
L 154.049598 129.910156 
L 154.393876 130.583374 
L 155.082433 126.343651 
L 155.426712 129.01853 
L 155.77099 126.165326 
L 156.115268 121.350543 
L 156.459547 121.707194 
L 156.803825 121.528869 
L 157.492382 114.039207 
L 157.836661 115.109159 
L 158.525217 112.077629 
L 158.869496 116.892412 
L 159.213774 123.668772 
L 159.558053 122.777146 
L 159.902331 121.350543 
L 160.246609 124.382073 
L 160.590888 124.237485 
L 160.935166 122.420495 
L 161.279445 121.350543 
L 161.623723 123.133796 
L 161.968002 128.700079 
L 162.31228 129.057087 
L 162.656558 128.483554 
L 163.000837 129.414094 
L 163.345115 122.063844 
L 163.689394 130.445132 
L 164.37795 121.559928 
L 164.722229 128.343072 
L 165.066507 129.592598 
L 165.410786 127.413603 
L 165.755064 130.761521 
L 166.099343 126.878627 
L 166.443621 124.560398 
L 166.787899 127.770253 
L 167.132178 124.9515 
L 167.476456 118.525364 
L 167.820735 129.235591 
L 168.165013 123.166462 
L 168.509291 122.09544 
L 168.85357 124.594492 
L 169.197848 125.487011 
L 169.542127 127.235277 
L 169.886405 130.623457 
L 170.230684 128.483554 
L 170.574962 128.521575 
L 170.91924 129.771102 
L 171.263519 128.878583 
L 171.607797 125.487011 
L 171.952076 128.483554 
L 172.296354 121.676018 
L 172.640632 123.635636 
L 172.984911 132.585035 
L 173.329189 130.445132 
L 173.673468 134.724939 
L 174.017746 131.158433 
L 174.362024 131.336758 
L 174.706303 132.763361 
L 175.050581 134.903264 
L 175.39486 135.126215 
L 175.739138 131.913147 
L 176.083417 135.43824 
L 176.427695 128.661879 
L 176.771973 129.771102 
L 177.116252 137.803772 
L 177.46053 129.37518 
L 177.804809 134.189963 
L 178.149087 128.343072 
L 178.493365 133.920152 
L 178.837644 128.738356 
L 179.181922 129.592598 
L 179.526201 125.879433 
L 179.870479 128.126904 
L 180.214758 131.693409 
L 180.559036 127.80756 
L 180.903314 132.228385 
L 181.247593 134.903264 
L 181.591871 130.583374 
L 181.93615 135.616565 
L 182.280428 132.091651 
L 182.624706 133.519681 
L 182.968985 129.414094 
L 183.313263 134.011637 
L 183.657542 129.119617 
L 184.00182 130.22708 
L 184.346099 128.801903 
L 184.690377 137.352965 
L 185.034655 129.336344 
L 185.378934 132.364845 
L 185.723212 128.267462 
L 186.067491 137.221492 
L 186.411769 136.640376 
L 187.100326 141.501299 
L 187.444604 134.634882 
L 187.788883 136.911253 
L 188.133161 136.508191 
L 188.47744 135.348543 
L 188.821718 137.081748 
L 189.510275 135.616565 
L 189.854553 136.105935 
L 190.198832 134.324464 
L 190.54311 133.298336 
L 190.887388 134.546613 
L 191.231667 142.341084 
L 191.575945 131.652257 
L 191.920224 144.656997 
L 192.264502 137.446764 
L 192.953059 142.749576 
L 193.297337 138.2437 
L 193.641616 138.956289 
L 193.985894 141.933408 
L 194.330173 142.162937 
L 194.674451 141.857949 
L 195.018729 142.087862 
L 195.707286 140.609672 
L 196.051565 145.136856 
L 196.395843 139.004745 
L 196.740121 146.851057 
L 197.0844 138.113119 
L 197.428678 149.704261 
L 197.772957 145.122426 
L 198.117235 145.191438 
L 198.461514 147.151057 
L 198.805792 142.341084 
L 199.15007 141.450349 
L 199.494349 144.656997 
L 199.838627 142.875526 
L 200.182906 135.885661 
L 200.527184 140.10421 
L 200.871462 132.992534 
L 201.215741 138.160779 
L 201.560019 147.32135 
L 201.904298 146.427936 
L 202.248576 146.851057 
L 202.592855 146.382642 
L 202.937133 144.819793 
L 203.281411 140.074697 
L 203.62569 149.347611 
L 203.969968 149.763524 
L 204.314247 143.569014 
L 204.658525 143.284551 
L 205.002803 142.087862 
L 205.347082 141.628496 
L 205.69136 146.438468 
L 206.035639 130.583374 
L 206.379917 141.01684 
L 206.724196 137.85117 
L 207.068474 139.004745 
L 207.412752 137.982275 
L 207.757031 134.546613 
L 208.101309 142.57125 
L 208.445588 146.794762 
L 208.789866 136.686517 
L 209.478423 142.392925 
L 209.822701 137.352965 
L 210.511258 139.896371 
L 210.855536 145.246129 
L 211.199815 142.927901 
L 211.544093 142.44487 
L 211.888372 139.637996 
L 212.23265 139.995362 
L 212.576929 142.496918 
L 212.921207 142.801877 
L 213.265485 140.966323 
L 213.609764 145.60278 
L 213.954042 143.515892 
L 214.298321 139.410306 
L 214.642599 142.749576 
L 214.986877 142.749576 
L 215.331156 152.02249 
L 215.675434 147.386033 
L 216.019713 150.952538 
L 216.363991 149.049509 
L 216.70827 150.299036 
L 217.052548 146.137756 
L 217.396826 150.358954 
L 217.741105 145.547733 
L 218.085383 148.63431 
L 218.429662 148.99096 
L 218.77394 142.087862 
L 219.118218 145.959431 
L 219.462497 140.966323 
L 219.806775 150.179558 
L 220.151054 145.122426 
L 220.495332 143.944408 
L 220.839611 146.560611 
L 221.183889 137.756468 
L 221.528167 144.765419 
L 221.872446 145.424455 
L 222.216724 148.932528 
L 222.561003 148.99096 
L 222.905281 151.370058 
L 223.249559 155.232344 
L 223.593838 150.060912 
L 223.938116 146.794762 
L 224.282395 139.896371 
L 224.626673 145.904027 
L 224.970952 145.314826 
L 225.31523 154.340718 
L 225.659508 142.44487 
L 226.003787 140.609672 
L 226.348065 148.455984 
L 226.692344 138.82642 
L 227.036622 145.122426 
L 227.3809 146.193449 
L 228.069457 152.200815 
L 228.413736 146.851057 
L 228.758014 144.229907 
L 229.102292 149.704261 
L 229.446571 141.679624 
L 230.135128 147.029382 
L 230.479406 145.479434 
L 230.823685 138.874794 
L 231.167963 145.836441 
L 231.512241 132.98417 
L 231.85652 137.934793 
L 232.200798 140.609672 
L 232.545077 139.361396 
L 232.889355 139.896371 
L 233.577912 132.40671 
L 233.92219 139.668877 
L 234.266469 139.004745 
L 235.299304 147.085968 
L 235.643582 153.3336 
L 235.987861 150.656043 
L 236.332139 154.047615 
L 236.676418 149.585021 
L 237.020696 152.914116 
L 237.364974 154.940134 
L 237.709253 147.264472 
L 238.053531 148.15699 
L 238.39781 151.309189 
L 238.742088 147.921008 
L 239.086367 150.299036 
L 239.430645 149.049509 
L 239.774923 150.774213 
L 240.119202 149.882586 
L 240.46348 148.099334 
L 240.807759 143.106226 
L 241.152037 143.23182 
L 241.496315 142.801877 
L 241.840594 142.980381 
L 242.184872 137.26826 
L 242.529151 135.483223 
L 242.873429 138.648094 
L 243.217708 131.336758 
L 243.561986 141.144648 
L 243.906264 134.011637 
L 244.250543 140.787998 
L 244.594821 133.476662 
L 245.283378 128.483554 
L 245.627656 127.629057 
L 245.971935 124.415989 
L 246.316213 134.011637 
L 246.660492 131.515084 
L 247.00477 133.698185 
L 247.349048 131.871734 
L 247.693327 131.515084 
L 248.037605 131.871734 
L 248.381884 129.553506 
L 248.726162 130.761521 
L 249.070441 130.088482 
L 249.414719 131.830404 
L 250.103276 127.056952 
L 250.447554 131.871734 
L 250.791833 126.700301 
L 251.136111 130.623457 
L 251.480389 126.521976 
L 251.824668 132.585035 
L 252.168946 131.871734 
L 252.513225 133.298336 
L 252.857503 129.731831 
L 253.201782 120.993893 
L 253.54606 120.637242 
L 253.890338 128.305229 
L 254.234617 123.312121 
L 254.578895 123.312121 
L 255.267452 117.962363 
L 255.61173 120.993893 
L 255.956009 115.109159 
L 256.644566 123.847097 
L 256.988844 116.714086 
L 257.333123 125.808675 
L 257.677401 121.707194 
L 258.021679 115.82246 
L 258.365958 119.032315 
L 258.710236 116.892412 
L 259.054515 119.032315 
L 259.398793 114.930834 
L 259.743071 117.962363 
L 260.08735 118.497339 
L 260.431628 117.605713 
L 260.775907 117.962363 
L 261.120185 117.249062 
L 261.464464 117.249062 
L 261.808742 119.567291 
L 262.15302 123.847097 
L 262.497299 118.140689 
L 262.841577 121.172218 
L 263.185856 117.070737 
L 263.530134 117.427387 
L 263.874412 116.000785 
L 264.218691 115.109159 
L 264.562969 119.923941 
L 264.907248 115.82246 
L 265.251526 128.840205 
L 265.595804 117.249062 
L 265.940083 121.172218 
L 266.284361 119.032315 
L 266.972918 128.878583 
L 267.317197 125.63035 
L 267.661475 134.4122 
L 268.005753 131.871734 
L 268.350032 136.864842 
L 268.69431 134.189963 
L 269.038589 137.756468 
L 269.382867 138.113119 
L 269.727145 143.641202 
L 270.071424 136.686517 
L 270.415702 141.322974 
L 270.759981 136.329866 
L 271.104259 137.043167 
L 271.792816 143.641202 
L 272.137094 135.616565 
L 272.481373 130.445132 
L 272.825651 135.43824 
L 273.16993 134.724939 
L 273.514208 134.546613 
L 273.858486 141.679624 
L 274.202765 141.501299 
L 274.547043 137.756468 
L 274.891322 142.927901 
L 275.2356 132.585035 
L 275.579879 135.79489 
L 275.924157 131.693409 
L 276.268435 132.05006 
L 276.612714 136.686517 
L 276.956992 135.081589 
L 277.301271 132.585035 
L 277.645549 126.700301 
L 277.989827 129.37518 
L 278.334106 128.305229 
L 278.678384 131.693409 
L 279.022663 132.228385 
L 279.366941 126.700301 
L 279.71122 126.878627 
L 280.055498 128.126904 
L 280.399776 131.158433 
L 280.744055 132.763361 
L 281.088333 133.298336 
L 281.432612 131.336758 
L 281.77689 133.298336 
L 282.121168 134.546613 
L 282.465447 132.228385 
L 282.809725 132.941686 
L 283.154004 135.661726 
L 283.498282 135.973215 
L 284.186839 142.57125 
L 284.531117 143.997853 
L 284.875396 141.272202 
L 285.219674 143.462877 
L 285.563953 140.966323 
L 285.908231 143.641202 
L 286.252509 135.973215 
L 286.596788 138.469769 
L 286.941066 134.724939 
L 287.285345 139.539721 
L 287.629623 142.44487 
L 287.973901 142.266366 
L 288.31818 143.997853 
L 288.662458 140.787998 
L 289.006737 145.30093 
L 289.695294 143.944408 
L 290.039572 141.857949 
L 290.38385 141.144648 
L 290.728129 142.697379 
L 291.072407 139.539721 
L 291.416686 139.539721 
L 291.760964 134.502611 
L 292.105242 133.298336 
L 292.449521 131.336758 
L 292.793799 131.693409 
L 293.138078 134.724939 
L 293.482356 132.627162 
L 293.826635 136.375741 
L 294.170913 136.329866 
L 294.515191 136.508191 
L 294.85947 137.043167 
L 295.203748 136.197238 
L 295.548027 132.763361 
L 295.892305 135.84023 
L 296.236583 141.01684 
L 296.92514 142.980381 
L 297.269419 141.195343 
L 297.613697 146.193449 
L 297.957976 147.207707 
L 298.302254 147.621479 
L 298.646532 147.564358 
L 298.990811 144.765419 
L 299.335089 148.692502 
L 299.679368 147.264472 
L 300.023646 137.578143 
L 300.367924 139.312583 
L 300.712203 134.4122 
L 301.056481 135.661726 
L 301.40076 142.2146 
L 301.745038 137.85117 
L 302.089316 141.782188 
L 302.433595 136.421709 
L 303.122152 144.765419 
L 303.46643 144.586915 
L 303.810709 151.609733 
L 304.154987 148.750811 
L 304.843544 137.531112 
L 305.187822 145.492795 
L 305.532101 139.459314 
L 305.876379 138.744583 
L 306.220657 138.5659 
L 306.564936 148.63431 
L 306.909214 142.392925 
L 307.253493 140.915907 
L 307.597771 141.272202 
L 307.94205 144.354503 
L 308.286328 154.697369 
L 308.630606 144.229907 
L 308.974885 141.01684 
L 309.319163 140.025172 
L 309.663442 136.864842 
L 310.00772 140.253022 
L 310.351998 138.956289 
L 310.696277 135.927788 
L 311.040555 145.781105 
L 312.073391 148.692502 
L 312.417669 151.370058 
L 312.761947 151.844164 
L 313.106226 147.984366 
L 313.450504 160.403777 
L 313.794783 163.111759 
L 314.139061 148.041792 
L 314.483339 150.120532 
L 314.827618 149.585021 
L 315.171896 158.688713 
L 315.516175 150.895002 
L 315.860453 149.942028 
L 316.204732 145.891888 
L 316.54901 152.084073 
L 316.893288 147.500032 
L 317.581845 155.362068 
L 317.926124 149.286859 
L 318.270402 148.277659 
L 318.61468 138.339283 
L 318.958959 146.193449 
L 319.303237 150.475936 
L 319.647516 143.462877 
L 319.991794 150.535852 
L 320.336072 143.462877 
L 320.680351 146.193449 
L 321.024629 146.371953 
L 321.368908 142.519231 
L 321.713186 145.60278 
L 322.057465 145.246129 
L 322.401743 136.864842 
L 322.746021 142.927901 
L 323.0903 141.730855 
L 323.434578 138.469769 
L 323.778857 146.014945 
L 324.123135 146.972909 
L 324.467413 153.449092 
L 324.811692 145.369585 
L 325.500249 154.697369 
L 325.844527 141.501299 
L 326.188806 146.082174 
L 326.533084 148.576234 
L 326.877362 152.735791 
L 327.221641 152.735791 
L 327.565919 147.207707 
L 327.910198 149.942028 
L 328.254476 149.347611 
L 328.598754 149.823263 
L 328.943033 148.277659 
L 329.287311 148.576234 
L 329.63159 148.696243 
L 329.975868 145.547733 
L 330.320147 144.122556 
L 330.664425 146.851057 
L 331.008703 146.494406 
L 331.352982 142.036275 
L 331.69726 145.369585 
L 332.041539 145.246129 
L 332.385817 143.641202 
L 332.730095 145.246129 
L 333.074374 145.959431 
L 333.418652 150.952538 
L 333.762931 143.766261 
L 334.107209 147.564358 
L 334.451488 148.99096 
L 334.795766 138.2437 
L 335.140044 142.623373 
L 335.484323 143.819527 
L 335.828601 134.680758 
L 336.17288 146.260321 
L 336.517158 140.966323 
L 336.861436 142.57125 
L 337.205715 139.718046 
L 337.549993 143.158885 
L 337.894272 133.698185 
L 338.582828 137.934793 
L 338.927107 138.339283 
L 339.271385 137.578143 
L 339.615664 135.973215 
L 339.959942 139.361396 
L 340.304221 138.648094 
L 340.648499 138.82642 
L 340.992777 135.749641 
L 341.337056 138.82642 
L 341.681334 136.732749 
L 342.369891 129.158197 
L 342.714169 129.01853 
L 343.058448 130.623457 
L 343.402726 126.700301 
L 343.747005 133.476662 
L 344.091283 124.772996 
L 344.435562 126.343651 
L 345.124118 122.777146 
L 345.468397 123.847097 
L 345.812675 123.312121 
L 346.156954 119.745616 
L 346.501232 117.962363 
L 346.84551 119.745616 
L 347.189789 118.85399 
L 347.534067 122.24217 
L 347.878346 129.057087 
L 348.222624 131.020628 
L 348.566903 132.270155 
L 348.911181 137.531112 
L 349.255459 136.864842 
L 349.599738 141.552351 
L 349.944016 135.79489 
L 350.288295 135.215199 
L 350.632573 140.559613 
L 350.976851 134.189963 
L 351.32113 136.864842 
L 351.665408 136.197238 
L 352.009687 132.542993 
L 352.353965 130.583374 
L 352.698244 129.37518 
L 353.042522 132.228385 
L 353.3868 126.307843 
L 353.731079 123.847097 
L 354.419636 127.376726 
L 354.763914 130.485117 
L 355.108192 126.343651 
L 355.452471 126.343651 
L 355.796749 131.117816 
L 356.141028 132.585035 
L 356.485306 129.01853 
L 356.829584 135.616565 
L 357.173863 135.43824 
L 357.518141 136.284082 
L 357.86242 128.661879 
L 358.206698 128.661879 
L 358.550977 129.910156 
L 358.895255 129.731831 
L 359.239533 129.771102 
L 359.583812 125.987 
L 359.92809 130.980108 
L 360.272369 126.558034 
L 360.616647 132.941686 
L 361.305204 122.420495 
L 361.649482 126.700301 
L 361.993761 122.955471 
L 362.338039 127.056952 
L 362.682318 128.661879 
L 363.026596 131.693409 
L 363.370874 125.808675 
L 363.715153 126.521976 
L 364.059431 125.63035 
L 364.40371 125.808675 
L 364.747988 125.095374 
L 365.436545 126.165326 
L 366.46938 131.871734 
L 366.813659 124.917049 
L 367.157937 121.707194 
L 367.502215 126.343651 
L 367.846494 124.025422 
L 368.190772 122.955471 
L 368.535051 124.917049 
L 368.879329 122.420495 
L 369.223607 121.885519 
L 370.256443 126.343651 
L 370.600721 125.808675 
L 370.945 120.815568 
L 371.289278 124.203748 
L 371.633556 119.567291 
L 371.977835 118.140689 
L 372.322113 122.420495 
L 372.666392 125.095374 
L 373.01067 122.420495 
L 373.354948 120.815568 
L 373.699227 121.350543 
L 374.043505 119.21064 
L 374.387784 122.063844 
L 374.732062 117.962363 
L 375.07634 121.885519 
L 375.420619 114.395858 
L 375.764897 120.102266 
L 376.109176 116.714086 
L 376.453454 116.892412 
L 376.797733 116.892412 
L 377.142011 120.102266 
L 377.486289 115.465809 
L 378.174846 123.847097 
L 378.519125 123.668772 
L 378.863403 122.063844 
L 379.207681 120.993893 
L 379.55196 116.000785 
L 380.240517 118.497339 
L 380.584795 123.847097 
L 380.929074 117.962363 
L 381.273352 119.21064 
L 381.61763 116.892412 
L 381.961909 111.720979 
L 382.306187 115.465809 
L 382.650466 112.79093 
L 382.994744 115.287484 
L 383.339022 114.574183 
L 383.683301 110.294377 
L 384.027579 116.714086 
L 384.716136 115.465809 
L 385.060415 112.43428 
L 385.404693 115.82246 
L 385.748971 113.504232 
L 386.09325 116.535761 
L 386.437528 115.82246 
L 386.781807 117.962363 
L 387.126085 117.605713 
L 387.470363 121.350543 
L 387.814642 115.644135 
L 388.15892 119.032315 
L 388.503199 120.993893 
L 388.847477 120.993893 
L 389.191756 121.350543 
L 389.880312 112.79093 
L 390.224591 116.892412 
L 390.568869 114.395858 
L 390.913148 114.395858 
L 391.601704 110.829352 
L 391.945983 111.186003 
L 392.290261 114.039207 
L 392.978818 110.116051 
L 393.323097 115.465809 
L 393.667375 108.689449 
L 394.011653 108.867775 
L 394.355932 108.867775 
L 394.70021 110.116051 
L 395.044489 114.752508 
L 395.388767 111.364328 
L 395.733045 114.395858 
L 396.421602 112.79093 
L 396.765881 109.759401 
L 397.110159 113.325906 
L 397.454437 114.752508 
L 398.142994 111.364328 
L 398.487273 107.797823 
L 398.487273 107.797823 
" clip-path="url(#p90432b26d6)" style="fill: none; stroke: #0000ff; stroke-width: 1.5; stroke-linecap: square"/>
   </g>
   <g id="line2d_28">
    <path d="M 73.832727 295.488 
L 74.177006 267.929456 
L 74.865563 246.148017 
L 75.209841 248.976648 
L 75.554119 248.113185 
L 76.586955 240.982698 
L 76.931233 239.832017 
L 77.275511 232.711968 
L 77.61979 239.368918 
L 77.964068 229.756774 
L 78.308347 236.555988 
L 78.652625 236.318894 
L 78.996903 232.711968 
L 79.341182 227.751266 
L 79.68546 226.991757 
L 80.029739 226.737676 
L 80.374017 220.233247 
L 80.718296 221.294088 
L 81.062574 225.203523 
L 81.406852 220.499194 
L 81.751131 208.016414 
L 82.439688 221.558075 
L 82.783966 213.976578 
L 83.128244 213.976578 
L 83.472523 215.63515 
L 83.816801 210.885379 
L 84.16108 210.885379 
L 84.505358 215.909732 
L 85.193915 233.441003 
L 85.538193 227.751266 
L 85.882472 237.969848 
L 86.22675 231.242238 
L 86.571029 237.969848 
L 86.915307 227.245382 
L 87.259585 231.242238 
L 87.603864 232.468096 
L 87.948142 233.19842 
L 88.636699 231.979055 
L 88.980978 236.792666 
L 89.325256 222.084592 
L 89.669534 237.500214 
L 90.013813 229.50765 
L 90.358091 234.407064 
L 90.70237 225.280189 
L 91.046648 219.432433 
L 91.390926 210.030682 
L 91.735205 217.002855 
L 92.079483 213.976578 
L 92.423762 208.594805 
L 92.76804 206.267118 
L 93.112319 222.53383 
L 93.456597 225.716757 
L 93.800875 215.431969 
L 94.145154 217.347723 
L 94.489432 227.829088 
L 94.833711 222.159801 
L 95.177989 212.930824 
L 95.866546 222.946328 
L 96.210824 229.086449 
L 96.555103 220.913918 
L 96.899381 222.422458 
L 97.24366 218.8225 
L 97.587938 213.419452 
L 97.932216 212.017139 
L 98.620773 215.360044 
L 98.965052 210.885379 
L 99.30933 201.73313 
L 99.653608 197.120823 
L 99.997887 201.25569 
L 100.342165 203.003436 
L 100.686444 206.920127 
L 101.030722 200.886891 
L 101.375 198.365643 
L 101.719279 203.536716 
L 102.063557 217.274844 
L 102.407836 215.288227 
L 102.752114 222.870747 
L 103.096393 212.579703 
L 103.784949 231.162999 
L 104.129228 238.051947 
L 104.473506 241.294943 
L 104.817785 238.986651 
L 105.506341 227.673556 
L 105.85062 238.204049 
L 106.194898 229.678178 
L 106.539177 230.005454 
L 106.883455 231.48828 
L 107.227734 225.716757 
L 107.572012 225.126969 
L 107.91629 219.966805 
L 108.260569 219.432433 
L 108.604847 215.084411 
L 108.949126 186.453646 
L 109.637682 205.088938 
L 109.981961 205.973482 
L 111.014796 218.627128 
L 111.359075 227.498551 
L 111.703353 220.764649 
L 112.047631 227.245382 
L 112.39191 224.171453 
L 112.736188 223.576759 
L 113.080467 227.925705 
L 113.424745 213.140079 
L 113.769023 218.357686 
L 114.113302 210.815838 
L 114.45758 213.348613 
L 114.801859 203.237703 
L 115.146137 201.191197 
L 115.490416 201.797853 
L 115.834694 204.496186 
L 116.178972 204.79287 
L 116.867529 193.438338 
L 117.211808 203.003436 
L 117.556086 205.384394 
L 117.900364 189.46493 
L 118.244643 191.7613 
L 118.588921 187.85738 
L 118.9332 191.82055 
L 119.277478 199.047152 
L 119.621756 188.526063 
L 119.966035 199.970022 
L 120.310313 185.775107 
L 120.654592 194.658109 
L 120.99887 200.340301 
L 121.343149 202.401924 
L 121.687427 207.726342 
L 122.031705 195.037306 
L 122.375984 193.116305 
L 122.720262 198.491502 
L 123.064541 190.125019 
L 123.408819 196.241541 
L 123.753097 185.775107 
L 124.097376 184.750696 
L 124.785933 184.750696 
L 125.130211 195.293653 
L 125.47449 197.744617 
L 125.818768 192.026867 
L 126.163046 175.880371 
L 126.507325 187.128723 
L 126.851603 177.705172 
L 127.195882 176.978492 
L 127.54016 171.76647 
L 127.884438 178.479167 
L 128.228717 179.503522 
L 128.572995 192.145642 
L 128.917274 200.033848 
L 129.261552 198.801328 
L 129.605831 199.047152 
L 129.950109 198.675128 
L 130.294387 192.086208 
L 130.982944 189.076004 
L 131.327223 199.970022 
L 131.671501 190.512366 
L 132.015779 193.378175 
L 132.360058 205.384394 
L 132.704336 204.859309 
L 133.048615 201.797853 
L 133.392893 210.316145 
L 133.737172 210.316145 
L 134.08145 199.355449 
L 134.425728 203.30324 
L 134.770007 198.738179 
L 135.114285 206.627535 
L 135.458564 207.212124 
L 135.802842 204.562466 
L 136.491399 211.452371 
L 136.835677 209.170878 
L 137.179956 211.735032 
L 137.524234 207.794339 
L 137.868512 200.033848 
L 138.212791 199.970022 
L 138.557069 208.594805 
L 138.901348 197.557896 
L 139.245626 214.531559 
L 139.589905 214.254336 
L 140.278461 230.501487 
L 140.62274 216.111563 
L 140.967018 219.966805 
L 141.311297 221.483227 
L 141.655575 216.183792 
L 141.999853 219.31222 
L 142.344132 213.419452 
L 142.68841 222.084592 
L 143.032689 222.870747 
L 143.376967 231.567737 
L 143.721246 232.711968 
L 144.065524 235.366341 
L 144.409802 232.468096 
L 144.754081 226.483137 
L 145.098359 226.737676 
L 145.442638 225.895772 
L 145.786916 220.573646 
L 146.131194 219.1645 
L 146.475473 213.698284 
L 146.819751 214.254336 
L 147.16403 203.602415 
L 147.508308 212.930824 
L 147.852587 205.973482 
L 148.196865 205.088938 
L 148.541143 200.64609 
L 148.885422 206.920127 
L 149.2297 208.016414 
L 149.573979 214.325705 
L 150.262535 208.594805 
L 150.606814 210.601043 
L 150.951092 210.030682 
L 151.295371 192.733715 
L 151.639649 201.559509 
L 151.983928 191.82055 
L 152.328206 202.10021 
L 152.672484 196.869896 
L 153.016763 199.047152 
L 153.361041 209.744651 
L 153.70532 200.581929 
L 154.049598 203.900962 
L 154.393876 205.022443 
L 155.082433 197.807155 
L 155.426712 202.401924 
L 155.77099 197.495433 
L 156.115268 188.80159 
L 156.459547 189.46493 
L 156.803825 189.133669 
L 157.492382 174.400665 
L 157.836661 176.613542 
L 158.525217 170.234364 
L 159.213774 193.056323 
L 159.558053 191.435616 
L 159.902331 188.80159 
L 160.246609 194.339237 
L 160.590888 194.080151 
L 160.935166 190.7819 
L 161.279445 188.80159 
L 161.623723 192.086208 
L 161.968002 201.862677 
L 162.31228 202.467075 
L 162.656558 201.49485 
L 163.000837 203.068913 
L 163.345115 190.125019 
L 163.689394 204.79287 
L 164.37795 189.191425 
L 164.722229 201.25569 
L 165.066507 203.368879 
L 165.410786 199.663071 
L 165.755064 205.317741 
L 166.099343 198.738179 
L 166.443621 194.658109 
L 166.787899 200.276308 
L 167.132178 195.354891 
L 167.476456 183.426646 
L 167.820735 202.768313 
L 168.165013 192.145642 
L 168.509291 190.18334 
L 168.85357 194.71899 
L 169.197848 196.303307 
L 169.542127 199.355449 
L 169.886405 205.088938 
L 170.230684 201.49485 
L 170.574962 201.559509 
L 170.91924 203.668214 
L 171.263519 202.165198 
L 171.607797 196.303307 
L 171.952076 201.49485 
L 172.296354 189.407076 
L 172.640632 192.996435 
L 172.984911 208.305901 
L 173.329189 204.79287 
L 173.673468 211.735032 
L 174.017746 205.973482 
L 174.362024 206.267118 
L 174.706303 208.594805 
L 175.050581 212.017139 
L 175.39486 212.369069 
L 175.739138 207.212124 
L 176.083417 212.860163 
L 176.427695 201.797853 
L 176.771973 203.668214 
L 177.116252 216.529804 
L 177.46053 203.003436 
L 177.804809 210.885379 
L 178.149087 201.25569 
L 178.493365 210.454953 
L 178.837644 201.9276 
L 179.181922 203.368879 
L 179.526201 196.994224 
L 179.870479 200.886891 
L 180.214758 206.852592 
L 180.559036 200.340301 
L 180.903314 207.726342 
L 181.247593 212.017139 
L 181.591871 205.022443 
L 181.93615 213.140079 
L 182.280428 207.503527 
L 182.624706 209.813706 
L 182.968985 203.068913 
L 183.313263 210.601043 
L 183.657542 202.572671 
L 184.00182 204.430008 
L 184.346099 202.035323 
L 184.690377 215.83764 
L 185.034655 202.93806 
L 185.378934 207.948368 
L 185.723212 201.126803 
L 186.067491 215.63515 
L 186.411769 214.73671 
L 187.100326 222.084592 
L 187.444604 211.592354 
L 187.788883 215.156198 
L 188.133161 214.531559 
L 188.47744 212.719162 
L 188.821718 215.419608 
L 189.510275 213.140079 
L 189.854553 213.905457 
L 190.198832 211.099466 
L 190.54311 209.458051 
L 190.887388 211.452371 
L 191.231667 223.316741 
L 191.575945 206.785159 
L 191.920224 226.660422 
L 192.264502 215.981933 
L 192.953059 223.912261 
L 193.297337 217.202074 
L 193.641616 218.284384 
L 193.985894 222.719919 
L 194.330173 223.056248 
L 194.674451 222.609176 
L 195.018729 222.946328 
L 195.707286 220.764649 
L 196.051565 227.34347 
L 196.395843 218.357686 
L 196.740121 229.756774 
L 197.0844 217.002855 
L 197.428678 233.683157 
L 197.772957 227.322978 
L 198.117235 227.420954 
L 198.461514 230.174879 
L 198.805792 223.316741 
L 199.15007 222.009494 
L 199.494349 226.660422 
L 199.838627 224.095376 
L 200.182906 213.56145 
L 200.527184 220.010937 
L 200.871462 208.965239 
L 201.215741 217.075599 
L 201.560019 230.411656 
L 201.904298 229.164942 
L 202.248576 229.756774 
L 202.592855 229.101439 
L 202.937133 226.892522 
L 203.281411 219.966805 
L 203.62569 233.19842 
L 203.969968 233.763538 
L 204.314247 225.099416 
L 204.658525 224.688425 
L 205.002803 222.946328 
L 205.347082 222.271902 
L 205.69136 229.179704 
L 206.035639 205.022443 
L 206.379917 221.368921 
L 206.724196 216.602386 
L 207.068474 218.357686 
L 207.412752 216.802961 
L 207.757031 211.452371 
L 208.101309 223.652595 
L 208.445588 229.678178 
L 208.789866 214.80825 
L 209.478423 223.392455 
L 209.822701 215.83764 
L 210.511258 219.699868 
L 210.855536 227.498551 
L 211.199815 224.171453 
L 211.544093 223.468281 
L 211.888372 219.31222 
L 212.23265 219.848109 
L 212.576929 223.544218 
L 212.921207 223.988329 
L 213.265485 221.294088 
L 213.609764 228.003528 
L 213.954042 225.022756 
L 214.298321 218.96974 
L 214.642599 223.912261 
L 214.986877 223.912261 
L 215.331156 236.792666 
L 215.675434 230.501487 
L 216.019713 235.366341 
L 216.363991 232.791944 
L 216.70827 234.487743 
L 217.052548 228.757606 
L 217.396826 234.568537 
L 217.741105 227.925705 
L 218.085383 232.223792 
L 218.429662 232.711968 
L 218.77394 222.946328 
L 219.118218 228.506696 
L 219.462497 221.294088 
L 219.806775 234.326498 
L 220.151054 227.322978 
L 220.495332 225.639967 
L 220.839611 229.350788 
L 221.183889 216.457331 
L 221.528167 226.815043 
L 221.872446 227.751266 
L 222.216724 232.632105 
L 222.561003 232.711968 
L 222.905281 235.924716 
L 223.249559 240.982698 
L 223.593838 234.166187 
L 223.938116 229.678178 
L 224.282395 219.699868 
L 224.626673 228.42865 
L 224.970952 227.595958 
L 225.31523 239.832017 
L 225.659508 223.468281 
L 226.003787 220.764649 
L 226.348065 231.979055 
L 226.692344 218.087739 
L 227.036622 227.322978 
L 227.3809 228.835876 
L 228.069457 237.028929 
L 228.413736 229.756774 
L 228.758014 226.049697 
L 229.102292 233.683157 
L 229.446571 222.347125 
L 230.135128 230.005454 
L 230.479406 227.829088 
L 230.823685 218.161018 
L 231.167963 228.333385 
L 231.512241 208.951735 
L 231.85652 216.730352 
L 232.200798 220.764649 
L 232.545077 218.896065 
L 232.889355 219.699868 
L 233.577912 208.016414 
L 233.92219 219.358607 
L 234.266469 218.357686 
L 235.299304 230.084272 
L 235.643582 238.520119 
L 235.987861 234.968423 
L 236.332139 239.451551 
L 236.676418 233.521283 
L 237.020696 237.969848 
L 237.364974 240.606696 
L 237.709253 230.332617 
L 238.053531 231.567737 
L 238.39781 235.843454 
L 238.742088 231.242238 
L 239.086367 234.487743 
L 239.430645 232.791944 
L 239.774923 235.127155 
L 240.119202 233.924885 
L 240.46348 231.48828 
L 240.807759 224.430174 
L 241.152037 224.612108 
L 241.496315 223.988329 
L 241.840594 224.247642 
L 242.184872 215.707214 
L 242.529151 212.930824 
L 242.873429 217.817284 
L 243.217708 206.267118 
L 243.561986 221.558075 
L 243.906264 210.601043 
L 244.250543 221.029613 
L 244.594821 209.744651 
L 245.283378 201.49485 
L 245.627656 200.033848 
L 245.971935 194.39994 
L 246.316213 210.601043 
L 246.660492 206.560154 
L 247.00477 210.099885 
L 247.349048 207.144434 
L 247.693327 206.560154 
L 248.037605 207.144434 
L 248.381884 203.30324 
L 248.726162 205.317741 
L 249.070441 204.198884 
L 249.414719 207.076847 
L 250.103276 199.047152 
L 250.447554 207.144434 
L 250.791833 198.428524 
L 251.136111 205.088938 
L 251.480389 198.118184 
L 251.824668 208.305901 
L 252.168946 207.144434 
L 252.513225 209.458051 
L 252.857503 203.602415 
L 253.201782 188.134955 
L 253.54606 187.464979 
L 253.890338 201.191197 
L 254.234617 192.410344 
L 254.578895 192.410344 
L 255.267452 182.328646 
L 255.61173 188.134955 
L 255.956009 176.613542 
L 256.644566 193.378175 
L 256.988844 179.860119 
L 257.333123 196.869896 
L 257.677401 189.46493 
L 258.021679 178.06692 
L 258.365958 184.407438 
L 258.710236 180.215712 
L 259.054515 184.407438 
L 259.398793 176.247505 
L 259.743071 182.328646 
L 260.08735 183.372209 
L 260.431628 181.62821 
L 260.775907 182.328646 
L 261.120185 180.92392 
L 261.464464 180.92392 
L 261.808742 185.434524 
L 262.15302 193.378175 
L 262.497299 182.677439 
L 262.841577 188.468687 
L 263.185856 180.57031 
L 263.530134 181.27655 
L 263.874412 178.42762 
L 264.218691 176.613542 
L 264.562969 186.114813 
L 264.907248 178.06692 
L 265.251526 202.10021 
L 265.595804 180.92392 
L 265.940083 188.468687 
L 266.284361 184.407438 
L 266.972918 202.165198 
L 267.317197 196.556073 
L 267.661475 211.238946 
L 268.005753 207.144434 
L 268.350032 215.084411 
L 268.69431 210.885379 
L 269.038589 216.457331 
L 269.382867 217.002855 
L 269.727145 225.203523 
L 270.071424 214.80825 
L 270.415702 221.821576 
L 270.759981 214.254336 
L 271.104259 215.360044 
L 271.792816 225.203523 
L 272.481373 204.79287 
L 272.825651 212.860163 
L 273.16993 211.735032 
L 273.514208 211.452371 
L 273.858486 222.347125 
L 274.202765 222.084592 
L 274.547043 216.457331 
L 274.891322 224.171453 
L 275.2356 208.305901 
L 275.579879 213.419452 
L 275.924157 206.852592 
L 276.268435 207.435683 
L 276.612714 214.80825 
L 276.956992 212.298696 
L 277.301271 208.305901 
L 277.645549 198.428524 
L 277.989827 203.003436 
L 278.334106 201.191197 
L 278.678384 206.852592 
L 279.022663 207.726342 
L 279.366941 198.428524 
L 279.71122 198.738179 
L 280.055498 200.886891 
L 280.399776 205.973482 
L 280.744055 208.594805 
L 281.088333 209.458051 
L 281.432612 206.267118 
L 281.77689 209.458051 
L 282.121168 211.452371 
L 282.465447 207.726342 
L 282.809725 208.88313 
L 283.154004 213.210882 
L 283.498282 213.698284 
L 284.186839 223.652595 
L 284.531117 225.716757 
L 284.875396 221.746602 
L 285.219674 224.946208 
L 285.563953 221.294088 
L 285.908231 225.203523 
L 286.252509 213.698284 
L 286.596788 217.54632 
L 286.941066 211.735032 
L 287.285345 219.1645 
L 287.629623 223.468281 
L 287.973901 223.207543 
L 288.31818 225.716757 
L 288.662458 221.029613 
L 289.006737 227.57626 
L 289.695294 225.639967 
L 290.039572 222.609176 
L 290.38385 221.558075 
L 290.728129 223.836304 
L 291.072407 219.1645 
L 291.416686 219.1645 
L 291.760964 211.382538 
L 292.105242 209.458051 
L 292.449521 206.267118 
L 292.793799 206.852592 
L 293.138078 211.735032 
L 293.482356 208.374203 
L 293.826635 214.325705 
L 294.170913 214.254336 
L 294.515191 214.531559 
L 294.85947 215.360044 
L 295.203748 214.047806 
L 295.548027 208.594805 
L 295.892305 213.490397 
L 296.236583 221.368921 
L 296.92514 224.247642 
L 297.269419 221.633033 
L 297.613697 228.835876 
L 297.957976 230.253691 
L 298.302254 230.827983 
L 298.646532 230.748843 
L 298.990811 226.815043 
L 299.335089 232.303562 
L 299.679368 230.332617 
L 300.023646 216.183792 
L 300.367924 218.8225 
L 300.712203 211.238946 
L 301.056481 213.210882 
L 301.40076 223.13184 
L 301.745038 216.602386 
L 302.089316 222.497902 
L 302.433595 214.397181 
L 303.122152 226.815043 
L 303.46643 226.560388 
L 303.810709 236.244211 
L 304.154987 232.383446 
L 304.843544 216.111563 
L 305.187822 227.847994 
L 305.532101 219.043524 
L 305.876379 217.963686 
L 306.220657 217.692454 
L 306.564936 232.223792 
L 306.909214 223.392455 
L 307.253493 221.219366 
L 307.597771 221.746602 
L 307.94205 226.228138 
L 308.286328 240.293498 
L 308.630606 226.049697 
L 308.974885 221.368921 
L 309.319163 219.892721 
L 309.663442 215.084411 
L 310.00772 220.233247 
L 310.351998 218.284384 
L 310.696277 213.627304 
L 311.040555 228.255337 
L 311.384834 229.756774 
L 311.729112 230.748843 
L 312.073391 232.303562 
L 312.417669 235.924716 
L 312.761947 236.555988 
L 313.106226 231.329704 
L 313.450504 247.461582 
L 313.794783 250.724742 
L 314.139061 231.408935 
L 314.483339 234.246768 
L 314.827618 233.521283 
L 315.171896 245.349307 
L 315.516175 235.289215 
L 315.860453 234.005366 
L 316.204732 228.411545 
L 316.54901 236.874305 
L 316.893288 230.659667 
L 317.581845 241.149274 
L 317.926124 233.115679 
L 318.270402 231.733885 
L 318.61468 217.347723 
L 318.958959 228.835876 
L 319.303237 234.726136 
L 319.647516 224.946208 
L 319.991794 234.806785 
L 320.336072 224.946208 
L 320.680351 228.835876 
L 321.024629 229.086449 
L 321.368908 223.576759 
L 321.713186 228.003528 
L 322.057465 227.498551 
L 322.401743 215.084411 
L 322.746021 224.171453 
L 323.0903 222.422458 
L 323.434578 217.54632 
L 323.778857 228.584856 
L 324.123135 229.926749 
L 324.467413 238.671221 
L 324.811692 227.673556 
L 325.500249 240.293498 
L 325.844527 222.084592 
L 326.188806 228.679449 
L 326.533084 232.144135 
L 326.877362 237.735237 
L 327.221641 237.735237 
L 327.565919 230.253691 
L 327.910198 234.005366 
L 328.254476 233.19842 
L 328.598754 233.844517 
L 328.943033 231.733885 
L 329.287311 232.144135 
L 329.63159 232.308689 
L 329.975868 227.925705 
L 330.320147 225.895772 
L 330.664425 229.756774 
L 331.008703 229.258082 
L 331.352982 222.870747 
L 331.69726 227.673556 
L 332.041539 227.498551 
L 332.385817 225.203523 
L 332.730095 227.498551 
L 333.074374 228.506696 
L 333.418652 235.366341 
L 333.762931 225.3837 
L 334.107209 230.748843 
L 334.451488 232.711968 
L 334.795766 217.202074 
L 335.140044 223.728542 
L 335.484323 225.460372 
L 335.828601 211.665053 
L 336.17288 228.9298 
L 336.517158 221.294088 
L 336.861436 223.652595 
L 337.205715 219.432433 
L 337.549993 224.506484 
L 337.894272 210.099885 
L 338.582828 216.730352 
L 338.927107 217.347723 
L 339.271385 216.183792 
L 339.615664 213.698284 
L 339.959942 218.896065 
L 340.304221 217.817284 
L 340.648499 218.087739 
L 340.992777 213.348613 
L 341.337056 218.087739 
L 341.681334 214.879899 
L 342.369891 202.637785 
L 342.714169 202.401924 
L 343.058448 205.088938 
L 343.402726 198.428524 
L 343.747005 209.744651 
L 344.091283 195.037306 
L 344.435562 197.807155 
L 345.124118 191.435616 
L 345.468397 193.378175 
L 345.812675 192.410344 
L 346.156954 185.775107 
L 346.501232 182.328646 
L 346.84551 185.775107 
L 347.189789 184.063276 
L 347.534067 190.453858 
L 347.878346 202.467075 
L 348.222624 205.746154 
L 348.566903 207.794339 
L 348.911181 216.111563 
L 349.255459 215.084411 
L 349.599738 222.159801 
L 349.944016 213.419452 
L 350.288295 212.509292 
L 350.632573 220.690181 
L 350.976851 210.885379 
L 351.32113 215.084411 
L 351.665408 214.047806 
L 352.009687 208.237703 
L 352.353965 205.022443 
L 352.698244 203.003436 
L 353.042522 207.726342 
L 353.3868 197.744617 
L 353.731079 193.378175 
L 354.419636 199.599512 
L 354.763914 204.859309 
L 355.108192 197.807155 
L 355.452471 197.807155 
L 355.796749 205.906515 
L 356.141028 208.305901 
L 356.485306 202.401924 
L 356.829584 213.140079 
L 357.173863 212.860163 
L 357.518141 214.183075 
L 357.86242 201.797853 
L 358.206698 201.797853 
L 358.550977 203.900962 
L 358.895255 203.602415 
L 359.239533 203.668214 
L 359.583812 197.183015 
L 359.92809 205.679241 
L 360.272369 198.180991 
L 360.616647 208.88313 
L 361.305204 190.7819 
L 361.649482 198.428524 
L 361.993761 191.7613 
L 362.338039 199.047152 
L 362.682318 201.797853 
L 363.026596 206.852592 
L 363.370874 196.869896 
L 363.715153 198.118184 
L 364.059431 196.556073 
L 364.40371 196.869896 
L 364.747988 195.610336 
L 365.436545 197.495433 
L 366.46938 207.144434 
L 366.813659 195.293653 
L 367.157937 189.46493 
L 367.502215 197.807155 
L 367.846494 193.699275 
L 368.190772 191.7613 
L 368.535051 195.293653 
L 368.879329 190.7819 
L 369.223607 189.795378 
L 370.256443 197.807155 
L 370.600721 196.869896 
L 370.945 187.800388 
L 371.289278 194.019628 
L 371.633556 185.434524 
L 371.977835 182.677439 
L 372.322113 190.7819 
L 372.666392 195.610336 
L 373.01067 190.7819 
L 373.354948 187.800388 
L 373.699227 188.80159 
L 374.043505 184.750696 
L 374.387784 190.125019 
L 374.732062 182.328646 
L 375.07634 189.795378 
L 375.420619 175.142774 
L 375.764897 186.453646 
L 376.109176 179.860119 
L 376.453454 180.215712 
L 376.797733 180.215712 
L 377.142011 186.453646 
L 377.486289 177.342365 
L 378.174846 193.378175 
L 378.519125 193.056323 
L 379.207681 188.134955 
L 379.55196 178.42762 
L 380.240517 183.372209 
L 380.584795 193.378175 
L 380.929074 182.328646 
L 381.273352 184.750696 
L 381.61763 180.215712 
L 381.961909 169.460652 
L 382.306187 177.342365 
L 382.650466 171.76647 
L 382.994744 176.978492 
L 383.339022 175.512131 
L 383.683301 166.312075 
L 384.027579 179.860119 
L 384.716136 177.342365 
L 385.060415 171.002934 
L 385.404693 178.06692 
L 385.748971 173.278851 
L 386.09325 179.503522 
L 386.437528 178.06692 
L 386.781807 182.328646 
L 387.126085 181.62821 
L 387.470363 188.80159 
L 387.814642 177.705172 
L 388.15892 184.407438 
L 388.503199 188.134955 
L 388.847477 188.134955 
L 389.191756 188.80159 
L 389.880312 171.76647 
L 390.224591 180.215712 
L 390.568869 175.142774 
L 390.913148 175.142774 
L 391.601704 167.503132 
L 391.945983 168.290198 
L 392.290261 174.400665 
L 392.978818 165.912202 
L 393.323097 177.342365 
L 393.667375 162.659291 
L 394.011653 163.071323 
L 394.355932 163.071323 
L 394.70021 165.912202 
L 395.044489 175.880371 
L 395.388767 168.681687 
L 395.733045 175.142774 
L 396.421602 171.76647 
L 396.765881 165.108071 
L 397.110159 172.902561 
L 397.454437 175.880371 
L 398.142994 168.681687 
L 398.487273 160.574571 
L 398.487273 160.574571 
" clip-path="url(#p90432b26d6)" style="fill: none; stroke-dasharray: 9.6,2.4,1.5,2.4; stroke-dashoffset: 0; stroke: #008000; stroke-width: 1.5"/>
   </g>
   <g id="line2d_29">
    <path d="M 73.832727 129.818162 
L 74.177006 89.613104 
L 74.865563 72.519634 
L 75.209841 74.327461 
L 75.554119 73.764322 
L 76.586955 69.481991 
L 76.931233 68.849419 
L 77.275511 65.269952 
L 77.61979 68.599217 
L 77.964068 63.94534 
L 78.308347 67.132341 
L 78.652625 67.012785 
L 79.341182 63.097644 
L 79.68546 62.7872 
L 80.029739 62.684631 
L 80.374017 60.272797 
L 80.718296 60.638558 
L 81.062574 62.078881 
L 81.406852 60.3635 
L 81.751131 56.797006 
L 82.439688 60.731222 
L 82.783966 58.326503 
L 83.128244 58.326503 
L 83.472523 58.807834 
L 83.816801 57.494547 
L 84.16108 57.494547 
L 84.505358 58.889903 
L 85.193915 65.610869 
L 85.538193 63.097644 
L 85.882472 67.858384 
L 86.22675 64.599779 
L 86.571029 67.858384 
L 86.915307 62.890226 
L 87.259585 64.599779 
L 87.603864 65.157174 
L 87.948142 65.496801 
L 88.636699 64.932913 
L 88.980978 67.252313 
L 89.325256 60.918006 
L 89.669534 67.614717 
L 90.013813 63.837813 
L 90.358091 66.07141 
L 90.70237 62.108603 
L 91.390926 57.279292 
L 91.735205 59.223382 
L 92.079483 58.326503 
L 92.423762 56.931916 
L 92.76804 56.406399 
L 93.112319 61.079456 
L 93.456597 62.278948 
L 93.800875 58.747544 
L 94.145154 59.330843 
L 94.489432 63.129779 
L 94.833711 60.944901 
L 95.177989 58.035621 
L 95.866546 61.229397 
L 96.210824 63.657457 
L 96.555103 60.506266 
L 96.899381 61.039251 
L 97.587938 58.170329 
L 97.932216 57.789388 
L 98.620773 58.72629 
L 98.965052 57.494547 
L 99.30933 55.514382 
L 99.653608 54.782275 
L 99.997887 55.430453 
L 100.342165 55.746925 
L 100.686444 56.549159 
L 101.030722 55.366916 
L 101.375 54.962632 
L 101.719279 55.848561 
L 102.063557 59.308044 
L 102.407836 58.705115 
L 102.752114 61.201802 
L 103.096393 57.940126 
L 104.129228 67.901237 
L 104.473506 69.656348 
L 104.817785 68.394564 
L 105.506341 63.065615 
L 105.85062 67.980833 
L 106.194898 63.911347 
L 106.539177 64.05331 
L 106.883455 64.710388 
L 107.227734 62.278948 
L 107.572012 62.04926 
L 107.91629 60.182588 
L 108.260569 60.003659 
L 108.604847 58.645272 
L 108.949126 53.750887 
L 109.637682 56.157976 
L 109.981961 56.343385 
L 111.014796 59.739013 
L 111.359075 62.993708 
L 111.703353 60.454695 
L 112.047631 62.890226 
L 112.39191 61.684349 
L 112.736188 61.461704 
L 113.080467 63.16976 
L 113.424745 58.093051 
L 113.769023 59.651804 
L 114.113302 57.476796 
L 114.45758 58.150668 
L 114.801859 55.79128 
L 115.146137 55.419261 
L 115.490416 55.525906 
L 115.834694 56.037427 
L 116.178972 56.097394 
L 116.523251 55.028755 
L 116.867529 54.322616 
L 117.211808 55.746925 
L 117.556086 56.219171 
L 117.900364 53.949458 
L 118.244643 54.149641 
L 118.588921 53.834446 
L 118.9332 54.155367 
L 119.277478 55.066751 
L 119.621756 53.879778 
L 119.966035 55.213833 
L 120.310313 53.716125 
L 120.99887 55.274819 
L 121.343149 55.635136 
L 121.687427 56.730427 
L 122.031705 54.508687 
L 122.375984 54.287642 
L 122.720262 54.981573 
L 123.064541 54.00267 
L 123.408819 54.662508 
L 123.753097 53.716125 
L 124.785933 53.670584 
L 125.130211 54.540444 
L 125.47449 54.871069 
L 126.163046 53.624645 
L 126.507325 53.789111 
L 126.851603 53.583098 
L 127.195882 53.596477 
L 127.54016 53.815391 
L 127.884438 53.573456 
L 128.228717 53.568 
L 128.572995 54.187283 
L 128.917274 55.224265 
L 129.261552 55.028755 
L 129.950109 55.009442 
L 130.294387 54.181384 
L 130.982944 53.919738 
L 131.327223 55.213833 
L 131.671501 54.035521 
L 132.015779 54.316019 
L 132.360058 56.219171 
L 132.704336 56.110925 
L 133.048615 55.525906 
L 133.392893 57.350479 
L 133.737172 57.350479 
L 134.08145 55.115106 
L 134.425728 55.803771 
L 134.770007 55.019075 
L 135.114285 56.484744 
L 135.458564 56.61417 
L 135.802842 56.05076 
L 136.491399 57.640856 
L 136.835677 57.069145 
L 137.179956 57.714845 
L 137.524234 56.74597 
L 137.868512 55.224265 
L 138.212791 55.213833 
L 138.557069 56.931916 
L 138.901348 54.844157 
L 139.245626 58.484823 
L 139.589905 58.405396 
L 139.934183 60.638558 
L 140.278461 64.270578 
L 140.62274 58.950661 
L 140.967018 60.182588 
L 141.311297 60.704882 
L 141.655575 58.972494 
L 141.999853 59.963772 
L 142.344132 58.170329 
L 142.68841 60.918006 
L 143.032689 61.201802 
L 143.376967 64.746244 
L 143.721246 65.269952 
L 144.065524 66.538735 
L 144.409802 65.157174 
L 144.754081 62.58252 
L 145.098359 62.684631 
L 145.442638 62.349339 
L 145.786916 60.389011 
L 146.131194 59.914942 
L 146.475473 58.248147 
L 146.819751 58.405396 
L 147.16403 55.861247 
L 147.508308 58.035621 
L 147.852587 56.343385 
L 148.196865 56.157976 
L 148.541143 55.326038 
L 148.885422 56.549159 
L 149.2297 56.797006 
L 149.573979 58.425778 
L 150.262535 56.931916 
L 150.606814 57.422232 
L 150.951092 57.279292 
L 151.295371 54.247179 
L 151.639649 55.483642 
L 151.983928 54.155367 
L 152.328206 55.580199 
L 152.672484 54.747454 
L 153.016763 55.066751 
L 153.361041 57.208672 
L 153.70532 55.315227 
L 154.049598 55.919351 
L 154.393876 56.144306 
L 155.082433 54.880147 
L 155.426712 55.635136 
L 156.115268 53.899496 
L 156.803825 53.924068 
L 157.148104 53.603938 
L 157.492382 53.67775 
L 157.836661 53.604776 
L 158.525217 53.920895 
L 158.869496 53.569111 
L 159.213774 54.28122 
L 159.902331 53.899496 
L 160.246609 54.424908 
L 160.590888 54.394818 
L 160.935166 54.05909 
L 161.279445 53.899496 
L 161.623723 54.181384 
L 161.968002 55.537482 
L 162.31228 55.647098 
L 162.656558 55.472258 
L 163.000837 55.759276 
L 163.345115 54.00267 
L 163.689394 56.097394 
L 164.033672 54.756026 
L 164.37795 53.928432 
L 164.722229 55.430453 
L 165.066507 55.816317 
L 165.410786 55.164134 
L 165.755064 56.205301 
L 166.099343 55.019075 
L 166.443621 54.462688 
L 166.787899 55.264199 
L 167.476456 53.624083 
L 167.820735 55.702868 
L 168.165013 54.187283 
L 168.509291 54.007539 
L 168.85357 54.469995 
L 169.197848 54.670715 
L 169.542127 55.115106 
L 169.886405 56.157976 
L 170.230684 55.472258 
L 170.574962 55.483642 
L 170.91924 55.873989 
L 171.263519 55.591968 
L 171.607797 54.670715 
L 171.952076 55.472258 
L 172.296354 53.94496 
L 172.640632 54.274837 
L 172.984911 56.86417 
L 173.329189 56.097394 
L 173.673468 57.714845 
L 174.017746 56.343385 
L 174.362024 56.406399 
L 174.706303 56.931916 
L 175.050581 57.789388 
L 175.39486 57.883361 
L 175.739138 56.61417 
L 176.083417 58.016316 
L 176.427695 55.525906 
L 176.771973 55.873989 
L 177.116252 59.077739 
L 177.46053 55.746925 
L 177.804809 57.494547 
L 178.149087 55.430453 
L 178.493365 57.385351 
L 178.837644 55.549111 
L 179.181922 55.816317 
L 179.526201 54.764643 
L 179.870479 55.366916 
L 180.214758 56.534226 
L 180.559036 55.274819 
L 181.247593 57.789388 
L 181.591871 56.144306 
L 181.93615 58.093051 
L 182.280428 56.679775 
L 182.624706 57.225657 
L 182.968985 55.759276 
L 183.313263 57.422232 
L 183.657542 55.666562 
L 184.00182 56.024152 
L 184.346099 55.568483 
L 184.690377 58.86829 
L 185.034655 55.734629 
L 185.378934 56.781323 
L 185.723212 55.40812 
L 186.067491 58.807834 
L 186.411769 58.544043 
L 186.756047 59.541714 
L 187.100326 60.918006 
L 187.444604 57.677411 
L 187.788883 58.666307 
L 188.133161 58.484823 
L 188.47744 57.977925 
L 188.821718 58.743888 
L 189.510275 58.093051 
L 189.854553 58.306413 
L 190.198832 57.549461 
L 190.54311 57.138622 
L 190.887388 57.640856 
L 191.231667 61.365427 
L 191.575945 56.519355 
L 191.920224 62.653572 
L 192.264502 58.911595 
L 192.953059 61.586891 
L 193.297337 59.285327 
L 193.641616 59.628194 
L 193.985894 61.146897 
L 194.330173 61.269626 
L 194.674451 61.106723 
L 195.018729 61.229397 
L 195.707286 60.454695 
L 196.051565 62.930243 
L 196.395843 59.651804 
L 196.740121 63.94534 
L 197.0844 59.223382 
L 197.428678 65.725365 
L 197.772957 62.921875 
L 198.117235 62.961922 
L 198.461514 64.127235 
L 198.805792 61.365427 
L 199.15007 60.891204 
L 199.494349 62.653572 
L 199.838627 61.655676 
L 200.182906 58.209872 
L 200.527184 60.197483 
L 200.871462 57.01983 
L 201.215741 59.245959 
L 201.560019 64.231043 
L 201.904298 63.69093 
L 202.248576 63.94534 
L 202.592855 63.663845 
L 202.937133 62.747064 
L 203.281411 60.182588 
L 203.62569 65.496801 
L 203.969968 65.76351 
L 204.314247 62.038613 
L 204.658525 61.880677 
L 205.002803 61.229397 
L 205.347082 60.985089 
L 205.69136 63.697232 
L 206.035639 56.144306 
L 206.379917 60.664758 
L 206.724196 59.099953 
L 207.068474 59.651804 
L 207.412752 59.16159 
L 207.757031 57.640856 
L 208.101309 61.489906 
L 208.445588 63.911347 
L 208.789866 58.564783 
L 209.478423 61.393395 
L 209.822701 58.86829 
L 210.511258 60.092875 
L 210.855536 62.993708 
L 211.199815 61.684349 
L 211.544093 61.421459 
L 211.888372 59.963772 
L 212.23265 60.142614 
L 212.576929 61.449619 
L 212.921207 61.615426 
L 213.265485 60.638558 
L 213.609764 63.202032 
L 213.954042 62.009029 
L 214.298321 59.850872 
L 214.642599 61.586891 
L 214.986877 61.586891 
L 215.331156 67.252313 
L 215.675434 64.270578 
L 216.019713 66.538735 
L 216.363991 65.307075 
L 216.70827 66.110328 
L 217.052548 63.517905 
L 217.396826 66.149372 
L 217.741105 63.16976 
L 218.085383 65.044827 
L 218.429662 65.269952 
L 218.77394 61.229397 
L 219.118218 63.412165 
L 219.462497 60.638558 
L 219.806775 66.032617 
L 220.151054 62.921875 
L 220.495332 62.24885 
L 220.839611 63.770434 
L 221.183889 59.055605 
L 221.528167 62.715795 
L 221.872446 63.097644 
L 222.216724 65.232951 
L 222.561003 65.269952 
L 222.905281 66.815401 
L 223.249559 69.481991 
L 223.593838 65.955636 
L 223.938116 63.911347 
L 224.282395 60.092875 
L 224.626673 63.379403 
L 224.970952 63.033693 
L 225.31523 68.849419 
L 225.659508 61.421459 
L 226.003787 60.454695 
L 226.348065 64.932913 
L 226.692344 59.5651 
L 227.036622 62.921875 
L 227.3809 63.551021 
L 228.069457 67.372701 
L 228.413736 63.94534 
L 228.758014 62.410118 
L 229.102292 65.725365 
L 229.446571 61.012123 
L 230.135128 64.05331 
L 230.479406 63.129779 
L 230.823685 59.58857 
L 231.167963 63.339498 
L 231.512241 57.016605 
L 231.85652 59.139235 
L 232.200798 60.454695 
L 232.545077 59.826726 
L 232.889355 60.092875 
L 233.577912 56.797006 
L 233.92219 59.979148 
L 234.266469 59.651804 
L 234.610747 61.012123 
L 234.955026 62.890226 
L 235.299304 64.087664 
L 235.643582 68.147081 
L 235.987861 66.343664 
L 236.332139 68.643679 
L 236.676418 65.648758 
L 237.020696 67.858384 
L 237.364974 69.273571 
L 237.709253 64.196326 
L 238.053531 64.746244 
L 238.39781 66.774923 
L 238.742088 64.599779 
L 239.086367 66.110328 
L 239.430645 65.307075 
L 239.774923 66.421271 
L 240.119202 65.840288 
L 240.46348 64.710388 
L 240.807759 61.782278 
L 241.152037 61.851531 
L 241.496315 61.615426 
L 241.840594 61.71312 
L 242.184872 58.829307 
L 242.529151 58.035621 
L 242.873429 59.478905 
L 243.217708 56.406399 
L 243.561986 60.731222 
L 243.906264 57.422232 
L 244.250543 60.546382 
L 244.594821 57.208672 
L 245.283378 55.472258 
L 245.627656 55.224265 
L 245.971935 54.432037 
L 246.316213 57.422232 
L 246.660492 56.470013 
L 247.00477 57.296485 
L 247.349048 56.599035 
L 247.693327 56.470013 
L 248.037605 56.599035 
L 248.381884 55.803771 
L 248.726162 56.205301 
L 249.070441 55.978079 
L 249.414719 56.583961 
L 250.103276 55.066751 
L 250.447554 56.599035 
L 250.791833 54.972079 
L 251.136111 56.157976 
L 251.480389 54.925769 
L 251.824668 56.86417 
L 252.168946 56.599035 
L 252.513225 57.138622 
L 252.857503 55.861247 
L 253.201782 53.85283 
L 253.54606 53.809506 
L 253.890338 55.419261 
L 254.234617 54.213898 
L 254.578895 54.213898 
L 255.267452 53.59608 
L 255.61173 53.85283 
L 255.956009 53.604776 
L 256.300287 53.670584 
L 256.644566 54.316019 
L 256.988844 53.568053 
L 257.333123 54.747454 
L 257.677401 53.949458 
L 258.021679 53.578 
L 258.365958 53.657191 
L 258.710236 53.569111 
L 259.054515 53.657191 
L 260.431628 53.583216 
L 261.808742 53.700058 
L 262.15302 54.316019 
L 262.497299 53.603938 
L 262.841577 53.875749 
L 263.185856 53.571164 
L 264.218691 53.604776 
L 264.562969 53.73307 
L 264.907248 53.578 
L 265.251526 55.580199 
L 265.595804 53.574205 
L 265.940083 53.875749 
L 266.284361 53.657191 
L 266.62864 54.462688 
L 266.972918 55.591968 
L 267.317197 54.704626 
L 267.661475 57.585453 
L 268.005753 56.599035 
L 268.350032 58.645272 
L 268.69431 57.494547 
L 269.038589 59.055605 
L 269.382867 59.223382 
L 269.727145 62.078881 
L 270.071424 58.564783 
L 270.415702 60.824371 
L 270.759981 58.405396 
L 271.104259 58.72629 
L 271.792816 62.078881 
L 272.137094 58.093051 
L 272.481373 56.097394 
L 272.825651 58.016316 
L 273.16993 57.714845 
L 273.514208 57.640856 
L 273.858486 61.012123 
L 274.202765 60.918006 
L 274.547043 59.055605 
L 274.891322 61.684349 
L 275.2356 56.86417 
L 275.579879 58.170329 
L 275.924157 56.534226 
L 276.268435 56.664436 
L 276.612714 58.564783 
L 276.956992 57.864482 
L 277.301271 56.86417 
L 277.645549 54.972079 
L 277.989827 55.746925 
L 278.334106 55.419261 
L 278.678384 56.534226 
L 279.022663 56.730427 
L 279.366941 54.972079 
L 279.71122 55.019075 
L 280.055498 55.366916 
L 280.399776 56.343385 
L 280.744055 56.931916 
L 281.088333 57.138622 
L 281.432612 56.406399 
L 282.121168 57.640856 
L 282.465447 56.730427 
L 282.809725 57.000242 
L 283.154004 58.112571 
L 283.498282 58.248147 
L 284.531117 62.278948 
L 284.875396 60.797801 
L 285.219674 61.979546 
L 285.563953 60.638558 
L 285.908231 62.078881 
L 286.252509 58.248147 
L 286.596788 59.393219 
L 286.941066 57.714845 
L 287.629623 61.421459 
L 287.973901 61.325189 
L 288.31818 62.278948 
L 288.662458 60.546382 
L 289.006737 63.0256 
L 289.695294 62.24885 
L 290.039572 61.106723 
L 290.38385 60.731222 
L 290.728129 61.558453 
L 291.072407 59.914942 
L 291.416686 59.914942 
L 291.760964 57.622684 
L 292.105242 57.138622 
L 292.449521 56.406399 
L 292.793799 56.534226 
L 293.138078 57.714845 
L 293.482356 56.880121 
L 293.826635 58.425778 
L 294.515191 58.484823 
L 294.85947 58.72629 
L 295.203748 58.346669 
L 295.548027 56.931916 
L 295.892305 58.190063 
L 296.236583 60.664758 
L 296.92514 61.71312 
L 297.269419 60.757653 
L 297.613697 63.551021 
L 297.957976 64.161723 
L 298.302254 64.414975 
L 298.646532 64.379873 
L 298.990811 62.715795 
L 299.335089 65.081441 
L 299.679368 64.196326 
L 300.023646 58.972494 
L 300.367924 59.802667 
L 300.712203 57.585453 
L 301.056481 58.112571 
L 301.40076 61.29736 
L 301.745038 59.099953 
L 302.089316 61.066473 
L 302.433595 58.446237 
L 303.122152 62.715795 
L 303.46643 62.613442 
L 303.810709 66.975255 
L 304.154987 65.118175 
L 304.843544 58.950661 
L 305.187822 63.137595 
L 305.532101 59.875103 
L 305.876379 59.52548 
L 306.220657 59.439347 
L 306.564936 65.044827 
L 306.909214 61.393395 
L 307.253493 60.612449 
L 307.597771 60.797801 
L 307.94205 62.480868 
L 308.286328 69.101239 
L 308.630606 62.410118 
L 308.974885 60.664758 
L 309.319163 60.157623 
L 309.663442 58.645272 
L 310.00772 60.272797 
L 310.351998 59.628194 
L 310.696277 58.228272 
L 311.040555 63.306873 
L 312.073391 65.081441 
L 312.417669 66.815401 
L 312.761947 67.132341 
L 313.106226 64.639027 
L 313.450504 73.345973 
L 313.794783 75.498775 
L 314.139061 64.674649 
L 314.483339 65.994296 
L 314.827618 65.648758 
L 315.171896 72.028119 
L 315.516175 66.50079 
L 315.860453 65.87869 
L 316.204732 63.372232 
L 316.54901 67.293842 
L 316.893288 64.340397 
L 317.581845 69.574862 
L 317.926124 65.458038 
L 318.270402 64.821433 
L 318.61468 59.330843 
L 318.958959 63.551021 
L 319.303237 66.225736 
L 319.647516 61.979546 
L 319.991794 66.264919 
L 320.336072 61.979546 
L 320.680351 63.551021 
L 321.024629 63.657457 
L 321.368908 61.461704 
L 321.713186 63.202032 
L 322.057465 62.993708 
L 322.401743 58.645272 
L 322.746021 61.684349 
L 323.0903 61.039251 
L 323.434578 59.393219 
L 323.778857 63.445035 
L 324.123135 64.01907 
L 324.467413 68.226962 
L 324.811692 63.065615 
L 325.500249 69.101239 
L 325.844527 60.918006 
L 326.188806 63.484899 
L 326.533084 65.008332 
L 326.877362 67.736345 
L 327.221641 67.736345 
L 327.565919 64.161723 
L 327.910198 65.87869 
L 328.254476 65.496801 
L 328.598754 65.802009 
L 328.943033 64.821433 
L 329.63159 65.083797 
L 329.975868 63.16976 
L 330.320147 62.349339 
L 330.664425 63.94534 
L 331.008703 63.730731 
L 331.352982 61.201802 
L 331.69726 63.065615 
L 332.041539 62.993708 
L 332.385817 62.078881 
L 332.730095 62.993708 
L 333.074374 63.412165 
L 333.418652 66.538735 
L 333.762931 62.148823 
L 334.107209 64.379873 
L 334.451488 65.269952 
L 334.795766 59.285327 
L 335.140044 61.518205 
L 335.484323 62.178682 
L 335.828601 57.696463 
L 336.17288 63.590842 
L 336.517158 60.638558 
L 336.861436 61.489906 
L 337.205715 60.003659 
L 337.549993 61.811286 
L 337.894272 57.296485 
L 338.582828 59.139235 
L 338.927107 59.330843 
L 339.271385 58.972494 
L 339.615664 58.248147 
L 339.959942 59.826726 
L 340.304221 59.478905 
L 340.648499 59.5651 
L 340.992777 58.150668 
L 341.337056 59.5651 
L 341.681334 58.585599 
L 342.025613 56.797006 
L 342.369891 55.67861 
L 342.714169 55.635136 
L 343.058448 56.157976 
L 343.402726 54.972079 
L 343.747005 57.208672 
L 344.091283 54.508687 
L 344.435562 54.880147 
L 345.124118 54.118675 
L 345.468397 54.316019 
L 345.812675 54.213898 
L 346.156954 53.716125 
L 346.501232 53.59608 
L 346.84551 53.716125 
L 347.189789 53.644703 
L 347.534067 54.030481 
L 347.878346 55.647098 
L 348.566903 56.74597 
L 348.911181 58.950661 
L 349.255459 58.645272 
L 349.599738 60.944901 
L 349.944016 58.170329 
L 350.288295 57.921107 
L 350.632573 60.429045 
L 350.976851 57.494547 
L 351.32113 58.645272 
L 351.665408 58.346669 
L 352.009687 56.848283 
L 352.353965 56.144306 
L 352.698244 55.746925 
L 353.042522 56.730427 
L 353.3868 54.871069 
L 353.731079 54.316019 
L 354.075357 54.654344 
L 354.419636 55.15394 
L 354.763914 56.110925 
L 355.108192 54.880147 
L 355.452471 54.880147 
L 355.796749 56.329116 
L 356.141028 56.86417 
L 356.485306 55.635136 
L 356.829584 58.093051 
L 357.173863 58.016316 
L 357.518141 58.38509 
L 357.86242 55.525906 
L 358.206698 55.525906 
L 358.550977 55.919351 
L 359.239533 55.873989 
L 359.583812 54.790986 
L 359.92809 56.280974 
L 360.272369 54.935077 
L 360.616647 57.000242 
L 360.960925 55.066751 
L 361.305204 54.05909 
L 361.649482 54.972079 
L 361.993761 54.149641 
L 362.338039 55.066751 
L 362.682318 55.525906 
L 363.026596 56.534226 
L 363.370874 54.747454 
L 363.715153 54.925769 
L 364.059431 54.704626 
L 364.40371 54.747454 
L 364.747988 54.580412 
L 365.436545 54.835218 
L 366.125102 55.746925 
L 366.46938 56.599035 
L 366.813659 54.540444 
L 367.157937 53.949458 
L 367.502215 54.880147 
L 367.846494 54.351569 
L 368.190772 54.149641 
L 368.535051 54.540444 
L 368.879329 54.05909 
L 369.223607 53.97566 
L 370.256443 54.880147 
L 370.600721 54.747454 
L 370.945 53.830747 
L 371.289278 54.387867 
L 371.633556 53.700058 
L 371.977835 53.603938 
L 372.666392 54.580412 
L 373.01067 54.05909 
L 373.354948 53.830747 
L 373.699227 53.899496 
L 374.043505 53.670584 
L 374.387784 54.00267 
L 374.732062 53.59608 
L 375.07634 53.97566 
L 375.420619 53.648942 
L 375.764897 53.750887 
L 376.109176 53.568053 
L 376.797733 53.569111 
L 377.142011 53.750887 
L 377.486289 53.589254 
L 377.830568 53.684875 
L 378.174846 54.316019 
L 378.519125 54.28122 
L 379.55196 53.57395 
L 380.240517 53.622469 
L 380.584795 54.316019 
L 380.929074 53.59608 
L 381.273352 53.670584 
L 381.61763 53.569111 
L 381.961909 53.981305 
L 382.306187 53.589254 
L 382.650466 53.815391 
L 382.994744 53.596477 
L 383.339022 53.636235 
L 383.683301 54.276679 
L 384.027579 53.568053 
L 384.716136 53.589254 
L 385.060415 53.865626 
L 385.404693 53.578 
L 385.748971 53.729612 
L 386.09325 53.568 
L 387.126085 53.583216 
L 387.470363 53.899496 
L 387.814642 53.583098 
L 388.15892 53.657191 
L 388.503199 53.85283 
L 389.191756 53.899496 
L 389.536034 53.568959 
L 389.880312 53.815391 
L 390.224591 53.569111 
L 391.257426 53.815391 
L 391.601704 54.155573 
L 391.945983 54.081808 
L 392.290261 53.67775 
L 392.978818 54.319901 
L 393.323097 53.589254 
L 393.667375 54.719608 
L 394.355932 54.664226 
L 394.70021 54.319901 
L 395.044489 53.624645 
L 395.388767 54.046969 
L 395.733045 53.648942 
L 396.421602 53.815391 
L 396.765881 54.41073 
L 397.110159 53.749251 
L 397.454437 53.624645 
L 398.142994 54.046969 
L 398.487273 55.021074 
L 398.487273 55.021074 
" clip-path="url(#p90432b26d6)" style="fill: none; stroke-dasharray: 9.6,2.4,1.5,2.4; stroke-dashoffset: 0; stroke: #008000; stroke-width: 1.5"/>
   </g>
   <g id="line2d_30">
    <path d="M 73.832727 90.500272 
L 398.487273 90.500272 
L 398.487273 90.500272 
" clip-path="url(#p90432b26d6)" style="fill: none; stroke: #ff0000; stroke-width: 1.5; stroke-linecap: square"/>
   </g>
   <g id="patch_3">
    <path d="M 57.6 307.584 
L 57.6 41.472 
" style="fill: none; stroke: #000000; stroke-width: 0.8; stroke-linejoin: miter; stroke-linecap: square"/>
   </g>
   <g id="patch_4">
    <path d="M 414.72 307.584 
L 414.72 41.472 
" style="fill: none; stroke: #000000; stroke-width: 0.8; stroke-linejoin: miter; stroke-linecap: square"/>
   </g>
   <g id="patch_5">
    <path d="M 57.6 307.584 
L 414.72 307.584 
" style="fill: none; stroke: #000000; stroke-width: 0.8; stroke-linejoin: miter; stroke-linecap: square"/>
   </g>
   <g id="patch_6">
    <path d="M 57.6 41.472 
L 414.72 41.472 
" style="fill: none; stroke: #000000; stroke-width: 0.8; stroke-linejoin: miter; stroke-linecap: square"/>
   </g>
   <g id="text_16">
    <!-- Population's average and best fitness -->
    <g transform="translate(123.529687 35.472) scale(0.12 -0.12)">
     <defs>
      <path id="DejaVuSans-50" d="M 1259 4147 
L 1259 2394 
L 2053 2394 
Q 2494 2394 2734 2622 
Q 2975 2850 2975 3272 
Q 2975 3691 2734 3919 
Q 2494 4147 2053 4147 
L 1259 4147 
z
M 628 4666 
L 2053 4666 
Q 2838 4666 3239 4311 
Q 3641 3956 3641 3272 
Q 3641 2581 3239 2228 
Q 2838 1875 2053 1875 
L 1259 1875 
L 1259 0 
L 628 0 
L 628 4666 
z
" transform="scale(0.015625)"/>
      <path id="DejaVuSans-70" d="M 1159 525 
L 1159 -1331 
L 581 -1331 
L 581 3500 
L 1159 3500 
L 1159 2969 
Q 1341 3281 1617 3432 
Q 1894 3584 2278 3584 
Q 2916 3584 3314 3078 
Q 3713 2572 3713 1747 
Q 3713 922 3314 415 
Q 2916 -91 2278 -91 
Q 1894 -91 1617 61 
Q 1341 213 1159 525 
z
M 3116 1747 
Q 3116 2381 2855 2742 
Q 2594 3103 2138 3103 
Q 1681 3103 1420 2742 
Q 1159 2381 1159 1747 
Q 1159 1113 1420 752 
Q 1681 391 2138 391 
Q 2594 391 2855 752 
Q 3116 1113 3116 1747 
z
" transform="scale(0.015625)"/>
      <path id="DejaVuSans-75" d="M 544 1381 
L 544 3500 
L 1119 3500 
L 1119 1403 
Q 1119 906 1312 657 
Q 1506 409 1894 409 
Q 2359 409 2629 706 
Q 2900 1003 2900 1516 
L 2900 3500 
L 3475 3500 
L 3475 0 
L 2900 0 
L 2900 538 
Q 2691 219 2414 64 
Q 2138 -91 1772 -91 
Q 1169 -91 856 284 
Q 544 659 544 1381 
z
M 1991 3584 
L 1991 3584 
z
" transform="scale(0.015625)"/>
      <path id="DejaVuSans-6c" d="M 603 4863 
L 1178 4863 
L 1178 0 
L 603 0 
L 603 4863 
z
" transform="scale(0.015625)"/>
      <path id="DejaVuSans-27" d="M 1147 4666 
L 1147 2931 
L 616 2931 
L 616 4666 
L 1147 4666 
z
" transform="scale(0.015625)"/>
      <path id="DejaVuSans-20" transform="scale(0.015625)"/>
      <path id="DejaVuSans-76" d="M 191 3500 
L 800 3500 
L 1894 563 
L 2988 3500 
L 3597 3500 
L 2284 0 
L 1503 0 
L 191 3500 
z
" transform="scale(0.015625)"/>
      <path id="DejaVuSans-67" d="M 2906 1791 
Q 2906 2416 2648 2759 
Q 2391 3103 1925 3103 
Q 1463 3103 1205 2759 
Q 947 2416 947 1791 
Q 947 1169 1205 825 
Q 1463 481 1925 481 
Q 2391 481 2648 825 
Q 2906 1169 2906 1791 
z
M 3481 434 
Q 3481 -459 3084 -895 
Q 2688 -1331 1869 -1331 
Q 1566 -1331 1297 -1286 
Q 1028 -1241 775 -1147 
L 775 -588 
Q 1028 -725 1275 -790 
Q 1522 -856 1778 -856 
Q 2344 -856 2625 -561 
Q 2906 -266 2906 331 
L 2906 616 
Q 2728 306 2450 153 
Q 2172 0 1784 0 
Q 1141 0 747 490 
Q 353 981 353 1791 
Q 353 2603 747 3093 
Q 1141 3584 1784 3584 
Q 2172 3584 2450 3431 
Q 2728 3278 2906 2969 
L 2906 3500 
L 3481 3500 
L 3481 434 
z
" transform="scale(0.015625)"/>
      <path id="DejaVuSans-64" d="M 2906 2969 
L 2906 4863 
L 3481 4863 
L 3481 0 
L 2906 0 
L 2906 525 
Q 2725 213 2448 61 
Q 2172 -91 1784 -91 
Q 1150 -91 751 415 
Q 353 922 353 1747 
Q 353 2572 751 3078 
Q 1150 3584 1784 3584 
Q 2172 3584 2448 3432 
Q 2725 3281 2906 2969 
z
M 947 1747 
Q 947 1113 1208 752 
Q 1469 391 1925 391 
Q 2381 391 2643 752 
Q 2906 1113 2906 1747 
Q 2906 2381 2643 2742 
Q 2381 3103 1925 3103 
Q 1469 3103 1208 2742 
Q 947 2381 947 1747 
z
" transform="scale(0.015625)"/>
      <path id="DejaVuSans-62" d="M 3116 1747 
Q 3116 2381 2855 2742 
Q 2594 3103 2138 3103 
Q 1681 3103 1420 2742 
Q 1159 2381 1159 1747 
Q 1159 1113 1420 752 
Q 1681 391 2138 391 
Q 2594 391 2855 752 
Q 3116 1113 3116 1747 
z
M 1159 2969 
Q 1341 3281 1617 3432 
Q 1894 3584 2278 3584 
Q 2916 3584 3314 3078 
Q 3713 2572 3713 1747 
Q 3713 922 3314 415 
Q 2916 -91 2278 -91 
Q 1894 -91 1617 61 
Q 1341 213 1159 525 
L 1159 0 
L 581 0 
L 581 4863 
L 1159 4863 
L 1159 2969 
z
" transform="scale(0.015625)"/>
      <path id="DejaVuSans-66" d="M 2375 4863 
L 2375 4384 
L 1825 4384 
Q 1516 4384 1395 4259 
Q 1275 4134 1275 3809 
L 1275 3500 
L 2222 3500 
L 2222 3053 
L 1275 3053 
L 1275 0 
L 697 0 
L 697 3053 
L 147 3053 
L 147 3500 
L 697 3500 
L 697 3744 
Q 697 4328 969 4595 
Q 1241 4863 1831 4863 
L 2375 4863 
z
" transform="scale(0.015625)"/>
     </defs>
     <use xlink:href="#DejaVuSans-50"/>
     <use xlink:href="#DejaVuSans-6f" x="56.677734"/>
     <use xlink:href="#DejaVuSans-70" x="117.859375"/>
     <use xlink:href="#DejaVuSans-75" x="181.335938"/>
     <use xlink:href="#DejaVuSans-6c" x="244.714844"/>
     <use xlink:href="#DejaVuSans-61" x="272.498047"/>
     <use xlink:href="#DejaVuSans-74" x="333.777344"/>
     <use xlink:href="#DejaVuSans-69" x="372.986328"/>
     <use xlink:href="#DejaVuSans-6f" x="400.769531"/>
     <use xlink:href="#DejaVuSans-6e" x="461.951172"/>
     <use xlink:href="#DejaVuSans-27" x="525.330078"/>
     <use xlink:href="#DejaVuSans-73" x="552.820312"/>
     <use xlink:href="#DejaVuSans-20" x="604.919922"/>
     <use xlink:href="#DejaVuSans-61" x="636.707031"/>
     <use xlink:href="#DejaVuSans-76" x="697.986328"/>
     <use xlink:href="#DejaVuSans-65" x="757.166016"/>
     <use xlink:href="#DejaVuSans-72" x="818.689453"/>
     <use xlink:href="#DejaVuSans-61" x="859.802734"/>
     <use xlink:href="#DejaVuSans-67" x="921.082031"/>
     <use xlink:href="#DejaVuSans-65" x="984.558594"/>
     <use xlink:href="#DejaVuSans-20" x="1046.082031"/>
     <use xlink:href="#DejaVuSans-61" x="1077.869141"/>
     <use xlink:href="#DejaVuSans-6e" x="1139.148438"/>
     <use xlink:href="#DejaVuSans-64" x="1202.527344"/>
     <use xlink:href="#DejaVuSans-20" x="1266.003906"/>
     <use xlink:href="#DejaVuSans-62" x="1297.791016"/>
     <use xlink:href="#DejaVuSans-65" x="1361.267578"/>
     <use xlink:href="#DejaVuSans-73" x="1422.791016"/>
     <use xlink:href="#DejaVuSans-74" x="1474.890625"/>
     <use xlink:href="#DejaVuSans-20" x="1514.099609"/>
     <use xlink:href="#DejaVuSans-66" x="1545.886719"/>
     <use xlink:href="#DejaVuSans-69" x="1581.091797"/>
     <use xlink:href="#DejaVuSans-74" x="1608.875"/>
     <use xlink:href="#DejaVuSans-6e" x="1648.083984"/>
     <use xlink:href="#DejaVuSans-65" x="1711.462891"/>
     <use xlink:href="#DejaVuSans-73" x="1772.986328"/>
     <use xlink:href="#DejaVuSans-73" x="1825.085938"/>
    </g>
   </g>
   <g id="legend_1">
    <g id="patch_7">
     <path d="M 334.779375 302.584 
L 407.72 302.584 
Q 409.72 302.584 409.72 300.584 
L 409.72 242.8715 
Q 409.72 240.8715 407.72 240.8715 
L 334.779375 240.8715 
Q 332.779375 240.8715 332.779375 242.8715 
L 332.779375 300.584 
Q 332.779375 302.584 334.779375 302.584 
z
" style="fill: #ffffff; opacity: 0.8; stroke: #cccccc; stroke-linejoin: miter"/>
    </g>
    <g id="line2d_31">
     <path d="M 336.779375 248.969937 
L 346.779375 248.969937 
L 356.779375 248.969937 
" style="fill: none; stroke: #0000ff; stroke-width: 1.5; stroke-linecap: square"/>
    </g>
    <g id="text_17">
     <!-- average -->
     <g transform="translate(364.779375 252.469937) scale(0.1 -0.1)">
      <use xlink:href="#DejaVuSans-61"/>
      <use xlink:href="#DejaVuSans-76" x="61.279297"/>
      <use xlink:href="#DejaVuSans-65" x="120.458984"/>
      <use xlink:href="#DejaVuSans-72" x="181.982422"/>
      <use xlink:href="#DejaVuSans-61" x="223.095703"/>
      <use xlink:href="#DejaVuSans-67" x="284.375"/>
      <use xlink:href="#DejaVuSans-65" x="347.851562"/>
     </g>
    </g>
    <g id="line2d_32">
     <path d="M 336.779375 263.648062 
L 346.779375 263.648062 
L 356.779375 263.648062 
" style="fill: none; stroke-dasharray: 9.6,2.4,1.5,2.4; stroke-dashoffset: 0; stroke: #008000; stroke-width: 1.5"/>
    </g>
    <g id="text_18">
     <!-- -1 sd -->
     <g transform="translate(364.779375 267.148062) scale(0.1 -0.1)">
      <defs>
       <path id="DejaVuSans-2d" d="M 313 2009 
L 1997 2009 
L 1997 1497 
L 313 1497 
L 313 2009 
z
" transform="scale(0.015625)"/>
      </defs>
      <use xlink:href="#DejaVuSans-2d"/>
      <use xlink:href="#DejaVuSans-31" x="36.083984"/>
      <use xlink:href="#DejaVuSans-20" x="99.707031"/>
      <use xlink:href="#DejaVuSans-73" x="131.494141"/>
      <use xlink:href="#DejaVuSans-64" x="183.59375"/>
     </g>
    </g>
    <g id="line2d_33">
     <path d="M 336.779375 278.326187 
L 346.779375 278.326187 
L 356.779375 278.326187 
" style="fill: none; stroke-dasharray: 9.6,2.4,1.5,2.4; stroke-dashoffset: 0; stroke: #008000; stroke-width: 1.5"/>
    </g>
    <g id="text_19">
     <!-- +1 sd -->
     <g transform="translate(364.779375 281.826187) scale(0.1 -0.1)">
      <defs>
       <path id="DejaVuSans-2b" d="M 2944 4013 
L 2944 2272 
L 4684 2272 
L 4684 1741 
L 2944 1741 
L 2944 0 
L 2419 0 
L 2419 1741 
L 678 1741 
L 678 2272 
L 2419 2272 
L 2419 4013 
L 2944 4013 
z
" transform="scale(0.015625)"/>
      </defs>
      <use xlink:href="#DejaVuSans-2b"/>
      <use xlink:href="#DejaVuSans-31" x="83.789062"/>
      <use xlink:href="#DejaVuSans-20" x="147.412109"/>
      <use xlink:href="#DejaVuSans-73" x="179.199219"/>
      <use xlink:href="#DejaVuSans-64" x="231.298828"/>
     </g>
    </g>
    <g id="line2d_34">
     <path d="M 336.779375 293.004312 
L 346.779375 293.004312 
L 356.779375 293.004312 
" style="fill: none; stroke: #ff0000; stroke-width: 1.5; stroke-linecap: square"/>
    </g>
    <g id="text_20">
     <!-- best -->
     <g transform="translate(364.779375 296.504312) scale(0.1 -0.1)">
      <use xlink:href="#DejaVuSans-62"/>
      <use xlink:href="#DejaVuSans-65" x="63.476562"/>
      <use xlink:href="#DejaVuSans-73" x="125"/>
      <use xlink:href="#DejaVuSans-74" x="177.099609"/>
     </g>
    </g>
   </g>
  </g>
 </g>
 <defs>
  <clipPath id="p90432b26d6">
   <rect x="57.6" y="41.472" width="357.12" height="266.112"/>
  </clipPath>
 </defs>
</svg>
