<?xml version="1.0" encoding="utf-8" standalone="no"?>
<!DOCTYPE svg PUBLIC "-//W3C//DTD SVG 1.1//EN"
  "http://www.w3.org/Graphics/SVG/1.1/DTD/svg11.dtd">
<svg xmlns:xlink="http://www.w3.org/1999/xlink" width="460.8pt" height="345.6pt" viewBox="0 0 460.8 345.6" xmlns="http://www.w3.org/2000/svg" version="1.1">
 <metadata>
  <rdf:RDF xmlns:dc="http://purl.org/dc/elements/1.1/" xmlns:cc="http://creativecommons.org/ns#" xmlns:rdf="http://www.w3.org/1999/02/22-rdf-syntax-ns#">
   <cc:Work>
    <dc:type rdf:resource="http://purl.org/dc/dcmitype/StillImage"/>
    <dc:date>2022-11-22T15:43:37.455749</dc:date>
    <dc:format>image/svg+xml</dc:format>
    <dc:creator>
     <cc:Agent>
      <dc:title>Matplotlib v3.6.2, https://matplotlib.org/</dc:title>
     </cc:Agent>
    </dc:creator>
   </cc:Work>
  </rdf:RDF>
 </metadata>
 <defs>
  <style type="text/css">*{stroke-linejoin: round; stroke-linecap: butt}</style>
 </defs>
 <g id="figure_1">
  <g id="patch_1">
   <path d="M 0 345.6 
L 460.8 345.6 
L 460.8 0 
L 0 0 
z
" style="fill: #ffffff"/>
  </g>
  <g id="axes_1">
   <g id="patch_2">
    <path d="M 57.6 307.584 
L 414.72 307.584 
L 414.72 41.472 
L 57.6 41.472 
z
" style="fill: #ffffff"/>
   </g>
   <g id="matplotlib.axis_1">
    <g id="xtick_1">
     <g id="line2d_1">
      <path d="M 73.832727 307.584 
L 73.832727 41.472 
" clip-path="url(#p425399f232)" style="fill: none; stroke: #b0b0b0; stroke-width: 0.8; stroke-linecap: square"/>
     </g>
     <g id="line2d_2">
      <defs>
       <path id="me0fc7c882e" d="M 0 0 
L 0 3.5 
" style="stroke: #000000; stroke-width: 0.8"/>
      </defs>
      <g>
       <use xlink:href="#me0fc7c882e" x="73.832727" y="307.584" style="stroke: #000000; stroke-width: 0.8"/>
      </g>
     </g>
     <g id="text_1">
      <!-- 0 -->
      <g transform="translate(70.651477 322.182437) scale(0.1 -0.1)">
       <defs>
        <path id="DejaVuSans-30" d="M 2034 4250 
Q 1547 4250 1301 3770 
Q 1056 3291 1056 2328 
Q 1056 1369 1301 889 
Q 1547 409 2034 409 
Q 2525 409 2770 889 
Q 3016 1369 3016 2328 
Q 3016 3291 2770 3770 
Q 2525 4250 2034 4250 
z
M 2034 4750 
Q 2819 4750 3233 4129 
Q 3647 3509 3647 2328 
Q 3647 1150 3233 529 
Q 2819 -91 2034 -91 
Q 1250 -91 836 529 
Q 422 1150 422 2328 
Q 422 3509 836 4129 
Q 1250 4750 2034 4750 
z
" transform="scale(0.015625)"/>
       </defs>
       <use xlink:href="#DejaVuSans-30"/>
      </g>
     </g>
    </g>
    <g id="xtick_2">
     <g id="line2d_3">
      <path d="M 128.122785 307.584 
L 128.122785 41.472 
" clip-path="url(#p425399f232)" style="fill: none; stroke: #b0b0b0; stroke-width: 0.8; stroke-linecap: square"/>
     </g>
     <g id="line2d_4">
      <g>
       <use xlink:href="#me0fc7c882e" x="128.122785" y="307.584" style="stroke: #000000; stroke-width: 0.8"/>
      </g>
     </g>
     <g id="text_2">
      <!-- 50 -->
      <g transform="translate(121.760285 322.182437) scale(0.1 -0.1)">
       <defs>
        <path id="DejaVuSans-35" d="M 691 4666 
L 3169 4666 
L 3169 4134 
L 1269 4134 
L 1269 2991 
Q 1406 3038 1543 3061 
Q 1681 3084 1819 3084 
Q 2600 3084 3056 2656 
Q 3513 2228 3513 1497 
Q 3513 744 3044 326 
Q 2575 -91 1722 -91 
Q 1428 -91 1123 -41 
Q 819 9 494 109 
L 494 744 
Q 775 591 1075 516 
Q 1375 441 1709 441 
Q 2250 441 2565 725 
Q 2881 1009 2881 1497 
Q 2881 1984 2565 2268 
Q 2250 2553 1709 2553 
Q 1456 2553 1204 2497 
Q 953 2441 691 2322 
L 691 4666 
z
" transform="scale(0.015625)"/>
       </defs>
       <use xlink:href="#DejaVuSans-35"/>
       <use xlink:href="#DejaVuSans-30" x="63.623047"/>
      </g>
     </g>
    </g>
    <g id="xtick_3">
     <g id="line2d_5">
      <path d="M 182.412843 307.584 
L 182.412843 41.472 
" clip-path="url(#p425399f232)" style="fill: none; stroke: #b0b0b0; stroke-width: 0.8; stroke-linecap: square"/>
     </g>
     <g id="line2d_6">
      <g>
       <use xlink:href="#me0fc7c882e" x="182.412843" y="307.584" style="stroke: #000000; stroke-width: 0.8"/>
      </g>
     </g>
     <g id="text_3">
      <!-- 100 -->
      <g transform="translate(172.869093 322.182437) scale(0.1 -0.1)">
       <defs>
        <path id="DejaVuSans-31" d="M 794 531 
L 1825 531 
L 1825 4091 
L 703 3866 
L 703 4441 
L 1819 4666 
L 2450 4666 
L 2450 531 
L 3481 531 
L 3481 0 
L 794 0 
L 794 531 
z
" transform="scale(0.015625)"/>
       </defs>
       <use xlink:href="#DejaVuSans-31"/>
       <use xlink:href="#DejaVuSans-30" x="63.623047"/>
       <use xlink:href="#DejaVuSans-30" x="127.246094"/>
      </g>
     </g>
    </g>
    <g id="xtick_4">
     <g id="line2d_7">
      <path d="M 236.702901 307.584 
L 236.702901 41.472 
" clip-path="url(#p425399f232)" style="fill: none; stroke: #b0b0b0; stroke-width: 0.8; stroke-linecap: square"/>
     </g>
     <g id="line2d_8">
      <g>
       <use xlink:href="#me0fc7c882e" x="236.702901" y="307.584" style="stroke: #000000; stroke-width: 0.8"/>
      </g>
     </g>
     <g id="text_4">
      <!-- 150 -->
      <g transform="translate(227.159151 322.182437) scale(0.1 -0.1)">
       <use xlink:href="#DejaVuSans-31"/>
       <use xlink:href="#DejaVuSans-35" x="63.623047"/>
       <use xlink:href="#DejaVuSans-30" x="127.246094"/>
      </g>
     </g>
    </g>
    <g id="xtick_5">
     <g id="line2d_9">
      <path d="M 290.992958 307.584 
L 290.992958 41.472 
" clip-path="url(#p425399f232)" style="fill: none; stroke: #b0b0b0; stroke-width: 0.8; stroke-linecap: square"/>
     </g>
     <g id="line2d_10">
      <g>
       <use xlink:href="#me0fc7c882e" x="290.992958" y="307.584" style="stroke: #000000; stroke-width: 0.8"/>
      </g>
     </g>
     <g id="text_5">
      <!-- 200 -->
      <g transform="translate(281.449208 322.182437) scale(0.1 -0.1)">
       <defs>
        <path id="DejaVuSans-32" d="M 1228 531 
L 3431 531 
L 3431 0 
L 469 0 
L 469 531 
Q 828 903 1448 1529 
Q 2069 2156 2228 2338 
Q 2531 2678 2651 2914 
Q 2772 3150 2772 3378 
Q 2772 3750 2511 3984 
Q 2250 4219 1831 4219 
Q 1534 4219 1204 4116 
Q 875 4013 500 3803 
L 500 4441 
Q 881 4594 1212 4672 
Q 1544 4750 1819 4750 
Q 2544 4750 2975 4387 
Q 3406 4025 3406 3419 
Q 3406 3131 3298 2873 
Q 3191 2616 2906 2266 
Q 2828 2175 2409 1742 
Q 1991 1309 1228 531 
z
" transform="scale(0.015625)"/>
       </defs>
       <use xlink:href="#DejaVuSans-32"/>
       <use xlink:href="#DejaVuSans-30" x="63.623047"/>
       <use xlink:href="#DejaVuSans-30" x="127.246094"/>
      </g>
     </g>
    </g>
    <g id="xtick_6">
     <g id="line2d_11">
      <path d="M 345.283016 307.584 
L 345.283016 41.472 
" clip-path="url(#p425399f232)" style="fill: none; stroke: #b0b0b0; stroke-width: 0.8; stroke-linecap: square"/>
     </g>
     <g id="line2d_12">
      <g>
       <use xlink:href="#me0fc7c882e" x="345.283016" y="307.584" style="stroke: #000000; stroke-width: 0.8"/>
      </g>
     </g>
     <g id="text_6">
      <!-- 250 -->
      <g transform="translate(335.739266 322.182437) scale(0.1 -0.1)">
       <use xlink:href="#DejaVuSans-32"/>
       <use xlink:href="#DejaVuSans-35" x="63.623047"/>
       <use xlink:href="#DejaVuSans-30" x="127.246094"/>
      </g>
     </g>
    </g>
    <g id="xtick_7">
     <g id="line2d_13">
      <path d="M 399.573074 307.584 
L 399.573074 41.472 
" clip-path="url(#p425399f232)" style="fill: none; stroke: #b0b0b0; stroke-width: 0.8; stroke-linecap: square"/>
     </g>
     <g id="line2d_14">
      <g>
       <use xlink:href="#me0fc7c882e" x="399.573074" y="307.584" style="stroke: #000000; stroke-width: 0.8"/>
      </g>
     </g>
     <g id="text_7">
      <!-- 300 -->
      <g transform="translate(390.029324 322.182437) scale(0.1 -0.1)">
       <defs>
        <path id="DejaVuSans-33" d="M 2597 2516 
Q 3050 2419 3304 2112 
Q 3559 1806 3559 1356 
Q 3559 666 3084 287 
Q 2609 -91 1734 -91 
Q 1441 -91 1130 -33 
Q 819 25 488 141 
L 488 750 
Q 750 597 1062 519 
Q 1375 441 1716 441 
Q 2309 441 2620 675 
Q 2931 909 2931 1356 
Q 2931 1769 2642 2001 
Q 2353 2234 1838 2234 
L 1294 2234 
L 1294 2753 
L 1863 2753 
Q 2328 2753 2575 2939 
Q 2822 3125 2822 3475 
Q 2822 3834 2567 4026 
Q 2313 4219 1838 4219 
Q 1578 4219 1281 4162 
Q 984 4106 628 3988 
L 628 4550 
Q 988 4650 1302 4700 
Q 1616 4750 1894 4750 
Q 2613 4750 3031 4423 
Q 3450 4097 3450 3541 
Q 3450 3153 3228 2886 
Q 3006 2619 2597 2516 
z
" transform="scale(0.015625)"/>
       </defs>
       <use xlink:href="#DejaVuSans-33"/>
       <use xlink:href="#DejaVuSans-30" x="63.623047"/>
       <use xlink:href="#DejaVuSans-30" x="127.246094"/>
      </g>
     </g>
    </g>
    <g id="text_8">
     <!-- Generations -->
     <g transform="translate(205.662344 335.860562) scale(0.1 -0.1)">
      <defs>
       <path id="DejaVuSans-47" d="M 3809 666 
L 3809 1919 
L 2778 1919 
L 2778 2438 
L 4434 2438 
L 4434 434 
Q 4069 175 3628 42 
Q 3188 -91 2688 -91 
Q 1594 -91 976 548 
Q 359 1188 359 2328 
Q 359 3472 976 4111 
Q 1594 4750 2688 4750 
Q 3144 4750 3555 4637 
Q 3966 4525 4313 4306 
L 4313 3634 
Q 3963 3931 3569 4081 
Q 3175 4231 2741 4231 
Q 1884 4231 1454 3753 
Q 1025 3275 1025 2328 
Q 1025 1384 1454 906 
Q 1884 428 2741 428 
Q 3075 428 3337 486 
Q 3600 544 3809 666 
z
" transform="scale(0.015625)"/>
       <path id="DejaVuSans-65" d="M 3597 1894 
L 3597 1613 
L 953 1613 
Q 991 1019 1311 708 
Q 1631 397 2203 397 
Q 2534 397 2845 478 
Q 3156 559 3463 722 
L 3463 178 
Q 3153 47 2828 -22 
Q 2503 -91 2169 -91 
Q 1331 -91 842 396 
Q 353 884 353 1716 
Q 353 2575 817 3079 
Q 1281 3584 2069 3584 
Q 2775 3584 3186 3129 
Q 3597 2675 3597 1894 
z
M 3022 2063 
Q 3016 2534 2758 2815 
Q 2500 3097 2075 3097 
Q 1594 3097 1305 2825 
Q 1016 2553 972 2059 
L 3022 2063 
z
" transform="scale(0.015625)"/>
       <path id="DejaVuSans-6e" d="M 3513 2113 
L 3513 0 
L 2938 0 
L 2938 2094 
Q 2938 2591 2744 2837 
Q 2550 3084 2163 3084 
Q 1697 3084 1428 2787 
Q 1159 2491 1159 1978 
L 1159 0 
L 581 0 
L 581 3500 
L 1159 3500 
L 1159 2956 
Q 1366 3272 1645 3428 
Q 1925 3584 2291 3584 
Q 2894 3584 3203 3211 
Q 3513 2838 3513 2113 
z
" transform="scale(0.015625)"/>
       <path id="DejaVuSans-72" d="M 2631 2963 
Q 2534 3019 2420 3045 
Q 2306 3072 2169 3072 
Q 1681 3072 1420 2755 
Q 1159 2438 1159 1844 
L 1159 0 
L 581 0 
L 581 3500 
L 1159 3500 
L 1159 2956 
Q 1341 3275 1631 3429 
Q 1922 3584 2338 3584 
Q 2397 3584 2469 3576 
Q 2541 3569 2628 3553 
L 2631 2963 
z
" transform="scale(0.015625)"/>
       <path id="DejaVuSans-61" d="M 2194 1759 
Q 1497 1759 1228 1600 
Q 959 1441 959 1056 
Q 959 750 1161 570 
Q 1363 391 1709 391 
Q 2188 391 2477 730 
Q 2766 1069 2766 1631 
L 2766 1759 
L 2194 1759 
z
M 3341 1997 
L 3341 0 
L 2766 0 
L 2766 531 
Q 2569 213 2275 61 
Q 1981 -91 1556 -91 
Q 1019 -91 701 211 
Q 384 513 384 1019 
Q 384 1609 779 1909 
Q 1175 2209 1959 2209 
L 2766 2209 
L 2766 2266 
Q 2766 2663 2505 2880 
Q 2244 3097 1772 3097 
Q 1472 3097 1187 3025 
Q 903 2953 641 2809 
L 641 3341 
Q 956 3463 1253 3523 
Q 1550 3584 1831 3584 
Q 2591 3584 2966 3190 
Q 3341 2797 3341 1997 
z
" transform="scale(0.015625)"/>
       <path id="DejaVuSans-74" d="M 1172 4494 
L 1172 3500 
L 2356 3500 
L 2356 3053 
L 1172 3053 
L 1172 1153 
Q 1172 725 1289 603 
Q 1406 481 1766 481 
L 2356 481 
L 2356 0 
L 1766 0 
Q 1100 0 847 248 
Q 594 497 594 1153 
L 594 3053 
L 172 3053 
L 172 3500 
L 594 3500 
L 594 4494 
L 1172 4494 
z
" transform="scale(0.015625)"/>
       <path id="DejaVuSans-69" d="M 603 3500 
L 1178 3500 
L 1178 0 
L 603 0 
L 603 3500 
z
M 603 4863 
L 1178 4863 
L 1178 4134 
L 603 4134 
L 603 4863 
z
" transform="scale(0.015625)"/>
       <path id="DejaVuSans-6f" d="M 1959 3097 
Q 1497 3097 1228 2736 
Q 959 2375 959 1747 
Q 959 1119 1226 758 
Q 1494 397 1959 397 
Q 2419 397 2687 759 
Q 2956 1122 2956 1747 
Q 2956 2369 2687 2733 
Q 2419 3097 1959 3097 
z
M 1959 3584 
Q 2709 3584 3137 3096 
Q 3566 2609 3566 1747 
Q 3566 888 3137 398 
Q 2709 -91 1959 -91 
Q 1206 -91 779 398 
Q 353 888 353 1747 
Q 353 2609 779 3096 
Q 1206 3584 1959 3584 
z
" transform="scale(0.015625)"/>
       <path id="DejaVuSans-73" d="M 2834 3397 
L 2834 2853 
Q 2591 2978 2328 3040 
Q 2066 3103 1784 3103 
Q 1356 3103 1142 2972 
Q 928 2841 928 2578 
Q 928 2378 1081 2264 
Q 1234 2150 1697 2047 
L 1894 2003 
Q 2506 1872 2764 1633 
Q 3022 1394 3022 966 
Q 3022 478 2636 193 
Q 2250 -91 1575 -91 
Q 1294 -91 989 -36 
Q 684 19 347 128 
L 347 722 
Q 666 556 975 473 
Q 1284 391 1588 391 
Q 1994 391 2212 530 
Q 2431 669 2431 922 
Q 2431 1156 2273 1281 
Q 2116 1406 1581 1522 
L 1381 1569 
Q 847 1681 609 1914 
Q 372 2147 372 2553 
Q 372 3047 722 3315 
Q 1072 3584 1716 3584 
Q 2034 3584 2315 3537 
Q 2597 3491 2834 3397 
z
" transform="scale(0.015625)"/>
      </defs>
      <use xlink:href="#DejaVuSans-47"/>
      <use xlink:href="#DejaVuSans-65" x="77.490234"/>
      <use xlink:href="#DejaVuSans-6e" x="139.013672"/>
      <use xlink:href="#DejaVuSans-65" x="202.392578"/>
      <use xlink:href="#DejaVuSans-72" x="263.916016"/>
      <use xlink:href="#DejaVuSans-61" x="305.029297"/>
      <use xlink:href="#DejaVuSans-74" x="366.308594"/>
      <use xlink:href="#DejaVuSans-69" x="405.517578"/>
      <use xlink:href="#DejaVuSans-6f" x="433.300781"/>
      <use xlink:href="#DejaVuSans-6e" x="494.482422"/>
      <use xlink:href="#DejaVuSans-73" x="557.861328"/>
     </g>
    </g>
   </g>
   <g id="matplotlib.axis_2">
    <g id="ytick_1">
     <g id="line2d_15">
      <path d="M 57.6 295.488 
L 414.72 295.488 
" clip-path="url(#p425399f232)" style="fill: none; stroke: #b0b0b0; stroke-width: 0.8; stroke-linecap: square"/>
     </g>
     <g id="line2d_16">
      <defs>
       <path id="mb8055b9933" d="M 0 0 
L -3.5 0 
" style="stroke: #000000; stroke-width: 0.8"/>
      </defs>
      <g>
       <use xlink:href="#mb8055b9933" x="57.6" y="295.488" style="stroke: #000000; stroke-width: 0.8"/>
      </g>
     </g>
     <g id="text_9">
      <!-- 0 -->
      <g transform="translate(44.2375 299.287219) scale(0.1 -0.1)">
       <use xlink:href="#DejaVuSans-30"/>
      </g>
     </g>
    </g>
    <g id="ytick_2">
     <g id="line2d_17">
      <path d="M 57.6 253.796907 
L 414.72 253.796907 
" clip-path="url(#p425399f232)" style="fill: none; stroke: #b0b0b0; stroke-width: 0.8; stroke-linecap: square"/>
     </g>
     <g id="line2d_18">
      <g>
       <use xlink:href="#mb8055b9933" x="57.6" y="253.796907" style="stroke: #000000; stroke-width: 0.8"/>
      </g>
     </g>
     <g id="text_10">
      <!-- 500 -->
      <g transform="translate(31.5125 257.596126) scale(0.1 -0.1)">
       <use xlink:href="#DejaVuSans-35"/>
       <use xlink:href="#DejaVuSans-30" x="63.623047"/>
       <use xlink:href="#DejaVuSans-30" x="127.246094"/>
      </g>
     </g>
    </g>
    <g id="ytick_3">
     <g id="line2d_19">
      <path d="M 57.6 212.105815 
L 414.72 212.105815 
" clip-path="url(#p425399f232)" style="fill: none; stroke: #b0b0b0; stroke-width: 0.8; stroke-linecap: square"/>
     </g>
     <g id="line2d_20">
      <g>
       <use xlink:href="#mb8055b9933" x="57.6" y="212.105815" style="stroke: #000000; stroke-width: 0.8"/>
      </g>
     </g>
     <g id="text_11">
      <!-- 1000 -->
      <g transform="translate(25.15 215.905033) scale(0.1 -0.1)">
       <use xlink:href="#DejaVuSans-31"/>
       <use xlink:href="#DejaVuSans-30" x="63.623047"/>
       <use xlink:href="#DejaVuSans-30" x="127.246094"/>
       <use xlink:href="#DejaVuSans-30" x="190.869141"/>
      </g>
     </g>
    </g>
    <g id="ytick_4">
     <g id="line2d_21">
      <path d="M 57.6 170.414722 
L 414.72 170.414722 
" clip-path="url(#p425399f232)" style="fill: none; stroke: #b0b0b0; stroke-width: 0.8; stroke-linecap: square"/>
     </g>
     <g id="line2d_22">
      <g>
       <use xlink:href="#mb8055b9933" x="57.6" y="170.414722" style="stroke: #000000; stroke-width: 0.8"/>
      </g>
     </g>
     <g id="text_12">
      <!-- 1500 -->
      <g transform="translate(25.15 174.213941) scale(0.1 -0.1)">
       <use xlink:href="#DejaVuSans-31"/>
       <use xlink:href="#DejaVuSans-35" x="63.623047"/>
       <use xlink:href="#DejaVuSans-30" x="127.246094"/>
       <use xlink:href="#DejaVuSans-30" x="190.869141"/>
      </g>
     </g>
    </g>
    <g id="ytick_5">
     <g id="line2d_23">
      <path d="M 57.6 128.723629 
L 414.72 128.723629 
" clip-path="url(#p425399f232)" style="fill: none; stroke: #b0b0b0; stroke-width: 0.8; stroke-linecap: square"/>
     </g>
     <g id="line2d_24">
      <g>
       <use xlink:href="#mb8055b9933" x="57.6" y="128.723629" style="stroke: #000000; stroke-width: 0.8"/>
      </g>
     </g>
     <g id="text_13">
      <!-- 2000 -->
      <g transform="translate(25.15 132.522848) scale(0.1 -0.1)">
       <use xlink:href="#DejaVuSans-32"/>
       <use xlink:href="#DejaVuSans-30" x="63.623047"/>
       <use xlink:href="#DejaVuSans-30" x="127.246094"/>
       <use xlink:href="#DejaVuSans-30" x="190.869141"/>
      </g>
     </g>
    </g>
    <g id="ytick_6">
     <g id="line2d_25">
      <path d="M 57.6 87.032536 
L 414.72 87.032536 
" clip-path="url(#p425399f232)" style="fill: none; stroke: #b0b0b0; stroke-width: 0.8; stroke-linecap: square"/>
     </g>
     <g id="line2d_26">
      <g>
       <use xlink:href="#mb8055b9933" x="57.6" y="87.032536" style="stroke: #000000; stroke-width: 0.8"/>
      </g>
     </g>
     <g id="text_14">
      <!-- 2500 -->
      <g transform="translate(25.15 90.831755) scale(0.1 -0.1)">
       <use xlink:href="#DejaVuSans-32"/>
       <use xlink:href="#DejaVuSans-35" x="63.623047"/>
       <use xlink:href="#DejaVuSans-30" x="127.246094"/>
       <use xlink:href="#DejaVuSans-30" x="190.869141"/>
      </g>
     </g>
    </g>
    <g id="ytick_7">
     <g id="line2d_27">
      <path d="M 57.6 45.341444 
L 414.72 45.341444 
" clip-path="url(#p425399f232)" style="fill: none; stroke: #b0b0b0; stroke-width: 0.8; stroke-linecap: square"/>
     </g>
     <g id="line2d_28">
      <g>
       <use xlink:href="#mb8055b9933" x="57.6" y="45.341444" style="stroke: #000000; stroke-width: 0.8"/>
      </g>
     </g>
     <g id="text_15">
      <!-- 3000 -->
      <g transform="translate(25.15 49.140663) scale(0.1 -0.1)">
       <use xlink:href="#DejaVuSans-33"/>
       <use xlink:href="#DejaVuSans-30" x="63.623047"/>
       <use xlink:href="#DejaVuSans-30" x="127.246094"/>
       <use xlink:href="#DejaVuSans-30" x="190.869141"/>
      </g>
     </g>
    </g>
    <g id="text_16">
     <!-- Fitness -->
     <g transform="translate(19.070312 191.845187) rotate(-90) scale(0.1 -0.1)">
      <defs>
       <path id="DejaVuSans-46" d="M 628 4666 
L 3309 4666 
L 3309 4134 
L 1259 4134 
L 1259 2759 
L 3109 2759 
L 3109 2228 
L 1259 2228 
L 1259 0 
L 628 0 
L 628 4666 
z
" transform="scale(0.015625)"/>
      </defs>
      <use xlink:href="#DejaVuSans-46"/>
      <use xlink:href="#DejaVuSans-69" x="50.269531"/>
      <use xlink:href="#DejaVuSans-74" x="78.052734"/>
      <use xlink:href="#DejaVuSans-6e" x="117.261719"/>
      <use xlink:href="#DejaVuSans-65" x="180.640625"/>
      <use xlink:href="#DejaVuSans-73" x="242.164062"/>
      <use xlink:href="#DejaVuSans-73" x="294.263672"/>
     </g>
    </g>
   </g>
   <g id="line2d_29">
    <path d="M 73.832727 295.488 
L 74.918528 295.264438 
L 79.261733 295.488 
L 80.347534 294.861332 
L 82.519137 295.209018 
L 83.604938 294.76765 
L 84.690739 293.843418 
L 86.862341 286.851853 
L 87.948142 285.133779 
L 89.033943 285.028617 
L 90.119745 285.464346 
L 91.205546 285.72989 
L 92.291347 288.157942 
L 93.377148 288.648134 
L 94.462949 287.386141 
L 95.54875 288.62879 
L 96.634552 286.920781 
L 97.720353 286.886644 
L 98.806154 289.183517 
L 99.891955 290.354154 
L 100.977756 289.584203 
L 102.063557 288.282247 
L 103.149358 288.913598 
L 104.23516 290.388609 
L 105.320961 287.948495 
L 106.406762 289.643462 
L 107.492563 288.825898 
L 108.578364 287.456913 
L 109.664165 286.28333 
L 110.749967 290.573616 
L 111.835768 289.989867 
L 112.921569 288.143183 
L 114.00737 288.132497 
L 115.093171 286.390558 
L 116.178972 288.651719 
L 118.350575 289.973484 
L 119.436376 288.147167 
L 120.522177 289.737472 
L 121.607978 288.69873 
L 122.693779 289.679511 
L 123.77958 287.661386 
L 124.865382 287.319472 
L 125.951183 284.781997 
L 127.036984 286.425414 
L 128.122785 288.436646 
L 129.208586 286.543514 
L 131.380189 288.36053 
L 132.46599 288.559696 
L 133.551791 285.327978 
L 134.637592 288.030944 
L 135.723393 286.083355 
L 136.809194 288.421372 
L 137.894995 283.511216 
L 138.980797 287.585334 
L 140.066598 288.389953 
L 141.152399 285.958023 
L 143.324001 290.851476 
L 144.409802 288.823819 
L 145.495604 287.632292 
L 146.581405 286.773777 
L 147.667206 290.57076 
L 148.753007 287.605665 
L 149.838808 289.85948 
L 150.924609 288.745874 
L 152.01041 285.475437 
L 153.096212 289.547222 
L 154.182013 286.882353 
L 155.267814 288.330642 
L 156.353615 286.96813 
L 157.439416 288.615791 
L 158.525217 288.717677 
L 159.611019 290.152748 
L 160.69682 287.626167 
L 161.782621 289.806911 
L 162.868422 290.183864 
L 163.954223 291.057892 
L 165.040024 289.248768 
L 166.125825 290.530801 
L 167.211627 288.629137 
L 168.297428 289.342528 
L 169.383229 290.353186 
L 170.46903 290.705323 
L 171.554831 287.623405 
L 172.640632 290.320445 
L 173.726434 289.580691 
L 174.812235 289.420566 
L 175.898036 290.542896 
L 176.983837 288.071341 
L 178.069638 288.126059 
L 179.155439 287.837306 
L 180.24124 288.230166 
L 181.327042 288.332421 
L 182.412843 290.770735 
L 183.498644 288.0093 
L 184.584445 287.722367 
L 186.756047 289.172799 
L 187.841849 290.206732 
L 188.92765 285.369106 
L 190.013451 290.243426 
L 191.099252 287.355197 
L 192.185053 287.376046 
L 193.270854 289.415983 
L 194.356656 286.817709 
L 195.442457 286.537992 
L 196.528258 289.486982 
L 197.614059 284.951723 
L 198.69986 286.336028 
L 199.785661 285.842218 
L 200.871462 289.254129 
L 201.957264 289.450673 
L 203.043065 287.311315 
L 204.128866 292.494904 
L 205.214667 288.538063 
L 206.300468 286.712944 
L 207.386269 287.543008 
L 208.472071 289.393314 
L 209.557872 288.40352 
L 210.643673 288.566622 
L 211.729474 289.986038 
L 212.815275 289.562849 
L 213.901076 289.260982 
L 214.986877 289.66244 
L 216.072679 289.570067 
L 217.15848 290.433178 
L 218.244281 289.685488 
L 219.330082 287.878782 
L 220.415883 289.071378 
L 221.501684 286.800897 
L 222.587486 288.448209 
L 223.673287 287.444195 
L 224.759088 285.93539 
L 225.844889 287.90695 
L 226.93069 287.916769 
L 228.016491 287.059941 
L 229.102292 289.338731 
L 230.188094 287.310507 
L 231.273895 287.800963 
L 232.359696 286.967781 
L 233.445497 289.011996 
L 234.531298 289.179003 
L 235.617099 290.310488 
L 236.702901 286.076605 
L 237.788702 291.648483 
L 238.874503 288.635676 
L 239.960304 288.953346 
L 241.046105 283.590289 
L 242.131906 284.016824 
L 243.217708 284.90669 
L 244.303509 285.127196 
L 245.38931 283.302465 
L 246.475111 288.012472 
L 247.560912 287.81788 
L 248.646713 287.948061 
L 249.732514 289.850823 
L 250.818316 285.292003 
L 251.904117 285.42241 
L 252.989918 289.840482 
L 254.075719 287.220544 
L 255.16152 286.460186 
L 256.247321 288.603962 
L 257.333123 286.219694 
L 258.418924 288.291829 
L 259.504725 288.772229 
L 260.590526 288.720513 
L 261.676327 289.542448 
L 262.762128 289.833373 
L 263.847929 289.456729 
L 264.933731 290.095006 
L 266.019532 288.976751 
L 267.105333 290.714428 
L 268.191134 288.47791 
L 269.276935 290.772536 
L 270.362736 288.690801 
L 271.448538 287.494951 
L 272.534339 290.245604 
L 273.62014 287.388613 
L 274.705941 288.640033 
L 275.791742 286.868745 
L 276.877543 290.87039 
L 277.963344 288.955229 
L 279.049146 289.218382 
L 280.134947 289.126116 
L 281.220748 290.307283 
L 282.306549 288.428251 
L 283.39235 290.190881 
L 284.478151 288.099261 
L 285.563953 285.435497 
L 286.649754 288.216841 
L 287.735555 287.603104 
L 288.821356 286.162622 
L 289.907157 285.409741 
L 290.992958 288.319944 
L 292.07876 287.707289 
L 293.164561 288.574373 
L 294.250362 288.56701 
L 295.336163 288.931357 
L 296.421964 288.937762 
L 297.507765 287.854262 
L 298.593566 287.133554 
L 299.679368 289.581121 
L 300.765169 290.897907 
L 301.85097 289.970872 
L 302.936771 289.399296 
L 304.022572 289.849341 
L 305.108373 288.76236 
L 306.194175 289.462464 
L 307.279976 290.642672 
L 308.365777 287.585979 
L 309.451578 285.663825 
L 310.537379 287.691191 
L 311.62318 288.890248 
L 312.708981 286.819028 
L 313.794783 287.046257 
L 314.880584 286.018469 
L 315.966385 286.25579 
L 317.052186 287.88871 
L 318.137987 288.950578 
L 319.223788 288.443283 
L 320.30959 291.665373 
L 321.395391 289.909585 
L 322.481192 291.126022 
L 323.566993 290.386787 
L 324.652794 292.453537 
L 325.738595 284.795301 
L 326.824396 290.713273 
L 327.910198 289.004985 
L 328.995999 289.39418 
L 330.0818 288.098772 
L 331.167601 288.367269 
L 332.253402 289.00822 
L 333.339203 286.841211 
L 334.425005 287.612056 
L 335.510806 285.573182 
L 336.596607 286.718335 
L 337.682408 288.801279 
L 338.768209 287.291604 
L 339.85401 287.353101 
L 340.939811 288.577006 
L 343.111414 287.445912 
L 344.197215 290.465984 
L 345.283016 290.280328 
L 346.368817 290.449929 
L 347.454618 289.702908 
L 349.626221 290.568166 
L 350.712022 291.579175 
L 351.797823 290.685995 
L 352.883624 291.236535 
L 353.969425 290.243999 
L 355.055227 290.968653 
L 356.141028 287.963594 
L 357.226829 289.08857 
L 358.31263 292.323764 
L 359.398431 291.142753 
L 360.484232 293.031812 
L 361.570033 291.041665 
L 363.741636 289.706508 
L 364.827437 290.492909 
L 365.913238 290.908213 
L 366.999039 291.19033 
L 368.08484 289.7604 
L 369.170642 290.924639 
L 371.342244 290.190315 
L 372.428045 289.590854 
L 373.513846 290.087909 
L 374.599647 289.330634 
L 375.685448 290.223891 
L 376.77125 290.471332 
L 377.857051 288.356607 
L 378.942852 289.918636 
L 380.028653 289.44866 
L 382.200255 287.829967 
L 383.286057 288.802499 
L 384.371858 289.092864 
L 385.457659 289.598968 
L 386.54346 285.68484 
L 387.629261 286.836725 
L 388.715062 290.596871 
L 389.800863 288.004024 
L 390.886665 288.107457 
L 391.972466 285.726195 
L 393.058267 286.460723 
L 395.229869 290.254985 
L 396.31567 286.651621 
L 398.487273 290.745963 
L 398.487273 290.745963 
" clip-path="url(#p425399f232)" style="fill: none; stroke: #0000ff; stroke-width: 1.5; stroke-linecap: square"/>
   </g>
   <g id="line2d_30">
    <path d="M 73.832727 295.488 
L 74.918528 287.149781 
L 77.090131 287.149781 
L 78.175932 295.488 
L 79.261733 295.488 
L 80.347534 272.492842 
L 81.433335 272.567989 
L 82.519137 287.149781 
L 83.604938 269.190967 
L 84.690739 253.777945 
L 85.77654 152.936157 
L 87.948142 53.568 
L 89.033943 136.694372 
L 90.119745 106.028667 
L 91.205546 217.496914 
L 92.291347 203.423653 
L 94.462949 170.394485 
L 95.54875 185.800487 
L 96.634552 203.767442 
L 97.720353 210.268485 
L 98.806154 203.526858 
L 99.891955 253.795884 
L 100.977756 253.790569 
L 102.063557 236.20906 
L 103.149358 220.442821 
L 104.23516 252.819711 
L 106.406762 187.090308 
L 107.492563 203.746407 
L 108.578364 170.392689 
L 109.664165 187.064148 
L 110.749967 220.44395 
L 111.835768 237.116761 
L 112.921569 236.712533 
L 114.00737 235.189726 
L 115.093171 213.041155 
L 116.178972 187.090941 
L 117.264773 203.658181 
L 118.350575 248.826832 
L 119.436376 220.444033 
L 120.522177 237.120461 
L 121.607978 237.039063 
L 122.693779 237.090453 
L 123.77958 220.444033 
L 124.865382 237.12047 
L 125.951183 137.061848 
L 127.036984 153.467621 
L 128.122785 234.968849 
L 129.208586 219.657221 
L 130.294387 199.536812 
L 131.380189 220.444033 
L 132.46599 220.429513 
L 133.551791 200.014982 
L 134.637592 203.760869 
L 135.723393 187.084432 
L 136.809194 237.113743 
L 137.894995 170.414691 
L 138.980797 203.767452 
L 140.066598 220.443922 
L 141.152399 220.327462 
L 142.2382 219.84384 
L 143.324001 252.492118 
L 145.495604 220.442758 
L 146.581405 202.01683 
L 147.667206 235.899537 
L 148.753007 187.005789 
L 149.838808 237.120121 
L 152.01041 170.414716 
L 153.096212 235.664732 
L 154.182013 216.742549 
L 155.267814 234.832116 
L 156.353615 218.744506 
L 157.439416 220.408131 
L 158.525217 237.114258 
L 159.611019 255.79713 
L 160.69682 237.119307 
L 161.782621 220.443512 
L 162.868422 253.471641 
L 163.954223 253.686601 
L 165.040024 210.959695 
L 166.125825 236.98992 
L 167.211627 186.95505 
L 168.297428 203.765961 
L 169.383229 253.441134 
L 170.46903 236.708906 
L 171.554831 207.045769 
L 172.640632 236.338627 
L 173.726434 236.892155 
L 174.812235 236.835056 
L 175.898036 253.197168 
L 176.983837 201.115317 
L 178.069638 233.775686 
L 179.155439 252.716265 
L 180.24124 218.769284 
L 181.327042 249.784373 
L 182.412843 251.389817 
L 183.498644 218.159824 
L 184.584445 220.21467 
L 185.670246 237.11956 
L 186.756047 237.092681 
L 187.841849 227.548777 
L 188.92765 219.76906 
L 190.013451 236.951808 
L 191.099252 220.341873 
L 192.185053 187.072992 
L 193.270854 227.060057 
L 194.356656 234.859109 
L 195.442457 170.047957 
L 196.528258 219.189781 
L 197.614059 202.884637 
L 198.69986 202.499907 
L 199.785661 169.231196 
L 200.871462 251.418092 
L 201.957264 227.756329 
L 203.043065 220.31146 
L 204.128866 265.659291 
L 205.214667 236.492791 
L 206.300468 202.470236 
L 207.386269 220.428439 
L 208.472071 248.399992 
L 209.557872 252.325897 
L 210.643673 216.149987 
L 211.729474 237.120327 
L 212.815275 234.630602 
L 214.986877 239.87509 
L 216.072679 237.105447 
L 217.15848 241.155606 
L 218.244281 220.058068 
L 219.330082 220.248427 
L 220.415883 237.039095 
L 221.501684 153.715861 
L 222.587486 236.632242 
L 223.673287 215.590324 
L 224.759088 187.091004 
L 225.844889 237.120286 
L 226.93069 225.089033 
L 228.016491 214.815497 
L 229.102292 237.120434 
L 230.188094 208.887892 
L 231.273895 201.112841 
L 232.359696 170.300943 
L 233.445497 236.861819 
L 234.531298 201.705672 
L 235.617099 253.478375 
L 236.702901 203.650158 
L 237.788702 253.785513 
L 238.874503 236.925562 
L 239.960304 253.701837 
L 241.046105 187.054679 
L 242.131906 187.054679 
L 243.217708 196.444325 
L 244.303509 147.602926 
L 245.38931 170.323102 
L 246.475111 202.192178 
L 247.560912 220.437892 
L 248.646713 187.090054 
L 249.732514 246.036456 
L 250.818316 162.65427 
L 251.904117 220.444006 
L 252.989918 235.752596 
L 254.075719 227.83389 
L 255.16152 170.064268 
L 256.247321 236.148223 
L 257.333123 136.987845 
L 258.418924 187.018058 
L 260.590526 153.737093 
L 261.676327 220.434046 
L 262.762128 237.120469 
L 263.847929 220.354908 
L 264.933731 237.116465 
L 266.019532 220.443937 
L 267.105333 253.796745 
L 268.191134 237.120307 
L 269.276935 237.120308 
L 270.362736 220.444014 
L 271.448538 187.091126 
L 272.534339 236.604117 
L 273.62014 137.061848 
L 274.705941 220.182081 
L 275.791742 203.492031 
L 276.877543 236.879899 
L 277.963344 236.880202 
L 279.049146 187.068421 
L 280.134947 242.122049 
L 281.220748 235.090899 
L 282.306549 168.329697 
L 284.478151 236.819931 
L 285.563953 220.304605 
L 286.649754 227.716527 
L 287.735555 186.828588 
L 288.821356 188.836396 
L 289.907157 204.821523 
L 290.992958 251.806844 
L 292.07876 237.118468 
L 293.164561 226.074889 
L 294.250362 253.545463 
L 295.336163 162.949771 
L 296.421964 218.40666 
L 297.507765 220.146642 
L 298.593566 220.05505 
L 299.679368 237.006406 
L 300.765169 264.699042 
L 301.85097 253.796559 
L 302.936771 236.477823 
L 304.022572 230.793204 
L 305.108373 221.065454 
L 306.194175 244.711743 
L 307.279976 241.3839 
L 308.365777 210.428509 
L 309.451578 211.588697 
L 310.537379 236.66526 
L 311.62318 247.876125 
L 312.708981 185.357417 
L 313.794783 172.645277 
L 314.880584 223.621712 
L 315.966385 236.210171 
L 318.137987 202.318294 
L 319.223788 220.444014 
L 320.30959 266.937087 
L 321.395391 253.675599 
L 322.481192 253.796811 
L 323.566993 253.690619 
L 324.652794 253.796661 
L 325.738595 187.08679 
L 326.824396 253.796907 
L 328.995999 220.444033 
L 330.0818 236.865232 
L 331.167601 220.444029 
L 332.253402 253.345354 
L 333.339203 203.316043 
L 334.425005 170.389925 
L 335.510806 203.742792 
L 336.596607 203.745911 
L 337.682408 220.440877 
L 338.768209 194.247594 
L 339.85401 219.916282 
L 340.939811 234.370183 
L 342.025613 153.738276 
L 343.111414 220.340792 
L 344.197215 236.916367 
L 345.283016 237.120399 
L 346.368817 253.744837 
L 347.454618 237.1192 
L 348.54042 237.12047 
L 349.626221 236.338783 
L 350.712022 237.12047 
L 351.797823 220.444033 
L 352.883624 270.473344 
L 356.141028 220.444033 
L 357.226829 236.656642 
L 358.31263 270.3674 
L 359.398431 237.12047 
L 360.484232 253.796907 
L 361.570033 236.900713 
L 362.655835 203.767596 
L 363.741636 253.796907 
L 364.827437 237.12047 
L 365.913238 237.12047 
L 366.999039 253.796907 
L 368.08484 236.955609 
L 369.170642 237.12046 
L 370.256443 246.961828 
L 371.342244 235.265384 
L 372.428045 235.941809 
L 373.513846 237.096378 
L 374.599647 187.091159 
L 375.685448 252.624046 
L 376.77125 251.592674 
L 377.857051 197.480607 
L 378.942852 237.12047 
L 380.028653 230.833437 
L 381.114454 247.509816 
L 382.200255 220.42503 
L 383.286057 235.946306 
L 384.371858 236.189052 
L 385.457659 219.844049 
L 386.54346 153.737512 
L 387.629261 203.764254 
L 388.715062 237.120465 
L 389.800863 220.198514 
L 390.886665 199.311023 
L 391.972466 201.884519 
L 393.058267 235.544577 
L 394.144068 237.117785 
L 395.229869 236.635719 
L 396.31567 203.76737 
L 397.401472 233.978502 
L 398.487273 219.164292 
L 398.487273 219.164292 
" clip-path="url(#p425399f232)" style="fill: none; stroke: #ff0000; stroke-width: 1.5; stroke-linecap: square"/>
   </g>
   <g id="patch_3">
    <path d="M 57.6 307.584 
L 57.6 41.472 
" style="fill: none; stroke: #000000; stroke-width: 0.8; stroke-linejoin: miter; stroke-linecap: square"/>
   </g>
   <g id="patch_4">
    <path d="M 414.72 307.584 
L 414.72 41.472 
" style="fill: none; stroke: #000000; stroke-width: 0.8; stroke-linejoin: miter; stroke-linecap: square"/>
   </g>
   <g id="patch_5">
    <path d="M 57.6 307.584 
L 414.72 307.584 
" style="fill: none; stroke: #000000; stroke-width: 0.8; stroke-linejoin: miter; stroke-linecap: square"/>
   </g>
   <g id="patch_6">
    <path d="M 57.6 41.472 
L 414.72 41.472 
" style="fill: none; stroke: #000000; stroke-width: 0.8; stroke-linejoin: miter; stroke-linecap: square"/>
   </g>
   <g id="text_17">
    <!-- Population's average and best fitness -->
    <g transform="translate(123.529687 35.472) scale(0.12 -0.12)">
     <defs>
      <path id="DejaVuSans-50" d="M 1259 4147 
L 1259 2394 
L 2053 2394 
Q 2494 2394 2734 2622 
Q 2975 2850 2975 3272 
Q 2975 3691 2734 3919 
Q 2494 4147 2053 4147 
L 1259 4147 
z
M 628 4666 
L 2053 4666 
Q 2838 4666 3239 4311 
Q 3641 3956 3641 3272 
Q 3641 2581 3239 2228 
Q 2838 1875 2053 1875 
L 1259 1875 
L 1259 0 
L 628 0 
L 628 4666 
z
" transform="scale(0.015625)"/>
      <path id="DejaVuSans-70" d="M 1159 525 
L 1159 -1331 
L 581 -1331 
L 581 3500 
L 1159 3500 
L 1159 2969 
Q 1341 3281 1617 3432 
Q 1894 3584 2278 3584 
Q 2916 3584 3314 3078 
Q 3713 2572 3713 1747 
Q 3713 922 3314 415 
Q 2916 -91 2278 -91 
Q 1894 -91 1617 61 
Q 1341 213 1159 525 
z
M 3116 1747 
Q 3116 2381 2855 2742 
Q 2594 3103 2138 3103 
Q 1681 3103 1420 2742 
Q 1159 2381 1159 1747 
Q 1159 1113 1420 752 
Q 1681 391 2138 391 
Q 2594 391 2855 752 
Q 3116 1113 3116 1747 
z
" transform="scale(0.015625)"/>
      <path id="DejaVuSans-75" d="M 544 1381 
L 544 3500 
L 1119 3500 
L 1119 1403 
Q 1119 906 1312 657 
Q 1506 409 1894 409 
Q 2359 409 2629 706 
Q 2900 1003 2900 1516 
L 2900 3500 
L 3475 3500 
L 3475 0 
L 2900 0 
L 2900 538 
Q 2691 219 2414 64 
Q 2138 -91 1772 -91 
Q 1169 -91 856 284 
Q 544 659 544 1381 
z
M 1991 3584 
L 1991 3584 
z
" transform="scale(0.015625)"/>
      <path id="DejaVuSans-6c" d="M 603 4863 
L 1178 4863 
L 1178 0 
L 603 0 
L 603 4863 
z
" transform="scale(0.015625)"/>
      <path id="DejaVuSans-27" d="M 1147 4666 
L 1147 2931 
L 616 2931 
L 616 4666 
L 1147 4666 
z
" transform="scale(0.015625)"/>
      <path id="DejaVuSans-20" transform="scale(0.015625)"/>
      <path id="DejaVuSans-76" d="M 191 3500 
L 800 3500 
L 1894 563 
L 2988 3500 
L 3597 3500 
L 2284 0 
L 1503 0 
L 191 3500 
z
" transform="scale(0.015625)"/>
      <path id="DejaVuSans-67" d="M 2906 1791 
Q 2906 2416 2648 2759 
Q 2391 3103 1925 3103 
Q 1463 3103 1205 2759 
Q 947 2416 947 1791 
Q 947 1169 1205 825 
Q 1463 481 1925 481 
Q 2391 481 2648 825 
Q 2906 1169 2906 1791 
z
M 3481 434 
Q 3481 -459 3084 -895 
Q 2688 -1331 1869 -1331 
Q 1566 -1331 1297 -1286 
Q 1028 -1241 775 -1147 
L 775 -588 
Q 1028 -725 1275 -790 
Q 1522 -856 1778 -856 
Q 2344 -856 2625 -561 
Q 2906 -266 2906 331 
L 2906 616 
Q 2728 306 2450 153 
Q 2172 0 1784 0 
Q 1141 0 747 490 
Q 353 981 353 1791 
Q 353 2603 747 3093 
Q 1141 3584 1784 3584 
Q 2172 3584 2450 3431 
Q 2728 3278 2906 2969 
L 2906 3500 
L 3481 3500 
L 3481 434 
z
" transform="scale(0.015625)"/>
      <path id="DejaVuSans-64" d="M 2906 2969 
L 2906 4863 
L 3481 4863 
L 3481 0 
L 2906 0 
L 2906 525 
Q 2725 213 2448 61 
Q 2172 -91 1784 -91 
Q 1150 -91 751 415 
Q 353 922 353 1747 
Q 353 2572 751 3078 
Q 1150 3584 1784 3584 
Q 2172 3584 2448 3432 
Q 2725 3281 2906 2969 
z
M 947 1747 
Q 947 1113 1208 752 
Q 1469 391 1925 391 
Q 2381 391 2643 752 
Q 2906 1113 2906 1747 
Q 2906 2381 2643 2742 
Q 2381 3103 1925 3103 
Q 1469 3103 1208 2742 
Q 947 2381 947 1747 
z
" transform="scale(0.015625)"/>
      <path id="DejaVuSans-62" d="M 3116 1747 
Q 3116 2381 2855 2742 
Q 2594 3103 2138 3103 
Q 1681 3103 1420 2742 
Q 1159 2381 1159 1747 
Q 1159 1113 1420 752 
Q 1681 391 2138 391 
Q 2594 391 2855 752 
Q 3116 1113 3116 1747 
z
M 1159 2969 
Q 1341 3281 1617 3432 
Q 1894 3584 2278 3584 
Q 2916 3584 3314 3078 
Q 3713 2572 3713 1747 
Q 3713 922 3314 415 
Q 2916 -91 2278 -91 
Q 1894 -91 1617 61 
Q 1341 213 1159 525 
L 1159 0 
L 581 0 
L 581 4863 
L 1159 4863 
L 1159 2969 
z
" transform="scale(0.015625)"/>
      <path id="DejaVuSans-66" d="M 2375 4863 
L 2375 4384 
L 1825 4384 
Q 1516 4384 1395 4259 
Q 1275 4134 1275 3809 
L 1275 3500 
L 2222 3500 
L 2222 3053 
L 1275 3053 
L 1275 0 
L 697 0 
L 697 3053 
L 147 3053 
L 147 3500 
L 697 3500 
L 697 3744 
Q 697 4328 969 4595 
Q 1241 4863 1831 4863 
L 2375 4863 
z
" transform="scale(0.015625)"/>
     </defs>
     <use xlink:href="#DejaVuSans-50"/>
     <use xlink:href="#DejaVuSans-6f" x="56.677734"/>
     <use xlink:href="#DejaVuSans-70" x="117.859375"/>
     <use xlink:href="#DejaVuSans-75" x="181.335938"/>
     <use xlink:href="#DejaVuSans-6c" x="244.714844"/>
     <use xlink:href="#DejaVuSans-61" x="272.498047"/>
     <use xlink:href="#DejaVuSans-74" x="333.777344"/>
     <use xlink:href="#DejaVuSans-69" x="372.986328"/>
     <use xlink:href="#DejaVuSans-6f" x="400.769531"/>
     <use xlink:href="#DejaVuSans-6e" x="461.951172"/>
     <use xlink:href="#DejaVuSans-27" x="525.330078"/>
     <use xlink:href="#DejaVuSans-73" x="552.820312"/>
     <use xlink:href="#DejaVuSans-20" x="604.919922"/>
     <use xlink:href="#DejaVuSans-61" x="636.707031"/>
     <use xlink:href="#DejaVuSans-76" x="697.986328"/>
     <use xlink:href="#DejaVuSans-65" x="757.166016"/>
     <use xlink:href="#DejaVuSans-72" x="818.689453"/>
     <use xlink:href="#DejaVuSans-61" x="859.802734"/>
     <use xlink:href="#DejaVuSans-67" x="921.082031"/>
     <use xlink:href="#DejaVuSans-65" x="984.558594"/>
     <use xlink:href="#DejaVuSans-20" x="1046.082031"/>
     <use xlink:href="#DejaVuSans-61" x="1077.869141"/>
     <use xlink:href="#DejaVuSans-6e" x="1139.148438"/>
     <use xlink:href="#DejaVuSans-64" x="1202.527344"/>
     <use xlink:href="#DejaVuSans-20" x="1266.003906"/>
     <use xlink:href="#DejaVuSans-62" x="1297.791016"/>
     <use xlink:href="#DejaVuSans-65" x="1361.267578"/>
     <use xlink:href="#DejaVuSans-73" x="1422.791016"/>
     <use xlink:href="#DejaVuSans-74" x="1474.890625"/>
     <use xlink:href="#DejaVuSans-20" x="1514.099609"/>
     <use xlink:href="#DejaVuSans-66" x="1545.886719"/>
     <use xlink:href="#DejaVuSans-69" x="1581.091797"/>
     <use xlink:href="#DejaVuSans-74" x="1608.875"/>
     <use xlink:href="#DejaVuSans-6e" x="1648.083984"/>
     <use xlink:href="#DejaVuSans-65" x="1711.462891"/>
     <use xlink:href="#DejaVuSans-73" x="1772.986328"/>
     <use xlink:href="#DejaVuSans-73" x="1825.085938"/>
    </g>
   </g>
   <g id="legend_1">
    <g id="patch_7">
     <path d="M 334.779375 78.82825 
L 407.72 78.82825 
Q 409.72 78.82825 409.72 76.82825 
L 409.72 48.472 
Q 409.72 46.472 407.72 46.472 
L 334.779375 46.472 
Q 332.779375 46.472 332.779375 48.472 
L 332.779375 76.82825 
Q 332.779375 78.82825 334.779375 78.82825 
z
" style="fill: #ffffff; opacity: 0.8; stroke: #cccccc; stroke-linejoin: miter"/>
    </g>
    <g id="line2d_31">
     <path d="M 336.779375 54.570437 
L 346.779375 54.570437 
L 356.779375 54.570437 
" style="fill: none; stroke: #0000ff; stroke-width: 1.5; stroke-linecap: square"/>
    </g>
    <g id="text_18">
     <!-- average -->
     <g transform="translate(364.779375 58.070437) scale(0.1 -0.1)">
      <use xlink:href="#DejaVuSans-61"/>
      <use xlink:href="#DejaVuSans-76" x="61.279297"/>
      <use xlink:href="#DejaVuSans-65" x="120.458984"/>
      <use xlink:href="#DejaVuSans-72" x="181.982422"/>
      <use xlink:href="#DejaVuSans-61" x="223.095703"/>
      <use xlink:href="#DejaVuSans-67" x="284.375"/>
      <use xlink:href="#DejaVuSans-65" x="347.851562"/>
     </g>
    </g>
    <g id="line2d_32">
     <path d="M 336.779375 69.248562 
L 346.779375 69.248562 
L 356.779375 69.248562 
" style="fill: none; stroke: #ff0000; stroke-width: 1.5; stroke-linecap: square"/>
    </g>
    <g id="text_19">
     <!-- best -->
     <g transform="translate(364.779375 72.748562) scale(0.1 -0.1)">
      <use xlink:href="#DejaVuSans-62"/>
      <use xlink:href="#DejaVuSans-65" x="63.476562"/>
      <use xlink:href="#DejaVuSans-73" x="125"/>
      <use xlink:href="#DejaVuSans-74" x="177.099609"/>
     </g>
    </g>
   </g>
  </g>
 </g>
 <defs>
  <clipPath id="p425399f232">
   <rect x="57.6" y="41.472" width="357.12" height="266.112"/>
  </clipPath>
 </defs>
</svg>
