<?xml version="1.0" encoding="utf-8" standalone="no"?>
<!DOCTYPE svg PUBLIC "-//W3C//DTD SVG 1.1//EN"
  "http://www.w3.org/Graphics/SVG/1.1/DTD/svg11.dtd">
<svg xmlns:xlink="http://www.w3.org/1999/xlink" width="460.8pt" height="345.6pt" viewBox="0 0 460.8 345.6" xmlns="http://www.w3.org/2000/svg" version="1.1">
 <metadata>
  <rdf:RDF xmlns:dc="http://purl.org/dc/elements/1.1/" xmlns:cc="http://creativecommons.org/ns#" xmlns:rdf="http://www.w3.org/1999/02/22-rdf-syntax-ns#">
   <cc:Work>
    <dc:type rdf:resource="http://purl.org/dc/dcmitype/StillImage"/>
    <dc:date>2022-11-11T13:17:41.189000</dc:date>
    <dc:format>image/svg+xml</dc:format>
    <dc:creator>
     <cc:Agent>
      <dc:title>Matplotlib v3.6.2, https://matplotlib.org/</dc:title>
     </cc:Agent>
    </dc:creator>
   </cc:Work>
  </rdf:RDF>
 </metadata>
 <defs>
  <style type="text/css">*{stroke-linejoin: round; stroke-linecap: butt}</style>
 </defs>
 <g id="figure_1">
  <g id="patch_1">
   <path d="M 0 345.6 
L 460.8 345.6 
L 460.8 0 
L 0 0 
z
" style="fill: #ffffff"/>
  </g>
  <g id="axes_1">
   <g id="patch_2">
    <path d="M 57.6 307.584 
L 414.72 307.584 
L 414.72 41.472 
L 57.6 41.472 
z
" style="fill: #ffffff"/>
   </g>
   <g id="matplotlib.axis_1">
    <g id="xtick_1">
     <g id="line2d_1">
      <path d="M 73.832727 307.584 
L 73.832727 41.472 
" clip-path="url(#p1c4ab997ea)" style="fill: none; stroke: #b0b0b0; stroke-width: 0.8; stroke-linecap: square"/>
     </g>
     <g id="line2d_2">
      <defs>
       <path id="me1ff405698" d="M 0 0 
L 0 3.5 
" style="stroke: #000000; stroke-width: 0.8"/>
      </defs>
      <g>
       <use xlink:href="#me1ff405698" x="73.832727" y="307.584" style="stroke: #000000; stroke-width: 0.8"/>
      </g>
     </g>
     <g id="text_1">
      <!-- 0 -->
      <g transform="translate(70.651477 322.182437) scale(0.1 -0.1)">
       <defs>
        <path id="DejaVuSans-30" d="M 2034 4250 
Q 1547 4250 1301 3770 
Q 1056 3291 1056 2328 
Q 1056 1369 1301 889 
Q 1547 409 2034 409 
Q 2525 409 2770 889 
Q 3016 1369 3016 2328 
Q 3016 3291 2770 3770 
Q 2525 4250 2034 4250 
z
M 2034 4750 
Q 2819 4750 3233 4129 
Q 3647 3509 3647 2328 
Q 3647 1150 3233 529 
Q 2819 -91 2034 -91 
Q 1250 -91 836 529 
Q 422 1150 422 2328 
Q 422 3509 836 4129 
Q 1250 4750 2034 4750 
z
" transform="scale(0.015625)"/>
       </defs>
       <use xlink:href="#DejaVuSans-30"/>
      </g>
     </g>
    </g>
    <g id="xtick_2">
     <g id="line2d_3">
      <path d="M 114.516254 307.584 
L 114.516254 41.472 
" clip-path="url(#p1c4ab997ea)" style="fill: none; stroke: #b0b0b0; stroke-width: 0.8; stroke-linecap: square"/>
     </g>
     <g id="line2d_4">
      <g>
       <use xlink:href="#me1ff405698" x="114.516254" y="307.584" style="stroke: #000000; stroke-width: 0.8"/>
      </g>
     </g>
     <g id="text_2">
      <!-- 50 -->
      <g transform="translate(108.153754 322.182437) scale(0.1 -0.1)">
       <defs>
        <path id="DejaVuSans-35" d="M 691 4666 
L 3169 4666 
L 3169 4134 
L 1269 4134 
L 1269 2991 
Q 1406 3038 1543 3061 
Q 1681 3084 1819 3084 
Q 2600 3084 3056 2656 
Q 3513 2228 3513 1497 
Q 3513 744 3044 326 
Q 2575 -91 1722 -91 
Q 1428 -91 1123 -41 
Q 819 9 494 109 
L 494 744 
Q 775 591 1075 516 
Q 1375 441 1709 441 
Q 2250 441 2565 725 
Q 2881 1009 2881 1497 
Q 2881 1984 2565 2268 
Q 2250 2553 1709 2553 
Q 1456 2553 1204 2497 
Q 953 2441 691 2322 
L 691 4666 
z
" transform="scale(0.015625)"/>
       </defs>
       <use xlink:href="#DejaVuSans-35"/>
       <use xlink:href="#DejaVuSans-30" x="63.623047"/>
      </g>
     </g>
    </g>
    <g id="xtick_3">
     <g id="line2d_5">
      <path d="M 155.199781 307.584 
L 155.199781 41.472 
" clip-path="url(#p1c4ab997ea)" style="fill: none; stroke: #b0b0b0; stroke-width: 0.8; stroke-linecap: square"/>
     </g>
     <g id="line2d_6">
      <g>
       <use xlink:href="#me1ff405698" x="155.199781" y="307.584" style="stroke: #000000; stroke-width: 0.8"/>
      </g>
     </g>
     <g id="text_3">
      <!-- 100 -->
      <g transform="translate(145.656031 322.182437) scale(0.1 -0.1)">
       <defs>
        <path id="DejaVuSans-31" d="M 794 531 
L 1825 531 
L 1825 4091 
L 703 3866 
L 703 4441 
L 1819 4666 
L 2450 4666 
L 2450 531 
L 3481 531 
L 3481 0 
L 794 0 
L 794 531 
z
" transform="scale(0.015625)"/>
       </defs>
       <use xlink:href="#DejaVuSans-31"/>
       <use xlink:href="#DejaVuSans-30" x="63.623047"/>
       <use xlink:href="#DejaVuSans-30" x="127.246094"/>
      </g>
     </g>
    </g>
    <g id="xtick_4">
     <g id="line2d_7">
      <path d="M 195.883308 307.584 
L 195.883308 41.472 
" clip-path="url(#p1c4ab997ea)" style="fill: none; stroke: #b0b0b0; stroke-width: 0.8; stroke-linecap: square"/>
     </g>
     <g id="line2d_8">
      <g>
       <use xlink:href="#me1ff405698" x="195.883308" y="307.584" style="stroke: #000000; stroke-width: 0.8"/>
      </g>
     </g>
     <g id="text_4">
      <!-- 150 -->
      <g transform="translate(186.339558 322.182437) scale(0.1 -0.1)">
       <use xlink:href="#DejaVuSans-31"/>
       <use xlink:href="#DejaVuSans-35" x="63.623047"/>
       <use xlink:href="#DejaVuSans-30" x="127.246094"/>
      </g>
     </g>
    </g>
    <g id="xtick_5">
     <g id="line2d_9">
      <path d="M 236.566835 307.584 
L 236.566835 41.472 
" clip-path="url(#p1c4ab997ea)" style="fill: none; stroke: #b0b0b0; stroke-width: 0.8; stroke-linecap: square"/>
     </g>
     <g id="line2d_10">
      <g>
       <use xlink:href="#me1ff405698" x="236.566835" y="307.584" style="stroke: #000000; stroke-width: 0.8"/>
      </g>
     </g>
     <g id="text_5">
      <!-- 200 -->
      <g transform="translate(227.023085 322.182437) scale(0.1 -0.1)">
       <defs>
        <path id="DejaVuSans-32" d="M 1228 531 
L 3431 531 
L 3431 0 
L 469 0 
L 469 531 
Q 828 903 1448 1529 
Q 2069 2156 2228 2338 
Q 2531 2678 2651 2914 
Q 2772 3150 2772 3378 
Q 2772 3750 2511 3984 
Q 2250 4219 1831 4219 
Q 1534 4219 1204 4116 
Q 875 4013 500 3803 
L 500 4441 
Q 881 4594 1212 4672 
Q 1544 4750 1819 4750 
Q 2544 4750 2975 4387 
Q 3406 4025 3406 3419 
Q 3406 3131 3298 2873 
Q 3191 2616 2906 2266 
Q 2828 2175 2409 1742 
Q 1991 1309 1228 531 
z
" transform="scale(0.015625)"/>
       </defs>
       <use xlink:href="#DejaVuSans-32"/>
       <use xlink:href="#DejaVuSans-30" x="63.623047"/>
       <use xlink:href="#DejaVuSans-30" x="127.246094"/>
      </g>
     </g>
    </g>
    <g id="xtick_6">
     <g id="line2d_11">
      <path d="M 277.250362 307.584 
L 277.250362 41.472 
" clip-path="url(#p1c4ab997ea)" style="fill: none; stroke: #b0b0b0; stroke-width: 0.8; stroke-linecap: square"/>
     </g>
     <g id="line2d_12">
      <g>
       <use xlink:href="#me1ff405698" x="277.250362" y="307.584" style="stroke: #000000; stroke-width: 0.8"/>
      </g>
     </g>
     <g id="text_6">
      <!-- 250 -->
      <g transform="translate(267.706612 322.182437) scale(0.1 -0.1)">
       <use xlink:href="#DejaVuSans-32"/>
       <use xlink:href="#DejaVuSans-35" x="63.623047"/>
       <use xlink:href="#DejaVuSans-30" x="127.246094"/>
      </g>
     </g>
    </g>
    <g id="xtick_7">
     <g id="line2d_13">
      <path d="M 317.933889 307.584 
L 317.933889 41.472 
" clip-path="url(#p1c4ab997ea)" style="fill: none; stroke: #b0b0b0; stroke-width: 0.8; stroke-linecap: square"/>
     </g>
     <g id="line2d_14">
      <g>
       <use xlink:href="#me1ff405698" x="317.933889" y="307.584" style="stroke: #000000; stroke-width: 0.8"/>
      </g>
     </g>
     <g id="text_7">
      <!-- 300 -->
      <g transform="translate(308.390139 322.182437) scale(0.1 -0.1)">
       <defs>
        <path id="DejaVuSans-33" d="M 2597 2516 
Q 3050 2419 3304 2112 
Q 3559 1806 3559 1356 
Q 3559 666 3084 287 
Q 2609 -91 1734 -91 
Q 1441 -91 1130 -33 
Q 819 25 488 141 
L 488 750 
Q 750 597 1062 519 
Q 1375 441 1716 441 
Q 2309 441 2620 675 
Q 2931 909 2931 1356 
Q 2931 1769 2642 2001 
Q 2353 2234 1838 2234 
L 1294 2234 
L 1294 2753 
L 1863 2753 
Q 2328 2753 2575 2939 
Q 2822 3125 2822 3475 
Q 2822 3834 2567 4026 
Q 2313 4219 1838 4219 
Q 1578 4219 1281 4162 
Q 984 4106 628 3988 
L 628 4550 
Q 988 4650 1302 4700 
Q 1616 4750 1894 4750 
Q 2613 4750 3031 4423 
Q 3450 4097 3450 3541 
Q 3450 3153 3228 2886 
Q 3006 2619 2597 2516 
z
" transform="scale(0.015625)"/>
       </defs>
       <use xlink:href="#DejaVuSans-33"/>
       <use xlink:href="#DejaVuSans-30" x="63.623047"/>
       <use xlink:href="#DejaVuSans-30" x="127.246094"/>
      </g>
     </g>
    </g>
    <g id="xtick_8">
     <g id="line2d_15">
      <path d="M 358.617416 307.584 
L 358.617416 41.472 
" clip-path="url(#p1c4ab997ea)" style="fill: none; stroke: #b0b0b0; stroke-width: 0.8; stroke-linecap: square"/>
     </g>
     <g id="line2d_16">
      <g>
       <use xlink:href="#me1ff405698" x="358.617416" y="307.584" style="stroke: #000000; stroke-width: 0.8"/>
      </g>
     </g>
     <g id="text_8">
      <!-- 350 -->
      <g transform="translate(349.073666 322.182437) scale(0.1 -0.1)">
       <use xlink:href="#DejaVuSans-33"/>
       <use xlink:href="#DejaVuSans-35" x="63.623047"/>
       <use xlink:href="#DejaVuSans-30" x="127.246094"/>
      </g>
     </g>
    </g>
    <g id="xtick_9">
     <g id="line2d_17">
      <path d="M 399.300943 307.584 
L 399.300943 41.472 
" clip-path="url(#p1c4ab997ea)" style="fill: none; stroke: #b0b0b0; stroke-width: 0.8; stroke-linecap: square"/>
     </g>
     <g id="line2d_18">
      <g>
       <use xlink:href="#me1ff405698" x="399.300943" y="307.584" style="stroke: #000000; stroke-width: 0.8"/>
      </g>
     </g>
     <g id="text_9">
      <!-- 400 -->
      <g transform="translate(389.757193 322.182437) scale(0.1 -0.1)">
       <defs>
        <path id="DejaVuSans-34" d="M 2419 4116 
L 825 1625 
L 2419 1625 
L 2419 4116 
z
M 2253 4666 
L 3047 4666 
L 3047 1625 
L 3713 1625 
L 3713 1100 
L 3047 1100 
L 3047 0 
L 2419 0 
L 2419 1100 
L 313 1100 
L 313 1709 
L 2253 4666 
z
" transform="scale(0.015625)"/>
       </defs>
       <use xlink:href="#DejaVuSans-34"/>
       <use xlink:href="#DejaVuSans-30" x="63.623047"/>
       <use xlink:href="#DejaVuSans-30" x="127.246094"/>
      </g>
     </g>
    </g>
    <g id="text_10">
     <!-- Generations -->
     <g transform="translate(205.662344 335.860562) scale(0.1 -0.1)">
      <defs>
       <path id="DejaVuSans-47" d="M 3809 666 
L 3809 1919 
L 2778 1919 
L 2778 2438 
L 4434 2438 
L 4434 434 
Q 4069 175 3628 42 
Q 3188 -91 2688 -91 
Q 1594 -91 976 548 
Q 359 1188 359 2328 
Q 359 3472 976 4111 
Q 1594 4750 2688 4750 
Q 3144 4750 3555 4637 
Q 3966 4525 4313 4306 
L 4313 3634 
Q 3963 3931 3569 4081 
Q 3175 4231 2741 4231 
Q 1884 4231 1454 3753 
Q 1025 3275 1025 2328 
Q 1025 1384 1454 906 
Q 1884 428 2741 428 
Q 3075 428 3337 486 
Q 3600 544 3809 666 
z
" transform="scale(0.015625)"/>
       <path id="DejaVuSans-65" d="M 3597 1894 
L 3597 1613 
L 953 1613 
Q 991 1019 1311 708 
Q 1631 397 2203 397 
Q 2534 397 2845 478 
Q 3156 559 3463 722 
L 3463 178 
Q 3153 47 2828 -22 
Q 2503 -91 2169 -91 
Q 1331 -91 842 396 
Q 353 884 353 1716 
Q 353 2575 817 3079 
Q 1281 3584 2069 3584 
Q 2775 3584 3186 3129 
Q 3597 2675 3597 1894 
z
M 3022 2063 
Q 3016 2534 2758 2815 
Q 2500 3097 2075 3097 
Q 1594 3097 1305 2825 
Q 1016 2553 972 2059 
L 3022 2063 
z
" transform="scale(0.015625)"/>
       <path id="DejaVuSans-6e" d="M 3513 2113 
L 3513 0 
L 2938 0 
L 2938 2094 
Q 2938 2591 2744 2837 
Q 2550 3084 2163 3084 
Q 1697 3084 1428 2787 
Q 1159 2491 1159 1978 
L 1159 0 
L 581 0 
L 581 3500 
L 1159 3500 
L 1159 2956 
Q 1366 3272 1645 3428 
Q 1925 3584 2291 3584 
Q 2894 3584 3203 3211 
Q 3513 2838 3513 2113 
z
" transform="scale(0.015625)"/>
       <path id="DejaVuSans-72" d="M 2631 2963 
Q 2534 3019 2420 3045 
Q 2306 3072 2169 3072 
Q 1681 3072 1420 2755 
Q 1159 2438 1159 1844 
L 1159 0 
L 581 0 
L 581 3500 
L 1159 3500 
L 1159 2956 
Q 1341 3275 1631 3429 
Q 1922 3584 2338 3584 
Q 2397 3584 2469 3576 
Q 2541 3569 2628 3553 
L 2631 2963 
z
" transform="scale(0.015625)"/>
       <path id="DejaVuSans-61" d="M 2194 1759 
Q 1497 1759 1228 1600 
Q 959 1441 959 1056 
Q 959 750 1161 570 
Q 1363 391 1709 391 
Q 2188 391 2477 730 
Q 2766 1069 2766 1631 
L 2766 1759 
L 2194 1759 
z
M 3341 1997 
L 3341 0 
L 2766 0 
L 2766 531 
Q 2569 213 2275 61 
Q 1981 -91 1556 -91 
Q 1019 -91 701 211 
Q 384 513 384 1019 
Q 384 1609 779 1909 
Q 1175 2209 1959 2209 
L 2766 2209 
L 2766 2266 
Q 2766 2663 2505 2880 
Q 2244 3097 1772 3097 
Q 1472 3097 1187 3025 
Q 903 2953 641 2809 
L 641 3341 
Q 956 3463 1253 3523 
Q 1550 3584 1831 3584 
Q 2591 3584 2966 3190 
Q 3341 2797 3341 1997 
z
" transform="scale(0.015625)"/>
       <path id="DejaVuSans-74" d="M 1172 4494 
L 1172 3500 
L 2356 3500 
L 2356 3053 
L 1172 3053 
L 1172 1153 
Q 1172 725 1289 603 
Q 1406 481 1766 481 
L 2356 481 
L 2356 0 
L 1766 0 
Q 1100 0 847 248 
Q 594 497 594 1153 
L 594 3053 
L 172 3053 
L 172 3500 
L 594 3500 
L 594 4494 
L 1172 4494 
z
" transform="scale(0.015625)"/>
       <path id="DejaVuSans-69" d="M 603 3500 
L 1178 3500 
L 1178 0 
L 603 0 
L 603 3500 
z
M 603 4863 
L 1178 4863 
L 1178 4134 
L 603 4134 
L 603 4863 
z
" transform="scale(0.015625)"/>
       <path id="DejaVuSans-6f" d="M 1959 3097 
Q 1497 3097 1228 2736 
Q 959 2375 959 1747 
Q 959 1119 1226 758 
Q 1494 397 1959 397 
Q 2419 397 2687 759 
Q 2956 1122 2956 1747 
Q 2956 2369 2687 2733 
Q 2419 3097 1959 3097 
z
M 1959 3584 
Q 2709 3584 3137 3096 
Q 3566 2609 3566 1747 
Q 3566 888 3137 398 
Q 2709 -91 1959 -91 
Q 1206 -91 779 398 
Q 353 888 353 1747 
Q 353 2609 779 3096 
Q 1206 3584 1959 3584 
z
" transform="scale(0.015625)"/>
       <path id="DejaVuSans-73" d="M 2834 3397 
L 2834 2853 
Q 2591 2978 2328 3040 
Q 2066 3103 1784 3103 
Q 1356 3103 1142 2972 
Q 928 2841 928 2578 
Q 928 2378 1081 2264 
Q 1234 2150 1697 2047 
L 1894 2003 
Q 2506 1872 2764 1633 
Q 3022 1394 3022 966 
Q 3022 478 2636 193 
Q 2250 -91 1575 -91 
Q 1294 -91 989 -36 
Q 684 19 347 128 
L 347 722 
Q 666 556 975 473 
Q 1284 391 1588 391 
Q 1994 391 2212 530 
Q 2431 669 2431 922 
Q 2431 1156 2273 1281 
Q 2116 1406 1581 1522 
L 1381 1569 
Q 847 1681 609 1914 
Q 372 2147 372 2553 
Q 372 3047 722 3315 
Q 1072 3584 1716 3584 
Q 2034 3584 2315 3537 
Q 2597 3491 2834 3397 
z
" transform="scale(0.015625)"/>
      </defs>
      <use xlink:href="#DejaVuSans-47"/>
      <use xlink:href="#DejaVuSans-65" x="77.490234"/>
      <use xlink:href="#DejaVuSans-6e" x="139.013672"/>
      <use xlink:href="#DejaVuSans-65" x="202.392578"/>
      <use xlink:href="#DejaVuSans-72" x="263.916016"/>
      <use xlink:href="#DejaVuSans-61" x="305.029297"/>
      <use xlink:href="#DejaVuSans-74" x="366.308594"/>
      <use xlink:href="#DejaVuSans-69" x="405.517578"/>
      <use xlink:href="#DejaVuSans-6f" x="433.300781"/>
      <use xlink:href="#DejaVuSans-6e" x="494.482422"/>
      <use xlink:href="#DejaVuSans-73" x="557.861328"/>
     </g>
    </g>
   </g>
   <g id="matplotlib.axis_2">
    <g id="ytick_1">
     <g id="line2d_19">
      <path d="M 57.6 298.389404 
L 414.72 298.389404 
" clip-path="url(#p1c4ab997ea)" style="fill: none; stroke: #b0b0b0; stroke-width: 0.8; stroke-linecap: square"/>
     </g>
     <g id="line2d_20">
      <defs>
       <path id="mfe08a33883" d="M 0 0 
L -3.5 0 
" style="stroke: #000000; stroke-width: 0.8"/>
      </defs>
      <g>
       <use xlink:href="#mfe08a33883" x="57.6" y="298.389404" style="stroke: #000000; stroke-width: 0.8"/>
      </g>
     </g>
     <g id="text_11">
      <!-- −500 -->
      <g transform="translate(23.132812 302.188623) scale(0.1 -0.1)">
       <defs>
        <path id="DejaVuSans-2212" d="M 678 2272 
L 4684 2272 
L 4684 1741 
L 678 1741 
L 678 2272 
z
" transform="scale(0.015625)"/>
       </defs>
       <use xlink:href="#DejaVuSans-2212"/>
       <use xlink:href="#DejaVuSans-35" x="83.789062"/>
       <use xlink:href="#DejaVuSans-30" x="147.412109"/>
       <use xlink:href="#DejaVuSans-30" x="211.035156"/>
      </g>
     </g>
    </g>
    <g id="ytick_2">
     <g id="line2d_21">
      <path d="M 57.6 262.000967 
L 414.72 262.000967 
" clip-path="url(#p1c4ab997ea)" style="fill: none; stroke: #b0b0b0; stroke-width: 0.8; stroke-linecap: square"/>
     </g>
     <g id="line2d_22">
      <g>
       <use xlink:href="#mfe08a33883" x="57.6" y="262.000967" style="stroke: #000000; stroke-width: 0.8"/>
      </g>
     </g>
     <g id="text_12">
      <!-- 0 -->
      <g transform="translate(44.2375 265.800186) scale(0.1 -0.1)">
       <use xlink:href="#DejaVuSans-30"/>
      </g>
     </g>
    </g>
    <g id="ytick_3">
     <g id="line2d_23">
      <path d="M 57.6 225.61253 
L 414.72 225.61253 
" clip-path="url(#p1c4ab997ea)" style="fill: none; stroke: #b0b0b0; stroke-width: 0.8; stroke-linecap: square"/>
     </g>
     <g id="line2d_24">
      <g>
       <use xlink:href="#mfe08a33883" x="57.6" y="225.61253" style="stroke: #000000; stroke-width: 0.8"/>
      </g>
     </g>
     <g id="text_13">
      <!-- 500 -->
      <g transform="translate(31.5125 229.411749) scale(0.1 -0.1)">
       <use xlink:href="#DejaVuSans-35"/>
       <use xlink:href="#DejaVuSans-30" x="63.623047"/>
       <use xlink:href="#DejaVuSans-30" x="127.246094"/>
      </g>
     </g>
    </g>
    <g id="ytick_4">
     <g id="line2d_25">
      <path d="M 57.6 189.224093 
L 414.72 189.224093 
" clip-path="url(#p1c4ab997ea)" style="fill: none; stroke: #b0b0b0; stroke-width: 0.8; stroke-linecap: square"/>
     </g>
     <g id="line2d_26">
      <g>
       <use xlink:href="#mfe08a33883" x="57.6" y="189.224093" style="stroke: #000000; stroke-width: 0.8"/>
      </g>
     </g>
     <g id="text_14">
      <!-- 1000 -->
      <g transform="translate(25.15 193.023312) scale(0.1 -0.1)">
       <use xlink:href="#DejaVuSans-31"/>
       <use xlink:href="#DejaVuSans-30" x="63.623047"/>
       <use xlink:href="#DejaVuSans-30" x="127.246094"/>
       <use xlink:href="#DejaVuSans-30" x="190.869141"/>
      </g>
     </g>
    </g>
    <g id="ytick_5">
     <g id="line2d_27">
      <path d="M 57.6 152.835657 
L 414.72 152.835657 
" clip-path="url(#p1c4ab997ea)" style="fill: none; stroke: #b0b0b0; stroke-width: 0.8; stroke-linecap: square"/>
     </g>
     <g id="line2d_28">
      <g>
       <use xlink:href="#mfe08a33883" x="57.6" y="152.835657" style="stroke: #000000; stroke-width: 0.8"/>
      </g>
     </g>
     <g id="text_15">
      <!-- 1500 -->
      <g transform="translate(25.15 156.634875) scale(0.1 -0.1)">
       <use xlink:href="#DejaVuSans-31"/>
       <use xlink:href="#DejaVuSans-35" x="63.623047"/>
       <use xlink:href="#DejaVuSans-30" x="127.246094"/>
       <use xlink:href="#DejaVuSans-30" x="190.869141"/>
      </g>
     </g>
    </g>
    <g id="ytick_6">
     <g id="line2d_29">
      <path d="M 57.6 116.44722 
L 414.72 116.44722 
" clip-path="url(#p1c4ab997ea)" style="fill: none; stroke: #b0b0b0; stroke-width: 0.8; stroke-linecap: square"/>
     </g>
     <g id="line2d_30">
      <g>
       <use xlink:href="#mfe08a33883" x="57.6" y="116.44722" style="stroke: #000000; stroke-width: 0.8"/>
      </g>
     </g>
     <g id="text_16">
      <!-- 2000 -->
      <g transform="translate(25.15 120.246438) scale(0.1 -0.1)">
       <use xlink:href="#DejaVuSans-32"/>
       <use xlink:href="#DejaVuSans-30" x="63.623047"/>
       <use xlink:href="#DejaVuSans-30" x="127.246094"/>
       <use xlink:href="#DejaVuSans-30" x="190.869141"/>
      </g>
     </g>
    </g>
    <g id="ytick_7">
     <g id="line2d_31">
      <path d="M 57.6 80.058783 
L 414.72 80.058783 
" clip-path="url(#p1c4ab997ea)" style="fill: none; stroke: #b0b0b0; stroke-width: 0.8; stroke-linecap: square"/>
     </g>
     <g id="line2d_32">
      <g>
       <use xlink:href="#mfe08a33883" x="57.6" y="80.058783" style="stroke: #000000; stroke-width: 0.8"/>
      </g>
     </g>
     <g id="text_17">
      <!-- 2500 -->
      <g transform="translate(25.15 83.858002) scale(0.1 -0.1)">
       <use xlink:href="#DejaVuSans-32"/>
       <use xlink:href="#DejaVuSans-35" x="63.623047"/>
       <use xlink:href="#DejaVuSans-30" x="127.246094"/>
       <use xlink:href="#DejaVuSans-30" x="190.869141"/>
      </g>
     </g>
    </g>
    <g id="ytick_8">
     <g id="line2d_33">
      <path d="M 57.6 43.670346 
L 414.72 43.670346 
" clip-path="url(#p1c4ab997ea)" style="fill: none; stroke: #b0b0b0; stroke-width: 0.8; stroke-linecap: square"/>
     </g>
     <g id="line2d_34">
      <g>
       <use xlink:href="#mfe08a33883" x="57.6" y="43.670346" style="stroke: #000000; stroke-width: 0.8"/>
      </g>
     </g>
     <g id="text_18">
      <!-- 3000 -->
      <g transform="translate(25.15 47.469565) scale(0.1 -0.1)">
       <use xlink:href="#DejaVuSans-33"/>
       <use xlink:href="#DejaVuSans-30" x="63.623047"/>
       <use xlink:href="#DejaVuSans-30" x="127.246094"/>
       <use xlink:href="#DejaVuSans-30" x="190.869141"/>
      </g>
     </g>
    </g>
    <g id="text_19">
     <!-- Fitness -->
     <g transform="translate(17.053125 191.845187) rotate(-90) scale(0.1 -0.1)">
      <defs>
       <path id="DejaVuSans-46" d="M 628 4666 
L 3309 4666 
L 3309 4134 
L 1259 4134 
L 1259 2759 
L 3109 2759 
L 3109 2228 
L 1259 2228 
L 1259 0 
L 628 0 
L 628 4666 
z
" transform="scale(0.015625)"/>
      </defs>
      <use xlink:href="#DejaVuSans-46"/>
      <use xlink:href="#DejaVuSans-69" x="50.269531"/>
      <use xlink:href="#DejaVuSans-74" x="78.052734"/>
      <use xlink:href="#DejaVuSans-6e" x="117.261719"/>
      <use xlink:href="#DejaVuSans-65" x="180.640625"/>
      <use xlink:href="#DejaVuSans-73" x="242.164062"/>
      <use xlink:href="#DejaVuSans-73" x="294.263672"/>
     </g>
    </g>
   </g>
   <g id="line2d_35">
    <path d="M 73.832727 260.864387 
L 74.646398 262.376836 
L 75.460068 261.629515 
L 76.273739 265.581629 
L 77.087409 262.33116 
L 77.90108 260.910043 
L 78.714751 263.042879 
L 79.528421 264.054279 
L 81.155762 262.11452 
L 81.969433 260.85562 
L 82.783103 263.5099 
L 83.596774 263.328882 
L 84.410444 262.763895 
L 85.224115 261.578319 
L 86.037785 262.65197 
L 86.851456 261.158114 
L 87.665126 262.84082 
L 88.478797 263.907158 
L 89.292468 261.510402 
L 90.106138 262.333242 
L 90.919809 263.487977 
L 91.733479 263.962942 
L 92.54715 264.034783 
L 93.36082 262.648548 
L 94.174491 263.621034 
L 94.988161 261.836257 
L 95.801832 263.095307 
L 96.615502 262.280279 
L 97.429173 265.166631 
L 98.242843 262.774276 
L 99.056514 263.211414 
L 99.870185 262.496919 
L 100.683855 263.795791 
L 101.497526 261.414222 
L 102.311196 262.314669 
L 103.124867 260.221687 
L 103.938537 261.914307 
L 104.752208 262.148629 
L 105.565878 262.064719 
L 106.379549 261.555031 
L 107.193219 264.000774 
L 108.00689 262.07677 
L 108.82056 264.430413 
L 109.634231 260.647 
L 110.447902 262.845103 
L 111.261572 263.734878 
L 112.075243 263.273645 
L 112.888913 264.236519 
L 113.702584 263.97459 
L 114.516254 264.226487 
L 115.329925 263.970705 
L 116.143595 264.477014 
L 117.770936 262.096291 
L 118.584607 262.600625 
L 119.398278 262.820734 
L 120.211948 261.445397 
L 121.025619 263.804877 
L 121.839289 262.781306 
L 122.65296 260.563243 
L 123.46663 262.690386 
L 124.280301 262.384113 
L 125.093971 262.506979 
L 125.907642 264.677567 
L 126.721312 261.913231 
L 127.534983 260.492885 
L 128.348653 262.66832 
L 129.162324 262.343087 
L 129.975995 262.725382 
L 130.789665 263.411494 
L 131.603336 263.380983 
L 132.417006 262.250386 
L 133.230677 263.875915 
L 134.044347 264.780143 
L 134.858018 262.074761 
L 135.671688 262.856575 
L 136.485359 260.698425 
L 137.299029 261.411107 
L 138.1127 263.106619 
L 138.92637 263.37444 
L 139.740041 260.317677 
L 140.553712 261.547804 
L 141.367382 262.473345 
L 142.181053 261.542142 
L 142.994723 260.937339 
L 143.808394 263.119551 
L 144.622064 259.520668 
L 145.435735 262.888888 
L 146.249405 262.376358 
L 147.063076 263.938517 
L 147.876746 263.093393 
L 148.690417 263.580461 
L 149.504087 262.997882 
L 150.317758 264.557244 
L 151.131429 261.599585 
L 151.945099 261.396411 
L 152.75877 260.567761 
L 153.57244 263.273894 
L 154.386111 261.863868 
L 155.199781 262.830892 
L 156.013452 262.640107 
L 156.827122 260.190274 
L 157.640793 263.991302 
L 158.454463 261.199246 
L 159.268134 260.738685 
L 160.081805 263.203553 
L 160.895475 262.032542 
L 161.709146 262.341529 
L 162.522816 263.922317 
L 163.336487 262.379235 
L 164.150157 261.949707 
L 164.963828 264.033761 
L 165.777498 264.045043 
L 166.591169 262.366482 
L 167.404839 264.167924 
L 169.03218 260.617676 
L 169.845851 261.199345 
L 170.659522 263.015277 
L 171.473192 263.835058 
L 172.286863 264.096638 
L 173.100533 262.817599 
L 173.914204 263.608166 
L 174.727874 263.200739 
L 175.541545 261.446053 
L 176.355215 262.361165 
L 177.168886 261.196108 
L 177.982556 263.35889 
L 178.796227 264.294931 
L 179.609897 263.61805 
L 180.423568 264.869275 
L 181.237239 262.633055 
L 182.050909 264.19118 
L 182.86458 261.478716 
L 184.491921 262.73722 
L 185.305591 263.199762 
L 186.119262 264.082112 
L 186.932932 263.214493 
L 188.560273 262.543462 
L 189.373944 261.550882 
L 190.187614 262.269534 
L 191.001285 264.751767 
L 191.814956 262.350545 
L 192.628626 261.381545 
L 193.442297 263.034039 
L 194.255967 259.951722 
L 195.069638 262.059611 
L 195.883308 262.041203 
L 196.696979 252.380137 
L 197.510649 251.846997 
L 198.32432 255.490607 
L 199.13799 254.254092 
L 199.951661 255.066393 
L 200.765332 256.311236 
L 201.579002 254.564649 
L 202.392673 254.505321 
L 203.206343 252.08029 
L 204.020014 253.409546 
L 205.647355 250.855371 
L 206.461025 252.810937 
L 207.274696 251.579731 
L 208.088366 251.285494 
L 209.715707 251.76809 
L 210.529378 251.204791 
L 211.343049 251.153902 
L 212.156719 251.530027 
L 212.97039 250.878737 
L 213.78406 251.242467 
L 214.597731 251.94265 
L 215.411401 251.399641 
L 216.225072 251.257391 
L 217.038742 251.290551 
L 217.852413 251.605574 
L 218.666083 251.237866 
L 219.479754 251.156418 
L 220.293424 251.461996 
L 221.107095 251.184163 
L 221.920766 252.314397 
L 222.734436 251.234748 
L 223.548107 251.906994 
L 224.361777 251.408964 
L 225.175448 251.745372 
L 225.989118 251.266697 
L 226.802789 251.1918 
L 227.616459 252.13471 
L 228.43013 251.300391 
L 229.2438 251.410851 
L 230.057471 251.690459 
L 230.871141 252.583588 
L 231.684812 251.29332 
L 232.498483 251.667817 
L 233.312153 251.649776 
L 234.125824 251.434529 
L 234.939494 251.67325 
L 236.566835 251.756757 
L 237.380506 251.229214 
L 238.194176 251.831626 
L 239.007847 251.546304 
L 240.635188 251.991838 
L 241.448859 251.284307 
L 242.262529 251.620662 
L 243.88987 251.181691 
L 244.703541 251.348793 
L 246.330882 251.171209 
L 247.144552 251.56134 
L 247.958223 251.079726 
L 248.771893 252.191752 
L 249.585564 251.533417 
L 250.399234 251.282752 
L 251.212905 251.37868 
L 252.026576 252.000809 
L 252.840246 251.39087 
L 253.653917 251.264234 
L 254.467587 251.443432 
L 255.281258 251.353681 
L 256.094928 251.022849 
L 256.908599 251.302158 
L 257.722269 252.071738 
L 258.53594 251.162399 
L 259.34961 250.945732 
L 260.163281 251.225622 
L 261.790622 251.079174 
L 263.417963 250.866252 
L 264.231634 251.164807 
L 265.045304 251.662073 
L 265.858975 251.794417 
L 266.672645 251.000456 
L 267.486316 251.687443 
L 269.113657 251.364137 
L 269.927327 251.181016 
L 270.740998 251.493022 
L 271.554668 251.677041 
L 272.368339 251.258025 
L 273.18201 251.720385 
L 273.99568 251.782888 
L 274.809351 251.546285 
L 275.623021 251.787394 
L 276.436692 251.450906 
L 277.250362 251.511588 
L 278.064033 251.294743 
L 278.877703 251.264355 
L 279.691374 251.597486 
L 280.505044 251.525707 
L 281.318715 251.069579 
L 282.132386 251.469909 
L 282.946056 251.149027 
L 284.573397 251.776168 
L 285.387068 251.406882 
L 287.014409 251.435693 
L 287.828079 251.681464 
L 288.64175 251.599189 
L 289.45542 251.678686 
L 290.269091 251.639467 
L 291.082761 252.509742 
L 291.896432 251.664275 
L 292.710103 251.990168 
L 293.523773 251.840256 
L 294.337444 251.414142 
L 295.964785 251.59052 
L 296.778455 251.581977 
L 297.592126 251.403622 
L 298.405796 251.381273 
L 299.219467 251.620014 
L 300.033137 251.466629 
L 300.846808 251.448585 
L 301.660478 251.613128 
L 302.474149 251.497978 
L 303.28782 251.607189 
L 304.10149 251.478901 
L 304.915161 251.619006 
L 305.728831 251.258989 
L 306.542502 251.259339 
L 308.169843 251.817483 
L 308.983513 251.293174 
L 310.610854 251.60227 
L 311.424525 251.679155 
L 312.238195 251.552303 
L 313.051866 252.536393 
L 313.865537 251.554692 
L 314.679207 251.7942 
L 315.492878 251.117794 
L 317.120219 251.297385 
L 317.933889 251.346199 
L 318.74756 251.235199 
L 319.56123 251.90715 
L 320.374901 251.457863 
L 321.188571 251.549934 
L 322.002242 251.055697 
L 322.815913 251.633625 
L 323.629583 251.71324 
L 324.443254 251.59586 
L 325.256924 251.250961 
L 326.884265 251.241806 
L 327.697936 251.247858 
L 328.511606 251.53976 
L 329.325277 252.568678 
L 330.138947 251.375934 
L 331.766288 251.287882 
L 332.579959 251.356326 
L 333.39363 251.577859 
L 334.2073 251.639583 
L 335.020971 252.225077 
L 335.834641 251.14822 
L 336.648312 251.392005 
L 337.461982 251.225032 
L 339.902994 251.11483 
L 340.716664 251.032671 
L 341.530335 251.428452 
L 342.344005 251.370228 
L 343.157676 251.194728 
L 343.971347 251.220767 
L 344.785017 251.510835 
L 345.598688 251.627712 
L 346.412358 251.445903 
L 347.226029 251.477572 
L 348.85337 251.781546 
L 349.66704 251.467108 
L 350.480711 251.555406 
L 351.294381 251.154969 
L 353.735393 251.361651 
L 354.549064 250.817871 
L 356.990075 251.348137 
L 357.803746 251.426898 
L 358.617416 251.168814 
L 359.431087 251.117159 
L 360.244757 251.459629 
L 361.058428 251.401681 
L 361.872098 251.488397 
L 362.685769 251.394703 
L 363.49944 251.420924 
L 365.126781 251.162348 
L 365.940451 251.59277 
L 366.754122 251.207039 
L 367.567792 251.331489 
L 368.381463 251.659707 
L 369.195133 251.357344 
L 370.822474 251.178029 
L 371.636145 251.302081 
L 372.449815 251.112675 
L 373.263486 251.18986 
L 374.077157 250.983941 
L 374.890827 251.136939 
L 375.704498 251.157964 
L 376.518168 250.835082 
L 377.331839 250.762857 
L 378.145509 251.116761 
L 378.95918 251.173105 
L 379.77285 251.438692 
L 380.586521 251.045031 
L 381.400191 250.850876 
L 383.027532 251.050015 
L 383.841203 251.204916 
L 384.654874 250.958956 
L 385.468544 251.210148 
L 386.282215 251.11095 
L 387.095885 250.875529 
L 387.909556 251.58535 
L 388.723226 252.469711 
L 389.536897 251.523616 
L 391.164238 251.346949 
L 391.977908 251.438632 
L 392.791579 251.025199 
L 393.605249 251.020545 
L 394.41892 251.132693 
L 395.232591 251.841126 
L 396.046261 251.323585 
L 396.859932 251.211196 
L 397.673602 252.265748 
L 398.487273 251.076405 
L 398.487273 251.076405 
" clip-path="url(#p1c4ab997ea)" style="fill: none; stroke: #0000ff; stroke-width: 1.5; stroke-linecap: square"/>
   </g>
   <g id="line2d_36">
    <path d="M 73.832727 272.093494 
L 74.646398 273.746015 
L 75.460068 274.114719 
L 76.273739 273.064106 
L 77.087409 276.224422 
L 77.90108 273.872849 
L 78.714751 274.298861 
L 79.528421 273.121993 
L 80.342092 275.38692 
L 81.155762 275.461991 
L 81.969433 272.985289 
L 82.783103 273.858165 
L 83.596774 274.346059 
L 84.410444 272.787221 
L 85.224115 273.197677 
L 86.037785 274.868579 
L 86.851456 274.205849 
L 88.478797 274.7984 
L 89.292468 275.474 
L 90.106138 273.703105 
L 90.919809 273.569715 
L 91.733479 274.864899 
L 92.54715 276.582565 
L 93.36082 274.362686 
L 94.174491 274.201406 
L 94.988161 273.440569 
L 95.801832 274.476151 
L 97.429173 272.837591 
L 98.242843 275.669726 
L 99.056514 275.012953 
L 99.870185 273.503192 
L 100.683855 275.89342 
L 101.497526 274.156413 
L 102.311196 274.267779 
L 103.124867 273.830156 
L 103.938537 272.594038 
L 104.752208 273.761183 
L 105.565878 275.32601 
L 106.379549 275.381443 
L 107.193219 273.549516 
L 108.00689 273.118849 
L 108.82056 274.62698 
L 109.634231 272.391084 
L 110.447902 273.806066 
L 111.261572 275.902884 
L 112.888913 273.425016 
L 113.702584 274.173781 
L 114.516254 274.132947 
L 115.329925 272.772701 
L 116.143595 273.990869 
L 116.957266 272.942845 
L 117.770936 274.575362 
L 118.584607 273.644356 
L 120.211948 272.735949 
L 121.025619 273.769945 
L 121.839289 273.076949 
L 122.65296 275.014599 
L 124.280301 274.852464 
L 125.907642 276.137489 
L 126.721312 274.208303 
L 127.534983 276.984401 
L 128.348653 273.633497 
L 129.162324 274.031638 
L 130.789665 274.622784 
L 131.603336 275.309795 
L 133.230677 273.283404 
L 134.044347 274.496431 
L 134.858018 274.000511 
L 135.671688 272.591481 
L 136.485359 273.097881 
L 137.299029 275.74683 
L 138.1127 275.789102 
L 139.740041 272.827178 
L 140.553712 273.915367 
L 141.367382 272.87144 
L 142.181053 275.379558 
L 142.994723 273.624019 
L 143.808394 274.134592 
L 144.622064 272.717969 
L 145.435735 276.009844 
L 146.249405 274.959659 
L 147.063076 274.207242 
L 147.876746 273.789585 
L 148.690417 273.883874 
L 149.504087 276.337831 
L 150.317758 273.291066 
L 151.131429 274.103553 
L 151.945099 274.331193 
L 152.75877 271.827655 
L 153.57244 274.895243 
L 154.386111 273.20371 
L 155.199781 273.864464 
L 156.013452 273.02679 
L 156.827122 274.297021 
L 157.640793 273.200121 
L 158.454463 273.785025 
L 159.268134 272.453076 
L 160.081805 273.090352 
L 160.895475 272.781239 
L 161.709146 272.709291 
L 162.522816 274.138331 
L 163.336487 275.161549 
L 164.150157 274.360445 
L 164.963828 274.329797 
L 165.777498 273.157665 
L 166.591169 277.024809 
L 168.21851 273.963376 
L 169.03218 274.901495 
L 169.845851 273.009776 
L 170.659522 275.455141 
L 171.473192 275.04633 
L 172.286863 274.76571 
L 173.100533 275.659868 
L 173.914204 272.806424 
L 174.727874 273.766332 
L 175.541545 273.542722 
L 176.355215 276.015945 
L 177.168886 274.829686 
L 177.982556 273.053276 
L 178.796227 273.831572 
L 179.609897 275.865658 
L 180.423568 274.492427 
L 181.237239 273.530316 
L 182.050909 274.455818 
L 182.86458 275.950625 
L 183.67825 274.193159 
L 184.491921 274.39271 
L 185.305591 274.111152 
L 186.119262 275.256552 
L 186.932932 274.806916 
L 187.746603 276.508026 
L 188.560273 273.601613 
L 189.373944 272.461231 
L 190.187614 274.860646 
L 191.001285 274.525112 
L 191.814956 273.007369 
L 192.628626 276.197556 
L 193.442297 276.0343 
L 194.255967 272.454432 
L 195.069638 277.123302 
L 195.883308 276.347481 
L 196.696979 291.753933 
L 197.510649 295.012475 
L 198.32432 288.760036 
L 199.13799 288.321357 
L 199.951661 295.488 
L 200.765332 287.46175 
L 201.579002 288.879963 
L 202.392673 289.505714 
L 203.206343 292.918403 
L 204.020014 293.778322 
L 204.833684 280.700659 
L 205.647355 281.652558 
L 206.461025 283.568385 
L 207.274696 280.723993 
L 208.088366 278.393394 
L 208.902037 286.901668 
L 209.715707 277.782088 
L 210.529378 280.245047 
L 211.343049 280.274326 
L 212.156719 277.471063 
L 212.97039 284.136384 
L 213.78406 278.347528 
L 214.597731 277.565042 
L 215.411401 275.393921 
L 216.225072 271.496272 
L 217.038742 275.117192 
L 217.852413 275.102514 
L 218.666083 274.941755 
L 219.479754 276.121469 
L 220.293424 277.712482 
L 221.107095 279.632376 
L 221.920766 278.207018 
L 222.734436 274.463731 
L 223.548107 274.19927 
L 224.361777 274.656117 
L 225.175448 276.103764 
L 225.989118 278.5557 
L 226.802789 278.840458 
L 227.616459 273.758118 
L 228.43013 276.421728 
L 229.2438 279.563515 
L 230.057471 277.057619 
L 230.871141 277.754623 
L 231.684812 278.120977 
L 232.498483 278.925644 
L 233.312153 279.194487 
L 234.125824 284.316416 
L 234.939494 276.798521 
L 235.753165 282.759417 
L 236.566835 277.374956 
L 237.380506 276.709741 
L 238.194176 277.582806 
L 239.007847 275.90877 
L 239.821517 278.533559 
L 240.635188 274.97408 
L 241.448859 277.68161 
L 242.262529 277.699938 
L 243.0762 273.701591 
L 243.88987 275.060672 
L 244.703541 278.865257 
L 245.517211 276.13483 
L 246.330882 274.389932 
L 247.144552 275.029747 
L 247.958223 272.696838 
L 248.771893 279.705862 
L 249.585564 277.600015 
L 250.399234 281.052647 
L 251.212905 275.208717 
L 252.026576 272.941999 
L 252.840246 274.826489 
L 253.653917 282.423429 
L 254.467587 275.801811 
L 256.094928 276.385291 
L 256.908599 275.526992 
L 257.722269 277.103349 
L 258.53594 274.679367 
L 259.34961 274.876281 
L 260.163281 275.38906 
L 260.976951 278.066362 
L 261.790622 278.202159 
L 262.604293 275.292746 
L 263.417963 279.467255 
L 264.231634 274.409551 
L 265.045304 280.833298 
L 265.858975 276.907728 
L 266.672645 279.34626 
L 267.486316 273.20907 
L 268.299986 276.252396 
L 269.113657 275.745598 
L 269.927327 277.669569 
L 270.740998 275.038391 
L 271.554668 270.571387 
L 272.368339 273.79472 
L 273.18201 274.231921 
L 273.99568 277.676939 
L 274.809351 279.115389 
L 275.623021 277.40576 
L 276.436692 283.153789 
L 277.250362 274.308161 
L 278.064033 280.569931 
L 278.877703 281.08788 
L 279.691374 272.727893 
L 280.505044 274.502176 
L 281.318715 275.336604 
L 282.946056 278.557888 
L 283.759727 278.522137 
L 284.573397 279.081497 
L 285.387068 278.705885 
L 286.200738 281.557471 
L 287.014409 273.894584 
L 287.828079 279.334399 
L 288.64175 275.986353 
L 289.45542 273.493966 
L 290.269091 273.380839 
L 291.082761 276.534547 
L 291.896432 276.773947 
L 292.710103 278.098559 
L 293.523773 273.040821 
L 294.337444 274.392244 
L 295.151114 277.973195 
L 295.964785 275.183844 
L 296.778455 274.396357 
L 297.592126 277.447009 
L 298.405796 275.846525 
L 299.219467 273.569534 
L 300.033137 279.636707 
L 300.846808 273.848109 
L 301.660478 276.381499 
L 302.474149 271.754918 
L 303.28782 273.605843 
L 304.10149 276.819566 
L 304.915161 276.856556 
L 305.728831 273.233023 
L 306.542502 276.007209 
L 307.356172 272.752362 
L 308.169843 271.821673 
L 308.983513 276.775736 
L 309.797184 275.533169 
L 310.610854 276.458755 
L 311.424525 273.455146 
L 312.238195 275.426177 
L 313.051866 276.118204 
L 313.865537 274.578596 
L 314.679207 275.097453 
L 315.492878 281.087248 
L 316.306548 272.834234 
L 317.120219 280.089652 
L 317.933889 274.965689 
L 318.74756 275.114621 
L 320.374901 279.448741 
L 321.188571 279.509421 
L 322.815913 272.778177 
L 323.629583 270.782246 
L 324.443254 283.113349 
L 325.256924 273.699063 
L 326.070595 275.221619 
L 326.884265 277.651064 
L 327.697936 277.004136 
L 328.511606 278.546045 
L 329.325277 275.404533 
L 330.138947 276.777522 
L 330.952618 273.728738 
L 332.579959 276.381045 
L 333.39363 275.35449 
L 334.2073 271.812409 
L 335.020971 273.314631 
L 335.834641 275.586787 
L 336.648312 277.198363 
L 337.461982 274.433855 
L 338.275653 278.139134 
L 339.089323 275.768 
L 339.902994 275.097284 
L 340.716664 276.464073 
L 341.530335 280.796953 
L 342.344005 278.10216 
L 343.157676 272.815015 
L 343.971347 274.038588 
L 344.785017 273.309909 
L 345.598688 271.555796 
L 346.412358 282.948132 
L 347.226029 274.892084 
L 348.039699 271.632093 
L 348.85337 275.771647 
L 349.66704 275.953612 
L 351.294381 271.931435 
L 352.108052 272.198342 
L 352.921722 271.506741 
L 353.735393 273.538602 
L 354.549064 272.433366 
L 355.362734 275.036276 
L 356.176405 276.992869 
L 356.990075 276.591068 
L 357.803746 276.989823 
L 358.617416 276.279474 
L 359.431087 280.115437 
L 360.244757 275.30641 
L 361.058428 277.450129 
L 361.872098 273.680915 
L 362.685769 271.84126 
L 363.49944 274.631554 
L 364.31311 270.642859 
L 365.126781 274.196158 
L 365.940451 274.430009 
L 366.754122 275.636288 
L 367.567792 275.259912 
L 368.381463 271.090452 
L 369.195133 279.221747 
L 370.008804 274.220924 
L 370.822474 275.418824 
L 371.636145 272.524943 
L 373.263486 274.99299 
L 374.077157 275.973785 
L 375.704498 271.669547 
L 376.518168 270.284834 
L 377.331839 271.25213 
L 378.145509 273.295434 
L 378.95918 272.080084 
L 379.77285 273.807767 
L 380.586521 274.571659 
L 381.400191 274.966538 
L 382.213862 281.147645 
L 383.027532 272.812138 
L 383.841203 273.295963 
L 384.654874 275.141379 
L 385.468544 273.058256 
L 386.282215 276.05109 
L 387.095885 273.089957 
L 388.723226 273.788099 
L 389.536897 274.701401 
L 390.350567 275.198547 
L 391.164238 278.104093 
L 391.977908 271.993394 
L 392.791579 275.083512 
L 393.605249 274.28523 
L 394.41892 272.313538 
L 395.232591 274.224501 
L 396.046261 279.376365 
L 396.859932 272.102422 
L 397.673602 272.656842 
L 398.487273 275.16049 
L 398.487273 275.16049 
" clip-path="url(#p1c4ab997ea)" style="fill: none; stroke-dasharray: 9.6,2.4,1.5,2.4; stroke-dashoffset: 0; stroke: #008000; stroke-width: 1.5"/>
   </g>
   <g id="line2d_37">
    <path d="M 73.832727 249.635279 
L 74.646398 251.007658 
L 75.460068 249.144311 
L 76.273739 258.099151 
L 77.087409 248.437898 
L 77.90108 247.947237 
L 78.714751 251.786898 
L 79.528421 254.986564 
L 80.342092 250.903354 
L 81.155762 248.76705 
L 81.969433 248.725952 
L 82.783103 253.161636 
L 83.596774 252.311704 
L 84.410444 252.74057 
L 85.224115 249.95896 
L 86.037785 250.435361 
L 86.851456 248.110379 
L 87.665126 251.167495 
L 88.478797 253.015916 
L 89.292468 247.546804 
L 90.106138 250.963378 
L 90.919809 253.406238 
L 91.733479 253.060985 
L 92.54715 251.487001 
L 93.36082 250.934409 
L 94.174491 253.040661 
L 94.988161 250.231944 
L 95.801832 251.714463 
L 96.615502 250.955842 
L 97.429173 257.495671 
L 98.242843 249.878826 
L 99.056514 251.409874 
L 99.870185 251.490646 
L 100.683855 251.698162 
L 101.497526 248.672031 
L 102.311196 250.361558 
L 103.124867 246.613219 
L 103.938537 251.234576 
L 104.752208 250.536075 
L 105.565878 248.803427 
L 106.379549 247.728619 
L 107.193219 254.452032 
L 108.00689 251.034691 
L 108.82056 254.233845 
L 109.634231 248.902916 
L 110.447902 251.88414 
L 111.261572 251.566871 
L 112.075243 251.928283 
L 112.888913 255.048022 
L 113.702584 253.7754 
L 114.516254 254.320028 
L 115.329925 255.168709 
L 116.143595 254.96316 
L 116.957266 253.641301 
L 117.770936 249.617221 
L 118.584607 251.556894 
L 119.398278 252.454704 
L 120.211948 250.154845 
L 121.025619 253.839809 
L 121.839289 252.485663 
L 122.65296 246.111887 
L 123.46663 250.403244 
L 124.280301 249.915761 
L 125.093971 249.576727 
L 125.907642 253.217645 
L 126.721312 249.618159 
L 127.534983 244.001368 
L 128.348653 251.703142 
L 129.162324 250.654536 
L 129.975995 251.180749 
L 130.789665 252.200205 
L 131.603336 251.452171 
L 132.417006 250.284318 
L 133.230677 254.468425 
L 134.044347 255.063856 
L 134.858018 250.14901 
L 135.671688 253.121668 
L 136.485359 248.29897 
L 137.299029 247.075383 
L 138.1127 250.424137 
L 138.92637 252.463338 
L 139.740041 247.808176 
L 140.553712 249.180242 
L 141.367382 252.075249 
L 142.181053 247.704726 
L 142.994723 248.25066 
L 143.808394 252.10451 
L 144.622064 246.323368 
L 145.435735 249.767931 
L 146.249405 249.793058 
L 147.063076 253.669792 
L 147.876746 252.3972 
L 148.690417 253.277048 
L 149.504087 249.657933 
L 150.317758 255.823421 
L 151.131429 249.095618 
L 151.945099 248.461629 
L 152.75877 249.307868 
L 153.57244 251.652545 
L 154.386111 250.524026 
L 155.199781 251.797319 
L 156.013452 252.253424 
L 156.827122 246.083527 
L 157.640793 254.782482 
L 158.454463 248.613468 
L 159.268134 249.024293 
L 160.081805 253.316755 
L 160.895475 251.283846 
L 161.709146 251.973767 
L 162.522816 253.706303 
L 163.336487 249.596922 
L 164.150157 249.53897 
L 164.963828 253.737725 
L 165.777498 254.932422 
L 166.591169 247.708155 
L 167.404839 252.876115 
L 168.21851 250.591602 
L 169.03218 246.333857 
L 169.845851 249.388914 
L 170.659522 250.575412 
L 171.473192 252.623785 
L 172.286863 253.427565 
L 173.100533 249.975331 
L 173.914204 254.409908 
L 174.727874 252.635145 
L 175.541545 249.349384 
L 176.355215 248.706386 
L 177.168886 247.562531 
L 177.982556 253.664504 
L 178.796227 254.758289 
L 179.609897 251.370442 
L 180.423568 255.246122 
L 181.237239 251.735795 
L 182.050909 253.926543 
L 182.86458 247.006807 
L 183.67825 250.151474 
L 184.491921 251.08173 
L 185.305591 252.288372 
L 186.119262 252.907671 
L 186.932932 251.622071 
L 187.746603 249.265777 
L 188.560273 251.485311 
L 190.187614 249.678423 
L 191.001285 254.978423 
L 191.814956 251.693722 
L 192.628626 246.565533 
L 193.442297 250.033779 
L 194.255967 247.449012 
L 195.069638 246.995921 
L 195.883308 247.734926 
L 196.696979 213.006341 
L 197.510649 208.68152 
L 198.32432 222.221177 
L 199.13799 220.186827 
L 199.951661 214.644786 
L 200.765332 225.160723 
L 201.579002 220.249334 
L 202.392673 219.504927 
L 203.206343 211.242177 
L 204.020014 213.04077 
L 204.833684 223.477572 
L 205.647355 220.058184 
L 206.461025 222.053489 
L 207.274696 222.435469 
L 208.088366 224.177595 
L 208.902037 216.103993 
L 209.715707 225.754091 
L 210.529378 222.164535 
L 211.343049 222.033478 
L 212.156719 225.588992 
L 212.97039 217.62109 
L 213.78406 224.137406 
L 214.597731 226.320257 
L 215.411401 227.405361 
L 216.225072 231.018511 
L 217.038742 227.463909 
L 217.852413 228.108634 
L 218.666083 227.533976 
L 219.479754 226.191368 
L 220.293424 225.21151 
L 221.107095 222.73595 
L 221.920766 226.421776 
L 223.548107 229.614718 
L 224.361777 228.16181 
L 225.175448 227.386979 
L 225.989118 223.977694 
L 226.802789 223.543141 
L 227.616459 230.511302 
L 228.43013 226.179053 
L 229.2438 223.258188 
L 230.057471 226.323299 
L 230.871141 227.412553 
L 231.684812 224.465664 
L 232.498483 224.40999 
L 233.312153 224.105066 
L 234.125824 218.552643 
L 234.939494 226.54798 
L 235.753165 220.679241 
L 236.566835 226.138557 
L 237.380506 225.748688 
L 238.194176 226.080446 
L 239.007847 227.183837 
L 239.821517 224.983459 
L 240.635188 229.009596 
L 241.448859 224.887003 
L 242.262529 225.541385 
L 243.0762 229.192688 
L 243.88987 227.30271 
L 244.703541 223.832328 
L 245.517211 226.35795 
L 246.330882 227.952486 
L 247.144552 228.092932 
L 247.958223 229.462615 
L 248.771893 224.677641 
L 249.585564 225.466819 
L 250.399234 221.512857 
L 251.212905 227.548643 
L 252.026576 231.059619 
L 252.840246 227.955252 
L 253.653917 220.105039 
L 254.467587 227.085054 
L 255.281258 226.635274 
L 256.094928 225.660407 
L 256.908599 227.077324 
L 257.722269 227.040128 
L 258.53594 227.645431 
L 259.34961 227.015182 
L 260.163281 227.062184 
L 260.976951 224.348714 
L 261.790622 223.956189 
L 262.604293 226.65375 
L 263.417963 222.265249 
L 264.231634 227.920063 
L 265.045304 222.490849 
L 265.858975 226.681106 
L 266.672645 222.654652 
L 267.486316 230.165815 
L 268.299986 226.691271 
L 269.113657 226.982675 
L 269.927327 224.692464 
L 270.740998 227.947654 
L 271.554668 232.782695 
L 272.368339 228.72133 
L 273.18201 229.208848 
L 273.99568 225.888837 
L 274.809351 223.977182 
L 275.623021 226.169028 
L 276.436692 219.748024 
L 277.250362 228.715016 
L 278.064033 222.019555 
L 278.877703 221.44083 
L 279.691374 230.467078 
L 281.318715 226.802554 
L 282.132386 226.007511 
L 282.946056 223.740166 
L 283.759727 224.386841 
L 284.573397 224.470838 
L 285.387068 224.107879 
L 286.200738 221.254168 
L 287.014409 228.976802 
L 287.828079 224.028529 
L 288.64175 227.212024 
L 289.45542 229.863406 
L 290.269091 229.898095 
L 291.082761 228.484937 
L 291.896432 226.554603 
L 292.710103 225.881777 
L 293.523773 230.639692 
L 294.337444 228.436041 
L 295.151114 225.092361 
L 295.964785 227.997195 
L 296.778455 228.767597 
L 297.592126 225.360234 
L 298.405796 226.916022 
L 299.219467 229.670495 
L 300.033137 223.296551 
L 300.846808 229.049061 
L 301.660478 226.844756 
L 302.474149 231.241037 
L 303.28782 229.608536 
L 304.10149 226.138236 
L 304.915161 226.381456 
L 305.728831 229.284955 
L 306.542502 226.51147 
L 307.356172 230.439515 
L 308.169843 231.813292 
L 308.983513 225.810612 
L 309.797184 227.396371 
L 310.610854 226.745785 
L 311.424525 229.903163 
L 312.238195 227.678428 
L 313.051866 228.954582 
L 313.865537 228.530788 
L 314.679207 228.490947 
L 315.492878 221.148341 
L 316.306548 229.670369 
L 317.120219 222.505118 
L 317.933889 227.726709 
L 318.74756 227.355777 
L 319.56123 226.446115 
L 320.374901 223.466985 
L 321.188571 223.590447 
L 322.002242 225.887343 
L 322.815913 230.489072 
L 323.629583 232.644234 
L 324.443254 220.078371 
L 325.256924 228.802858 
L 326.070595 227.367653 
L 326.884265 224.832548 
L 327.697936 225.491579 
L 328.511606 224.533475 
L 329.325277 229.732824 
L 330.138947 225.974347 
L 330.952618 228.932977 
L 332.579959 226.331607 
L 333.39363 227.801228 
L 334.2073 231.466758 
L 335.020971 231.135523 
L 335.834641 226.709653 
L 336.648312 225.585647 
L 337.461982 228.016208 
L 338.275653 224.28845 
L 339.089323 226.551241 
L 339.902994 227.132376 
L 340.716664 225.60127 
L 341.530335 222.059952 
L 342.344005 224.638297 
L 343.157676 229.574441 
L 343.971347 228.402946 
L 344.785017 229.711761 
L 345.598688 231.699629 
L 346.412358 219.943674 
L 347.226029 228.06306 
L 348.039699 231.634635 
L 348.85337 227.791446 
L 349.66704 226.980604 
L 350.480711 229.289897 
L 351.294381 230.378503 
L 352.108052 230.303608 
L 352.921722 231.4031 
L 353.735393 229.184701 
L 354.549064 229.202376 
L 355.362734 226.982155 
L 356.176405 225.268285 
L 356.990075 226.105206 
L 357.803746 225.863972 
L 358.617416 226.058154 
L 359.431087 222.118881 
L 360.244757 227.612848 
L 361.058428 225.353232 
L 361.872098 229.295878 
L 362.685769 230.948146 
L 363.49944 228.210294 
L 364.31311 232.012008 
L 365.126781 228.128537 
L 365.940451 228.755531 
L 366.754122 226.77779 
L 367.567792 227.403066 
L 368.381463 232.228961 
L 369.195133 223.492941 
L 370.008804 228.365615 
L 370.822474 226.937235 
L 371.636145 230.07922 
L 372.449815 228.467255 
L 373.263486 227.38673 
L 374.077157 225.994097 
L 375.704498 230.646381 
L 376.518168 231.385331 
L 377.331839 230.273585 
L 378.145509 228.938088 
L 378.95918 230.266125 
L 379.77285 229.069618 
L 380.586521 227.518403 
L 381.400191 226.735214 
L 382.213862 220.664035 
L 383.027532 229.287891 
L 383.841203 229.11387 
L 384.654874 226.776533 
L 385.468544 229.36204 
L 386.282215 226.170809 
L 387.095885 228.661102 
L 387.909556 229.761644 
L 388.723226 231.151324 
L 389.536897 228.345832 
L 390.350567 227.61488 
L 391.164238 224.589805 
L 391.977908 230.883869 
L 392.791579 226.966885 
L 393.605249 227.75586 
L 394.41892 229.951848 
L 395.232591 229.457752 
L 396.046261 223.270805 
L 396.859932 230.31997 
L 397.673602 231.874654 
L 398.487273 226.992321 
L 398.487273 226.992321 
" clip-path="url(#p1c4ab997ea)" style="fill: none; stroke-dasharray: 9.6,2.4,1.5,2.4; stroke-dashoffset: 0; stroke: #008000; stroke-width: 1.5"/>
   </g>
   <g id="line2d_38">
    <path d="M 73.832727 226.267522 
L 74.646398 226.267522 
L 75.460068 211.712147 
L 76.273739 240.822897 
L 77.087409 197.156773 
L 77.90108 211.712147 
L 78.714751 211.712147 
L 79.528421 240.822897 
L 81.155762 211.712147 
L 81.969433 226.267522 
L 82.783103 226.267522 
L 83.596774 211.712147 
L 84.410444 226.267522 
L 85.224115 211.712147 
L 86.037785 226.267522 
L 86.851456 226.267522 
L 87.665126 197.156773 
L 88.478797 211.712147 
L 89.292468 213.189426 
L 90.106138 226.267522 
L 90.919809 228.232498 
L 91.733479 228.232443 
L 92.54715 199.121742 
L 93.36082 226.267522 
L 96.615502 226.267522 
L 97.429173 240.822897 
L 98.242843 198.789035 
L 99.056514 211.712147 
L 99.870185 227.703257 
L 100.683855 211.712147 
L 101.497526 211.712147 
L 102.311196 211.915384 
L 103.124867 211.712147 
L 103.938537 226.267522 
L 104.752208 226.267522 
L 105.565878 211.712147 
L 106.379549 211.712147 
L 107.193219 240.822897 
L 108.00689 226.267522 
L 110.447902 226.267522 
L 111.261572 211.712147 
L 112.075243 226.267522 
L 114.516254 226.267522 
L 115.329925 240.822897 
L 116.143595 226.267522 
L 116.957266 240.822897 
L 117.770936 211.712147 
L 118.584607 226.267522 
L 119.398278 226.267522 
L 120.211948 211.712147 
L 121.025619 226.267522 
L 121.839289 211.712147 
L 122.65296 182.601398 
L 123.46663 213.636034 
L 124.280301 226.267522 
L 125.093971 211.712147 
L 126.721312 211.712147 
L 127.534983 197.156773 
L 128.348653 211.712147 
L 129.162324 211.712147 
L 129.975995 226.267522 
L 130.789665 228.221908 
L 131.603336 226.267522 
L 132.417006 226.267522 
L 133.230677 228.232497 
L 134.044347 226.267522 
L 134.858018 211.712147 
L 135.671688 240.822897 
L 136.485359 226.267522 
L 137.299029 197.156773 
L 138.1127 199.033818 
L 138.92637 226.267522 
L 140.553712 226.267522 
L 141.367382 240.822897 
L 142.181053 211.712147 
L 142.994723 226.267522 
L 144.622064 226.267522 
L 145.435735 212.974071 
L 146.249405 213.632035 
L 147.063076 226.267522 
L 147.876746 226.267522 
L 148.690417 240.822897 
L 149.504087 211.712147 
L 150.317758 240.822897 
L 151.945099 211.712147 
L 152.75877 226.267522 
L 155.199781 226.267522 
L 156.013452 211.712147 
L 157.640793 240.822897 
L 158.454463 226.267522 
L 160.081805 226.267522 
L 160.895475 211.712147 
L 161.709146 226.267522 
L 162.522816 227.58621 
L 163.336487 211.712147 
L 164.150157 213.67605 
L 164.963828 226.267522 
L 165.777498 227.350731 
L 166.591169 211.814947 
L 167.404839 227.419538 
L 168.21851 227.383692 
L 169.03218 198.425505 
L 169.845851 226.267522 
L 170.659522 211.712147 
L 171.473192 226.267522 
L 172.286863 226.267522 
L 173.100533 211.712147 
L 173.914204 240.822897 
L 174.727874 226.267522 
L 175.541545 226.267522 
L 176.355215 211.712147 
L 177.168886 226.267522 
L 179.609897 226.267522 
L 180.423568 228.228381 
L 181.237239 240.822897 
L 182.86458 211.712147 
L 183.67825 211.712147 
L 184.491921 226.267522 
L 185.305591 228.232497 
L 186.119262 226.267522 
L 186.932932 211.712147 
L 187.746603 211.712147 
L 188.560273 226.267522 
L 189.373944 226.267522 
L 190.187614 211.712147 
L 191.001285 240.822897 
L 191.814956 226.267522 
L 192.628626 184.565863 
L 193.442297 211.712147 
L 194.255967 211.712147 
L 195.069638 199.121748 
L 195.883308 199.121748 
L 196.696979 82.67875 
L 197.510649 68.123375 
L 198.32432 111.789499 
L 199.13799 97.234124 
L 199.951661 53.568 
L 200.765332 97.234124 
L 202.392673 68.123375 
L 203.206343 97.234125 
L 204.020014 82.67875 
L 204.833684 170.010922 
L 205.647355 126.343415 
L 206.461025 111.7895 
L 208.088366 170.010745 
L 208.902037 111.789038 
L 209.715707 155.455624 
L 210.529378 126.344771 
L 211.343049 126.344423 
L 212.156719 170.010943 
L 212.97039 126.344874 
L 213.78406 126.30991 
L 214.597731 170.010999 
L 215.411401 170.010999 
L 216.225072 197.156773 
L 217.038742 170.010999 
L 219.479754 170.010976 
L 220.293424 169.313069 
L 221.107095 111.789124 
L 221.920766 170.010999 
L 222.734436 184.566374 
L 223.548107 184.566374 
L 224.361777 170.010999 
L 225.175448 170.010999 
L 225.989118 155.455624 
L 226.802789 155.455612 
L 227.616459 184.379709 
L 228.43013 155.44164 
L 230.871141 155.455613 
L 231.684812 140.885531 
L 232.498483 140.893923 
L 234.125824 111.549173 
L 234.939494 198.881421 
L 235.753165 111.789208 
L 237.380506 170.00279 
L 238.194176 155.455562 
L 239.007847 170.010999 
L 239.821517 155.454745 
L 240.635188 184.566326 
L 241.448859 170.010999 
L 242.262529 140.900249 
L 243.0762 199.102361 
L 243.88987 170.010999 
L 244.703541 97.203726 
L 245.517211 169.791248 
L 246.330882 197.156773 
L 247.144552 184.252826 
L 247.958223 182.601398 
L 248.771893 111.7895 
L 249.585564 182.601398 
L 250.399234 111.789154 
L 251.212905 184.566372 
L 252.026576 199.121748 
L 252.840246 184.566367 
L 253.653917 111.789462 
L 254.467587 155.455616 
L 256.094928 184.56586 
L 256.908599 170.010941 
L 257.722269 168.046023 
L 258.53594 182.601398 
L 259.34961 182.601398 
L 260.163281 169.9919 
L 260.976951 140.866879 
L 261.790622 169.994473 
L 262.604293 155.444155 
L 263.417963 155.455624 
L 264.231634 199.076276 
L 265.045304 140.861412 
L 265.858975 184.238046 
L 266.672645 170.00344 
L 267.486316 184.566002 
L 268.299986 140.899857 
L 269.113657 154.014861 
L 269.927327 170.006455 
L 270.740998 198.421947 
L 271.554668 198.778924 
L 272.368339 198.565831 
L 273.18201 198.920225 
L 273.99568 155.254101 
L 274.809351 139.300326 
L 275.623021 140.884394 
L 276.436692 97.187122 
L 277.250362 169.8545 
L 278.064033 126.188375 
L 278.877703 126.188375 
L 279.691374 199.116175 
L 280.505044 184.530418 
L 281.318715 155.38025 
L 282.132386 169.992311 
L 282.946056 155.436937 
L 283.759727 126.344874 
L 284.573397 155.455567 
L 286.200738 155.454482 
L 287.014409 184.399531 
L 287.828079 155.285793 
L 288.64175 140.523628 
L 289.45542 184.561366 
L 290.269091 184.561366 
L 291.082761 169.261896 
L 291.896432 170.010999 
L 292.710103 155.216017 
L 293.523773 155.454771 
L 294.337444 155.455226 
L 295.151114 170.007584 
L 295.964785 140.852358 
L 296.778455 184.565961 
L 297.592126 155.430195 
L 299.219467 184.555012 
L 300.033137 111.7895 
L 300.846808 199.071802 
L 301.660478 155.434304 
L 302.474149 198.966785 
L 303.28782 199.121258 
L 304.915161 170.00822 
L 305.728831 197.156773 
L 306.542502 155.455616 
L 307.356172 199.070106 
L 308.169843 184.565017 
L 308.983513 155.455623 
L 309.797184 184.121459 
L 310.610854 184.54717 
L 311.424525 199.113847 
L 312.238195 155.455615 
L 313.051866 168.752669 
L 313.865537 168.683604 
L 314.679207 170.003522 
L 315.492878 124.687484 
L 316.306548 184.493723 
L 317.120219 140.894416 
L 317.933889 170.010999 
L 318.74756 184.566371 
L 321.188571 140.808829 
L 322.002242 155.446847 
L 322.815913 199.009567 
L 323.629583 199.116665 
L 324.443254 111.787941 
L 325.256924 169.129696 
L 326.070595 155.454065 
L 326.884265 155.448403 
L 327.697936 140.900249 
L 328.511606 140.900249 
L 329.325277 155.193244 
L 330.138947 155.455594 
L 330.952618 155.455594 
L 331.766288 169.906382 
L 332.579959 169.934622 
L 333.39363 184.364524 
L 334.2073 184.38951 
L 335.020971 198.647137 
L 335.834641 184.428825 
L 336.648312 155.455622 
L 337.461982 183.90571 
L 338.275653 155.258575 
L 339.089323 184.566268 
L 339.902994 184.52785 
L 340.716664 183.03783 
L 341.530335 140.892535 
L 343.157676 199.12006 
L 344.785017 170.010463 
L 345.598688 199.121531 
L 346.412358 111.789499 
L 347.226029 184.552872 
L 348.039699 199.108956 
L 348.85337 170.009538 
L 349.66704 184.517386 
L 350.480711 155.455622 
L 351.294381 199.121747 
L 352.108052 196.996981 
L 352.921722 211.803502 
L 353.735393 184.565523 
L 354.549064 184.565938 
L 355.362734 155.454834 
L 356.176405 155.193557 
L 356.990075 155.40912 
L 357.803746 140.881928 
L 358.617416 170.010954 
L 359.431087 126.344875 
L 360.244757 169.978376 
L 361.872098 170.006933 
L 362.685769 184.565325 
L 365.126781 184.566332 
L 365.940451 183.344905 
L 366.754122 155.455622 
L 367.567792 140.900249 
L 368.381463 184.566349 
L 369.195133 126.277616 
L 370.008804 169.979258 
L 370.822474 155.455622 
L 371.636145 184.566343 
L 372.449815 184.190659 
L 373.263486 168.277901 
L 374.077157 169.094049 
L 374.890827 184.517433 
L 375.704498 197.156773 
L 376.518168 184.491544 
L 377.331839 199.094461 
L 378.145509 170.010988 
L 378.95918 182.601398 
L 379.77285 184.389215 
L 380.586521 169.766719 
L 381.400191 184.559025 
L 382.213862 111.768373 
L 383.027532 182.601398 
L 383.841203 184.565723 
L 384.654874 169.18821 
L 385.468544 140.900249 
L 386.282215 140.898496 
L 387.095885 169.628218 
L 387.909556 184.338002 
L 388.723226 184.562083 
L 389.536897 184.558068 
L 391.164238 155.455624 
L 391.977908 199.121217 
L 392.791579 184.565842 
L 394.41892 184.566083 
L 395.232591 170.010989 
L 396.046261 140.899329 
L 396.859932 197.156773 
L 397.673602 184.566329 
L 398.487273 184.550931 
L 398.487273 184.550931 
" clip-path="url(#p1c4ab997ea)" style="fill: none; stroke: #ff0000; stroke-width: 1.5; stroke-linecap: square"/>
   </g>
   <g id="patch_3">
    <path d="M 57.6 307.584 
L 57.6 41.472 
" style="fill: none; stroke: #000000; stroke-width: 0.8; stroke-linejoin: miter; stroke-linecap: square"/>
   </g>
   <g id="patch_4">
    <path d="M 414.72 307.584 
L 414.72 41.472 
" style="fill: none; stroke: #000000; stroke-width: 0.8; stroke-linejoin: miter; stroke-linecap: square"/>
   </g>
   <g id="patch_5">
    <path d="M 57.6 307.584 
L 414.72 307.584 
" style="fill: none; stroke: #000000; stroke-width: 0.8; stroke-linejoin: miter; stroke-linecap: square"/>
   </g>
   <g id="patch_6">
    <path d="M 57.6 41.472 
L 414.72 41.472 
" style="fill: none; stroke: #000000; stroke-width: 0.8; stroke-linejoin: miter; stroke-linecap: square"/>
   </g>
   <g id="text_20">
    <!-- Population's average and best fitness -->
    <g transform="translate(123.529687 35.472) scale(0.12 -0.12)">
     <defs>
      <path id="DejaVuSans-50" d="M 1259 4147 
L 1259 2394 
L 2053 2394 
Q 2494 2394 2734 2622 
Q 2975 2850 2975 3272 
Q 2975 3691 2734 3919 
Q 2494 4147 2053 4147 
L 1259 4147 
z
M 628 4666 
L 2053 4666 
Q 2838 4666 3239 4311 
Q 3641 3956 3641 3272 
Q 3641 2581 3239 2228 
Q 2838 1875 2053 1875 
L 1259 1875 
L 1259 0 
L 628 0 
L 628 4666 
z
" transform="scale(0.015625)"/>
      <path id="DejaVuSans-70" d="M 1159 525 
L 1159 -1331 
L 581 -1331 
L 581 3500 
L 1159 3500 
L 1159 2969 
Q 1341 3281 1617 3432 
Q 1894 3584 2278 3584 
Q 2916 3584 3314 3078 
Q 3713 2572 3713 1747 
Q 3713 922 3314 415 
Q 2916 -91 2278 -91 
Q 1894 -91 1617 61 
Q 1341 213 1159 525 
z
M 3116 1747 
Q 3116 2381 2855 2742 
Q 2594 3103 2138 3103 
Q 1681 3103 1420 2742 
Q 1159 2381 1159 1747 
Q 1159 1113 1420 752 
Q 1681 391 2138 391 
Q 2594 391 2855 752 
Q 3116 1113 3116 1747 
z
" transform="scale(0.015625)"/>
      <path id="DejaVuSans-75" d="M 544 1381 
L 544 3500 
L 1119 3500 
L 1119 1403 
Q 1119 906 1312 657 
Q 1506 409 1894 409 
Q 2359 409 2629 706 
Q 2900 1003 2900 1516 
L 2900 3500 
L 3475 3500 
L 3475 0 
L 2900 0 
L 2900 538 
Q 2691 219 2414 64 
Q 2138 -91 1772 -91 
Q 1169 -91 856 284 
Q 544 659 544 1381 
z
M 1991 3584 
L 1991 3584 
z
" transform="scale(0.015625)"/>
      <path id="DejaVuSans-6c" d="M 603 4863 
L 1178 4863 
L 1178 0 
L 603 0 
L 603 4863 
z
" transform="scale(0.015625)"/>
      <path id="DejaVuSans-27" d="M 1147 4666 
L 1147 2931 
L 616 2931 
L 616 4666 
L 1147 4666 
z
" transform="scale(0.015625)"/>
      <path id="DejaVuSans-20" transform="scale(0.015625)"/>
      <path id="DejaVuSans-76" d="M 191 3500 
L 800 3500 
L 1894 563 
L 2988 3500 
L 3597 3500 
L 2284 0 
L 1503 0 
L 191 3500 
z
" transform="scale(0.015625)"/>
      <path id="DejaVuSans-67" d="M 2906 1791 
Q 2906 2416 2648 2759 
Q 2391 3103 1925 3103 
Q 1463 3103 1205 2759 
Q 947 2416 947 1791 
Q 947 1169 1205 825 
Q 1463 481 1925 481 
Q 2391 481 2648 825 
Q 2906 1169 2906 1791 
z
M 3481 434 
Q 3481 -459 3084 -895 
Q 2688 -1331 1869 -1331 
Q 1566 -1331 1297 -1286 
Q 1028 -1241 775 -1147 
L 775 -588 
Q 1028 -725 1275 -790 
Q 1522 -856 1778 -856 
Q 2344 -856 2625 -561 
Q 2906 -266 2906 331 
L 2906 616 
Q 2728 306 2450 153 
Q 2172 0 1784 0 
Q 1141 0 747 490 
Q 353 981 353 1791 
Q 353 2603 747 3093 
Q 1141 3584 1784 3584 
Q 2172 3584 2450 3431 
Q 2728 3278 2906 2969 
L 2906 3500 
L 3481 3500 
L 3481 434 
z
" transform="scale(0.015625)"/>
      <path id="DejaVuSans-64" d="M 2906 2969 
L 2906 4863 
L 3481 4863 
L 3481 0 
L 2906 0 
L 2906 525 
Q 2725 213 2448 61 
Q 2172 -91 1784 -91 
Q 1150 -91 751 415 
Q 353 922 353 1747 
Q 353 2572 751 3078 
Q 1150 3584 1784 3584 
Q 2172 3584 2448 3432 
Q 2725 3281 2906 2969 
z
M 947 1747 
Q 947 1113 1208 752 
Q 1469 391 1925 391 
Q 2381 391 2643 752 
Q 2906 1113 2906 1747 
Q 2906 2381 2643 2742 
Q 2381 3103 1925 3103 
Q 1469 3103 1208 2742 
Q 947 2381 947 1747 
z
" transform="scale(0.015625)"/>
      <path id="DejaVuSans-62" d="M 3116 1747 
Q 3116 2381 2855 2742 
Q 2594 3103 2138 3103 
Q 1681 3103 1420 2742 
Q 1159 2381 1159 1747 
Q 1159 1113 1420 752 
Q 1681 391 2138 391 
Q 2594 391 2855 752 
Q 3116 1113 3116 1747 
z
M 1159 2969 
Q 1341 3281 1617 3432 
Q 1894 3584 2278 3584 
Q 2916 3584 3314 3078 
Q 3713 2572 3713 1747 
Q 3713 922 3314 415 
Q 2916 -91 2278 -91 
Q 1894 -91 1617 61 
Q 1341 213 1159 525 
L 1159 0 
L 581 0 
L 581 4863 
L 1159 4863 
L 1159 2969 
z
" transform="scale(0.015625)"/>
      <path id="DejaVuSans-66" d="M 2375 4863 
L 2375 4384 
L 1825 4384 
Q 1516 4384 1395 4259 
Q 1275 4134 1275 3809 
L 1275 3500 
L 2222 3500 
L 2222 3053 
L 1275 3053 
L 1275 0 
L 697 0 
L 697 3053 
L 147 3053 
L 147 3500 
L 697 3500 
L 697 3744 
Q 697 4328 969 4595 
Q 1241 4863 1831 4863 
L 2375 4863 
z
" transform="scale(0.015625)"/>
     </defs>
     <use xlink:href="#DejaVuSans-50"/>
     <use xlink:href="#DejaVuSans-6f" x="56.677734"/>
     <use xlink:href="#DejaVuSans-70" x="117.859375"/>
     <use xlink:href="#DejaVuSans-75" x="181.335938"/>
     <use xlink:href="#DejaVuSans-6c" x="244.714844"/>
     <use xlink:href="#DejaVuSans-61" x="272.498047"/>
     <use xlink:href="#DejaVuSans-74" x="333.777344"/>
     <use xlink:href="#DejaVuSans-69" x="372.986328"/>
     <use xlink:href="#DejaVuSans-6f" x="400.769531"/>
     <use xlink:href="#DejaVuSans-6e" x="461.951172"/>
     <use xlink:href="#DejaVuSans-27" x="525.330078"/>
     <use xlink:href="#DejaVuSans-73" x="552.820312"/>
     <use xlink:href="#DejaVuSans-20" x="604.919922"/>
     <use xlink:href="#DejaVuSans-61" x="636.707031"/>
     <use xlink:href="#DejaVuSans-76" x="697.986328"/>
     <use xlink:href="#DejaVuSans-65" x="757.166016"/>
     <use xlink:href="#DejaVuSans-72" x="818.689453"/>
     <use xlink:href="#DejaVuSans-61" x="859.802734"/>
     <use xlink:href="#DejaVuSans-67" x="921.082031"/>
     <use xlink:href="#DejaVuSans-65" x="984.558594"/>
     <use xlink:href="#DejaVuSans-20" x="1046.082031"/>
     <use xlink:href="#DejaVuSans-61" x="1077.869141"/>
     <use xlink:href="#DejaVuSans-6e" x="1139.148438"/>
     <use xlink:href="#DejaVuSans-64" x="1202.527344"/>
     <use xlink:href="#DejaVuSans-20" x="1266.003906"/>
     <use xlink:href="#DejaVuSans-62" x="1297.791016"/>
     <use xlink:href="#DejaVuSans-65" x="1361.267578"/>
     <use xlink:href="#DejaVuSans-73" x="1422.791016"/>
     <use xlink:href="#DejaVuSans-74" x="1474.890625"/>
     <use xlink:href="#DejaVuSans-20" x="1514.099609"/>
     <use xlink:href="#DejaVuSans-66" x="1545.886719"/>
     <use xlink:href="#DejaVuSans-69" x="1581.091797"/>
     <use xlink:href="#DejaVuSans-74" x="1608.875"/>
     <use xlink:href="#DejaVuSans-6e" x="1648.083984"/>
     <use xlink:href="#DejaVuSans-65" x="1711.462891"/>
     <use xlink:href="#DejaVuSans-73" x="1772.986328"/>
     <use xlink:href="#DejaVuSans-73" x="1825.085938"/>
    </g>
   </g>
   <g id="legend_1">
    <g id="patch_7">
     <path d="M 334.779375 108.1845 
L 407.72 108.1845 
Q 409.72 108.1845 409.72 106.1845 
L 409.72 48.472 
Q 409.72 46.472 407.72 46.472 
L 334.779375 46.472 
Q 332.779375 46.472 332.779375 48.472 
L 332.779375 106.1845 
Q 332.779375 108.1845 334.779375 108.1845 
z
" style="fill: #ffffff; opacity: 0.8; stroke: #cccccc; stroke-linejoin: miter"/>
    </g>
    <g id="line2d_39">
     <path d="M 336.779375 54.570438 
L 346.779375 54.570438 
L 356.779375 54.570438 
" style="fill: none; stroke: #0000ff; stroke-width: 1.5; stroke-linecap: square"/>
    </g>
    <g id="text_21">
     <!-- average -->
     <g transform="translate(364.779375 58.070438) scale(0.1 -0.1)">
      <use xlink:href="#DejaVuSans-61"/>
      <use xlink:href="#DejaVuSans-76" x="61.279297"/>
      <use xlink:href="#DejaVuSans-65" x="120.458984"/>
      <use xlink:href="#DejaVuSans-72" x="181.982422"/>
      <use xlink:href="#DejaVuSans-61" x="223.095703"/>
      <use xlink:href="#DejaVuSans-67" x="284.375"/>
      <use xlink:href="#DejaVuSans-65" x="347.851562"/>
     </g>
    </g>
    <g id="line2d_40">
     <path d="M 336.779375 69.248563 
L 346.779375 69.248563 
L 356.779375 69.248563 
" style="fill: none; stroke-dasharray: 9.6,2.4,1.5,2.4; stroke-dashoffset: 0; stroke: #008000; stroke-width: 1.5"/>
    </g>
    <g id="text_22">
     <!-- -1 sd -->
     <g transform="translate(364.779375 72.748563) scale(0.1 -0.1)">
      <defs>
       <path id="DejaVuSans-2d" d="M 313 2009 
L 1997 2009 
L 1997 1497 
L 313 1497 
L 313 2009 
z
" transform="scale(0.015625)"/>
      </defs>
      <use xlink:href="#DejaVuSans-2d"/>
      <use xlink:href="#DejaVuSans-31" x="36.083984"/>
      <use xlink:href="#DejaVuSans-20" x="99.707031"/>
      <use xlink:href="#DejaVuSans-73" x="131.494141"/>
      <use xlink:href="#DejaVuSans-64" x="183.59375"/>
     </g>
    </g>
    <g id="line2d_41">
     <path d="M 336.779375 83.926688 
L 346.779375 83.926688 
L 356.779375 83.926688 
" style="fill: none; stroke-dasharray: 9.6,2.4,1.5,2.4; stroke-dashoffset: 0; stroke: #008000; stroke-width: 1.5"/>
    </g>
    <g id="text_23">
     <!-- +1 sd -->
     <g transform="translate(364.779375 87.426688) scale(0.1 -0.1)">
      <defs>
       <path id="DejaVuSans-2b" d="M 2944 4013 
L 2944 2272 
L 4684 2272 
L 4684 1741 
L 2944 1741 
L 2944 0 
L 2419 0 
L 2419 1741 
L 678 1741 
L 678 2272 
L 2419 2272 
L 2419 4013 
L 2944 4013 
z
" transform="scale(0.015625)"/>
      </defs>
      <use xlink:href="#DejaVuSans-2b"/>
      <use xlink:href="#DejaVuSans-31" x="83.789062"/>
      <use xlink:href="#DejaVuSans-20" x="147.412109"/>
      <use xlink:href="#DejaVuSans-73" x="179.199219"/>
      <use xlink:href="#DejaVuSans-64" x="231.298828"/>
     </g>
    </g>
    <g id="line2d_42">
     <path d="M 336.779375 98.604813 
L 346.779375 98.604813 
L 356.779375 98.604813 
" style="fill: none; stroke: #ff0000; stroke-width: 1.5; stroke-linecap: square"/>
    </g>
    <g id="text_24">
     <!-- best -->
     <g transform="translate(364.779375 102.104813) scale(0.1 -0.1)">
      <use xlink:href="#DejaVuSans-62"/>
      <use xlink:href="#DejaVuSans-65" x="63.476562"/>
      <use xlink:href="#DejaVuSans-73" x="125"/>
      <use xlink:href="#DejaVuSans-74" x="177.099609"/>
     </g>
    </g>
   </g>
  </g>
 </g>
 <defs>
  <clipPath id="p1c4ab997ea">
   <rect x="57.6" y="41.472" width="357.12" height="266.112"/>
  </clipPath>
 </defs>
</svg>
