<?xml version="1.0" encoding="UTF-8" standalone="no"?>
<!DOCTYPE svg PUBLIC "-//W3C//DTD SVG 1.1//EN"
 "http://www.w3.org/Graphics/SVG/1.1/DTD/svg11.dtd">
<!-- Generated by graphviz version 7.0.0 (20221023.0053)
 -->
<!-- Pages: 1 -->
<svg width="312pt" height="579pt"
 viewBox="0.00 0.00 312.38 578.97" xmlns="http://www.w3.org/2000/svg" xmlns:xlink="http://www.w3.org/1999/xlink">
<g id="graph0" class="graph" transform="scale(1 1) rotate(0) translate(4 574.97)">
<polygon fill="white" stroke="none" points="-4,4 -4,-574.97 308.38,-574.97 308.38,4 -4,4"/>
<!-- angle -->
<g id="node1" class="node">
<title>angle</title>
<polygon fill="lightgray" stroke="black" points="63.5,-139.75 28.5,-139.75 28.5,-121.75 63.5,-121.75 63.5,-139.75"/>
<text text-anchor="middle" x="46" y="-128.55" font-family="Times,serif" font-size="9.00">angle</text>
</g>
<!-- 16 -->
<g id="node14" class="node">
<title>16</title>
<ellipse fill="white" stroke="black" cx="81" cy="-31.82" rx="18.27" ry="18.27"/>
<text text-anchor="middle" x="81" y="-29.62" font-family="Times,serif" font-size="9.00">16</text>
</g>
<!-- angle&#45;&gt;16 -->
<g id="edge14" class="edge">
<title>angle&#45;&gt;16</title>
<path fill="none" stroke="green" stroke-width="0.19" d="M48.98,-121.49C53.93,-107.8 64.02,-79.85 71.56,-58.97"/>
<polygon fill="green" stroke="green" stroke-width="0.19" points="74.82,-60.24 74.92,-49.64 68.24,-57.86 74.82,-60.24"/>
</g>
<!-- energy -->
<g id="node2" class="node">
<title>energy</title>
<polygon fill="lightgray" stroke="black" points="152.5,-334.79 111.5,-334.79 111.5,-316.79 152.5,-316.79 152.5,-334.79"/>
<text text-anchor="middle" x="132" y="-323.59" font-family="Times,serif" font-size="9.00">energy</text>
</g>
<!-- 93 -->
<g id="node17" class="node">
<title>93</title>
<ellipse fill="white" stroke="black" cx="113" cy="-233.22" rx="18.27" ry="18.27"/>
<text text-anchor="middle" x="113" y="-231.02" font-family="Times,serif" font-size="9.00">93</text>
</g>
<!-- energy&#45;&gt;93 -->
<g id="edge9" class="edge">
<title>energy&#45;&gt;93</title>
<path fill="none" stroke="red" stroke-width="0.25" d="M130.25,-316.43C127.65,-304.07 122.68,-280.37 118.74,-261.57"/>
<polygon fill="red" stroke="red" stroke-width="0.25" points="122.17,-260.9 116.69,-251.83 115.32,-262.34 122.17,-260.9"/>
</g>
<!-- random -->
<g id="node3" class="node">
<title>random</title>
<polygon fill="lightgray" stroke="black" points="118,-561.58 74,-561.58 74,-543.58 118,-543.58 118,-561.58"/>
<text text-anchor="middle" x="96" y="-550.38" font-family="Times,serif" font-size="9.00">random</text>
</g>
<!-- constant -->
<g id="node4" class="node">
<title>constant</title>
<polygon fill="lightgray" stroke="black" points="182,-561.58 136,-561.58 136,-543.58 182,-543.58 182,-561.58"/>
<text text-anchor="middle" x="159" y="-550.38" font-family="Times,serif" font-size="9.00">constant</text>
</g>
<!-- angle_food -->
<g id="node5" class="node">
<title>angle_food</title>
<polygon fill="lightgray" stroke="black" points="56,-561.58 0,-561.58 0,-543.58 56,-543.58 56,-561.58"/>
<text text-anchor="middle" x="28" y="-550.38" font-family="Times,serif" font-size="9.00">angle_food</text>
</g>
<!-- 69 -->
<g id="node10" class="node">
<title>69</title>
<ellipse fill="white" stroke="black" cx="28" cy="-479.81" rx="18.27" ry="18.27"/>
<text text-anchor="middle" x="28" y="-477.61" font-family="Times,serif" font-size="9.00">69</text>
</g>
<!-- angle_food&#45;&gt;69 -->
<g id="edge3" class="edge">
<title>angle_food&#45;&gt;69</title>
<path fill="none" stroke="green" stroke-width="0.21" d="M28,-543.19C28,-534.61 28,-520.81 28,-508.37"/>
<polygon fill="green" stroke="green" stroke-width="0.21" points="31.5,-508.71 28,-498.71 24.5,-508.71 31.5,-508.71"/>
</g>
<!-- dist_food -->
<g id="node6" class="node">
<title>dist_food</title>
<polygon fill="lightgray" stroke="black" points="250,-561.58 200,-561.58 200,-543.58 250,-543.58 250,-561.58"/>
<text text-anchor="middle" x="225" y="-550.38" font-family="Times,serif" font-size="9.00">dist_food</text>
</g>
<!-- forward -->
<g id="node7" class="node">
<title>forward</title>
<ellipse fill="lightblue" stroke="black" cx="184" cy="-31.82" rx="31.64" ry="31.64"/>
<text text-anchor="middle" x="184" y="-29.62" font-family="Times,serif" font-size="9.00">forward</text>
</g>
<!-- turn left -->
<g id="node8" class="node">
<title>turn left</title>
<ellipse fill="lightblue" stroke="black" cx="113" cy="-130.75" rx="31.23" ry="31.23"/>
<text text-anchor="middle" x="113" y="-128.55" font-family="Times,serif" font-size="9.00">turn left</text>
</g>
<!-- turn right -->
<g id="node9" class="node">
<title>turn right</title>
<ellipse fill="lightblue" stroke="black" cx="185" cy="-233.22" rx="35.21" ry="35.21"/>
<text text-anchor="middle" x="185" y="-231.02" font-family="Times,serif" font-size="9.00">turn right</text>
</g>
<!-- 105 -->
<g id="node12" class="node">
<title>105</title>
<ellipse fill="white" stroke="black" cx="184" cy="-130.75" rx="21.43" ry="21.43"/>
<text text-anchor="middle" x="184" y="-128.55" font-family="Times,serif" font-size="9.00">105</text>
</g>
<!-- turn right&#45;&gt;105 -->
<g id="edge15" class="edge">
<title>turn right&#45;&gt;105</title>
<path fill="none" stroke="red" stroke-width="0.13" d="M184.66,-197.64C184.54,-186.29 184.42,-173.75 184.31,-162.68"/>
<polygon fill="red" stroke="red" stroke-width="0.13" points="187.81,-162.77 184.21,-152.81 180.81,-162.84 187.81,-162.77"/>
</g>
<!-- 116 -->
<g id="node15" class="node">
<title>116</title>
<ellipse fill="white" stroke="black" cx="72" cy="-404.22" rx="21.43" ry="21.43"/>
<text text-anchor="middle" x="72" y="-402.02" font-family="Times,serif" font-size="9.00">116</text>
</g>
<!-- 69&#45;&gt;116 -->
<g id="edge4" class="edge">
<title>69&#45;&gt;116</title>
<path fill="none" stroke="green" stroke-width="0.6" d="M37.12,-463.56C42.51,-454.54 49.51,-442.84 55.81,-432.29"/>
<polygon fill="green" stroke="green" stroke-width="0.6" points="58.76,-434.19 60.88,-423.81 52.75,-430.6 58.76,-434.19"/>
</g>
<!-- 69&#45;&gt;93 -->
<g id="edge11" class="edge">
<title>69&#45;&gt;93</title>
<path fill="none" stroke="red" stroke-width="0.28" d="M24.47,-461.46C18.72,-428.9 10.32,-357.2 35,-304.58 46.33,-280.42 70.18,-260.9 88.54,-248.6"/>
<polygon fill="red" stroke="red" stroke-width="0.28" points="90.4,-251.57 96.93,-243.23 86.62,-245.68 90.4,-251.57"/>
</g>
<!-- 135 -->
<g id="node11" class="node">
<title>135</title>
<ellipse fill="white" stroke="black" cx="192" cy="-325.79" rx="21.43" ry="21.43"/>
<text text-anchor="middle" x="192" y="-323.59" font-family="Times,serif" font-size="9.00">135</text>
</g>
<!-- 135&#45;&gt;turn right -->
<g id="edge13" class="edge">
<title>135&#45;&gt;turn right</title>
<path fill="none" stroke="green" stroke-width="0.16" d="M190.41,-304.24C189.82,-296.58 189.12,-287.56 188.43,-278.58"/>
<polygon fill="green" stroke="green" stroke-width="0.16" points="191.93,-278.49 187.67,-268.79 184.95,-279.03 191.93,-278.49"/>
</g>
<!-- 135&#45;&gt;93 -->
<g id="edge8" class="edge">
<title>135&#45;&gt;93</title>
<path fill="none" stroke="green" stroke-width="0.39" d="M177.93,-309.71C167.56,-298.51 153.2,-282.76 141,-268.58 137.6,-264.63 134.05,-260.36 130.65,-256.23"/>
<polygon fill="green" stroke="green" stroke-width="0.39" points="133.4,-254.07 124.38,-248.52 127.97,-258.49 133.4,-254.07"/>
</g>
<!-- 105&#45;&gt;forward -->
<g id="edge2" class="edge">
<title>105&#45;&gt;forward</title>
<path fill="none" stroke="red" stroke-width="0.12" d="M184,-109.2C184,-98.86 184,-85.96 184,-73.72"/>
<polygon fill="red" stroke="red" stroke-width="0.12" points="187.5,-73.85 184,-63.85 180.5,-73.85 187.5,-73.85"/>
</g>
<!-- 105&#45;&gt;16 -->
<g id="edge16" class="edge">
<title>105&#45;&gt;16</title>
<path fill="none" stroke="red" stroke-width="0.85" d="M168.93,-114.98C163.89,-110.07 158.22,-104.6 153,-99.64 136.1,-83.59 116.73,-65.64 102.34,-52.39"/>
<polygon fill="red" stroke="red" stroke-width="0.85" points="104.77,-49.87 95.04,-45.67 100.03,-55.02 104.77,-49.87"/>
</g>
<!-- 140 -->
<g id="node13" class="node">
<title>140</title>
<ellipse fill="white" stroke="black" cx="72" cy="-325.79" rx="21.43" ry="21.43"/>
<text text-anchor="middle" x="72" y="-323.59" font-family="Times,serif" font-size="9.00">140</text>
</g>
<!-- 116&#45;&gt;135 -->
<g id="edge7" class="edge">
<title>116&#45;&gt;135</title>
<path fill="none" stroke="red" stroke-width="0.2" d="M90.05,-392.2C108.3,-380.99 137.27,-363.05 162,-347 163.41,-346.09 164.86,-345.14 166.31,-344.18"/>
<polygon fill="red" stroke="red" stroke-width="0.2" points="167.98,-347.28 174.36,-338.82 164.1,-341.45 167.98,-347.28"/>
</g>
<!-- 116&#45;&gt;105 -->
<g id="edge12" class="edge">
<title>116&#45;&gt;105</title>
<path fill="none" stroke="red" stroke-width="0.9" d="M93.57,-402.04C127.08,-398.95 191.01,-387.72 222,-347 262.19,-294.2 248.53,-261.28 229,-197.87 224.29,-182.58 214.71,-167.66 205.59,-155.88"/>
<polygon fill="red" stroke="red" stroke-width="0.9" points="208.37,-153.75 199.34,-148.2 202.94,-158.17 208.37,-153.75"/>
</g>
<!-- 116&#45;&gt;140 -->
<g id="edge10" class="edge">
<title>116&#45;&gt;140</title>
<path fill="none" stroke="red" stroke-width="0.25" d="M72,-382.33C72,-374.83 72,-366.21 72,-358.02"/>
<polygon fill="red" stroke="red" stroke-width="0.25" points="75.5,-358.03 72,-348.03 68.5,-358.03 75.5,-358.03"/>
</g>
<!-- 116&#45;&gt;93 -->
<g id="edge5" class="edge">
<title>116&#45;&gt;93</title>
<path fill="none" stroke="green" stroke-width="0.16" stroke-dasharray="1,5" d="M59.7,-386.1C46.96,-366.14 30.43,-332.33 42,-304.58 51.55,-281.66 72.6,-262.39 89.31,-249.84"/>
<polygon fill="green" stroke="green" stroke-width="0.16" points="91.3,-252.72 97.38,-244.05 87.21,-247.04 91.3,-252.72"/>
</g>
<!-- 25 -->
<g id="node16" class="node">
<title>25</title>
<ellipse fill="white" stroke="black" cx="286" cy="-552.58" rx="18.27" ry="18.27"/>
<text text-anchor="middle" x="286" y="-550.38" font-family="Times,serif" font-size="9.00">25</text>
</g>
<!-- 93&#45;&gt;turn left -->
<g id="edge6" class="edge">
<title>93&#45;&gt;turn left</title>
<path fill="none" stroke="red" stroke-width="0.13" d="M113,-214.72C113,-203.03 113,-187.14 113,-172.4"/>
<polygon fill="red" stroke="red" stroke-width="0.13" points="116.5,-172.63 113,-162.63 109.5,-172.63 116.5,-172.63"/>
</g>
<!-- 93&#45;&gt;105 -->
<g id="edge1" class="edge">
<title>93&#45;&gt;105</title>
<path fill="none" stroke="red" stroke-width="0.12" stroke-dasharray="1,5" d="M123.17,-217.83C134.35,-202.02 152.5,-176.32 166.07,-157.12"/>
<polygon fill="red" stroke="red" stroke-width="0.12" points="168.93,-159.14 171.84,-148.95 163.22,-155.1 168.93,-159.14"/>
</g>
</g>
</svg>
