<?xml version="1.0" encoding="UTF-8" standalone="no"?>
<!DOCTYPE svg PUBLIC "-//W3C//DTD SVG 1.1//EN"
 "http://www.w3.org/Graphics/SVG/1.1/DTD/svg11.dtd">
<!-- Generated by graphviz version 7.0.0 (20221023.0053)
 -->
<!-- Pages: 1 -->
<svg width="478pt" height="697pt"
 viewBox="0.00 0.00 478.36 696.99" xmlns="http://www.w3.org/2000/svg" xmlns:xlink="http://www.w3.org/1999/xlink">
<g id="graph0" class="graph" transform="scale(1 1) rotate(0) translate(4 692.99)">
<polygon fill="white" stroke="none" points="-4,4 -4,-692.99 474.36,-692.99 474.36,4 -4,4"/>
<!-- const -->
<g id="node1" class="node">
<title>const</title>
<polygon fill="lightgray" stroke="black" points="140.5,-389.17 105.5,-389.17 105.5,-371.17 140.5,-371.17 140.5,-389.17"/>
<text text-anchor="middle" x="123" y="-377.97" font-family="Times,serif" font-size="9.00">const</text>
</g>
<!-- forward -->
<g id="node9" class="node">
<title>forward</title>
<ellipse fill="lightblue" stroke="black" cx="183" cy="-281.24" rx="31.64" ry="31.64"/>
<text text-anchor="middle" x="183" y="-279.04" font-family="Times,serif" font-size="9.00">forward</text>
</g>
<!-- const&#45;&gt;forward -->
<g id="edge1" class="edge">
<title>const&#45;&gt;forward</title>
<path fill="none" stroke="green" stroke-width="0.55" d="M128.12,-370.91C135.37,-359.18 149.1,-337.01 161.01,-317.76"/>
<polygon fill="green" stroke="green" stroke-width="0.55" points="163.95,-319.67 166.24,-309.32 158,-315.99 163.95,-319.67"/>
</g>
<!-- random -->
<g id="node2" class="node">
<title>random</title>
<polygon fill="lightgray" stroke="black" points="168,-662.64 124,-662.64 124,-644.64 168,-644.64 168,-662.64"/>
<text text-anchor="middle" x="146" y="-651.44" font-family="Times,serif" font-size="9.00">random</text>
</g>
<!-- 3431 -->
<g id="node13" class="node">
<title>3431</title>
<ellipse fill="white" stroke="black" cx="120" cy="-557.53" rx="25" ry="25"/>
<text text-anchor="middle" x="120" y="-555.33" font-family="Times,serif" font-size="9.00">3431</text>
</g>
<!-- random&#45;&gt;3431 -->
<g id="edge16" class="edge">
<title>random&#45;&gt;3431</title>
<path fill="none" stroke="green" stroke-width="0.15" d="M143.69,-644.29C140.45,-632.54 134.35,-610.48 129.16,-591.67"/>
<polygon fill="green" stroke="green" stroke-width="0.15" points="132.56,-590.86 126.53,-582.15 125.82,-592.72 132.56,-590.86"/>
</g>
<!-- 2443 -->
<g id="node15" class="node">
<title>2443</title>
<ellipse fill="white" stroke="black" cx="158" cy="-472.04" rx="25" ry="25"/>
<text text-anchor="middle" x="158" y="-469.84" font-family="Times,serif" font-size="9.00">2443</text>
</g>
<!-- random&#45;&gt;2443 -->
<g id="edge5" class="edge">
<title>random&#45;&gt;2443</title>
<path fill="none" stroke="red" stroke-width="0.32" d="M147.14,-644.42C148.91,-631.31 152.31,-604.84 154,-582.28 155.87,-557.35 156.88,-529.15 157.41,-507.64"/>
<polygon fill="red" stroke="red" stroke-width="0.32" points="160.9,-507.93 157.63,-497.85 153.91,-507.77 160.9,-507.93"/>
</g>
<!-- 1943 -->
<g id="node18" class="node">
<title>1943</title>
<ellipse fill="white" stroke="black" cx="183" cy="-380.17" rx="25" ry="25"/>
<text text-anchor="middle" x="183" y="-377.97" font-family="Times,serif" font-size="9.00">1943</text>
</g>
<!-- random&#45;&gt;1943 -->
<g id="edge2" class="edge">
<title>random&#45;&gt;1943</title>
<path fill="none" stroke="green" stroke-width="0.12" d="M149.01,-644.47C153.78,-631.43 163.2,-605.03 170,-582.28 181.23,-544.69 187.07,-535.71 192,-496.78 194.76,-474.96 193.49,-469.23 192,-447.29 191.29,-436.8 189.95,-425.44 188.52,-415.14"/>
<polygon fill="green" stroke="green" stroke-width="0.12" points="192.01,-414.85 187.11,-405.46 185.09,-415.86 192.01,-414.85"/>
</g>
<!-- 2590 -->
<g id="node20" class="node">
<title>2590</title>
<ellipse fill="white" stroke="black" cx="53" cy="-557.53" rx="25" ry="25"/>
<text text-anchor="middle" x="53" y="-555.33" font-family="Times,serif" font-size="9.00">2590</text>
</g>
<!-- random&#45;&gt;2590 -->
<g id="edge18" class="edge">
<title>random&#45;&gt;2590</title>
<path fill="none" stroke="green" stroke-width="0.33" d="M137.75,-644.29C124.34,-630.72 97.34,-603.4 77.4,-583.22"/>
<polygon fill="green" stroke="green" stroke-width="0.33" points="80.02,-580.9 70.5,-576.24 75.04,-585.82 80.02,-580.9"/>
</g>
<!-- x -->
<g id="node3" class="node">
<title>x</title>
<polygon fill="lightgray" stroke="black" points="260.5,-481.04 239.5,-481.04 239.5,-463.04 260.5,-463.04 260.5,-481.04"/>
<text text-anchor="middle" x="250" y="-469.84" font-family="Times,serif" font-size="9.00">x</text>
</g>
<!-- 1994 -->
<g id="node14" class="node">
<title>1994</title>
<ellipse fill="white" stroke="black" cx="250" cy="-380.17" rx="25" ry="25"/>
<text text-anchor="middle" x="250" y="-377.97" font-family="Times,serif" font-size="9.00">1994</text>
</g>
<!-- x&#45;&gt;1994 -->
<g id="edge4" class="edge">
<title>x&#45;&gt;1994</title>
<path fill="none" stroke="green" stroke-width="0.22" d="M250,-462.74C250,-452.09 250,-432.94 250,-415.87"/>
<polygon fill="green" stroke="green" stroke-width="0.22" points="253.5,-415.95 250,-405.95 246.5,-415.95 253.5,-415.95"/>
</g>
<!-- x&#45;&gt;1943 -->
<g id="edge8" class="edge">
<title>x&#45;&gt;1943</title>
<path fill="none" stroke="red" stroke-width="0.12" d="M243.82,-462.74C234.77,-450.61 217.5,-427.45 203.67,-408.9"/>
<polygon fill="red" stroke="red" stroke-width="0.12" points="206.49,-406.83 197.71,-400.9 200.88,-411.01 206.49,-406.83"/>
</g>
<!-- y -->
<g id="node4" class="node">
<title>y</title>
<polygon fill="lightgray" stroke="black" points="207.5,-662.64 186.5,-662.64 186.5,-644.64 207.5,-644.64 207.5,-662.64"/>
<text text-anchor="middle" x="197" y="-651.44" font-family="Times,serif" font-size="9.00">y</text>
</g>
<!-- angle -->
<g id="node5" class="node">
<title>angle</title>
<polygon fill="lightgray" stroke="black" points="260.5,-662.64 225.5,-662.64 225.5,-644.64 260.5,-644.64 260.5,-662.64"/>
<text text-anchor="middle" x="243" y="-651.44" font-family="Times,serif" font-size="9.00">angle</text>
</g>
<!-- age -->
<g id="node6" class="node">
<title>age</title>
<polygon fill="lightgray" stroke="black" points="307.5,-662.64 278.5,-662.64 278.5,-644.64 307.5,-644.64 307.5,-662.64"/>
<text text-anchor="middle" x="293" y="-651.44" font-family="Times,serif" font-size="9.00">age</text>
</g>
<!-- angle_food -->
<g id="node7" class="node">
<title>angle_food</title>
<polygon fill="lightgray" stroke="black" points="382,-662.64 326,-662.64 326,-644.64 382,-644.64 382,-662.64"/>
<text text-anchor="middle" x="354" y="-651.44" font-family="Times,serif" font-size="9.00">angle_food</text>
</g>
<!-- dist_food -->
<g id="node8" class="node">
<title>dist_food</title>
<polygon fill="lightgray" stroke="black" points="52,-662.64 2,-662.64 2,-644.64 52,-644.64 52,-662.64"/>
<text text-anchor="middle" x="27" y="-651.44" font-family="Times,serif" font-size="9.00">dist_food</text>
</g>
<!-- 2907 -->
<g id="node19" class="node">
<title>2907</title>
<ellipse fill="white" stroke="black" cx="91" cy="-103.18" rx="25" ry="25"/>
<text text-anchor="middle" x="91" y="-100.98" font-family="Times,serif" font-size="9.00">2907</text>
</g>
<!-- dist_food&#45;&gt;2907 -->
<g id="edge10" class="edge">
<title>dist_food&#45;&gt;2907</title>
<path fill="none" stroke="red" stroke-width="0.25" d="M24.88,-644.47C18.52,-619.18 0,-539.88 0,-473.04 0,-473.04 0,-473.04 0,-280.24 0,-221.24 40.83,-162.29 67.79,-129.79"/>
<polygon fill="red" stroke="red" stroke-width="0.25" points="70.26,-132.29 74.06,-122.4 64.92,-127.76 70.26,-132.29"/>
</g>
<!-- dist_food&#45;&gt;2590 -->
<g id="edge7" class="edge">
<title>dist_food&#45;&gt;2590</title>
<path fill="none" stroke="green" stroke-width="0.25" d="M29.31,-644.29C32.54,-632.6 38.59,-610.68 43.77,-591.93"/>
<polygon fill="green" stroke="green" stroke-width="0.25" points="47.15,-592.87 46.43,-582.29 40.4,-591 47.15,-592.87"/>
</g>
<!-- 2832 -->
<g id="node16" class="node">
<title>2832</title>
<ellipse fill="white" stroke="black" cx="223" cy="-188.67" rx="25" ry="25"/>
<text text-anchor="middle" x="223" y="-186.47" font-family="Times,serif" font-size="9.00">2832</text>
</g>
<!-- forward&#45;&gt;2832 -->
<g id="edge9" class="edge">
<title>forward&#45;&gt;2832</title>
<path fill="none" stroke="red" stroke-width="0.65" d="M195.44,-252.08C199.66,-242.52 204.41,-231.77 208.76,-221.92"/>
<polygon fill="red" stroke="red" stroke-width="0.65" points="211.87,-223.53 212.71,-212.97 205.47,-220.71 211.87,-223.53"/>
</g>
<!-- turn left -->
<g id="node10" class="node">
<title>turn left</title>
<ellipse fill="lightblue" stroke="black" cx="324" cy="-380.17" rx="31.23" ry="31.23"/>
<text text-anchor="middle" x="324" y="-377.97" font-family="Times,serif" font-size="9.00">turn left</text>
</g>
<!-- 3335 -->
<g id="node12" class="node">
<title>3335</title>
<ellipse fill="white" stroke="black" cx="264" cy="-281.24" rx="25" ry="25"/>
<text text-anchor="middle" x="264" y="-279.04" font-family="Times,serif" font-size="9.00">3335</text>
</g>
<!-- turn left&#45;&gt;3335 -->
<g id="edge14" class="edge">
<title>turn left&#45;&gt;3335</title>
<path fill="none" stroke="green" stroke-width="0.12" stroke-dasharray="1,5" d="M307.76,-352.94C299.79,-340.06 290.17,-324.51 281.97,-311.28"/>
<polygon fill="green" stroke="green" stroke-width="0.12" points="285.16,-309.78 276.92,-303.12 279.21,-313.47 285.16,-309.78"/>
</g>
<!-- turn left&#45;&gt;2832 -->
<g id="edge13" class="edge">
<title>turn left&#45;&gt;2832</title>
<path fill="none" stroke="green" stroke-width="0.17" stroke-dasharray="1,5" d="M323.71,-348.71C322.17,-320.97 316.55,-279.82 298,-249.42 287.17,-231.68 269.06,-217.03 253.35,-206.67"/>
<polygon fill="green" stroke="green" stroke-width="0.17" points="255.47,-203.87 245.14,-201.51 251.74,-209.8 255.47,-203.87"/>
</g>
<!-- turn right -->
<g id="node11" class="node">
<title>turn right</title>
<ellipse fill="lightblue" stroke="black" cx="435" cy="-653.64" rx="35.21" ry="35.21"/>
<text text-anchor="middle" x="435" y="-651.44" font-family="Times,serif" font-size="9.00">turn right</text>
</g>
<!-- 3335&#45;&gt;2832 -->
<g id="edge15" class="edge">
<title>3335&#45;&gt;2832</title>
<path fill="none" stroke="green" stroke-width="0.49" d="M253.87,-257.85C248.9,-246.89 242.83,-233.49 237.4,-221.48"/>
<polygon fill="green" stroke="green" stroke-width="0.49" points="240.63,-220.14 233.32,-212.47 234.26,-223.03 240.63,-220.14"/>
</g>
<!-- 3431&#45;&gt;2443 -->
<g id="edge17" class="edge">
<title>3431&#45;&gt;2443</title>
<path fill="none" stroke="green" stroke-width="0.56" d="M130.18,-534.16C134.26,-525.19 139.04,-514.7 143.47,-504.96"/>
<polygon fill="green" stroke="green" stroke-width="0.56" points="146.61,-506.51 147.57,-495.96 140.24,-503.61 146.61,-506.51"/>
</g>
<!-- 2443&#45;&gt;1943 -->
<g id="edge6" class="edge">
<title>2443&#45;&gt;1943</title>
<path fill="none" stroke="red" stroke-width="1.04" d="M164.57,-447.43C167.27,-437.73 170.45,-426.3 173.4,-415.69"/>
<polygon fill="red" stroke="red" stroke-width="1.04" points="176.74,-416.72 176.05,-406.14 170,-414.84 176.74,-416.72"/>
</g>
<!-- 2832&#45;&gt;2907 -->
<g id="edge12" class="edge">
<title>2832&#45;&gt;2907</title>
<path fill="none" stroke="green" stroke-width="0.17" d="M202.08,-174.44C180.07,-160.52 145.24,-138.49 120.45,-122.81"/>
<polygon fill="green" stroke="green" stroke-width="0.17" points="122.36,-119.87 112.04,-117.48 118.62,-125.79 122.36,-119.87"/>
</g>
<!-- 338 -->
<g id="node17" class="node">
<title>338</title>
<ellipse fill="white" stroke="black" cx="91" cy="-21.21" rx="21.43" ry="21.43"/>
<text text-anchor="middle" x="91" y="-19.01" font-family="Times,serif" font-size="9.00">338</text>
</g>
<!-- 1943&#45;&gt;forward -->
<g id="edge3" class="edge">
<title>1943&#45;&gt;forward</title>
<path fill="none" stroke="red" stroke-width="0.2" stroke-dasharray="1,5" d="M183,-354.71C183,-345.19 183,-334.02 183,-323.33"/>
<polygon fill="red" stroke="red" stroke-width="0.2" points="186.5,-323.61 183,-313.61 179.5,-323.61 186.5,-323.61"/>
</g>
<!-- 2907&#45;&gt;338 -->
<g id="edge11" class="edge">
<title>2907&#45;&gt;338</title>
<path fill="none" stroke="green" stroke-width="0.3" d="M91,-77.75C91,-70.02 91,-61.37 91,-53.25"/>
<polygon fill="green" stroke="green" stroke-width="0.3" points="94.5,-53.43 91,-43.43 87.5,-53.43 94.5,-53.43"/>
</g>
</g>
</svg>
