<?xml version="1.0" encoding="UTF-8" standalone="no"?>
<!DOCTYPE svg PUBLIC "-//W3C//DTD SVG 1.1//EN"
 "http://www.w3.org/Graphics/SVG/1.1/DTD/svg11.dtd">
<!-- Generated by graphviz version 7.0.0 (20221023.0053)
 -->
<!-- Pages: 1 -->
<svg width="685pt" height="277pt"
 viewBox="0.00 0.00 684.57 276.58" xmlns="http://www.w3.org/2000/svg" xmlns:xlink="http://www.w3.org/1999/xlink">
<g id="graph0" class="graph" transform="scale(1 1) rotate(0) translate(4 272.58)">
<polygon fill="white" stroke="none" points="-4,4 -4,-272.58 680.57,-272.58 680.57,4 -4,4"/>
<!-- const -->
<g id="node1" class="node">
<title>const</title>
<polygon fill="lightgray" stroke="black" points="49.32,-242.22 14.32,-242.22 14.32,-224.22 49.32,-224.22 49.32,-242.22"/>
<text text-anchor="middle" x="31.82" y="-231.02" font-family="Times,serif" font-size="9.00">const</text>
</g>
<!-- forward -->
<g id="node9" class="node">
<title>forward</title>
<ellipse fill="lightblue" stroke="black" cx="31.82" cy="-130.05" rx="31.64" ry="31.64"/>
<text text-anchor="middle" x="31.82" y="-127.85" font-family="Times,serif" font-size="9.00">forward</text>
</g>
<!-- const&#45;&gt;forward -->
<g id="edge2" class="edge">
<title>const&#45;&gt;forward</title>
<path fill="none" stroke="green" stroke-width="0.12" d="M31.82,-223.94C31.82,-212.58 31.82,-191.37 31.82,-172.08"/>
<polygon fill="green" stroke="green" stroke-width="0.12" points="35.32,-172.12 31.82,-162.12 28.32,-172.12 35.32,-172.12"/>
</g>
<!-- random -->
<g id="node2" class="node">
<title>random</title>
<polygon fill="lightgray" stroke="black" points="111.82,-242.22 67.82,-242.22 67.82,-224.22 111.82,-224.22 111.82,-242.22"/>
<text text-anchor="middle" x="89.82" y="-231.02" font-family="Times,serif" font-size="9.00">random</text>
</g>
<!-- x -->
<g id="node3" class="node">
<title>x</title>
<polygon fill="lightgray" stroke="black" points="151.32,-242.22 130.32,-242.22 130.32,-224.22 151.32,-224.22 151.32,-242.22"/>
<text text-anchor="middle" x="140.82" y="-231.02" font-family="Times,serif" font-size="9.00">x</text>
</g>
<!-- 1941 -->
<g id="node17" class="node">
<title>1941</title>
<ellipse fill="white" stroke="black" cx="140.82" cy="-130.05" rx="25" ry="25"/>
<text text-anchor="middle" x="140.82" y="-127.85" font-family="Times,serif" font-size="9.00">1941</text>
</g>
<!-- x&#45;&gt;1941 -->
<g id="edge4" class="edge">
<title>x&#45;&gt;1941</title>
<path fill="none" stroke="red" stroke-width="0.17" d="M140.82,-223.94C140.82,-211.26 140.82,-186.32 140.82,-165.47"/>
<polygon fill="red" stroke="red" stroke-width="0.17" points="144.32,-165.59 140.82,-155.59 137.32,-165.59 144.32,-165.59"/>
</g>
<!-- y -->
<g id="node4" class="node">
<title>y</title>
<polygon fill="lightgray" stroke="black" points="201.32,-242.22 180.32,-242.22 180.32,-224.22 201.32,-224.22 201.32,-242.22"/>
<text text-anchor="middle" x="190.82" y="-231.02" font-family="Times,serif" font-size="9.00">y</text>
</g>
<!-- angle -->
<g id="node5" class="node">
<title>angle</title>
<polygon fill="lightgray" stroke="black" points="264.32,-242.22 229.32,-242.22 229.32,-224.22 264.32,-224.22 264.32,-242.22"/>
<text text-anchor="middle" x="246.82" y="-231.02" font-family="Times,serif" font-size="9.00">angle</text>
</g>
<!-- turn left -->
<g id="node10" class="node">
<title>turn left</title>
<ellipse fill="lightblue" stroke="black" cx="246.82" cy="-31.11" rx="31.23" ry="31.23"/>
<text text-anchor="middle" x="246.82" y="-28.91" font-family="Times,serif" font-size="9.00">turn left</text>
</g>
<!-- angle&#45;&gt;turn left -->
<g id="edge1" class="edge">
<title>angle&#45;&gt;turn left</title>
<path fill="none" stroke="red" stroke-width="0.43" stroke-dasharray="1,5" d="M241.32,-224.02C233.19,-211.34 218.33,-185.93 212.82,-161.87 206.51,-134.29 206.17,-125.72 212.82,-98.23 215.39,-87.59 219.99,-76.76 224.99,-67.01"/>
<polygon fill="red" stroke="red" stroke-width="0.43" points="228.04,-68.72 229.75,-58.26 221.89,-65.37 228.04,-68.72"/>
</g>
<!-- 3498 -->
<g id="node12" class="node">
<title>3498</title>
<ellipse fill="white" stroke="black" cx="246.82" cy="-130.05" rx="25" ry="25"/>
<text text-anchor="middle" x="246.82" y="-127.85" font-family="Times,serif" font-size="9.00">3498</text>
</g>
<!-- angle&#45;&gt;3498 -->
<g id="edge5" class="edge">
<title>angle&#45;&gt;3498</title>
<path fill="none" stroke="green" stroke-width="0.39" d="M246.82,-223.94C246.82,-211.32 246.82,-186.55 246.82,-165.75"/>
<polygon fill="green" stroke="green" stroke-width="0.39" points="250.32,-165.92 246.82,-155.92 243.32,-165.92 250.32,-165.92"/>
</g>
<!-- 2290 -->
<g id="node15" class="node">
<title>2290</title>
<ellipse fill="white" stroke="black" cx="313.82" cy="-130.05" rx="25" ry="25"/>
<text text-anchor="middle" x="313.82" y="-127.85" font-family="Times,serif" font-size="9.00">2290</text>
</g>
<!-- angle&#45;&gt;2290 -->
<g id="edge7" class="edge">
<title>angle&#45;&gt;2290</title>
<path fill="none" stroke="red" stroke-width="0.13" d="M252.3,-223.94C261.46,-210.11 280.29,-181.67 294.72,-159.88"/>
<polygon fill="red" stroke="red" stroke-width="0.13" points="297.49,-162.04 300.09,-151.77 291.65,-158.18 297.49,-162.04"/>
</g>
<!-- age -->
<g id="node6" class="node">
<title>age</title>
<polygon fill="lightgray" stroke="black" points="311.32,-242.22 282.32,-242.22 282.32,-224.22 311.32,-224.22 311.32,-242.22"/>
<text text-anchor="middle" x="296.82" y="-231.02" font-family="Times,serif" font-size="9.00">age</text>
</g>
<!-- angle_food -->
<g id="node7" class="node">
<title>angle_food</title>
<polygon fill="lightgray" stroke="black" points="385.82,-242.22 329.82,-242.22 329.82,-224.22 385.82,-224.22 385.82,-242.22"/>
<text text-anchor="middle" x="357.82" y="-231.02" font-family="Times,serif" font-size="9.00">angle_food</text>
</g>
<!-- dist_food -->
<g id="node8" class="node">
<title>dist_food</title>
<polygon fill="lightgray" stroke="black" points="453.82,-242.22 403.82,-242.22 403.82,-224.22 453.82,-224.22 453.82,-242.22"/>
<text text-anchor="middle" x="428.82" y="-231.02" font-family="Times,serif" font-size="9.00">dist_food</text>
</g>
<!-- turn right -->
<g id="node11" class="node">
<title>turn right</title>
<ellipse fill="lightblue" stroke="black" cx="506.82" cy="-233.22" rx="35.21" ry="35.21"/>
<text text-anchor="middle" x="506.82" y="-231.02" font-family="Times,serif" font-size="9.00">turn right</text>
</g>
<!-- 3498&#45;&gt;turn left -->
<g id="edge6" class="edge">
<title>3498&#45;&gt;turn left</title>
<path fill="none" stroke="green" stroke-width="0.27" d="M246.82,-104.59C246.82,-94.98 246.82,-83.69 246.82,-72.92"/>
<polygon fill="green" stroke="green" stroke-width="0.27" points="250.32,-73.23 246.82,-63.23 243.32,-73.23 250.32,-73.23"/>
</g>
<!-- 2507 -->
<g id="node13" class="node">
<title>2507</title>
<ellipse fill="white" stroke="black" cx="584.82" cy="-233.22" rx="25" ry="25"/>
<text text-anchor="middle" x="584.82" y="-231.02" font-family="Times,serif" font-size="9.00">2507</text>
</g>
<!-- 2384 -->
<g id="node14" class="node">
<title>2384</title>
<ellipse fill="white" stroke="black" cx="380.82" cy="-130.05" rx="25" ry="25"/>
<text text-anchor="middle" x="380.82" y="-127.85" font-family="Times,serif" font-size="9.00">2384</text>
</g>
<!-- 2384&#45;&gt;turn left -->
<g id="edge3" class="edge">
<title>2384&#45;&gt;turn left</title>
<path fill="none" stroke="green" stroke-width="0.23" d="M363.51,-111.83C358.59,-107.23 353.12,-102.39 347.82,-98.23 326.95,-81.84 302.02,-65.49 282.15,-53.15"/>
<polygon fill="green" stroke="green" stroke-width="0.23" points="284.06,-50.22 273.71,-47.96 280.39,-56.18 284.06,-50.22"/>
</g>
<!-- 3122 -->
<g id="node16" class="node">
<title>3122</title>
<ellipse fill="white" stroke="black" cx="651.82" cy="-233.22" rx="25" ry="25"/>
<text text-anchor="middle" x="651.82" y="-231.02" font-family="Times,serif" font-size="9.00">3122</text>
</g>
</g>
</svg>
