<?xml version="1.0" encoding="UTF-8" standalone="no"?>
<!DOCTYPE svg PUBLIC "-//W3C//DTD SVG 1.1//EN"
 "http://www.w3.org/Graphics/SVG/1.1/DTD/svg11.dtd">
<!-- Generated by graphviz version 7.0.0 (20221023.0053)
 -->
<!-- Pages: 1 -->
<svg width="488pt" height="349pt"
 viewBox="0.00 0.00 487.93 349.35" xmlns="http://www.w3.org/2000/svg" xmlns:xlink="http://www.w3.org/1999/xlink">
<g id="graph0" class="graph" transform="scale(1 1) rotate(0) translate(4 345.35)">
<polygon fill="white" stroke="none" points="-4,4 -4,-345.35 483.93,-345.35 483.93,4 -4,4"/>
<!-- angle -->
<g id="node1" class="node">
<title>angle</title>
<polygon fill="lightgray" stroke="black" points="72.32,-319.23 37.32,-319.23 37.32,-301.23 72.32,-301.23 72.32,-319.23"/>
<text text-anchor="middle" x="54.82" y="-308.03" font-family="Times,serif" font-size="9.00">angle</text>
</g>
<!-- 10 -->
<g id="node10" class="node">
<title>10</title>
<ellipse fill="white" stroke="black" cx="31.82" cy="-134.99" rx="18.27" ry="18.27"/>
<text text-anchor="middle" x="31.82" y="-132.79" font-family="Times,serif" font-size="9.00">10</text>
</g>
<!-- angle&#45;&gt;10 -->
<g id="edge1" class="edge">
<title>angle&#45;&gt;10</title>
<path fill="none" stroke="green" stroke-width="0.12" stroke-dasharray="1,5" d="M53.71,-300.88C50.45,-276.31 40.78,-203.51 35.45,-163.35"/>
<polygon fill="green" stroke="green" stroke-width="0.12" points="38.94,-163.06 34.16,-153.6 32,-163.98 38.94,-163.06"/>
</g>
<!-- 75 -->
<g id="node11" class="node">
<title>75</title>
<ellipse fill="white" stroke="black" cx="77.82" cy="-224.74" rx="18.27" ry="18.27"/>
<text text-anchor="middle" x="77.82" y="-222.54" font-family="Times,serif" font-size="9.00">75</text>
</g>
<!-- angle&#45;&gt;75 -->
<g id="edge3" class="edge">
<title>angle&#45;&gt;75</title>
<path fill="none" stroke="green" stroke-width="0.37" d="M57.11,-300.92C60.2,-289.72 65.84,-269.24 70.45,-252.48"/>
<polygon fill="green" stroke="green" stroke-width="0.37" points="73.73,-253.75 73.02,-243.18 66.98,-251.89 73.73,-253.75"/>
</g>
<!-- energy -->
<g id="node2" class="node">
<title>energy</title>
<polygon fill="lightgray" stroke="black" points="131.32,-319.23 90.32,-319.23 90.32,-301.23 131.32,-301.23 131.32,-319.23"/>
<text text-anchor="middle" x="110.82" y="-308.03" font-family="Times,serif" font-size="9.00">energy</text>
</g>
<!-- random -->
<g id="node3" class="node">
<title>random</title>
<polygon fill="lightgray" stroke="black" points="193.82,-319.23 149.82,-319.23 149.82,-301.23 193.82,-301.23 193.82,-319.23"/>
<text text-anchor="middle" x="171.82" y="-308.03" font-family="Times,serif" font-size="9.00">random</text>
</g>
<!-- constant -->
<g id="node4" class="node">
<title>constant</title>
<polygon fill="lightgray" stroke="black" points="257.82,-319.23 211.82,-319.23 211.82,-301.23 257.82,-301.23 257.82,-319.23"/>
<text text-anchor="middle" x="234.82" y="-308.03" font-family="Times,serif" font-size="9.00">constant</text>
</g>
<!-- angle_food -->
<g id="node5" class="node">
<title>angle_food</title>
<polygon fill="lightgray" stroke="black" points="331.82,-319.23 275.82,-319.23 275.82,-301.23 331.82,-301.23 331.82,-319.23"/>
<text text-anchor="middle" x="303.82" y="-308.03" font-family="Times,serif" font-size="9.00">angle_food</text>
</g>
<!-- dist_food -->
<g id="node6" class="node">
<title>dist_food</title>
<polygon fill="lightgray" stroke="black" points="399.82,-319.23 349.82,-319.23 349.82,-301.23 399.82,-301.23 399.82,-319.23"/>
<text text-anchor="middle" x="374.82" y="-308.03" font-family="Times,serif" font-size="9.00">dist_food</text>
</g>
<!-- forward -->
<g id="node7" class="node">
<title>forward</title>
<ellipse fill="lightblue" stroke="black" cx="31.82" cy="-31.82" rx="31.64" ry="31.64"/>
<text text-anchor="middle" x="31.82" y="-29.62" font-family="Times,serif" font-size="9.00">forward</text>
</g>
<!-- turn left -->
<g id="node8" class="node">
<title>turn left</title>
<ellipse fill="lightblue" stroke="black" cx="448.82" cy="-310.23" rx="31.23" ry="31.23"/>
<text text-anchor="middle" x="448.82" y="-308.03" font-family="Times,serif" font-size="9.00">turn left</text>
</g>
<!-- turn right -->
<g id="node9" class="node">
<title>turn right</title>
<ellipse fill="lightblue" stroke="black" cx="103.82" cy="-134.99" rx="35.21" ry="35.21"/>
<text text-anchor="middle" x="103.82" y="-132.79" font-family="Times,serif" font-size="9.00">turn right</text>
</g>
<!-- 10&#45;&gt;forward -->
<g id="edge2" class="edge">
<title>10&#45;&gt;forward</title>
<path fill="none" stroke="green" stroke-width="0.12" d="M31.82,-116.37C31.82,-104.6 31.82,-88.6 31.82,-73.75"/>
<polygon fill="green" stroke="green" stroke-width="0.12" points="35.32,-73.91 31.82,-63.91 28.32,-73.91 35.32,-73.91"/>
</g>
<!-- 75&#45;&gt;turn right -->
<g id="edge5" class="edge">
<title>75&#45;&gt;turn right</title>
<path fill="none" stroke="red" stroke-width="0.12" d="M82.83,-206.82C85.23,-198.74 88.21,-188.68 91.17,-178.69"/>
<polygon fill="red" stroke="red" stroke-width="0.12" points="94.44,-179.97 93.92,-169.39 87.73,-177.99 94.44,-179.97"/>
</g>
<!-- 75&#45;&gt;10 -->
<g id="edge4" class="edge">
<title>75&#45;&gt;10</title>
<path fill="none" stroke="green" stroke-width="0.11" d="M69.6,-208.05C62.66,-194.82 52.62,-175.67 44.63,-160.44"/>
<polygon fill="green" stroke="green" stroke-width="0.11" points="47.79,-158.93 40.05,-151.7 41.59,-162.18 47.79,-158.93"/>
</g>
</g>
</svg>
