<?xml version="1.0" encoding="utf-8" standalone="no"?>
<!DOCTYPE svg PUBLIC "-//W3C//DTD SVG 1.1//EN"
  "http://www.w3.org/Graphics/SVG/1.1/DTD/svg11.dtd">
<svg xmlns:xlink="http://www.w3.org/1999/xlink" width="460.8pt" height="345.6pt" viewBox="0 0 460.8 345.6" xmlns="http://www.w3.org/2000/svg" version="1.1">
 <metadata>
  <rdf:RDF xmlns:dc="http://purl.org/dc/elements/1.1/" xmlns:cc="http://creativecommons.org/ns#" xmlns:rdf="http://www.w3.org/1999/02/22-rdf-syntax-ns#">
   <cc:Work>
    <dc:type rdf:resource="http://purl.org/dc/dcmitype/StillImage"/>
    <dc:date>2022-11-11T11:15:05.486473</dc:date>
    <dc:format>image/svg+xml</dc:format>
    <dc:creator>
     <cc:Agent>
      <dc:title>Matplotlib v3.6.2, https://matplotlib.org/</dc:title>
     </cc:Agent>
    </dc:creator>
   </cc:Work>
  </rdf:RDF>
 </metadata>
 <defs>
  <style type="text/css">*{stroke-linejoin: round; stroke-linecap: butt}</style>
 </defs>
 <g id="figure_1">
  <g id="patch_1">
   <path d="M 0 345.6 
L 460.8 345.6 
L 460.8 0 
L 0 0 
z
" style="fill: #ffffff"/>
  </g>
  <g id="axes_1">
   <g id="patch_2">
    <path d="M 57.6 307.584 
L 414.72 307.584 
L 414.72 41.472 
L 57.6 41.472 
z
" style="fill: #ffffff"/>
   </g>
   <g id="PolyCollection_1">
    <path d="M 73.832727 55.404896 
L 73.832727 307.584 
L 77.112066 307.584 
L 80.391405 307.584 
L 83.670744 307.584 
L 86.950083 307.584 
L 90.229421 307.584 
L 93.50876 307.584 
L 96.788099 307.584 
L 100.067438 307.584 
L 103.346777 307.584 
L 106.626116 307.584 
L 109.905455 307.584 
L 113.184793 307.584 
L 116.464132 307.584 
L 119.743471 307.584 
L 123.02281 307.584 
L 126.302149 307.584 
L 129.581488 307.584 
L 132.860826 307.584 
L 136.140165 307.584 
L 139.419504 307.584 
L 142.698843 307.584 
L 145.978182 307.584 
L 149.257521 307.584 
L 152.53686 307.584 
L 155.816198 307.584 
L 159.095537 307.584 
L 162.374876 307.584 
L 165.654215 307.584 
L 168.933554 307.584 
L 172.212893 307.584 
L 175.492231 307.584 
L 178.77157 307.584 
L 182.050909 307.584 
L 185.330248 307.584 
L 188.609587 307.584 
L 191.888926 307.584 
L 195.168264 307.584 
L 198.447603 307.584 
L 201.726942 307.584 
L 205.006281 307.584 
L 208.28562 307.584 
L 211.564959 307.584 
L 214.844298 307.584 
L 218.123636 307.584 
L 221.402975 307.584 
L 224.682314 307.584 
L 227.961653 307.584 
L 231.240992 307.584 
L 234.520331 307.584 
L 237.799669 307.584 
L 241.079008 307.584 
L 244.358347 307.584 
L 247.637686 307.584 
L 250.917025 307.584 
L 254.196364 307.584 
L 257.475702 307.584 
L 260.755041 307.584 
L 264.03438 307.584 
L 267.313719 307.584 
L 270.593058 307.584 
L 273.872397 307.584 
L 277.151736 307.584 
L 280.431074 307.584 
L 283.710413 307.584 
L 286.989752 307.584 
L 290.269091 307.584 
L 293.54843 307.584 
L 296.827769 307.584 
L 300.107107 307.584 
L 303.386446 307.584 
L 306.665785 307.584 
L 309.945124 307.584 
L 313.224463 307.584 
L 316.503802 307.584 
L 319.78314 307.584 
L 323.062479 307.584 
L 326.341818 307.584 
L 329.621157 307.584 
L 332.900496 307.584 
L 336.179835 307.584 
L 339.459174 307.584 
L 342.738512 307.584 
L 346.017851 307.584 
L 349.29719 307.584 
L 352.576529 307.584 
L 355.855868 307.584 
L 359.135207 307.584 
L 362.414545 307.584 
L 365.693884 307.584 
L 368.973223 307.584 
L 372.252562 307.584 
L 375.531901 307.584 
L 378.81124 307.584 
L 382.090579 307.584 
L 385.369917 307.584 
L 388.649256 307.584 
L 391.928595 307.584 
L 395.207934 307.584 
L 398.487273 307.584 
L 398.487273 258.409075 
L 398.487273 258.409075 
L 395.207934 276.061612 
L 391.928595 281.105194 
L 388.649256 281.105194 
L 385.369917 271.01803 
L 382.090579 255.887284 
L 378.81124 274.800716 
L 375.531901 282.36609 
L 372.252562 264.713552 
L 368.973223 271.01803 
L 365.693884 264.713552 
L 362.414545 271.01803 
L 359.135207 291.192358 
L 355.855868 291.192358 
L 352.576529 282.36609 
L 349.29719 283.626985 
L 346.017851 279.844299 
L 342.738512 269.757134 
L 339.459174 278.583403 
L 336.179835 271.01803 
L 332.900496 267.235343 
L 329.621157 279.844299 
L 326.341818 281.105194 
L 323.062479 293.714149 
L 319.78314 273.539821 
L 316.503802 278.583403 
L 313.224463 271.01803 
L 309.945124 228.147582 
L 306.665785 231.930269 
L 303.386446 254.626388 
L 300.107107 264.713552 
L 296.827769 243.278328 
L 293.54843 258.409075 
L 290.269091 271.01803 
L 286.989752 264.713552 
L 283.710413 277.322507 
L 280.431074 274.800716 
L 277.151736 263.452657 
L 273.872397 253.365493 
L 270.593058 271.01803 
L 267.313719 259.66997 
L 264.03438 268.496239 
L 260.755041 282.36609 
L 257.475702 250.843701 
L 254.196364 242.017433 
L 250.917025 240.756537 
L 247.637686 249.582806 
L 244.358347 248.32191 
L 241.079008 252.104597 
L 237.799669 244.539224 
L 234.520331 259.66997 
L 231.240992 248.32191 
L 227.961653 239.495642 
L 224.682314 245.800119 
L 221.402975 244.539224 
L 218.123636 244.539224 
L 214.844298 253.365493 
L 211.564959 282.36609 
L 208.28562 190.320716 
L 205.006281 257.148179 
L 201.726942 298.757731 
L 198.447603 282.36609 
L 195.168264 250.843701 
L 191.888926 282.36609 
L 188.609587 235.712955 
L 185.330248 234.45206 
L 182.050909 269.757134 
L 178.77157 281.105194 
L 175.492231 252.104597 
L 172.212893 276.061612 
L 168.933554 287.409672 
L 165.654215 218.060418 
L 162.374876 278.583403 
L 159.095537 258.409075 
L 155.816198 177.711761 
L 152.53686 118.449672 
L 149.257521 225.625791 
L 145.978182 249.582806 
L 142.698843 235.712955 
L 139.419504 201.668776 
L 136.140165 265.974448 
L 132.860826 263.452657 
L 129.581488 267.235343 
L 126.302149 268.496239 
L 123.02281 230.669373 
L 119.743471 228.147582 
L 116.464132 75.579224 
L 113.184793 55.404896 
L 109.905455 55.404896 
L 106.626116 55.404896 
L 103.346777 55.404896 
L 100.067438 55.404896 
L 96.788099 55.404896 
L 93.50876 55.404896 
L 90.229421 55.404896 
L 86.950083 55.404896 
L 83.670744 55.404896 
L 80.391405 55.404896 
L 77.112066 55.404896 
L 73.832727 55.404896 
z
" clip-path="url(#p942d5042e5)" style="fill: #1f77b4"/>
   </g>
   <g id="PolyCollection_2">
    <path d="M 73.832727 55.404896 
L 73.832727 55.404896 
L 77.112066 55.404896 
L 80.391405 55.404896 
L 83.670744 55.404896 
L 86.950083 55.404896 
L 90.229421 55.404896 
L 93.50876 55.404896 
L 96.788099 55.404896 
L 100.067438 55.404896 
L 103.346777 55.404896 
L 106.626116 55.404896 
L 109.905455 55.404896 
L 113.184793 55.404896 
L 116.464132 75.579224 
L 119.743471 228.147582 
L 123.02281 230.669373 
L 126.302149 268.496239 
L 129.581488 267.235343 
L 132.860826 263.452657 
L 136.140165 265.974448 
L 139.419504 201.668776 
L 142.698843 235.712955 
L 145.978182 249.582806 
L 149.257521 225.625791 
L 152.53686 118.449672 
L 155.816198 177.711761 
L 159.095537 258.409075 
L 162.374876 278.583403 
L 165.654215 218.060418 
L 168.933554 287.409672 
L 172.212893 276.061612 
L 175.492231 252.104597 
L 178.77157 281.105194 
L 182.050909 269.757134 
L 185.330248 234.45206 
L 188.609587 235.712955 
L 191.888926 282.36609 
L 195.168264 250.843701 
L 198.447603 282.36609 
L 201.726942 298.757731 
L 205.006281 257.148179 
L 208.28562 190.320716 
L 211.564959 282.36609 
L 214.844298 253.365493 
L 218.123636 244.539224 
L 221.402975 244.539224 
L 224.682314 245.800119 
L 227.961653 239.495642 
L 231.240992 248.32191 
L 234.520331 259.66997 
L 237.799669 244.539224 
L 241.079008 252.104597 
L 244.358347 248.32191 
L 247.637686 249.582806 
L 250.917025 240.756537 
L 254.196364 242.017433 
L 257.475702 250.843701 
L 260.755041 282.36609 
L 264.03438 268.496239 
L 267.313719 259.66997 
L 270.593058 271.01803 
L 273.872397 253.365493 
L 277.151736 263.452657 
L 280.431074 274.800716 
L 283.710413 277.322507 
L 286.989752 264.713552 
L 290.269091 271.01803 
L 293.54843 258.409075 
L 296.827769 243.278328 
L 300.107107 264.713552 
L 303.386446 254.626388 
L 306.665785 231.930269 
L 309.945124 228.147582 
L 313.224463 271.01803 
L 316.503802 278.583403 
L 319.78314 273.539821 
L 323.062479 293.714149 
L 326.341818 281.105194 
L 329.621157 279.844299 
L 332.900496 267.235343 
L 336.179835 271.01803 
L 339.459174 278.583403 
L 342.738512 269.757134 
L 346.017851 279.844299 
L 349.29719 283.626985 
L 352.576529 282.36609 
L 355.855868 291.192358 
L 359.135207 291.192358 
L 362.414545 271.01803 
L 365.693884 264.713552 
L 368.973223 271.01803 
L 372.252562 264.713552 
L 375.531901 282.36609 
L 378.81124 274.800716 
L 382.090579 255.887284 
L 385.369917 271.01803 
L 388.649256 281.105194 
L 391.928595 281.105194 
L 395.207934 276.061612 
L 398.487273 258.409075 
L 398.487273 226.886687 
L 398.487273 226.886687 
L 395.207934 247.061015 
L 391.928595 250.843701 
L 388.649256 243.278328 
L 385.369917 238.234746 
L 382.090579 211.75594 
L 378.81124 234.45206 
L 375.531901 238.234746 
L 372.252562 221.843104 
L 368.973223 234.45206 
L 365.693884 226.886687 
L 362.414545 231.930269 
L 359.135207 257.148179 
L 355.855868 264.713552 
L 352.576529 248.32191 
L 349.29719 245.800119 
L 346.017851 236.973851 
L 342.738512 221.843104 
L 339.459174 220.582209 
L 336.179835 223.104 
L 332.900496 215.538627 
L 329.621157 233.191164 
L 326.341818 231.930269 
L 323.062479 243.278328 
L 319.78314 238.234746 
L 316.503802 244.539224 
L 313.224463 250.843701 
L 309.945124 186.53803 
L 306.665785 197.88609 
L 303.386446 231.930269 
L 300.107107 240.756537 
L 296.827769 229.408478 
L 293.54843 236.973851 
L 290.269091 233.191164 
L 286.989752 224.364896 
L 283.710413 240.756537 
L 280.431074 244.539224 
L 277.151736 228.147582 
L 273.872397 219.321313 
L 270.593058 236.973851 
L 267.313719 228.147582 
L 264.03438 230.669373 
L 260.755041 252.104597 
L 257.475702 214.277731 
L 254.196364 218.060418 
L 250.917025 231.930269 
L 247.637686 172.668179 
L 244.358347 228.147582 
L 241.079008 211.75594 
L 237.799669 206.712358 
L 234.520331 219.321313 
L 231.240992 206.712358 
L 227.961653 192.842507 
L 224.682314 192.842507 
L 221.402975 194.103403 
L 218.123636 199.146985 
L 214.844298 209.234149 
L 211.564959 238.234746 
L 208.28562 160.059224 
L 205.006281 216.799522 
L 201.726942 279.844299 
L 198.447603 248.32191 
L 195.168264 223.104 
L 191.888926 213.016836 
L 188.609587 168.885493 
L 185.330248 168.885493 
L 182.050909 214.277731 
L 178.77157 230.669373 
L 175.492231 201.668776 
L 172.212893 226.886687 
L 168.933554 221.843104 
L 165.654215 167.624597 
L 162.374876 220.582209 
L 159.095537 151.232955 
L 155.816198 131.058627 
L 152.53686 85.666388 
L 149.257521 153.754746 
L 145.978182 201.668776 
L 142.698843 201.668776 
L 139.419504 155.015642 
L 136.140165 224.364896 
L 132.860826 182.755343 
L 129.581488 211.75594 
L 126.302149 186.53803 
L 123.02281 97.014448 
L 119.743471 124.754149 
L 116.464132 56.665791 
L 113.184793 55.404896 
L 109.905455 55.404896 
L 106.626116 55.404896 
L 103.346777 55.404896 
L 100.067438 55.404896 
L 96.788099 55.404896 
L 93.50876 55.404896 
L 90.229421 55.404896 
L 86.950083 55.404896 
L 83.670744 55.404896 
L 80.391405 55.404896 
L 77.112066 55.404896 
L 73.832727 55.404896 
z
" clip-path="url(#p942d5042e5)" style="fill: #ff7f0e"/>
   </g>
   <g id="PolyCollection_3">
    <path d="M 73.832727 55.404896 
L 73.832727 55.404896 
L 77.112066 55.404896 
L 80.391405 55.404896 
L 83.670744 55.404896 
L 86.950083 55.404896 
L 90.229421 55.404896 
L 93.50876 55.404896 
L 96.788099 55.404896 
L 100.067438 55.404896 
L 103.346777 55.404896 
L 106.626116 55.404896 
L 109.905455 55.404896 
L 113.184793 55.404896 
L 116.464132 56.665791 
L 119.743471 124.754149 
L 123.02281 97.014448 
L 126.302149 186.53803 
L 129.581488 211.75594 
L 132.860826 182.755343 
L 136.140165 224.364896 
L 139.419504 155.015642 
L 142.698843 201.668776 
L 145.978182 201.668776 
L 149.257521 153.754746 
L 152.53686 85.666388 
L 155.816198 131.058627 
L 159.095537 151.232955 
L 162.374876 220.582209 
L 165.654215 167.624597 
L 168.933554 221.843104 
L 172.212893 226.886687 
L 175.492231 201.668776 
L 178.77157 230.669373 
L 182.050909 214.277731 
L 185.330248 168.885493 
L 188.609587 168.885493 
L 191.888926 213.016836 
L 195.168264 223.104 
L 198.447603 248.32191 
L 201.726942 279.844299 
L 205.006281 216.799522 
L 208.28562 160.059224 
L 211.564959 238.234746 
L 214.844298 209.234149 
L 218.123636 199.146985 
L 221.402975 194.103403 
L 224.682314 192.842507 
L 227.961653 192.842507 
L 231.240992 206.712358 
L 234.520331 219.321313 
L 237.799669 206.712358 
L 241.079008 211.75594 
L 244.358347 228.147582 
L 247.637686 172.668179 
L 250.917025 231.930269 
L 254.196364 218.060418 
L 257.475702 214.277731 
L 260.755041 252.104597 
L 264.03438 230.669373 
L 267.313719 228.147582 
L 270.593058 236.973851 
L 273.872397 219.321313 
L 277.151736 228.147582 
L 280.431074 244.539224 
L 283.710413 240.756537 
L 286.989752 224.364896 
L 290.269091 233.191164 
L 293.54843 236.973851 
L 296.827769 229.408478 
L 300.107107 240.756537 
L 303.386446 231.930269 
L 306.665785 197.88609 
L 309.945124 186.53803 
L 313.224463 250.843701 
L 316.503802 244.539224 
L 319.78314 238.234746 
L 323.062479 243.278328 
L 326.341818 231.930269 
L 329.621157 233.191164 
L 332.900496 215.538627 
L 336.179835 223.104 
L 339.459174 220.582209 
L 342.738512 221.843104 
L 346.017851 236.973851 
L 349.29719 245.800119 
L 352.576529 248.32191 
L 355.855868 264.713552 
L 359.135207 257.148179 
L 362.414545 231.930269 
L 365.693884 226.886687 
L 368.973223 234.45206 
L 372.252562 221.843104 
L 375.531901 238.234746 
L 378.81124 234.45206 
L 382.090579 211.75594 
L 385.369917 238.234746 
L 388.649256 243.278328 
L 391.928595 250.843701 
L 395.207934 247.061015 
L 398.487273 226.886687 
L 398.487273 176.450866 
L 398.487273 176.450866 
L 395.207934 215.538627 
L 391.928595 216.799522 
L 388.649256 205.451463 
L 385.369917 210.495045 
L 382.090579 178.972657 
L 378.81124 191.581612 
L 375.531901 197.88609 
L 372.252562 168.885493 
L 368.973223 195.364299 
L 365.693884 202.929672 
L 362.414545 201.668776 
L 359.135207 228.147582 
L 355.855868 242.017433 
L 352.576529 238.234746 
L 349.29719 197.88609 
L 346.017851 191.581612 
L 342.738512 202.929672 
L 339.459174 200.407881 
L 336.179835 171.407284 
L 332.900496 166.363701 
L 329.621157 162.581015 
L 326.341818 194.103403 
L 323.062479 205.451463 
L 319.78314 210.495045 
L 316.503802 204.190567 
L 313.224463 219.321313 
L 309.945124 155.015642 
L 306.665785 165.102806 
L 303.386446 195.364299 
L 300.107107 205.451463 
L 296.827769 192.842507 
L 293.54843 201.668776 
L 290.269091 205.451463 
L 286.989752 202.929672 
L 283.710413 209.234149 
L 280.431074 206.712358 
L 277.151736 195.364299 
L 273.872397 199.146985 
L 270.593058 161.320119 
L 267.313719 163.84191 
L 264.03438 175.18997 
L 260.755041 165.102806 
L 257.475702 182.755343 
L 254.196364 173.929075 
L 250.917025 166.363701 
L 247.637686 143.667582 
L 244.358347 201.668776 
L 241.079008 180.233552 
L 237.799669 171.407284 
L 234.520331 182.755343 
L 231.240992 176.450866 
L 227.961653 160.059224 
L 224.682314 161.320119 
L 221.402975 167.624597 
L 218.123636 181.494448 
L 214.844298 141.145791 
L 211.564959 186.53803 
L 208.28562 124.754149 
L 205.006281 172.668179 
L 201.726942 108.362507 
L 198.447603 157.537433 
L 195.168264 155.015642 
L 191.888926 166.363701 
L 188.609587 127.27594 
L 185.330248 139.884896 
L 182.050909 131.058627 
L 178.77157 219.321313 
L 175.492231 144.928478 
L 172.212893 190.320716 
L 168.933554 173.929075 
L 165.654215 118.449672 
L 162.374876 166.363701 
L 159.095537 108.362507 
L 155.816198 86.927284 
L 152.53686 69.274746 
L 149.257521 91.970866 
L 145.978182 99.536239 
L 142.698843 80.622806 
L 139.419504 65.49206 
L 136.140165 152.493851 
L 132.860826 151.232955 
L 129.581488 184.016239 
L 126.302149 172.668179 
L 123.02281 78.101015 
L 119.743471 55.404896 
L 116.464132 55.404896 
L 113.184793 55.404896 
L 109.905455 55.404896 
L 106.626116 55.404896 
L 103.346777 55.404896 
L 100.067438 55.404896 
L 96.788099 55.404896 
L 93.50876 55.404896 
L 90.229421 55.404896 
L 86.950083 55.404896 
L 83.670744 55.404896 
L 80.391405 55.404896 
L 77.112066 55.404896 
L 73.832727 55.404896 
z
" clip-path="url(#p942d5042e5)" style="fill: #2ca02c"/>
   </g>
   <g id="PolyCollection_4">
    <path d="M 73.832727 55.404896 
L 73.832727 55.404896 
L 77.112066 55.404896 
L 80.391405 55.404896 
L 83.670744 55.404896 
L 86.950083 55.404896 
L 90.229421 55.404896 
L 93.50876 55.404896 
L 96.788099 55.404896 
L 100.067438 55.404896 
L 103.346777 55.404896 
L 106.626116 55.404896 
L 109.905455 55.404896 
L 113.184793 55.404896 
L 116.464132 55.404896 
L 119.743471 55.404896 
L 123.02281 78.101015 
L 126.302149 172.668179 
L 129.581488 184.016239 
L 132.860826 151.232955 
L 136.140165 152.493851 
L 139.419504 65.49206 
L 142.698843 80.622806 
L 145.978182 99.536239 
L 149.257521 91.970866 
L 152.53686 69.274746 
L 155.816198 86.927284 
L 159.095537 108.362507 
L 162.374876 166.363701 
L 165.654215 118.449672 
L 168.933554 173.929075 
L 172.212893 190.320716 
L 175.492231 144.928478 
L 178.77157 219.321313 
L 182.050909 131.058627 
L 185.330248 139.884896 
L 188.609587 127.27594 
L 191.888926 166.363701 
L 195.168264 155.015642 
L 198.447603 157.537433 
L 201.726942 108.362507 
L 205.006281 172.668179 
L 208.28562 124.754149 
L 211.564959 186.53803 
L 214.844298 141.145791 
L 218.123636 181.494448 
L 221.402975 167.624597 
L 224.682314 161.320119 
L 227.961653 160.059224 
L 231.240992 176.450866 
L 234.520331 182.755343 
L 237.799669 171.407284 
L 241.079008 180.233552 
L 244.358347 201.668776 
L 247.637686 143.667582 
L 250.917025 166.363701 
L 254.196364 173.929075 
L 257.475702 182.755343 
L 260.755041 165.102806 
L 264.03438 175.18997 
L 267.313719 163.84191 
L 270.593058 161.320119 
L 273.872397 199.146985 
L 277.151736 195.364299 
L 280.431074 206.712358 
L 283.710413 209.234149 
L 286.989752 202.929672 
L 290.269091 205.451463 
L 293.54843 201.668776 
L 296.827769 192.842507 
L 300.107107 205.451463 
L 303.386446 195.364299 
L 306.665785 165.102806 
L 309.945124 155.015642 
L 313.224463 219.321313 
L 316.503802 204.190567 
L 319.78314 210.495045 
L 323.062479 205.451463 
L 326.341818 194.103403 
L 329.621157 162.581015 
L 332.900496 166.363701 
L 336.179835 171.407284 
L 339.459174 200.407881 
L 342.738512 202.929672 
L 346.017851 191.581612 
L 349.29719 197.88609 
L 352.576529 238.234746 
L 355.855868 242.017433 
L 359.135207 228.147582 
L 362.414545 201.668776 
L 365.693884 202.929672 
L 368.973223 195.364299 
L 372.252562 168.885493 
L 375.531901 197.88609 
L 378.81124 191.581612 
L 382.090579 178.972657 
L 385.369917 210.495045 
L 388.649256 205.451463 
L 391.928595 216.799522 
L 395.207934 215.538627 
L 398.487273 176.450866 
L 398.487273 148.711164 
L 398.487273 148.711164 
L 395.207934 194.103403 
L 391.928595 189.059821 
L 388.649256 165.102806 
L 385.369917 167.624597 
L 382.090579 124.754149 
L 378.81124 167.624597 
L 375.531901 137.363104 
L 372.252562 134.841313 
L 368.973223 144.928478 
L 365.693884 173.929075 
L 362.414545 173.929075 
L 359.135207 200.407881 
L 355.855868 214.277731 
L 352.576529 216.799522 
L 349.29719 173.929075 
L 346.017851 148.711164 
L 342.738512 165.102806 
L 339.459174 161.320119 
L 336.179835 143.667582 
L 332.900496 147.450269 
L 329.621157 136.102209 
L 326.341818 161.320119 
L 323.062479 170.146388 
L 319.78314 170.146388 
L 316.503802 146.189373 
L 313.224463 194.103403 
L 309.945124 134.841313 
L 306.665785 142.406687 
L 303.386446 172.668179 
L 300.107107 173.929075 
L 296.827769 155.015642 
L 293.54843 166.363701 
L 290.269091 152.493851 
L 286.989752 151.232955 
L 283.710413 149.97206 
L 280.431074 161.320119 
L 277.151736 170.146388 
L 273.872397 136.102209 
L 270.593058 114.666985 
L 267.313719 126.015045 
L 264.03438 132.319522 
L 260.755041 120.971463 
L 257.475702 141.145791 
L 254.196364 136.102209 
L 250.917025 149.97206 
L 247.637686 105.840716 
L 244.358347 160.059224 
L 241.079008 132.319522 
L 237.799669 134.841313 
L 234.520331 142.406687 
L 231.240992 132.319522 
L 227.961653 123.493254 
L 224.682314 141.145791 
L 221.402975 127.27594 
L 218.123636 141.145791 
L 214.844298 108.362507 
L 211.564959 95.753552 
L 208.28562 74.318328 
L 205.006281 103.318925 
L 201.726942 70.535642 
L 198.447603 104.579821 
L 195.168264 115.927881 
L 191.888926 112.145194 
L 188.609587 103.318925 
L 185.330248 95.753552 
L 182.050909 86.927284 
L 178.77157 189.059821 
L 175.492231 107.101612 
L 172.212893 95.753552 
L 168.933554 84.405493 
L 165.654215 104.579821 
L 162.374876 88.188179 
L 159.095537 69.274746 
L 155.816198 55.404896 
L 152.53686 55.404896 
L 149.257521 56.665791 
L 145.978182 55.404896 
L 142.698843 55.404896 
L 139.419504 55.404896 
L 136.140165 56.665791 
L 132.860826 56.665791 
L 129.581488 56.665791 
L 126.302149 55.404896 
L 123.02281 55.404896 
L 119.743471 55.404896 
L 116.464132 55.404896 
L 113.184793 55.404896 
L 109.905455 55.404896 
L 106.626116 55.404896 
L 103.346777 55.404896 
L 100.067438 55.404896 
L 96.788099 55.404896 
L 93.50876 55.404896 
L 90.229421 55.404896 
L 86.950083 55.404896 
L 83.670744 55.404896 
L 80.391405 55.404896 
L 77.112066 55.404896 
L 73.832727 55.404896 
z
" clip-path="url(#p942d5042e5)" style="fill: #d62728"/>
   </g>
   <g id="PolyCollection_5">
    <path d="M 73.832727 55.404896 
L 73.832727 55.404896 
L 77.112066 55.404896 
L 80.391405 55.404896 
L 83.670744 55.404896 
L 86.950083 55.404896 
L 90.229421 55.404896 
L 93.50876 55.404896 
L 96.788099 55.404896 
L 100.067438 55.404896 
L 103.346777 55.404896 
L 106.626116 55.404896 
L 109.905455 55.404896 
L 113.184793 55.404896 
L 116.464132 55.404896 
L 119.743471 55.404896 
L 123.02281 55.404896 
L 126.302149 55.404896 
L 129.581488 56.665791 
L 132.860826 56.665791 
L 136.140165 56.665791 
L 139.419504 55.404896 
L 142.698843 55.404896 
L 145.978182 55.404896 
L 149.257521 56.665791 
L 152.53686 55.404896 
L 155.816198 55.404896 
L 159.095537 69.274746 
L 162.374876 88.188179 
L 165.654215 104.579821 
L 168.933554 84.405493 
L 172.212893 95.753552 
L 175.492231 107.101612 
L 178.77157 189.059821 
L 182.050909 86.927284 
L 185.330248 95.753552 
L 188.609587 103.318925 
L 191.888926 112.145194 
L 195.168264 115.927881 
L 198.447603 104.579821 
L 201.726942 70.535642 
L 205.006281 103.318925 
L 208.28562 74.318328 
L 211.564959 95.753552 
L 214.844298 108.362507 
L 218.123636 141.145791 
L 221.402975 127.27594 
L 224.682314 141.145791 
L 227.961653 123.493254 
L 231.240992 132.319522 
L 234.520331 142.406687 
L 237.799669 134.841313 
L 241.079008 132.319522 
L 244.358347 160.059224 
L 247.637686 105.840716 
L 250.917025 149.97206 
L 254.196364 136.102209 
L 257.475702 141.145791 
L 260.755041 120.971463 
L 264.03438 132.319522 
L 267.313719 126.015045 
L 270.593058 114.666985 
L 273.872397 136.102209 
L 277.151736 170.146388 
L 280.431074 161.320119 
L 283.710413 149.97206 
L 286.989752 151.232955 
L 290.269091 152.493851 
L 293.54843 166.363701 
L 296.827769 155.015642 
L 300.107107 173.929075 
L 303.386446 172.668179 
L 306.665785 142.406687 
L 309.945124 134.841313 
L 313.224463 194.103403 
L 316.503802 146.189373 
L 319.78314 170.146388 
L 323.062479 170.146388 
L 326.341818 161.320119 
L 329.621157 136.102209 
L 332.900496 147.450269 
L 336.179835 143.667582 
L 339.459174 161.320119 
L 342.738512 165.102806 
L 346.017851 148.711164 
L 349.29719 173.929075 
L 352.576529 216.799522 
L 355.855868 214.277731 
L 359.135207 200.407881 
L 362.414545 173.929075 
L 365.693884 173.929075 
L 368.973223 144.928478 
L 372.252562 134.841313 
L 375.531901 137.363104 
L 378.81124 167.624597 
L 382.090579 124.754149 
L 385.369917 167.624597 
L 388.649256 165.102806 
L 391.928595 189.059821 
L 395.207934 194.103403 
L 398.487273 148.711164 
L 398.487273 115.927881 
L 398.487273 115.927881 
L 395.207934 155.015642 
L 391.928595 166.363701 
L 388.649256 117.188776 
L 385.369917 129.797731 
L 382.090579 84.405493 
L 378.81124 128.536836 
L 375.531901 102.05803 
L 372.252562 94.492657 
L 368.973223 104.579821 
L 365.693884 134.841313 
L 362.414545 131.058627 
L 359.135207 155.015642 
L 355.855868 187.798925 
L 352.576529 189.059821 
L 349.29719 136.102209 
L 346.017851 119.710567 
L 342.738512 119.710567 
L 339.459174 118.449672 
L 336.179835 108.362507 
L 332.900496 117.188776 
L 329.621157 98.275343 
L 326.341818 127.27594 
L 323.062479 139.884896 
L 319.78314 139.884896 
L 316.503802 120.971463 
L 313.224463 172.668179 
L 309.945124 119.710567 
L 306.665785 118.449672 
L 303.386446 120.971463 
L 300.107107 115.927881 
L 296.827769 110.884299 
L 293.54843 113.40609 
L 290.269091 110.884299 
L 286.989752 112.145194 
L 283.710413 115.927881 
L 280.431074 138.624 
L 277.151736 142.406687 
L 273.872397 99.536239 
L 270.593058 68.013851 
L 267.313719 83.144597 
L 264.03438 98.275343 
L 260.755041 85.666388 
L 257.475702 124.754149 
L 254.196364 118.449672 
L 250.917025 139.884896 
L 247.637686 97.014448 
L 244.358347 78.101015 
L 241.079008 80.622806 
L 237.799669 97.014448 
L 234.520331 97.014448 
L 231.240992 90.70997 
L 227.961653 88.188179 
L 224.682314 93.231761 
L 221.402975 89.449075 
L 218.123636 100.797134 
L 214.844298 76.840119 
L 211.564959 56.665791 
L 208.28562 55.404896 
L 205.006281 55.404896 
L 201.726942 54.144 
L 198.447603 54.144 
L 195.168264 55.404896 
L 191.888926 54.144 
L 188.609587 54.144 
L 185.330248 55.404896 
L 182.050909 55.404896 
L 178.77157 55.404896 
L 175.492231 54.144 
L 172.212893 55.404896 
L 168.933554 55.404896 
L 165.654215 56.665791 
L 162.374876 54.144 
L 159.095537 55.404896 
L 155.816198 55.404896 
L 152.53686 55.404896 
L 149.257521 56.665791 
L 145.978182 55.404896 
L 142.698843 55.404896 
L 139.419504 55.404896 
L 136.140165 56.665791 
L 132.860826 56.665791 
L 129.581488 56.665791 
L 126.302149 55.404896 
L 123.02281 55.404896 
L 119.743471 55.404896 
L 116.464132 55.404896 
L 113.184793 55.404896 
L 109.905455 55.404896 
L 106.626116 55.404896 
L 103.346777 55.404896 
L 100.067438 55.404896 
L 96.788099 55.404896 
L 93.50876 55.404896 
L 90.229421 55.404896 
L 86.950083 55.404896 
L 83.670744 55.404896 
L 80.391405 55.404896 
L 77.112066 55.404896 
L 73.832727 55.404896 
z
" clip-path="url(#p942d5042e5)" style="fill: #9467bd"/>
   </g>
   <g id="PolyCollection_6">
    <path d="M 73.832727 55.404896 
L 73.832727 55.404896 
L 77.112066 55.404896 
L 80.391405 55.404896 
L 83.670744 55.404896 
L 86.950083 55.404896 
L 90.229421 55.404896 
L 93.50876 55.404896 
L 96.788099 55.404896 
L 100.067438 55.404896 
L 103.346777 55.404896 
L 106.626116 55.404896 
L 109.905455 55.404896 
L 113.184793 55.404896 
L 116.464132 55.404896 
L 119.743471 55.404896 
L 123.02281 55.404896 
L 126.302149 55.404896 
L 129.581488 56.665791 
L 132.860826 56.665791 
L 136.140165 56.665791 
L 139.419504 55.404896 
L 142.698843 55.404896 
L 145.978182 55.404896 
L 149.257521 56.665791 
L 152.53686 55.404896 
L 155.816198 55.404896 
L 159.095537 55.404896 
L 162.374876 54.144 
L 165.654215 56.665791 
L 168.933554 55.404896 
L 172.212893 55.404896 
L 175.492231 54.144 
L 178.77157 55.404896 
L 182.050909 55.404896 
L 185.330248 55.404896 
L 188.609587 54.144 
L 191.888926 54.144 
L 195.168264 55.404896 
L 198.447603 54.144 
L 201.726942 54.144 
L 205.006281 55.404896 
L 208.28562 55.404896 
L 211.564959 56.665791 
L 214.844298 76.840119 
L 218.123636 100.797134 
L 221.402975 89.449075 
L 224.682314 93.231761 
L 227.961653 88.188179 
L 231.240992 90.70997 
L 234.520331 97.014448 
L 237.799669 97.014448 
L 241.079008 80.622806 
L 244.358347 78.101015 
L 247.637686 97.014448 
L 250.917025 139.884896 
L 254.196364 118.449672 
L 257.475702 124.754149 
L 260.755041 85.666388 
L 264.03438 98.275343 
L 267.313719 83.144597 
L 270.593058 68.013851 
L 273.872397 99.536239 
L 277.151736 142.406687 
L 280.431074 138.624 
L 283.710413 115.927881 
L 286.989752 112.145194 
L 290.269091 110.884299 
L 293.54843 113.40609 
L 296.827769 110.884299 
L 300.107107 115.927881 
L 303.386446 120.971463 
L 306.665785 118.449672 
L 309.945124 119.710567 
L 313.224463 172.668179 
L 316.503802 120.971463 
L 319.78314 139.884896 
L 323.062479 139.884896 
L 326.341818 127.27594 
L 329.621157 98.275343 
L 332.900496 117.188776 
L 336.179835 108.362507 
L 339.459174 118.449672 
L 342.738512 119.710567 
L 346.017851 119.710567 
L 349.29719 136.102209 
L 352.576529 189.059821 
L 355.855868 187.798925 
L 359.135207 155.015642 
L 362.414545 131.058627 
L 365.693884 134.841313 
L 368.973223 104.579821 
L 372.252562 94.492657 
L 375.531901 102.05803 
L 378.81124 128.536836 
L 382.090579 84.405493 
L 385.369917 129.797731 
L 388.649256 117.188776 
L 391.928595 166.363701 
L 395.207934 155.015642 
L 398.487273 115.927881 
L 398.487273 90.70997 
L 398.487273 90.70997 
L 395.207934 134.841313 
L 391.928595 131.058627 
L 388.649256 95.753552 
L 385.369917 107.101612 
L 382.090579 70.535642 
L 378.81124 122.232358 
L 375.531901 93.231761 
L 372.252562 85.666388 
L 368.973223 83.144597 
L 365.693884 68.013851 
L 362.414545 83.144597 
L 359.135207 83.144597 
L 355.855868 103.318925 
L 352.576529 97.014448 
L 349.29719 94.492657 
L 346.017851 91.970866 
L 342.738512 83.144597 
L 339.459174 85.666388 
L 336.179835 81.883701 
L 332.900496 79.36191 
L 329.621157 79.36191 
L 326.341818 88.188179 
L 323.062479 91.970866 
L 319.78314 91.970866 
L 316.503802 90.70997 
L 313.224463 90.70997 
L 309.945124 89.449075 
L 306.665785 93.231761 
L 303.386446 86.927284 
L 300.107107 84.405493 
L 296.827769 89.449075 
L 293.54843 90.70997 
L 290.269091 89.449075 
L 286.989752 90.70997 
L 283.710413 88.188179 
L 280.431074 81.883701 
L 277.151736 83.144597 
L 273.872397 74.318328 
L 270.593058 55.404896 
L 267.313719 55.404896 
L 264.03438 54.144 
L 260.755041 55.404896 
L 257.475702 55.404896 
L 254.196364 56.665791 
L 250.917025 55.404896 
L 247.637686 55.404896 
L 244.358347 54.144 
L 241.079008 55.404896 
L 237.799669 55.404896 
L 234.520331 56.665791 
L 231.240992 55.404896 
L 227.961653 56.665791 
L 224.682314 55.404896 
L 221.402975 56.665791 
L 218.123636 57.926687 
L 214.844298 56.665791 
L 211.564959 55.404896 
L 208.28562 55.404896 
L 205.006281 55.404896 
L 201.726942 54.144 
L 198.447603 54.144 
L 195.168264 55.404896 
L 191.888926 54.144 
L 188.609587 54.144 
L 185.330248 55.404896 
L 182.050909 55.404896 
L 178.77157 55.404896 
L 175.492231 54.144 
L 172.212893 55.404896 
L 168.933554 55.404896 
L 165.654215 56.665791 
L 162.374876 54.144 
L 159.095537 55.404896 
L 155.816198 55.404896 
L 152.53686 55.404896 
L 149.257521 56.665791 
L 145.978182 55.404896 
L 142.698843 55.404896 
L 139.419504 55.404896 
L 136.140165 56.665791 
L 132.860826 56.665791 
L 129.581488 56.665791 
L 126.302149 55.404896 
L 123.02281 55.404896 
L 119.743471 55.404896 
L 116.464132 55.404896 
L 113.184793 55.404896 
L 109.905455 55.404896 
L 106.626116 55.404896 
L 103.346777 55.404896 
L 100.067438 55.404896 
L 96.788099 55.404896 
L 93.50876 55.404896 
L 90.229421 55.404896 
L 86.950083 55.404896 
L 83.670744 55.404896 
L 80.391405 55.404896 
L 77.112066 55.404896 
L 73.832727 55.404896 
z
" clip-path="url(#p942d5042e5)" style="fill: #8c564b"/>
   </g>
   <g id="PolyCollection_7">
    <path d="M 73.832727 55.404896 
L 73.832727 55.404896 
L 77.112066 55.404896 
L 80.391405 55.404896 
L 83.670744 55.404896 
L 86.950083 55.404896 
L 90.229421 55.404896 
L 93.50876 55.404896 
L 96.788099 55.404896 
L 100.067438 55.404896 
L 103.346777 55.404896 
L 106.626116 55.404896 
L 109.905455 55.404896 
L 113.184793 55.404896 
L 116.464132 55.404896 
L 119.743471 55.404896 
L 123.02281 55.404896 
L 126.302149 55.404896 
L 129.581488 56.665791 
L 132.860826 56.665791 
L 136.140165 56.665791 
L 139.419504 55.404896 
L 142.698843 55.404896 
L 145.978182 55.404896 
L 149.257521 56.665791 
L 152.53686 55.404896 
L 155.816198 55.404896 
L 159.095537 55.404896 
L 162.374876 54.144 
L 165.654215 56.665791 
L 168.933554 55.404896 
L 172.212893 55.404896 
L 175.492231 54.144 
L 178.77157 55.404896 
L 182.050909 55.404896 
L 185.330248 55.404896 
L 188.609587 54.144 
L 191.888926 54.144 
L 195.168264 55.404896 
L 198.447603 54.144 
L 201.726942 54.144 
L 205.006281 55.404896 
L 208.28562 55.404896 
L 211.564959 55.404896 
L 214.844298 56.665791 
L 218.123636 57.926687 
L 221.402975 56.665791 
L 224.682314 55.404896 
L 227.961653 56.665791 
L 231.240992 55.404896 
L 234.520331 56.665791 
L 237.799669 55.404896 
L 241.079008 55.404896 
L 244.358347 54.144 
L 247.637686 55.404896 
L 250.917025 55.404896 
L 254.196364 56.665791 
L 257.475702 55.404896 
L 260.755041 55.404896 
L 264.03438 54.144 
L 267.313719 55.404896 
L 270.593058 55.404896 
L 273.872397 74.318328 
L 277.151736 83.144597 
L 280.431074 81.883701 
L 283.710413 88.188179 
L 286.989752 90.70997 
L 290.269091 89.449075 
L 293.54843 90.70997 
L 296.827769 89.449075 
L 300.107107 84.405493 
L 303.386446 86.927284 
L 306.665785 93.231761 
L 309.945124 89.449075 
L 313.224463 90.70997 
L 316.503802 90.70997 
L 319.78314 91.970866 
L 323.062479 91.970866 
L 326.341818 88.188179 
L 329.621157 79.36191 
L 332.900496 79.36191 
L 336.179835 81.883701 
L 339.459174 85.666388 
L 342.738512 83.144597 
L 346.017851 91.970866 
L 349.29719 94.492657 
L 352.576529 97.014448 
L 355.855868 103.318925 
L 359.135207 83.144597 
L 362.414545 83.144597 
L 365.693884 68.013851 
L 368.973223 83.144597 
L 372.252562 85.666388 
L 375.531901 93.231761 
L 378.81124 122.232358 
L 382.090579 70.535642 
L 385.369917 107.101612 
L 388.649256 95.753552 
L 391.928595 131.058627 
L 395.207934 134.841313 
L 398.487273 90.70997 
L 398.487273 55.404896 
L 398.487273 55.404896 
L 395.207934 56.665791 
L 391.928595 55.404896 
L 388.649256 54.144 
L 385.369917 55.404896 
L 382.090579 55.404896 
L 378.81124 56.665791 
L 375.531901 56.665791 
L 372.252562 54.144 
L 368.973223 56.665791 
L 365.693884 55.404896 
L 362.414545 54.144 
L 359.135207 55.404896 
L 355.855868 56.665791 
L 352.576529 56.665791 
L 349.29719 57.926687 
L 346.017851 56.665791 
L 342.738512 56.665791 
L 339.459174 54.144 
L 336.179835 56.665791 
L 332.900496 55.404896 
L 329.621157 55.404896 
L 326.341818 56.665791 
L 323.062479 57.926687 
L 319.78314 56.665791 
L 316.503802 56.665791 
L 313.224463 54.144 
L 309.945124 54.144 
L 306.665785 54.144 
L 303.386446 54.144 
L 300.107107 55.404896 
L 296.827769 55.404896 
L 293.54843 56.665791 
L 290.269091 56.665791 
L 286.989752 55.404896 
L 283.710413 57.926687 
L 280.431074 56.665791 
L 277.151736 54.144 
L 273.872397 55.404896 
L 270.593058 55.404896 
L 267.313719 55.404896 
L 264.03438 54.144 
L 260.755041 55.404896 
L 257.475702 55.404896 
L 254.196364 56.665791 
L 250.917025 55.404896 
L 247.637686 55.404896 
L 244.358347 54.144 
L 241.079008 55.404896 
L 237.799669 55.404896 
L 234.520331 56.665791 
L 231.240992 55.404896 
L 227.961653 56.665791 
L 224.682314 55.404896 
L 221.402975 56.665791 
L 218.123636 57.926687 
L 214.844298 56.665791 
L 211.564959 55.404896 
L 208.28562 55.404896 
L 205.006281 55.404896 
L 201.726942 54.144 
L 198.447603 54.144 
L 195.168264 55.404896 
L 191.888926 54.144 
L 188.609587 54.144 
L 185.330248 55.404896 
L 182.050909 55.404896 
L 178.77157 55.404896 
L 175.492231 54.144 
L 172.212893 55.404896 
L 168.933554 55.404896 
L 165.654215 56.665791 
L 162.374876 54.144 
L 159.095537 55.404896 
L 155.816198 55.404896 
L 152.53686 55.404896 
L 149.257521 56.665791 
L 145.978182 55.404896 
L 142.698843 55.404896 
L 139.419504 55.404896 
L 136.140165 56.665791 
L 132.860826 56.665791 
L 129.581488 56.665791 
L 126.302149 55.404896 
L 123.02281 55.404896 
L 119.743471 55.404896 
L 116.464132 55.404896 
L 113.184793 55.404896 
L 109.905455 55.404896 
L 106.626116 55.404896 
L 103.346777 55.404896 
L 100.067438 55.404896 
L 96.788099 55.404896 
L 93.50876 55.404896 
L 90.229421 55.404896 
L 86.950083 55.404896 
L 83.670744 55.404896 
L 80.391405 55.404896 
L 77.112066 55.404896 
L 73.832727 55.404896 
z
" clip-path="url(#p942d5042e5)" style="fill: #e377c2"/>
   </g>
   <g id="matplotlib.axis_1">
    <g id="xtick_1">
     <g id="line2d_1">
      <defs>
       <path id="mebb031bf74" d="M 0 0 
L 0 3.5 
" style="stroke: #000000; stroke-width: 0.8"/>
      </defs>
      <g>
       <use xlink:href="#mebb031bf74" x="73.832727" y="307.584" style="stroke: #000000; stroke-width: 0.8"/>
      </g>
     </g>
     <g id="text_1">
      <!-- 0 -->
      <g transform="translate(70.651477 322.182437) scale(0.1 -0.1)">
       <defs>
        <path id="DejaVuSans-30" d="M 2034 4250 
Q 1547 4250 1301 3770 
Q 1056 3291 1056 2328 
Q 1056 1369 1301 889 
Q 1547 409 2034 409 
Q 2525 409 2770 889 
Q 3016 1369 3016 2328 
Q 3016 3291 2770 3770 
Q 2525 4250 2034 4250 
z
M 2034 4750 
Q 2819 4750 3233 4129 
Q 3647 3509 3647 2328 
Q 3647 1150 3233 529 
Q 2819 -91 2034 -91 
Q 1250 -91 836 529 
Q 422 1150 422 2328 
Q 422 3509 836 4129 
Q 1250 4750 2034 4750 
z
" transform="scale(0.015625)"/>
       </defs>
       <use xlink:href="#DejaVuSans-30"/>
      </g>
     </g>
    </g>
    <g id="xtick_2">
     <g id="line2d_2">
      <g>
       <use xlink:href="#mebb031bf74" x="139.419504" y="307.584" style="stroke: #000000; stroke-width: 0.8"/>
      </g>
     </g>
     <g id="text_2">
      <!-- 20 -->
      <g transform="translate(133.057004 322.182437) scale(0.1 -0.1)">
       <defs>
        <path id="DejaVuSans-32" d="M 1228 531 
L 3431 531 
L 3431 0 
L 469 0 
L 469 531 
Q 828 903 1448 1529 
Q 2069 2156 2228 2338 
Q 2531 2678 2651 2914 
Q 2772 3150 2772 3378 
Q 2772 3750 2511 3984 
Q 2250 4219 1831 4219 
Q 1534 4219 1204 4116 
Q 875 4013 500 3803 
L 500 4441 
Q 881 4594 1212 4672 
Q 1544 4750 1819 4750 
Q 2544 4750 2975 4387 
Q 3406 4025 3406 3419 
Q 3406 3131 3298 2873 
Q 3191 2616 2906 2266 
Q 2828 2175 2409 1742 
Q 1991 1309 1228 531 
z
" transform="scale(0.015625)"/>
       </defs>
       <use xlink:href="#DejaVuSans-32"/>
       <use xlink:href="#DejaVuSans-30" x="63.623047"/>
      </g>
     </g>
    </g>
    <g id="xtick_3">
     <g id="line2d_3">
      <g>
       <use xlink:href="#mebb031bf74" x="205.006281" y="307.584" style="stroke: #000000; stroke-width: 0.8"/>
      </g>
     </g>
     <g id="text_3">
      <!-- 40 -->
      <g transform="translate(198.643781 322.182437) scale(0.1 -0.1)">
       <defs>
        <path id="DejaVuSans-34" d="M 2419 4116 
L 825 1625 
L 2419 1625 
L 2419 4116 
z
M 2253 4666 
L 3047 4666 
L 3047 1625 
L 3713 1625 
L 3713 1100 
L 3047 1100 
L 3047 0 
L 2419 0 
L 2419 1100 
L 313 1100 
L 313 1709 
L 2253 4666 
z
" transform="scale(0.015625)"/>
       </defs>
       <use xlink:href="#DejaVuSans-34"/>
       <use xlink:href="#DejaVuSans-30" x="63.623047"/>
      </g>
     </g>
    </g>
    <g id="xtick_4">
     <g id="line2d_4">
      <g>
       <use xlink:href="#mebb031bf74" x="270.593058" y="307.584" style="stroke: #000000; stroke-width: 0.8"/>
      </g>
     </g>
     <g id="text_4">
      <!-- 60 -->
      <g transform="translate(264.230558 322.182437) scale(0.1 -0.1)">
       <defs>
        <path id="DejaVuSans-36" d="M 2113 2584 
Q 1688 2584 1439 2293 
Q 1191 2003 1191 1497 
Q 1191 994 1439 701 
Q 1688 409 2113 409 
Q 2538 409 2786 701 
Q 3034 994 3034 1497 
Q 3034 2003 2786 2293 
Q 2538 2584 2113 2584 
z
M 3366 4563 
L 3366 3988 
Q 3128 4100 2886 4159 
Q 2644 4219 2406 4219 
Q 1781 4219 1451 3797 
Q 1122 3375 1075 2522 
Q 1259 2794 1537 2939 
Q 1816 3084 2150 3084 
Q 2853 3084 3261 2657 
Q 3669 2231 3669 1497 
Q 3669 778 3244 343 
Q 2819 -91 2113 -91 
Q 1303 -91 875 529 
Q 447 1150 447 2328 
Q 447 3434 972 4092 
Q 1497 4750 2381 4750 
Q 2619 4750 2861 4703 
Q 3103 4656 3366 4563 
z
" transform="scale(0.015625)"/>
       </defs>
       <use xlink:href="#DejaVuSans-36"/>
       <use xlink:href="#DejaVuSans-30" x="63.623047"/>
      </g>
     </g>
    </g>
    <g id="xtick_5">
     <g id="line2d_5">
      <g>
       <use xlink:href="#mebb031bf74" x="336.179835" y="307.584" style="stroke: #000000; stroke-width: 0.8"/>
      </g>
     </g>
     <g id="text_5">
      <!-- 80 -->
      <g transform="translate(329.817335 322.182437) scale(0.1 -0.1)">
       <defs>
        <path id="DejaVuSans-38" d="M 2034 2216 
Q 1584 2216 1326 1975 
Q 1069 1734 1069 1313 
Q 1069 891 1326 650 
Q 1584 409 2034 409 
Q 2484 409 2743 651 
Q 3003 894 3003 1313 
Q 3003 1734 2745 1975 
Q 2488 2216 2034 2216 
z
M 1403 2484 
Q 997 2584 770 2862 
Q 544 3141 544 3541 
Q 544 4100 942 4425 
Q 1341 4750 2034 4750 
Q 2731 4750 3128 4425 
Q 3525 4100 3525 3541 
Q 3525 3141 3298 2862 
Q 3072 2584 2669 2484 
Q 3125 2378 3379 2068 
Q 3634 1759 3634 1313 
Q 3634 634 3220 271 
Q 2806 -91 2034 -91 
Q 1263 -91 848 271 
Q 434 634 434 1313 
Q 434 1759 690 2068 
Q 947 2378 1403 2484 
z
M 1172 3481 
Q 1172 3119 1398 2916 
Q 1625 2713 2034 2713 
Q 2441 2713 2670 2916 
Q 2900 3119 2900 3481 
Q 2900 3844 2670 4047 
Q 2441 4250 2034 4250 
Q 1625 4250 1398 4047 
Q 1172 3844 1172 3481 
z
" transform="scale(0.015625)"/>
       </defs>
       <use xlink:href="#DejaVuSans-38"/>
       <use xlink:href="#DejaVuSans-30" x="63.623047"/>
      </g>
     </g>
    </g>
    <g id="xtick_6">
     <g id="line2d_6">
      <g>
       <use xlink:href="#mebb031bf74" x="401.766612" y="307.584" style="stroke: #000000; stroke-width: 0.8"/>
      </g>
     </g>
     <g id="text_6">
      <!-- 100 -->
      <g transform="translate(392.222862 322.182437) scale(0.1 -0.1)">
       <defs>
        <path id="DejaVuSans-31" d="M 794 531 
L 1825 531 
L 1825 4091 
L 703 3866 
L 703 4441 
L 1819 4666 
L 2450 4666 
L 2450 531 
L 3481 531 
L 3481 0 
L 794 0 
L 794 531 
z
" transform="scale(0.015625)"/>
       </defs>
       <use xlink:href="#DejaVuSans-31"/>
       <use xlink:href="#DejaVuSans-30" x="63.623047"/>
       <use xlink:href="#DejaVuSans-30" x="127.246094"/>
      </g>
     </g>
    </g>
    <g id="text_7">
     <!-- Generations -->
     <g transform="translate(205.662344 335.860562) scale(0.1 -0.1)">
      <defs>
       <path id="DejaVuSans-47" d="M 3809 666 
L 3809 1919 
L 2778 1919 
L 2778 2438 
L 4434 2438 
L 4434 434 
Q 4069 175 3628 42 
Q 3188 -91 2688 -91 
Q 1594 -91 976 548 
Q 359 1188 359 2328 
Q 359 3472 976 4111 
Q 1594 4750 2688 4750 
Q 3144 4750 3555 4637 
Q 3966 4525 4313 4306 
L 4313 3634 
Q 3963 3931 3569 4081 
Q 3175 4231 2741 4231 
Q 1884 4231 1454 3753 
Q 1025 3275 1025 2328 
Q 1025 1384 1454 906 
Q 1884 428 2741 428 
Q 3075 428 3337 486 
Q 3600 544 3809 666 
z
" transform="scale(0.015625)"/>
       <path id="DejaVuSans-65" d="M 3597 1894 
L 3597 1613 
L 953 1613 
Q 991 1019 1311 708 
Q 1631 397 2203 397 
Q 2534 397 2845 478 
Q 3156 559 3463 722 
L 3463 178 
Q 3153 47 2828 -22 
Q 2503 -91 2169 -91 
Q 1331 -91 842 396 
Q 353 884 353 1716 
Q 353 2575 817 3079 
Q 1281 3584 2069 3584 
Q 2775 3584 3186 3129 
Q 3597 2675 3597 1894 
z
M 3022 2063 
Q 3016 2534 2758 2815 
Q 2500 3097 2075 3097 
Q 1594 3097 1305 2825 
Q 1016 2553 972 2059 
L 3022 2063 
z
" transform="scale(0.015625)"/>
       <path id="DejaVuSans-6e" d="M 3513 2113 
L 3513 0 
L 2938 0 
L 2938 2094 
Q 2938 2591 2744 2837 
Q 2550 3084 2163 3084 
Q 1697 3084 1428 2787 
Q 1159 2491 1159 1978 
L 1159 0 
L 581 0 
L 581 3500 
L 1159 3500 
L 1159 2956 
Q 1366 3272 1645 3428 
Q 1925 3584 2291 3584 
Q 2894 3584 3203 3211 
Q 3513 2838 3513 2113 
z
" transform="scale(0.015625)"/>
       <path id="DejaVuSans-72" d="M 2631 2963 
Q 2534 3019 2420 3045 
Q 2306 3072 2169 3072 
Q 1681 3072 1420 2755 
Q 1159 2438 1159 1844 
L 1159 0 
L 581 0 
L 581 3500 
L 1159 3500 
L 1159 2956 
Q 1341 3275 1631 3429 
Q 1922 3584 2338 3584 
Q 2397 3584 2469 3576 
Q 2541 3569 2628 3553 
L 2631 2963 
z
" transform="scale(0.015625)"/>
       <path id="DejaVuSans-61" d="M 2194 1759 
Q 1497 1759 1228 1600 
Q 959 1441 959 1056 
Q 959 750 1161 570 
Q 1363 391 1709 391 
Q 2188 391 2477 730 
Q 2766 1069 2766 1631 
L 2766 1759 
L 2194 1759 
z
M 3341 1997 
L 3341 0 
L 2766 0 
L 2766 531 
Q 2569 213 2275 61 
Q 1981 -91 1556 -91 
Q 1019 -91 701 211 
Q 384 513 384 1019 
Q 384 1609 779 1909 
Q 1175 2209 1959 2209 
L 2766 2209 
L 2766 2266 
Q 2766 2663 2505 2880 
Q 2244 3097 1772 3097 
Q 1472 3097 1187 3025 
Q 903 2953 641 2809 
L 641 3341 
Q 956 3463 1253 3523 
Q 1550 3584 1831 3584 
Q 2591 3584 2966 3190 
Q 3341 2797 3341 1997 
z
" transform="scale(0.015625)"/>
       <path id="DejaVuSans-74" d="M 1172 4494 
L 1172 3500 
L 2356 3500 
L 2356 3053 
L 1172 3053 
L 1172 1153 
Q 1172 725 1289 603 
Q 1406 481 1766 481 
L 2356 481 
L 2356 0 
L 1766 0 
Q 1100 0 847 248 
Q 594 497 594 1153 
L 594 3053 
L 172 3053 
L 172 3500 
L 594 3500 
L 594 4494 
L 1172 4494 
z
" transform="scale(0.015625)"/>
       <path id="DejaVuSans-69" d="M 603 3500 
L 1178 3500 
L 1178 0 
L 603 0 
L 603 3500 
z
M 603 4863 
L 1178 4863 
L 1178 4134 
L 603 4134 
L 603 4863 
z
" transform="scale(0.015625)"/>
       <path id="DejaVuSans-6f" d="M 1959 3097 
Q 1497 3097 1228 2736 
Q 959 2375 959 1747 
Q 959 1119 1226 758 
Q 1494 397 1959 397 
Q 2419 397 2687 759 
Q 2956 1122 2956 1747 
Q 2956 2369 2687 2733 
Q 2419 3097 1959 3097 
z
M 1959 3584 
Q 2709 3584 3137 3096 
Q 3566 2609 3566 1747 
Q 3566 888 3137 398 
Q 2709 -91 1959 -91 
Q 1206 -91 779 398 
Q 353 888 353 1747 
Q 353 2609 779 3096 
Q 1206 3584 1959 3584 
z
" transform="scale(0.015625)"/>
       <path id="DejaVuSans-73" d="M 2834 3397 
L 2834 2853 
Q 2591 2978 2328 3040 
Q 2066 3103 1784 3103 
Q 1356 3103 1142 2972 
Q 928 2841 928 2578 
Q 928 2378 1081 2264 
Q 1234 2150 1697 2047 
L 1894 2003 
Q 2506 1872 2764 1633 
Q 3022 1394 3022 966 
Q 3022 478 2636 193 
Q 2250 -91 1575 -91 
Q 1294 -91 989 -36 
Q 684 19 347 128 
L 347 722 
Q 666 556 975 473 
Q 1284 391 1588 391 
Q 1994 391 2212 530 
Q 2431 669 2431 922 
Q 2431 1156 2273 1281 
Q 2116 1406 1581 1522 
L 1381 1569 
Q 847 1681 609 1914 
Q 372 2147 372 2553 
Q 372 3047 722 3315 
Q 1072 3584 1716 3584 
Q 2034 3584 2315 3537 
Q 2597 3491 2834 3397 
z
" transform="scale(0.015625)"/>
      </defs>
      <use xlink:href="#DejaVuSans-47"/>
      <use xlink:href="#DejaVuSans-65" x="77.490234"/>
      <use xlink:href="#DejaVuSans-6e" x="139.013672"/>
      <use xlink:href="#DejaVuSans-65" x="202.392578"/>
      <use xlink:href="#DejaVuSans-72" x="263.916016"/>
      <use xlink:href="#DejaVuSans-61" x="305.029297"/>
      <use xlink:href="#DejaVuSans-74" x="366.308594"/>
      <use xlink:href="#DejaVuSans-69" x="405.517578"/>
      <use xlink:href="#DejaVuSans-6f" x="433.300781"/>
      <use xlink:href="#DejaVuSans-6e" x="494.482422"/>
      <use xlink:href="#DejaVuSans-73" x="557.861328"/>
     </g>
    </g>
   </g>
   <g id="matplotlib.axis_2">
    <g id="ytick_1">
     <g id="line2d_7">
      <defs>
       <path id="ma3da88677b" d="M 0 0 
L -3.5 0 
" style="stroke: #000000; stroke-width: 0.8"/>
      </defs>
      <g>
       <use xlink:href="#ma3da88677b" x="57.6" y="307.584" style="stroke: #000000; stroke-width: 0.8"/>
      </g>
     </g>
     <g id="text_8">
      <!-- 0 -->
      <g transform="translate(44.2375 311.383219) scale(0.1 -0.1)">
       <use xlink:href="#DejaVuSans-30"/>
      </g>
     </g>
    </g>
    <g id="ytick_2">
     <g id="line2d_8">
      <g>
       <use xlink:href="#ma3da88677b" x="57.6" y="276.061612" style="stroke: #000000; stroke-width: 0.8"/>
      </g>
     </g>
     <g id="text_9">
      <!-- 25 -->
      <g transform="translate(37.875 279.860831) scale(0.1 -0.1)">
       <defs>
        <path id="DejaVuSans-35" d="M 691 4666 
L 3169 4666 
L 3169 4134 
L 1269 4134 
L 1269 2991 
Q 1406 3038 1543 3061 
Q 1681 3084 1819 3084 
Q 2600 3084 3056 2656 
Q 3513 2228 3513 1497 
Q 3513 744 3044 326 
Q 2575 -91 1722 -91 
Q 1428 -91 1123 -41 
Q 819 9 494 109 
L 494 744 
Q 775 591 1075 516 
Q 1375 441 1709 441 
Q 2250 441 2565 725 
Q 2881 1009 2881 1497 
Q 2881 1984 2565 2268 
Q 2250 2553 1709 2553 
Q 1456 2553 1204 2497 
Q 953 2441 691 2322 
L 691 4666 
z
" transform="scale(0.015625)"/>
       </defs>
       <use xlink:href="#DejaVuSans-32"/>
       <use xlink:href="#DejaVuSans-35" x="63.623047"/>
      </g>
     </g>
    </g>
    <g id="ytick_3">
     <g id="line2d_9">
      <g>
       <use xlink:href="#ma3da88677b" x="57.6" y="244.539224" style="stroke: #000000; stroke-width: 0.8"/>
      </g>
     </g>
     <g id="text_10">
      <!-- 50 -->
      <g transform="translate(37.875 248.338443) scale(0.1 -0.1)">
       <use xlink:href="#DejaVuSans-35"/>
       <use xlink:href="#DejaVuSans-30" x="63.623047"/>
      </g>
     </g>
    </g>
    <g id="ytick_4">
     <g id="line2d_10">
      <g>
       <use xlink:href="#ma3da88677b" x="57.6" y="213.016836" style="stroke: #000000; stroke-width: 0.8"/>
      </g>
     </g>
     <g id="text_11">
      <!-- 75 -->
      <g transform="translate(37.875 216.816055) scale(0.1 -0.1)">
       <defs>
        <path id="DejaVuSans-37" d="M 525 4666 
L 3525 4666 
L 3525 4397 
L 1831 0 
L 1172 0 
L 2766 4134 
L 525 4134 
L 525 4666 
z
" transform="scale(0.015625)"/>
       </defs>
       <use xlink:href="#DejaVuSans-37"/>
       <use xlink:href="#DejaVuSans-35" x="63.623047"/>
      </g>
     </g>
    </g>
    <g id="ytick_5">
     <g id="line2d_11">
      <g>
       <use xlink:href="#ma3da88677b" x="57.6" y="181.494448" style="stroke: #000000; stroke-width: 0.8"/>
      </g>
     </g>
     <g id="text_12">
      <!-- 100 -->
      <g transform="translate(31.5125 185.293667) scale(0.1 -0.1)">
       <use xlink:href="#DejaVuSans-31"/>
       <use xlink:href="#DejaVuSans-30" x="63.623047"/>
       <use xlink:href="#DejaVuSans-30" x="127.246094"/>
      </g>
     </g>
    </g>
    <g id="ytick_6">
     <g id="line2d_12">
      <g>
       <use xlink:href="#ma3da88677b" x="57.6" y="149.97206" style="stroke: #000000; stroke-width: 0.8"/>
      </g>
     </g>
     <g id="text_13">
      <!-- 125 -->
      <g transform="translate(31.5125 153.771278) scale(0.1 -0.1)">
       <use xlink:href="#DejaVuSans-31"/>
       <use xlink:href="#DejaVuSans-32" x="63.623047"/>
       <use xlink:href="#DejaVuSans-35" x="127.246094"/>
      </g>
     </g>
    </g>
    <g id="ytick_7">
     <g id="line2d_13">
      <g>
       <use xlink:href="#ma3da88677b" x="57.6" y="118.449672" style="stroke: #000000; stroke-width: 0.8"/>
      </g>
     </g>
     <g id="text_14">
      <!-- 150 -->
      <g transform="translate(31.5125 122.24889) scale(0.1 -0.1)">
       <use xlink:href="#DejaVuSans-31"/>
       <use xlink:href="#DejaVuSans-35" x="63.623047"/>
       <use xlink:href="#DejaVuSans-30" x="127.246094"/>
      </g>
     </g>
    </g>
    <g id="ytick_8">
     <g id="line2d_14">
      <g>
       <use xlink:href="#ma3da88677b" x="57.6" y="86.927284" style="stroke: #000000; stroke-width: 0.8"/>
      </g>
     </g>
     <g id="text_15">
      <!-- 175 -->
      <g transform="translate(31.5125 90.726502) scale(0.1 -0.1)">
       <use xlink:href="#DejaVuSans-31"/>
       <use xlink:href="#DejaVuSans-37" x="63.623047"/>
       <use xlink:href="#DejaVuSans-35" x="127.246094"/>
      </g>
     </g>
    </g>
    <g id="ytick_9">
     <g id="line2d_15">
      <g>
       <use xlink:href="#ma3da88677b" x="57.6" y="55.404896" style="stroke: #000000; stroke-width: 0.8"/>
      </g>
     </g>
     <g id="text_16">
      <!-- 200 -->
      <g transform="translate(31.5125 59.204114) scale(0.1 -0.1)">
       <use xlink:href="#DejaVuSans-32"/>
       <use xlink:href="#DejaVuSans-30" x="63.623047"/>
       <use xlink:href="#DejaVuSans-30" x="127.246094"/>
      </g>
     </g>
    </g>
    <g id="text_17">
     <!-- Size per Species -->
     <g transform="translate(25.432812 215.520969) rotate(-90) scale(0.1 -0.1)">
      <defs>
       <path id="DejaVuSans-53" d="M 3425 4513 
L 3425 3897 
Q 3066 4069 2747 4153 
Q 2428 4238 2131 4238 
Q 1616 4238 1336 4038 
Q 1056 3838 1056 3469 
Q 1056 3159 1242 3001 
Q 1428 2844 1947 2747 
L 2328 2669 
Q 3034 2534 3370 2195 
Q 3706 1856 3706 1288 
Q 3706 609 3251 259 
Q 2797 -91 1919 -91 
Q 1588 -91 1214 -16 
Q 841 59 441 206 
L 441 856 
Q 825 641 1194 531 
Q 1563 422 1919 422 
Q 2459 422 2753 634 
Q 3047 847 3047 1241 
Q 3047 1584 2836 1778 
Q 2625 1972 2144 2069 
L 1759 2144 
Q 1053 2284 737 2584 
Q 422 2884 422 3419 
Q 422 4038 858 4394 
Q 1294 4750 2059 4750 
Q 2388 4750 2728 4690 
Q 3069 4631 3425 4513 
z
" transform="scale(0.015625)"/>
       <path id="DejaVuSans-7a" d="M 353 3500 
L 3084 3500 
L 3084 2975 
L 922 459 
L 3084 459 
L 3084 0 
L 275 0 
L 275 525 
L 2438 3041 
L 353 3041 
L 353 3500 
z
" transform="scale(0.015625)"/>
       <path id="DejaVuSans-20" transform="scale(0.015625)"/>
       <path id="DejaVuSans-70" d="M 1159 525 
L 1159 -1331 
L 581 -1331 
L 581 3500 
L 1159 3500 
L 1159 2969 
Q 1341 3281 1617 3432 
Q 1894 3584 2278 3584 
Q 2916 3584 3314 3078 
Q 3713 2572 3713 1747 
Q 3713 922 3314 415 
Q 2916 -91 2278 -91 
Q 1894 -91 1617 61 
Q 1341 213 1159 525 
z
M 3116 1747 
Q 3116 2381 2855 2742 
Q 2594 3103 2138 3103 
Q 1681 3103 1420 2742 
Q 1159 2381 1159 1747 
Q 1159 1113 1420 752 
Q 1681 391 2138 391 
Q 2594 391 2855 752 
Q 3116 1113 3116 1747 
z
" transform="scale(0.015625)"/>
       <path id="DejaVuSans-63" d="M 3122 3366 
L 3122 2828 
Q 2878 2963 2633 3030 
Q 2388 3097 2138 3097 
Q 1578 3097 1268 2742 
Q 959 2388 959 1747 
Q 959 1106 1268 751 
Q 1578 397 2138 397 
Q 2388 397 2633 464 
Q 2878 531 3122 666 
L 3122 134 
Q 2881 22 2623 -34 
Q 2366 -91 2075 -91 
Q 1284 -91 818 406 
Q 353 903 353 1747 
Q 353 2603 823 3093 
Q 1294 3584 2113 3584 
Q 2378 3584 2631 3529 
Q 2884 3475 3122 3366 
z
" transform="scale(0.015625)"/>
      </defs>
      <use xlink:href="#DejaVuSans-53"/>
      <use xlink:href="#DejaVuSans-69" x="63.476562"/>
      <use xlink:href="#DejaVuSans-7a" x="91.259766"/>
      <use xlink:href="#DejaVuSans-65" x="143.75"/>
      <use xlink:href="#DejaVuSans-20" x="205.273438"/>
      <use xlink:href="#DejaVuSans-70" x="237.060547"/>
      <use xlink:href="#DejaVuSans-65" x="300.537109"/>
      <use xlink:href="#DejaVuSans-72" x="362.060547"/>
      <use xlink:href="#DejaVuSans-20" x="403.173828"/>
      <use xlink:href="#DejaVuSans-53" x="434.960938"/>
      <use xlink:href="#DejaVuSans-70" x="498.4375"/>
      <use xlink:href="#DejaVuSans-65" x="561.914062"/>
      <use xlink:href="#DejaVuSans-63" x="623.4375"/>
      <use xlink:href="#DejaVuSans-69" x="678.417969"/>
      <use xlink:href="#DejaVuSans-65" x="706.201172"/>
      <use xlink:href="#DejaVuSans-73" x="767.724609"/>
     </g>
    </g>
   </g>
   <g id="patch_3">
    <path d="M 57.6 307.584 
L 57.6 41.472 
" style="fill: none; stroke: #000000; stroke-width: 0.8; stroke-linejoin: miter; stroke-linecap: square"/>
   </g>
   <g id="patch_4">
    <path d="M 414.72 307.584 
L 414.72 41.472 
" style="fill: none; stroke: #000000; stroke-width: 0.8; stroke-linejoin: miter; stroke-linecap: square"/>
   </g>
   <g id="patch_5">
    <path d="M 57.6 307.584 
L 414.72 307.584 
" style="fill: none; stroke: #000000; stroke-width: 0.8; stroke-linejoin: miter; stroke-linecap: square"/>
   </g>
   <g id="patch_6">
    <path d="M 57.6 41.472 
L 414.72 41.472 
" style="fill: none; stroke: #000000; stroke-width: 0.8; stroke-linejoin: miter; stroke-linecap: square"/>
   </g>
   <g id="text_18">
    <!-- Speciation -->
    <g transform="translate(204.714375 35.472) scale(0.12 -0.12)">
     <use xlink:href="#DejaVuSans-53"/>
     <use xlink:href="#DejaVuSans-70" x="63.476562"/>
     <use xlink:href="#DejaVuSans-65" x="126.953125"/>
     <use xlink:href="#DejaVuSans-63" x="188.476562"/>
     <use xlink:href="#DejaVuSans-69" x="243.457031"/>
     <use xlink:href="#DejaVuSans-61" x="271.240234"/>
     <use xlink:href="#DejaVuSans-74" x="332.519531"/>
     <use xlink:href="#DejaVuSans-69" x="371.728516"/>
     <use xlink:href="#DejaVuSans-6f" x="399.511719"/>
     <use xlink:href="#DejaVuSans-6e" x="460.693359"/>
    </g>
   </g>
  </g>
 </g>
 <defs>
  <clipPath id="p942d5042e5">
   <rect x="57.6" y="41.472" width="357.12" height="266.112"/>
  </clipPath>
 </defs>
</svg>
