<?xml version="1.0" encoding="utf-8" standalone="no"?>
<!DOCTYPE svg PUBLIC "-//W3C//DTD SVG 1.1//EN"
  "http://www.w3.org/Graphics/SVG/1.1/DTD/svg11.dtd">
<svg xmlns:xlink="http://www.w3.org/1999/xlink" width="460.8pt" height="345.6pt" viewBox="0 0 460.8 345.6" xmlns="http://www.w3.org/2000/svg" version="1.1">
 <metadata>
  <rdf:RDF xmlns:dc="http://purl.org/dc/elements/1.1/" xmlns:cc="http://creativecommons.org/ns#" xmlns:rdf="http://www.w3.org/1999/02/22-rdf-syntax-ns#">
   <cc:Work>
    <dc:type rdf:resource="http://purl.org/dc/dcmitype/StillImage"/>
    <dc:date>2022-11-22T12:10:51.230152</dc:date>
    <dc:format>image/svg+xml</dc:format>
    <dc:creator>
     <cc:Agent>
      <dc:title>Matplotlib v3.6.2, https://matplotlib.org/</dc:title>
     </cc:Agent>
    </dc:creator>
   </cc:Work>
  </rdf:RDF>
 </metadata>
 <defs>
  <style type="text/css">*{stroke-linejoin: round; stroke-linecap: butt}</style>
 </defs>
 <g id="figure_1">
  <g id="patch_1">
   <path d="M 0 345.6 
L 460.8 345.6 
L 460.8 0 
L 0 0 
z
" style="fill: #ffffff"/>
  </g>
  <g id="axes_1">
   <g id="patch_2">
    <path d="M 57.6 307.584 
L 414.72 307.584 
L 414.72 41.472 
L 57.6 41.472 
z
" style="fill: #ffffff"/>
   </g>
   <g id="matplotlib.axis_1">
    <g id="xtick_1">
     <g id="line2d_1">
      <path d="M 73.832727 307.584 
L 73.832727 41.472 
" clip-path="url(#pc8a0705fd3)" style="fill: none; stroke: #b0b0b0; stroke-width: 0.8; stroke-linecap: square"/>
     </g>
     <g id="line2d_2">
      <defs>
       <path id="m095a3c33de" d="M 0 0 
L 0 3.5 
" style="stroke: #000000; stroke-width: 0.8"/>
      </defs>
      <g>
       <use xlink:href="#m095a3c33de" x="73.832727" y="307.584" style="stroke: #000000; stroke-width: 0.8"/>
      </g>
     </g>
     <g id="text_1">
      <!-- 0 -->
      <g transform="translate(70.651477 322.182437) scale(0.1 -0.1)">
       <defs>
        <path id="DejaVuSans-30" d="M 2034 4250 
Q 1547 4250 1301 3770 
Q 1056 3291 1056 2328 
Q 1056 1369 1301 889 
Q 1547 409 2034 409 
Q 2525 409 2770 889 
Q 3016 1369 3016 2328 
Q 3016 3291 2770 3770 
Q 2525 4250 2034 4250 
z
M 2034 4750 
Q 2819 4750 3233 4129 
Q 3647 3509 3647 2328 
Q 3647 1150 3233 529 
Q 2819 -91 2034 -91 
Q 1250 -91 836 529 
Q 422 1150 422 2328 
Q 422 3509 836 4129 
Q 1250 4750 2034 4750 
z
" transform="scale(0.015625)"/>
       </defs>
       <use xlink:href="#DejaVuSans-30"/>
      </g>
     </g>
    </g>
    <g id="xtick_2">
     <g id="line2d_3">
      <path d="M 114.516254 307.584 
L 114.516254 41.472 
" clip-path="url(#pc8a0705fd3)" style="fill: none; stroke: #b0b0b0; stroke-width: 0.8; stroke-linecap: square"/>
     </g>
     <g id="line2d_4">
      <g>
       <use xlink:href="#m095a3c33de" x="114.516254" y="307.584" style="stroke: #000000; stroke-width: 0.8"/>
      </g>
     </g>
     <g id="text_2">
      <!-- 50 -->
      <g transform="translate(108.153754 322.182437) scale(0.1 -0.1)">
       <defs>
        <path id="DejaVuSans-35" d="M 691 4666 
L 3169 4666 
L 3169 4134 
L 1269 4134 
L 1269 2991 
Q 1406 3038 1543 3061 
Q 1681 3084 1819 3084 
Q 2600 3084 3056 2656 
Q 3513 2228 3513 1497 
Q 3513 744 3044 326 
Q 2575 -91 1722 -91 
Q 1428 -91 1123 -41 
Q 819 9 494 109 
L 494 744 
Q 775 591 1075 516 
Q 1375 441 1709 441 
Q 2250 441 2565 725 
Q 2881 1009 2881 1497 
Q 2881 1984 2565 2268 
Q 2250 2553 1709 2553 
Q 1456 2553 1204 2497 
Q 953 2441 691 2322 
L 691 4666 
z
" transform="scale(0.015625)"/>
       </defs>
       <use xlink:href="#DejaVuSans-35"/>
       <use xlink:href="#DejaVuSans-30" x="63.623047"/>
      </g>
     </g>
    </g>
    <g id="xtick_3">
     <g id="line2d_5">
      <path d="M 155.199781 307.584 
L 155.199781 41.472 
" clip-path="url(#pc8a0705fd3)" style="fill: none; stroke: #b0b0b0; stroke-width: 0.8; stroke-linecap: square"/>
     </g>
     <g id="line2d_6">
      <g>
       <use xlink:href="#m095a3c33de" x="155.199781" y="307.584" style="stroke: #000000; stroke-width: 0.8"/>
      </g>
     </g>
     <g id="text_3">
      <!-- 100 -->
      <g transform="translate(145.656031 322.182437) scale(0.1 -0.1)">
       <defs>
        <path id="DejaVuSans-31" d="M 794 531 
L 1825 531 
L 1825 4091 
L 703 3866 
L 703 4441 
L 1819 4666 
L 2450 4666 
L 2450 531 
L 3481 531 
L 3481 0 
L 794 0 
L 794 531 
z
" transform="scale(0.015625)"/>
       </defs>
       <use xlink:href="#DejaVuSans-31"/>
       <use xlink:href="#DejaVuSans-30" x="63.623047"/>
       <use xlink:href="#DejaVuSans-30" x="127.246094"/>
      </g>
     </g>
    </g>
    <g id="xtick_4">
     <g id="line2d_7">
      <path d="M 195.883308 307.584 
L 195.883308 41.472 
" clip-path="url(#pc8a0705fd3)" style="fill: none; stroke: #b0b0b0; stroke-width: 0.8; stroke-linecap: square"/>
     </g>
     <g id="line2d_8">
      <g>
       <use xlink:href="#m095a3c33de" x="195.883308" y="307.584" style="stroke: #000000; stroke-width: 0.8"/>
      </g>
     </g>
     <g id="text_4">
      <!-- 150 -->
      <g transform="translate(186.339558 322.182437) scale(0.1 -0.1)">
       <use xlink:href="#DejaVuSans-31"/>
       <use xlink:href="#DejaVuSans-35" x="63.623047"/>
       <use xlink:href="#DejaVuSans-30" x="127.246094"/>
      </g>
     </g>
    </g>
    <g id="xtick_5">
     <g id="line2d_9">
      <path d="M 236.566835 307.584 
L 236.566835 41.472 
" clip-path="url(#pc8a0705fd3)" style="fill: none; stroke: #b0b0b0; stroke-width: 0.8; stroke-linecap: square"/>
     </g>
     <g id="line2d_10">
      <g>
       <use xlink:href="#m095a3c33de" x="236.566835" y="307.584" style="stroke: #000000; stroke-width: 0.8"/>
      </g>
     </g>
     <g id="text_5">
      <!-- 200 -->
      <g transform="translate(227.023085 322.182437) scale(0.1 -0.1)">
       <defs>
        <path id="DejaVuSans-32" d="M 1228 531 
L 3431 531 
L 3431 0 
L 469 0 
L 469 531 
Q 828 903 1448 1529 
Q 2069 2156 2228 2338 
Q 2531 2678 2651 2914 
Q 2772 3150 2772 3378 
Q 2772 3750 2511 3984 
Q 2250 4219 1831 4219 
Q 1534 4219 1204 4116 
Q 875 4013 500 3803 
L 500 4441 
Q 881 4594 1212 4672 
Q 1544 4750 1819 4750 
Q 2544 4750 2975 4387 
Q 3406 4025 3406 3419 
Q 3406 3131 3298 2873 
Q 3191 2616 2906 2266 
Q 2828 2175 2409 1742 
Q 1991 1309 1228 531 
z
" transform="scale(0.015625)"/>
       </defs>
       <use xlink:href="#DejaVuSans-32"/>
       <use xlink:href="#DejaVuSans-30" x="63.623047"/>
       <use xlink:href="#DejaVuSans-30" x="127.246094"/>
      </g>
     </g>
    </g>
    <g id="xtick_6">
     <g id="line2d_11">
      <path d="M 277.250362 307.584 
L 277.250362 41.472 
" clip-path="url(#pc8a0705fd3)" style="fill: none; stroke: #b0b0b0; stroke-width: 0.8; stroke-linecap: square"/>
     </g>
     <g id="line2d_12">
      <g>
       <use xlink:href="#m095a3c33de" x="277.250362" y="307.584" style="stroke: #000000; stroke-width: 0.8"/>
      </g>
     </g>
     <g id="text_6">
      <!-- 250 -->
      <g transform="translate(267.706612 322.182437) scale(0.1 -0.1)">
       <use xlink:href="#DejaVuSans-32"/>
       <use xlink:href="#DejaVuSans-35" x="63.623047"/>
       <use xlink:href="#DejaVuSans-30" x="127.246094"/>
      </g>
     </g>
    </g>
    <g id="xtick_7">
     <g id="line2d_13">
      <path d="M 317.933889 307.584 
L 317.933889 41.472 
" clip-path="url(#pc8a0705fd3)" style="fill: none; stroke: #b0b0b0; stroke-width: 0.8; stroke-linecap: square"/>
     </g>
     <g id="line2d_14">
      <g>
       <use xlink:href="#m095a3c33de" x="317.933889" y="307.584" style="stroke: #000000; stroke-width: 0.8"/>
      </g>
     </g>
     <g id="text_7">
      <!-- 300 -->
      <g transform="translate(308.390139 322.182437) scale(0.1 -0.1)">
       <defs>
        <path id="DejaVuSans-33" d="M 2597 2516 
Q 3050 2419 3304 2112 
Q 3559 1806 3559 1356 
Q 3559 666 3084 287 
Q 2609 -91 1734 -91 
Q 1441 -91 1130 -33 
Q 819 25 488 141 
L 488 750 
Q 750 597 1062 519 
Q 1375 441 1716 441 
Q 2309 441 2620 675 
Q 2931 909 2931 1356 
Q 2931 1769 2642 2001 
Q 2353 2234 1838 2234 
L 1294 2234 
L 1294 2753 
L 1863 2753 
Q 2328 2753 2575 2939 
Q 2822 3125 2822 3475 
Q 2822 3834 2567 4026 
Q 2313 4219 1838 4219 
Q 1578 4219 1281 4162 
Q 984 4106 628 3988 
L 628 4550 
Q 988 4650 1302 4700 
Q 1616 4750 1894 4750 
Q 2613 4750 3031 4423 
Q 3450 4097 3450 3541 
Q 3450 3153 3228 2886 
Q 3006 2619 2597 2516 
z
" transform="scale(0.015625)"/>
       </defs>
       <use xlink:href="#DejaVuSans-33"/>
       <use xlink:href="#DejaVuSans-30" x="63.623047"/>
       <use xlink:href="#DejaVuSans-30" x="127.246094"/>
      </g>
     </g>
    </g>
    <g id="xtick_8">
     <g id="line2d_15">
      <path d="M 358.617416 307.584 
L 358.617416 41.472 
" clip-path="url(#pc8a0705fd3)" style="fill: none; stroke: #b0b0b0; stroke-width: 0.8; stroke-linecap: square"/>
     </g>
     <g id="line2d_16">
      <g>
       <use xlink:href="#m095a3c33de" x="358.617416" y="307.584" style="stroke: #000000; stroke-width: 0.8"/>
      </g>
     </g>
     <g id="text_8">
      <!-- 350 -->
      <g transform="translate(349.073666 322.182437) scale(0.1 -0.1)">
       <use xlink:href="#DejaVuSans-33"/>
       <use xlink:href="#DejaVuSans-35" x="63.623047"/>
       <use xlink:href="#DejaVuSans-30" x="127.246094"/>
      </g>
     </g>
    </g>
    <g id="xtick_9">
     <g id="line2d_17">
      <path d="M 399.300943 307.584 
L 399.300943 41.472 
" clip-path="url(#pc8a0705fd3)" style="fill: none; stroke: #b0b0b0; stroke-width: 0.8; stroke-linecap: square"/>
     </g>
     <g id="line2d_18">
      <g>
       <use xlink:href="#m095a3c33de" x="399.300943" y="307.584" style="stroke: #000000; stroke-width: 0.8"/>
      </g>
     </g>
     <g id="text_9">
      <!-- 400 -->
      <g transform="translate(389.757193 322.182437) scale(0.1 -0.1)">
       <defs>
        <path id="DejaVuSans-34" d="M 2419 4116 
L 825 1625 
L 2419 1625 
L 2419 4116 
z
M 2253 4666 
L 3047 4666 
L 3047 1625 
L 3713 1625 
L 3713 1100 
L 3047 1100 
L 3047 0 
L 2419 0 
L 2419 1100 
L 313 1100 
L 313 1709 
L 2253 4666 
z
" transform="scale(0.015625)"/>
       </defs>
       <use xlink:href="#DejaVuSans-34"/>
       <use xlink:href="#DejaVuSans-30" x="63.623047"/>
       <use xlink:href="#DejaVuSans-30" x="127.246094"/>
      </g>
     </g>
    </g>
    <g id="text_10">
     <!-- Generations -->
     <g transform="translate(205.662344 335.860562) scale(0.1 -0.1)">
      <defs>
       <path id="DejaVuSans-47" d="M 3809 666 
L 3809 1919 
L 2778 1919 
L 2778 2438 
L 4434 2438 
L 4434 434 
Q 4069 175 3628 42 
Q 3188 -91 2688 -91 
Q 1594 -91 976 548 
Q 359 1188 359 2328 
Q 359 3472 976 4111 
Q 1594 4750 2688 4750 
Q 3144 4750 3555 4637 
Q 3966 4525 4313 4306 
L 4313 3634 
Q 3963 3931 3569 4081 
Q 3175 4231 2741 4231 
Q 1884 4231 1454 3753 
Q 1025 3275 1025 2328 
Q 1025 1384 1454 906 
Q 1884 428 2741 428 
Q 3075 428 3337 486 
Q 3600 544 3809 666 
z
" transform="scale(0.015625)"/>
       <path id="DejaVuSans-65" d="M 3597 1894 
L 3597 1613 
L 953 1613 
Q 991 1019 1311 708 
Q 1631 397 2203 397 
Q 2534 397 2845 478 
Q 3156 559 3463 722 
L 3463 178 
Q 3153 47 2828 -22 
Q 2503 -91 2169 -91 
Q 1331 -91 842 396 
Q 353 884 353 1716 
Q 353 2575 817 3079 
Q 1281 3584 2069 3584 
Q 2775 3584 3186 3129 
Q 3597 2675 3597 1894 
z
M 3022 2063 
Q 3016 2534 2758 2815 
Q 2500 3097 2075 3097 
Q 1594 3097 1305 2825 
Q 1016 2553 972 2059 
L 3022 2063 
z
" transform="scale(0.015625)"/>
       <path id="DejaVuSans-6e" d="M 3513 2113 
L 3513 0 
L 2938 0 
L 2938 2094 
Q 2938 2591 2744 2837 
Q 2550 3084 2163 3084 
Q 1697 3084 1428 2787 
Q 1159 2491 1159 1978 
L 1159 0 
L 581 0 
L 581 3500 
L 1159 3500 
L 1159 2956 
Q 1366 3272 1645 3428 
Q 1925 3584 2291 3584 
Q 2894 3584 3203 3211 
Q 3513 2838 3513 2113 
z
" transform="scale(0.015625)"/>
       <path id="DejaVuSans-72" d="M 2631 2963 
Q 2534 3019 2420 3045 
Q 2306 3072 2169 3072 
Q 1681 3072 1420 2755 
Q 1159 2438 1159 1844 
L 1159 0 
L 581 0 
L 581 3500 
L 1159 3500 
L 1159 2956 
Q 1341 3275 1631 3429 
Q 1922 3584 2338 3584 
Q 2397 3584 2469 3576 
Q 2541 3569 2628 3553 
L 2631 2963 
z
" transform="scale(0.015625)"/>
       <path id="DejaVuSans-61" d="M 2194 1759 
Q 1497 1759 1228 1600 
Q 959 1441 959 1056 
Q 959 750 1161 570 
Q 1363 391 1709 391 
Q 2188 391 2477 730 
Q 2766 1069 2766 1631 
L 2766 1759 
L 2194 1759 
z
M 3341 1997 
L 3341 0 
L 2766 0 
L 2766 531 
Q 2569 213 2275 61 
Q 1981 -91 1556 -91 
Q 1019 -91 701 211 
Q 384 513 384 1019 
Q 384 1609 779 1909 
Q 1175 2209 1959 2209 
L 2766 2209 
L 2766 2266 
Q 2766 2663 2505 2880 
Q 2244 3097 1772 3097 
Q 1472 3097 1187 3025 
Q 903 2953 641 2809 
L 641 3341 
Q 956 3463 1253 3523 
Q 1550 3584 1831 3584 
Q 2591 3584 2966 3190 
Q 3341 2797 3341 1997 
z
" transform="scale(0.015625)"/>
       <path id="DejaVuSans-74" d="M 1172 4494 
L 1172 3500 
L 2356 3500 
L 2356 3053 
L 1172 3053 
L 1172 1153 
Q 1172 725 1289 603 
Q 1406 481 1766 481 
L 2356 481 
L 2356 0 
L 1766 0 
Q 1100 0 847 248 
Q 594 497 594 1153 
L 594 3053 
L 172 3053 
L 172 3500 
L 594 3500 
L 594 4494 
L 1172 4494 
z
" transform="scale(0.015625)"/>
       <path id="DejaVuSans-69" d="M 603 3500 
L 1178 3500 
L 1178 0 
L 603 0 
L 603 3500 
z
M 603 4863 
L 1178 4863 
L 1178 4134 
L 603 4134 
L 603 4863 
z
" transform="scale(0.015625)"/>
       <path id="DejaVuSans-6f" d="M 1959 3097 
Q 1497 3097 1228 2736 
Q 959 2375 959 1747 
Q 959 1119 1226 758 
Q 1494 397 1959 397 
Q 2419 397 2687 759 
Q 2956 1122 2956 1747 
Q 2956 2369 2687 2733 
Q 2419 3097 1959 3097 
z
M 1959 3584 
Q 2709 3584 3137 3096 
Q 3566 2609 3566 1747 
Q 3566 888 3137 398 
Q 2709 -91 1959 -91 
Q 1206 -91 779 398 
Q 353 888 353 1747 
Q 353 2609 779 3096 
Q 1206 3584 1959 3584 
z
" transform="scale(0.015625)"/>
       <path id="DejaVuSans-73" d="M 2834 3397 
L 2834 2853 
Q 2591 2978 2328 3040 
Q 2066 3103 1784 3103 
Q 1356 3103 1142 2972 
Q 928 2841 928 2578 
Q 928 2378 1081 2264 
Q 1234 2150 1697 2047 
L 1894 2003 
Q 2506 1872 2764 1633 
Q 3022 1394 3022 966 
Q 3022 478 2636 193 
Q 2250 -91 1575 -91 
Q 1294 -91 989 -36 
Q 684 19 347 128 
L 347 722 
Q 666 556 975 473 
Q 1284 391 1588 391 
Q 1994 391 2212 530 
Q 2431 669 2431 922 
Q 2431 1156 2273 1281 
Q 2116 1406 1581 1522 
L 1381 1569 
Q 847 1681 609 1914 
Q 372 2147 372 2553 
Q 372 3047 722 3315 
Q 1072 3584 1716 3584 
Q 2034 3584 2315 3537 
Q 2597 3491 2834 3397 
z
" transform="scale(0.015625)"/>
      </defs>
      <use xlink:href="#DejaVuSans-47"/>
      <use xlink:href="#DejaVuSans-65" x="77.490234"/>
      <use xlink:href="#DejaVuSans-6e" x="139.013672"/>
      <use xlink:href="#DejaVuSans-65" x="202.392578"/>
      <use xlink:href="#DejaVuSans-72" x="263.916016"/>
      <use xlink:href="#DejaVuSans-61" x="305.029297"/>
      <use xlink:href="#DejaVuSans-74" x="366.308594"/>
      <use xlink:href="#DejaVuSans-69" x="405.517578"/>
      <use xlink:href="#DejaVuSans-6f" x="433.300781"/>
      <use xlink:href="#DejaVuSans-6e" x="494.482422"/>
      <use xlink:href="#DejaVuSans-73" x="557.861328"/>
     </g>
    </g>
   </g>
   <g id="matplotlib.axis_2">
    <g id="ytick_1">
     <g id="line2d_19">
      <path d="M 57.6 271.452314 
L 414.72 271.452314 
" clip-path="url(#pc8a0705fd3)" style="fill: none; stroke: #b0b0b0; stroke-width: 0.8; stroke-linecap: square"/>
     </g>
     <g id="line2d_20">
      <defs>
       <path id="ma64d3ae7d7" d="M 0 0 
L -3.5 0 
" style="stroke: #000000; stroke-width: 0.8"/>
      </defs>
      <g>
       <use xlink:href="#ma64d3ae7d7" x="57.6" y="271.452314" style="stroke: #000000; stroke-width: 0.8"/>
      </g>
     </g>
     <g id="text_11">
      <!-- 0 -->
      <g transform="translate(44.2375 275.251533) scale(0.1 -0.1)">
       <use xlink:href="#DejaVuSans-30"/>
      </g>
     </g>
    </g>
    <g id="ytick_2">
     <g id="line2d_21">
      <path d="M 57.6 227.238777 
L 414.72 227.238777 
" clip-path="url(#pc8a0705fd3)" style="fill: none; stroke: #b0b0b0; stroke-width: 0.8; stroke-linecap: square"/>
     </g>
     <g id="line2d_22">
      <g>
       <use xlink:href="#ma64d3ae7d7" x="57.6" y="227.238777" style="stroke: #000000; stroke-width: 0.8"/>
      </g>
     </g>
     <g id="text_12">
      <!-- 500 -->
      <g transform="translate(31.5125 231.037996) scale(0.1 -0.1)">
       <use xlink:href="#DejaVuSans-35"/>
       <use xlink:href="#DejaVuSans-30" x="63.623047"/>
       <use xlink:href="#DejaVuSans-30" x="127.246094"/>
      </g>
     </g>
    </g>
    <g id="ytick_3">
     <g id="line2d_23">
      <path d="M 57.6 183.02524 
L 414.72 183.02524 
" clip-path="url(#pc8a0705fd3)" style="fill: none; stroke: #b0b0b0; stroke-width: 0.8; stroke-linecap: square"/>
     </g>
     <g id="line2d_24">
      <g>
       <use xlink:href="#ma64d3ae7d7" x="57.6" y="183.02524" style="stroke: #000000; stroke-width: 0.8"/>
      </g>
     </g>
     <g id="text_13">
      <!-- 1000 -->
      <g transform="translate(25.15 186.824459) scale(0.1 -0.1)">
       <use xlink:href="#DejaVuSans-31"/>
       <use xlink:href="#DejaVuSans-30" x="63.623047"/>
       <use xlink:href="#DejaVuSans-30" x="127.246094"/>
       <use xlink:href="#DejaVuSans-30" x="190.869141"/>
      </g>
     </g>
    </g>
    <g id="ytick_4">
     <g id="line2d_25">
      <path d="M 57.6 138.811703 
L 414.72 138.811703 
" clip-path="url(#pc8a0705fd3)" style="fill: none; stroke: #b0b0b0; stroke-width: 0.8; stroke-linecap: square"/>
     </g>
     <g id="line2d_26">
      <g>
       <use xlink:href="#ma64d3ae7d7" x="57.6" y="138.811703" style="stroke: #000000; stroke-width: 0.8"/>
      </g>
     </g>
     <g id="text_14">
      <!-- 1500 -->
      <g transform="translate(25.15 142.610922) scale(0.1 -0.1)">
       <use xlink:href="#DejaVuSans-31"/>
       <use xlink:href="#DejaVuSans-35" x="63.623047"/>
       <use xlink:href="#DejaVuSans-30" x="127.246094"/>
       <use xlink:href="#DejaVuSans-30" x="190.869141"/>
      </g>
     </g>
    </g>
    <g id="ytick_5">
     <g id="line2d_27">
      <path d="M 57.6 94.598166 
L 414.72 94.598166 
" clip-path="url(#pc8a0705fd3)" style="fill: none; stroke: #b0b0b0; stroke-width: 0.8; stroke-linecap: square"/>
     </g>
     <g id="line2d_28">
      <g>
       <use xlink:href="#ma64d3ae7d7" x="57.6" y="94.598166" style="stroke: #000000; stroke-width: 0.8"/>
      </g>
     </g>
     <g id="text_15">
      <!-- 2000 -->
      <g transform="translate(25.15 98.397385) scale(0.1 -0.1)">
       <use xlink:href="#DejaVuSans-32"/>
       <use xlink:href="#DejaVuSans-30" x="63.623047"/>
       <use xlink:href="#DejaVuSans-30" x="127.246094"/>
       <use xlink:href="#DejaVuSans-30" x="190.869141"/>
      </g>
     </g>
    </g>
    <g id="ytick_6">
     <g id="line2d_29">
      <path d="M 57.6 50.384629 
L 414.72 50.384629 
" clip-path="url(#pc8a0705fd3)" style="fill: none; stroke: #b0b0b0; stroke-width: 0.8; stroke-linecap: square"/>
     </g>
     <g id="line2d_30">
      <g>
       <use xlink:href="#ma64d3ae7d7" x="57.6" y="50.384629" style="stroke: #000000; stroke-width: 0.8"/>
      </g>
     </g>
     <g id="text_16">
      <!-- 2500 -->
      <g transform="translate(25.15 54.183848) scale(0.1 -0.1)">
       <use xlink:href="#DejaVuSans-32"/>
       <use xlink:href="#DejaVuSans-35" x="63.623047"/>
       <use xlink:href="#DejaVuSans-30" x="127.246094"/>
       <use xlink:href="#DejaVuSans-30" x="190.869141"/>
      </g>
     </g>
    </g>
    <g id="text_17">
     <!-- Fitness -->
     <g transform="translate(19.070312 191.845187) rotate(-90) scale(0.1 -0.1)">
      <defs>
       <path id="DejaVuSans-46" d="M 628 4666 
L 3309 4666 
L 3309 4134 
L 1259 4134 
L 1259 2759 
L 3109 2759 
L 3109 2228 
L 1259 2228 
L 1259 0 
L 628 0 
L 628 4666 
z
" transform="scale(0.015625)"/>
      </defs>
      <use xlink:href="#DejaVuSans-46"/>
      <use xlink:href="#DejaVuSans-69" x="50.269531"/>
      <use xlink:href="#DejaVuSans-74" x="78.052734"/>
      <use xlink:href="#DejaVuSans-6e" x="117.261719"/>
      <use xlink:href="#DejaVuSans-65" x="180.640625"/>
      <use xlink:href="#DejaVuSans-73" x="242.164062"/>
      <use xlink:href="#DejaVuSans-73" x="294.263672"/>
     </g>
    </g>
   </g>
   <g id="line2d_31">
    <path d="M 73.832727 271.452314 
L 75.460068 271.225754 
L 76.273739 270.508903 
L 77.087409 269.221001 
L 77.90108 269.526365 
L 78.714751 270.859313 
L 79.528421 268.820751 
L 80.342092 269.596086 
L 81.155762 270.129396 
L 81.969433 268.333695 
L 82.783103 268.185588 
L 83.596774 268.779118 
L 84.410444 269.644255 
L 85.224115 268.546669 
L 86.037785 270.54176 
L 86.851456 268.519234 
L 88.478797 268.246706 
L 89.292468 269.356872 
L 90.106138 270.122241 
L 90.919809 268.190524 
L 91.733479 267.990788 
L 92.54715 264.797285 
L 93.36082 264.045328 
L 94.174491 258.068651 
L 94.988161 255.992386 
L 95.801832 256.276189 
L 96.615502 260.914599 
L 97.429173 258.848236 
L 98.242843 259.520973 
L 99.056514 251.489515 
L 99.870185 257.113222 
L 100.683855 254.26976 
L 101.497526 252.323754 
L 103.124867 251.733599 
L 103.938537 251.360021 
L 104.752208 257.109855 
L 105.565878 251.828452 
L 106.379549 255.130027 
L 107.193219 251.968339 
L 108.00689 249.971377 
L 108.82056 252.694348 
L 109.634231 251.614336 
L 110.447902 254.23887 
L 111.261572 251.210684 
L 112.075243 251.313903 
L 112.888913 251.869218 
L 113.702584 251.606662 
L 114.516254 252.717608 
L 115.329925 254.968721 
L 116.143595 251.960623 
L 116.957266 252.792092 
L 117.770936 252.092391 
L 118.584607 250.675244 
L 119.398278 251.778011 
L 120.211948 253.487561 
L 121.025619 252.336434 
L 121.839289 251.841454 
L 122.65296 252.870088 
L 123.46663 252.21083 
L 124.280301 250.149595 
L 125.093971 252.691467 
L 125.907642 253.517728 
L 126.721312 251.230748 
L 127.534983 251.301882 
L 128.348653 250.32316 
L 129.162324 252.716831 
L 129.975995 251.451309 
L 130.789665 251.600544 
L 131.603336 255.59824 
L 132.417006 250.16236 
L 133.230677 249.575261 
L 134.044347 252.139543 
L 134.858018 253.250219 
L 135.671688 252.970838 
L 136.485359 251.391447 
L 137.299029 252.591453 
L 138.1127 251.215791 
L 138.92637 252.637449 
L 139.740041 251.470586 
L 140.553712 251.756191 
L 141.367382 250.983902 
L 142.181053 251.342125 
L 142.994723 251.446849 
L 143.808394 252.581561 
L 144.622064 258.127441 
L 145.435735 254.041559 
L 146.249405 253.061656 
L 147.063076 252.382243 
L 147.876746 252.957082 
L 149.504087 250.663003 
L 150.317758 252.876936 
L 151.131429 251.888167 
L 151.945099 252.386787 
L 152.75877 252.124095 
L 153.57244 251.417994 
L 154.386111 251.63076 
L 155.199781 254.034566 
L 156.013452 251.49725 
L 156.827122 253.638816 
L 157.640793 252.61334 
L 158.454463 253.116834 
L 159.268134 251.093071 
L 160.081805 250.377835 
L 160.895475 253.04678 
L 161.709146 252.741703 
L 162.522816 253.396268 
L 163.336487 251.284444 
L 164.150157 251.276804 
L 164.963828 251.442219 
L 165.777498 251.334198 
L 166.591169 253.160667 
L 167.404839 252.890867 
L 168.21851 253.332762 
L 169.03218 252.159287 
L 169.845851 252.255251 
L 170.659522 250.701216 
L 171.473192 250.712596 
L 172.286863 249.671563 
L 173.100533 251.011681 
L 173.914204 253.702014 
L 174.727874 252.846403 
L 175.541545 254.7799 
L 176.355215 251.369126 
L 177.168886 250.122497 
L 177.982556 251.496601 
L 178.796227 250.083821 
L 179.609897 249.718588 
L 180.423568 251.314702 
L 181.237239 253.48489 
L 182.050909 250.959734 
L 182.86458 252.932067 
L 183.67825 252.427492 
L 184.491921 254.053777 
L 185.305591 250.48794 
L 186.119262 252.030167 
L 186.932932 252.742365 
L 187.746603 252.219326 
L 188.560273 251.31985 
L 189.373944 254.176123 
L 190.187614 252.297392 
L 191.001285 253.672526 
L 192.628626 253.594003 
L 193.442297 250.617465 
L 194.255967 250.964522 
L 195.069638 253.50932 
L 195.883308 251.475953 
L 196.696979 252.893535 
L 197.510649 251.928218 
L 198.32432 249.771309 
L 199.13799 250.329231 
L 199.951661 250.553502 
L 200.765332 250.578743 
L 201.579002 252.725526 
L 202.392673 250.642825 
L 203.206343 253.835793 
L 204.020014 255.666239 
L 204.833684 252.330767 
L 205.647355 252.690234 
L 206.461025 252.446191 
L 207.274696 253.86472 
L 208.088366 252.354354 
L 208.902037 253.591246 
L 209.715707 249.596138 
L 211.343049 255.25091 
L 212.156719 252.626123 
L 212.97039 252.92538 
L 213.78406 253.701167 
L 214.597731 251.653972 
L 215.411401 251.774532 
L 216.225072 254.083668 
L 217.038742 250.923609 
L 217.852413 253.660798 
L 218.666083 252.301651 
L 219.479754 252.049619 
L 220.293424 253.155515 
L 221.107095 251.366651 
L 221.920766 252.965694 
L 222.734436 250.24252 
L 223.548107 254.878343 
L 224.361777 251.210675 
L 225.175448 250.625842 
L 225.989118 250.319982 
L 226.802789 251.368736 
L 227.616459 253.160727 
L 228.43013 252.32269 
L 229.2438 250.545751 
L 230.057471 252.683478 
L 230.871141 250.817035 
L 231.684812 252.71917 
L 232.498483 252.810132 
L 233.312153 252.649927 
L 234.125824 254.434148 
L 234.939494 251.98933 
L 235.753165 255.731545 
L 237.380506 252.068143 
L 238.194176 253.93897 
L 239.007847 252.302926 
L 239.821517 250.983941 
L 240.635188 251.883937 
L 241.448859 252.506706 
L 242.262529 251.909682 
L 243.0762 252.006996 
L 243.88987 254.449342 
L 245.517211 250.051466 
L 246.330882 252.379129 
L 247.144552 253.936808 
L 247.958223 253.229786 
L 249.585564 253.592493 
L 250.399234 251.795375 
L 251.212905 250.701668 
L 252.026576 251.918843 
L 252.840246 250.993713 
L 253.653917 251.754773 
L 255.281258 251.895855 
L 256.094928 253.515243 
L 256.908599 250.278181 
L 257.722269 254.038763 
L 258.53594 253.228548 
L 259.34961 255.381152 
L 260.163281 251.620552 
L 260.976951 252.959402 
L 261.790622 250.678939 
L 262.604293 253.72818 
L 263.417963 251.082451 
L 265.045304 253.494942 
L 265.858975 253.130018 
L 266.672645 252.036695 
L 267.486316 253.305707 
L 268.299986 253.860313 
L 269.113657 253.414933 
L 269.927327 251.199105 
L 270.740998 250.598044 
L 271.554668 249.343737 
L 273.18201 255.072023 
L 273.99568 251.992877 
L 274.809351 252.46251 
L 275.623021 253.547124 
L 276.436692 255.495598 
L 277.250362 252.490577 
L 278.064033 250.638999 
L 278.877703 250.306716 
L 279.691374 253.746559 
L 280.505044 250.527264 
L 282.132386 254.669791 
L 282.946056 252.261058 
L 283.759727 252.267898 
L 284.573397 253.689588 
L 285.387068 252.531196 
L 286.200738 251.650958 
L 287.014409 252.367794 
L 288.64175 250.740539 
L 289.45542 252.845871 
L 290.269091 251.207475 
L 291.082761 252.635763 
L 291.896432 255.089553 
L 292.710103 254.135588 
L 293.523773 252.079015 
L 294.337444 253.366285 
L 295.151114 251.430188 
L 295.964785 251.783524 
L 296.778455 249.4667 
L 297.592126 252.4438 
L 298.405796 257.019848 
L 299.219467 251.177274 
L 300.033137 251.47748 
L 300.846808 254.396734 
L 301.660478 254.452867 
L 302.474149 252.564744 
L 303.28782 251.88945 
L 304.10149 253.634484 
L 304.915161 252.232431 
L 305.728831 250.471026 
L 306.542502 252.558096 
L 307.356172 251.076565 
L 308.169843 254.913397 
L 308.983513 251.915871 
L 309.797184 255.457251 
L 310.610854 252.228961 
L 311.424525 252.26269 
L 312.238195 253.927763 
L 313.051866 253.565577 
L 313.865537 251.918592 
L 314.679207 255.168279 
L 315.492878 253.788052 
L 316.306548 251.215928 
L 317.120219 250.713748 
L 317.933889 253.709141 
L 318.74756 252.641769 
L 319.56123 253.738341 
L 320.374901 254.032172 
L 321.188571 251.618439 
L 322.002242 252.721623 
L 322.815913 253.543695 
L 323.629583 251.645561 
L 324.443254 253.785444 
L 325.256924 251.161255 
L 326.070595 252.037302 
L 326.884265 252.274676 
L 327.697936 251.832031 
L 328.511606 250.850454 
L 329.325277 251.216095 
L 330.138947 252.931629 
L 330.952618 252.071942 
L 331.766288 250.644735 
L 332.579959 252.917439 
L 333.39363 251.55773 
L 334.2073 250.797546 
L 335.020971 251.714034 
L 335.834641 251.17324 
L 336.648312 252.461901 
L 337.461982 253.252486 
L 338.275653 251.147765 
L 339.089323 253.686654 
L 339.902994 254.288551 
L 340.716664 252.035429 
L 341.530335 253.440286 
L 342.344005 252.146091 
L 343.157676 252.980671 
L 343.971347 254.141799 
L 344.785017 254.414416 
L 345.598688 251.673101 
L 346.412358 251.798574 
L 347.226029 251.017739 
L 348.039699 250.808588 
L 348.85337 253.129565 
L 349.66704 252.437862 
L 350.480711 252.8263 
L 351.294381 252.486191 
L 352.108052 250.869759 
L 352.921722 252.252854 
L 353.735393 251.933754 
L 354.549064 252.666107 
L 355.362734 254.426446 
L 356.176405 251.609118 
L 356.990075 251.279492 
L 357.803746 252.11193 
L 358.617416 251.518154 
L 359.431087 252.065874 
L 360.244757 254.207137 
L 361.058428 253.47972 
L 361.872098 252.314873 
L 362.685769 250.192317 
L 363.49944 251.162386 
L 364.31311 252.699057 
L 365.126781 252.562098 
L 365.940451 252.979107 
L 366.754122 249.876473 
L 367.567792 252.403737 
L 368.381463 251.835455 
L 369.195133 250.153337 
L 370.008804 250.605401 
L 370.822474 253.070995 
L 371.636145 254.350987 
L 372.449815 252.270619 
L 373.263486 252.817741 
L 374.077157 252.294724 
L 374.890827 253.75372 
L 375.704498 251.007008 
L 376.518168 252.412747 
L 377.331839 254.253615 
L 378.145509 252.932153 
L 378.95918 252.948142 
L 379.77285 254.010797 
L 380.586521 252.667629 
L 381.400191 252.069384 
L 382.213862 251.60916 
L 383.027532 254.924888 
L 383.841203 252.737175 
L 384.654874 253.121671 
L 385.468544 251.05837 
L 386.282215 252.25023 
L 387.095885 250.951838 
L 387.909556 251.770621 
L 388.723226 250.891667 
L 389.536897 252.976214 
L 390.350567 253.334551 
L 391.164238 252.011795 
L 391.977908 253.018571 
L 392.791579 251.522607 
L 393.605249 252.256292 
L 394.41892 250.46036 
L 395.232591 252.993832 
L 396.046261 250.511045 
L 396.859932 255.159554 
L 397.673602 253.482225 
L 398.487273 251.466842 
L 398.487273 251.466842 
" clip-path="url(#pc8a0705fd3)" style="fill: none; stroke: #0000ff; stroke-width: 1.5; stroke-linecap: square"/>
   </g>
   <g id="line2d_32">
    <path d="M 73.832727 271.452314 
L 74.646398 272.131434 
L 75.460068 272.33567 
L 77.087409 276.073995 
L 77.90108 274.468178 
L 78.714751 274.22728 
L 79.528421 276.252471 
L 80.342092 275.248154 
L 81.155762 272.636919 
L 81.969433 277.007464 
L 82.783103 277.278028 
L 83.596774 274.521078 
L 84.410444 273.642618 
L 85.224115 276.410235 
L 86.037785 272.628258 
L 86.851456 275.146654 
L 87.665126 275.007933 
L 88.478797 277.255891 
L 89.292468 273.579208 
L 90.106138 272.83451 
L 90.919809 279.96957 
L 91.733479 284.14373 
L 92.54715 289.048542 
L 93.36082 282.775002 
L 94.174491 285.874086 
L 94.988161 291.69131 
L 95.801832 292.259586 
L 96.615502 288.193507 
L 97.429173 288.71783 
L 98.242843 289.56543 
L 99.056514 290.095233 
L 99.870185 286.602099 
L 100.683855 280.822566 
L 101.497526 290.040174 
L 102.311196 290.036589 
L 103.124867 284.996804 
L 103.938537 285.280613 
L 104.752208 289.080067 
L 105.565878 290.416934 
L 106.379549 288.432547 
L 107.193219 284.060912 
L 108.00689 277.361201 
L 108.82056 281.55338 
L 109.634231 278.233726 
L 112.075243 282.570826 
L 112.888913 281.238873 
L 113.702584 282.636231 
L 114.516254 277.740782 
L 115.329925 281.871551 
L 116.143595 285.29381 
L 116.957266 282.715113 
L 117.770936 281.404117 
L 118.584607 282.562387 
L 119.398278 279.112639 
L 120.211948 278.433611 
L 121.025619 279.248551 
L 121.839289 279.858762 
L 122.65296 275.347695 
L 123.46663 277.170816 
L 124.280301 281.289412 
L 125.093971 281.800236 
L 125.907642 286.847339 
L 126.721312 286.592115 
L 127.534983 280.227379 
L 128.348653 280.654786 
L 129.162324 283.622839 
L 129.975995 280.82702 
L 130.789665 275.615219 
L 131.603336 276.880477 
L 132.417006 279.015184 
L 133.230677 285.159395 
L 134.044347 279.568343 
L 134.858018 276.216591 
L 135.671688 280.436808 
L 136.485359 279.133638 
L 137.299029 280.672099 
L 138.1127 284.072068 
L 138.92637 281.155541 
L 139.740041 283.287658 
L 140.553712 285.020683 
L 141.367382 277.408814 
L 142.181053 277.310267 
L 142.994723 277.805578 
L 143.808394 274.970989 
L 144.622064 279.98238 
L 145.435735 278.688965 
L 146.249405 285.008361 
L 147.063076 281.338475 
L 147.876746 278.337818 
L 148.690417 278.356382 
L 149.504087 281.536765 
L 150.317758 285.405164 
L 151.131429 275.890951 
L 151.945099 280.860377 
L 152.75877 276.416698 
L 153.57244 274.303005 
L 154.386111 277.032927 
L 155.199781 274.656107 
L 156.013452 276.927321 
L 156.827122 283.792482 
L 157.640793 282.017867 
L 158.454463 286.21595 
L 159.268134 292.181942 
L 160.081805 285.53905 
L 160.895475 276.963339 
L 161.709146 278.353279 
L 162.522816 275.747626 
L 163.336487 282.263954 
L 164.150157 277.027809 
L 164.963828 286.084071 
L 166.591169 279.244321 
L 167.404839 285.164948 
L 168.21851 284.277469 
L 169.03218 283.761481 
L 169.845851 283.676762 
L 170.659522 278.422804 
L 172.286863 281.732905 
L 173.100533 288.163056 
L 173.914204 276.517226 
L 175.541545 288.592425 
L 176.355215 285.777341 
L 177.168886 295.488 
L 177.982556 288.388218 
L 178.796227 277.936804 
L 179.609897 283.247369 
L 180.423568 282.442308 
L 181.237239 279.008714 
L 182.050909 282.305901 
L 182.86458 277.725234 
L 183.67825 283.404323 
L 184.491921 277.047226 
L 185.305591 277.260799 
L 186.119262 284.517685 
L 186.932932 278.692715 
L 187.746603 279.46088 
L 188.560273 274.827476 
L 189.373944 284.650911 
L 190.187614 283.336123 
L 191.001285 278.15811 
L 191.814956 284.16245 
L 192.628626 281.646781 
L 193.442297 279.574235 
L 194.255967 276.808972 
L 195.069638 285.259252 
L 195.883308 278.488208 
L 196.696979 282.864107 
L 197.510649 279.016334 
L 198.32432 280.98596 
L 199.13799 282.073341 
L 199.951661 278.356992 
L 200.765332 281.578506 
L 201.579002 278.589307 
L 202.392673 279.451376 
L 203.206343 279.246261 
L 204.020014 281.375417 
L 205.647355 283.546813 
L 206.461025 285.461019 
L 207.274696 281.596805 
L 208.088366 283.255049 
L 208.902037 283.878593 
L 209.715707 285.431623 
L 210.529378 280.196983 
L 211.343049 278.033077 
L 212.156719 278.051843 
L 213.78406 286.334625 
L 214.597731 281.847053 
L 215.411401 287.33579 
L 216.225072 283.982787 
L 217.038742 290.755209 
L 217.852413 281.085032 
L 218.666083 276.856611 
L 219.479754 276.858659 
L 220.293424 283.856546 
L 221.107095 280.39238 
L 221.920766 278.83955 
L 222.734436 286.10381 
L 223.548107 278.499535 
L 224.361777 283.194834 
L 225.175448 277.115369 
L 225.989118 278.918015 
L 226.802789 278.581732 
L 227.616459 284.973104 
L 228.43013 278.895583 
L 229.2438 278.113328 
L 230.057471 282.872435 
L 230.871141 284.695657 
L 231.684812 272.738467 
L 232.498483 278.891257 
L 233.312153 281.712257 
L 234.125824 288.810414 
L 234.939494 287.51869 
L 235.753165 284.806133 
L 236.566835 276.371419 
L 237.380506 286.942839 
L 238.194176 278.399134 
L 239.007847 279.094002 
L 239.821517 280.220862 
L 240.635188 278.819424 
L 242.262529 282.994138 
L 243.0762 276.750324 
L 243.88987 283.526471 
L 244.703541 283.253755 
L 245.517211 288.27329 
L 246.330882 282.286226 
L 247.144552 279.280857 
L 247.958223 279.013834 
L 248.771893 278.454028 
L 249.585564 273.959175 
L 250.399234 284.876953 
L 251.212905 282.577932 
L 252.026576 282.91105 
L 253.653917 282.761298 
L 254.467587 278.638851 
L 255.281258 282.549458 
L 256.094928 275.570021 
L 256.908599 283.560121 
L 257.722269 277.830352 
L 258.53594 285.368184 
L 259.34961 278.224259 
L 260.163281 275.826 
L 260.976951 278.513673 
L 261.790622 278.007896 
L 262.604293 289.319975 
L 263.417963 274.444057 
L 264.231634 287.170268 
L 265.045304 277.88247 
L 265.858975 278.260769 
L 266.672645 275.936137 
L 267.486316 275.980975 
L 268.299986 286.897936 
L 269.113657 283.520874 
L 269.927327 274.895611 
L 270.740998 276.483502 
L 271.554668 285.861759 
L 272.368339 276.796692 
L 273.18201 282.241774 
L 273.99568 278.579517 
L 274.809351 272.490615 
L 275.623021 275.894492 
L 276.436692 281.739378 
L 277.250362 281.43398 
L 278.064033 277.264392 
L 278.877703 284.975532 
L 280.505044 277.936106 
L 281.318715 281.088481 
L 282.132386 275.365608 
L 282.946056 274.308696 
L 283.759727 277.528785 
L 284.573397 279.141372 
L 285.387068 275.567977 
L 286.200738 279.428967 
L 287.014409 277.915139 
L 287.828079 276.053103 
L 288.64175 277.970105 
L 289.45542 283.644508 
L 290.269091 273.968076 
L 291.082761 279.03164 
L 291.896432 277.881179 
L 292.710103 276.271302 
L 293.523773 276.865129 
L 295.151114 276.676548 
L 295.964785 285.840155 
L 296.778455 284.719216 
L 297.592126 279.309082 
L 298.405796 276.653989 
L 299.219467 283.942687 
L 300.033137 276.723173 
L 300.846808 280.174759 
L 301.660478 274.21498 
L 302.474149 276.889431 
L 303.28782 273.031602 
L 304.10149 276.06353 
L 304.915161 277.068809 
L 305.728831 284.41801 
L 306.542502 276.2267 
L 307.356172 278.945473 
L 308.169843 276.003957 
L 308.983513 276.589196 
L 309.797184 274.939078 
L 310.610854 286.745407 
L 311.424525 276.63188 
L 312.238195 279.6457 
L 313.051866 278.587265 
L 313.865537 283.437752 
L 314.679207 280.490489 
L 315.492878 282.791702 
L 316.306548 286.581298 
L 317.120219 281.75866 
L 317.933889 275.888752 
L 318.74756 276.920006 
L 319.56123 288.001725 
L 320.374901 280.888443 
L 321.188571 279.654607 
L 322.002242 277.506922 
L 322.815913 284.643729 
L 323.629583 279.948833 
L 324.443254 279.534088 
L 325.256924 277.805996 
L 326.070595 282.771339 
L 326.884265 283.545142 
L 327.697936 283.492148 
L 328.511606 282.661585 
L 329.325277 278.086478 
L 330.138947 274.220179 
L 330.952618 281.752459 
L 331.766288 279.50239 
L 332.579959 286.222258 
L 333.39363 280.152085 
L 334.2073 279.000044 
L 335.020971 282.86711 
L 335.834641 287.441488 
L 336.648312 278.094622 
L 337.461982 277.596927 
L 338.275653 284.163909 
L 339.089323 285.127486 
L 339.902994 282.442534 
L 340.716664 277.751508 
L 341.530335 281.289882 
L 342.344005 278.765887 
L 343.157676 279.441082 
L 343.971347 278.202626 
L 344.785017 277.360122 
L 345.598688 276.719747 
L 346.412358 284.443224 
L 347.226029 278.561225 
L 348.039699 284.231641 
L 348.85337 275.429567 
L 349.66704 281.031391 
L 350.480711 278.498592 
L 351.294381 276.524026 
L 352.108052 283.095236 
L 352.921722 281.199526 
L 353.735393 280.454177 
L 354.549064 278.811225 
L 355.362734 280.132349 
L 356.176405 278.63952 
L 356.990075 278.4675 
L 357.803746 278.566873 
L 358.617416 280.266661 
L 359.431087 282.551769 
L 360.244757 277.6506 
L 361.058428 279.446974 
L 361.872098 278.669269 
L 362.685769 280.312063 
L 363.49944 277.647849 
L 364.31311 275.97616 
L 365.126781 280.034495 
L 365.940451 277.453397 
L 366.754122 280.244576 
L 367.567792 279.912546 
L 368.381463 276.516945 
L 370.008804 281.958859 
L 370.822474 281.102154 
L 371.636145 283.863508 
L 372.449815 282.340948 
L 373.263486 274.951433 
L 374.077157 282.567532 
L 374.890827 276.853457 
L 375.704498 277.586517 
L 376.518168 277.333748 
L 377.331839 276.909077 
L 378.145509 278.09852 
L 378.95918 276.729636 
L 379.77285 276.264458 
L 380.586521 281.763885 
L 381.400191 285.384566 
L 382.213862 272.830751 
L 383.027532 283.115289 
L 383.841203 276.350992 
L 384.654874 281.982215 
L 385.468544 277.681962 
L 386.282215 277.722025 
L 387.095885 281.834996 
L 387.909556 279.160928 
L 388.723226 281.020654 
L 389.536897 279.122214 
L 390.350567 275.526389 
L 391.164238 277.009591 
L 391.977908 276.238985 
L 392.791579 277.694522 
L 393.605249 279.49687 
L 394.41892 280.999407 
L 395.232591 275.909552 
L 396.046261 282.829985 
L 397.673602 280.137333 
L 398.487273 281.419435 
L 398.487273 281.419435 
" clip-path="url(#pc8a0705fd3)" style="fill: none; stroke-dasharray: 9.6,2.4,1.5,2.4; stroke-dashoffset: 0; stroke: #008000; stroke-width: 1.5"/>
   </g>
   <g id="line2d_33">
    <path d="M 73.832727 271.452314 
L 74.646398 270.546821 
L 75.460068 270.115837 
L 76.273739 266.92329 
L 77.087409 262.368006 
L 77.90108 264.584553 
L 78.714751 267.491346 
L 79.528421 261.389031 
L 80.342092 263.944018 
L 81.155762 267.621874 
L 81.969433 259.659927 
L 82.783103 259.093147 
L 83.596774 263.037158 
L 84.410444 265.645892 
L 85.224115 260.683103 
L 86.037785 268.455262 
L 86.851456 261.891814 
L 87.665126 261.850558 
L 88.478797 259.23752 
L 89.292468 265.134537 
L 90.106138 267.409973 
L 90.919809 256.411478 
L 91.733479 251.837845 
L 92.54715 240.546027 
L 93.36082 245.315655 
L 94.174491 230.263216 
L 94.988161 220.293462 
L 95.801832 220.292793 
L 96.615502 233.635692 
L 97.429173 228.978643 
L 98.242843 229.476516 
L 99.056514 212.883798 
L 99.870185 227.624346 
L 100.683855 227.716954 
L 101.497526 214.607334 
L 102.311196 214.110172 
L 103.124867 218.470394 
L 103.938537 217.439428 
L 104.752208 225.139643 
L 105.565878 213.239969 
L 106.379549 221.827508 
L 107.193219 219.875766 
L 108.00689 222.581554 
L 109.634231 224.994947 
L 110.447902 228.764129 
L 111.261572 221.119725 
L 112.075243 220.05698 
L 112.888913 222.499562 
L 113.702584 220.577094 
L 114.516254 227.694435 
L 115.329925 228.065891 
L 116.143595 218.627436 
L 116.957266 222.869071 
L 117.770936 222.780665 
L 118.584607 218.788102 
L 119.398278 224.443382 
L 120.211948 228.541511 
L 121.025619 225.424318 
L 121.839289 223.824145 
L 122.65296 230.392481 
L 123.46663 227.250844 
L 124.280301 219.009778 
L 125.093971 223.582699 
L 125.907642 220.188116 
L 126.721312 215.86938 
L 127.534983 222.376384 
L 128.348653 219.991534 
L 129.162324 221.810822 
L 129.975995 222.075599 
L 130.789665 227.58587 
L 131.603336 234.316003 
L 132.417006 221.309535 
L 133.230677 213.991127 
L 134.044347 224.710743 
L 134.858018 230.283847 
L 135.671688 225.504868 
L 136.485359 223.649256 
L 137.299029 224.510807 
L 138.1127 218.359514 
L 138.92637 224.119356 
L 139.740041 219.653514 
L 140.553712 218.491699 
L 141.367382 224.558989 
L 142.181053 225.373983 
L 142.994723 225.088121 
L 143.808394 230.192132 
L 144.622064 236.272502 
L 145.435735 229.394153 
L 146.249405 221.11495 
L 147.063076 223.42601 
L 147.876746 227.576347 
L 148.690417 225.106784 
L 149.504087 219.78924 
L 150.317758 220.348707 
L 151.131429 227.885384 
L 151.945099 223.913198 
L 152.75877 227.831492 
L 153.57244 228.532983 
L 154.386111 226.228593 
L 155.199781 233.413025 
L 156.013452 226.067178 
L 156.827122 223.485151 
L 157.640793 223.208812 
L 158.454463 220.017717 
L 159.268134 210.004201 
L 160.081805 215.216621 
L 160.895475 229.130221 
L 161.709146 227.130128 
L 162.522816 231.04491 
L 163.336487 220.304933 
L 164.150157 225.5258 
L 164.963828 216.800368 
L 165.777498 220.152852 
L 166.591169 227.077013 
L 167.404839 220.616787 
L 168.21851 222.388055 
L 169.03218 220.557093 
L 169.845851 220.833739 
L 170.659522 222.979627 
L 171.473192 221.242366 
L 173.100533 213.860305 
L 173.914204 230.886803 
L 174.727874 222.807776 
L 175.541545 220.967376 
L 176.355215 216.960911 
L 177.168886 204.756993 
L 177.982556 214.604984 
L 178.796227 222.230838 
L 179.609897 216.189808 
L 180.423568 220.187095 
L 181.237239 227.961067 
L 182.050909 219.613567 
L 182.86458 228.1389 
L 183.67825 221.45066 
L 184.491921 231.060327 
L 185.305591 223.715081 
L 186.119262 219.542649 
L 186.932932 226.792016 
L 187.746603 224.977773 
L 188.560273 227.812224 
L 189.373944 223.701335 
L 190.187614 221.258662 
L 191.001285 229.186943 
L 191.814956 223.105259 
L 192.628626 225.541225 
L 193.442297 221.660694 
L 194.255967 225.120073 
L 195.069638 221.759389 
L 195.883308 224.463697 
L 196.696979 222.922964 
L 197.510649 224.840102 
L 198.32432 218.556658 
L 199.13799 218.585121 
L 199.951661 222.750011 
L 200.765332 219.57898 
L 201.579002 226.861746 
L 202.392673 221.834273 
L 203.206343 228.425326 
L 204.020014 229.95706 
L 204.833684 222.174462 
L 205.647355 221.833656 
L 206.461025 219.431363 
L 207.274696 226.132635 
L 208.088366 221.453658 
L 208.902037 223.303898 
L 209.715707 213.760653 
L 210.529378 224.887384 
L 211.343049 232.468743 
L 212.156719 227.200403 
L 212.97039 223.399835 
L 213.78406 221.06771 
L 214.597731 221.460891 
L 215.411401 216.213274 
L 216.225072 224.184549 
L 217.038742 211.092009 
L 217.852413 226.236564 
L 218.666083 227.74669 
L 219.479754 227.24058 
L 220.293424 222.454484 
L 221.107095 222.340922 
L 221.920766 227.091838 
L 222.734436 214.381229 
L 223.548107 231.257151 
L 224.361777 219.226517 
L 225.175448 224.136316 
L 225.989118 221.721949 
L 226.802789 224.155741 
L 227.616459 221.34835 
L 228.43013 225.749796 
L 229.2438 222.978174 
L 230.057471 222.494521 
L 230.871141 216.938412 
L 231.684812 232.699872 
L 232.498483 226.729008 
L 234.125824 220.057881 
L 234.939494 216.459969 
L 235.753165 226.656957 
L 236.566835 231.58349 
L 237.380506 217.193447 
L 238.194176 229.478806 
L 239.821517 221.747021 
L 240.635188 224.94845 
L 241.448859 224.033675 
L 242.262529 220.825226 
L 243.0762 227.263668 
L 243.88987 225.372213 
L 244.703541 221.039379 
L 245.517211 211.829641 
L 246.330882 222.472032 
L 247.144552 228.59276 
L 247.958223 227.445739 
L 248.771893 228.25673 
L 249.585564 233.225811 
L 250.399234 218.713797 
L 251.212905 218.825403 
L 252.026576 220.926637 
L 252.840246 219.182627 
L 253.653917 220.748248 
L 254.467587 225.005603 
L 255.281258 221.242253 
L 256.094928 231.460466 
L 256.908599 216.99624 
L 257.722269 230.247175 
L 258.53594 221.088912 
L 259.34961 232.538044 
L 260.163281 227.415105 
L 260.976951 227.405131 
L 261.790622 223.349983 
L 262.604293 218.136384 
L 263.417963 227.720844 
L 264.231634 217.425969 
L 265.045304 229.107414 
L 265.858975 227.999267 
L 266.672645 228.137252 
L 267.486316 230.63044 
L 268.299986 220.822691 
L 269.113657 223.308992 
L 269.927327 227.502598 
L 270.740998 224.712587 
L 271.554668 212.825715 
L 272.368339 228.042208 
L 273.18201 227.902272 
L 273.99568 225.406238 
L 274.809351 232.434404 
L 275.623021 231.199755 
L 276.436692 229.251819 
L 277.250362 223.547173 
L 278.064033 224.013606 
L 278.877703 215.6379 
L 279.691374 226.123079 
L 280.505044 223.118423 
L 281.318715 224.104441 
L 282.132386 233.973975 
L 282.946056 230.21342 
L 283.759727 227.007011 
L 285.387068 229.494414 
L 286.200738 223.872949 
L 287.014409 226.820449 
L 287.828079 226.928055 
L 288.64175 223.510972 
L 289.45542 222.047235 
L 290.269091 228.446875 
L 291.082761 226.239885 
L 291.896432 232.297928 
L 292.710103 231.999875 
L 293.523773 227.292901 
L 294.337444 230.003338 
L 295.151114 226.183827 
L 295.964785 217.726894 
L 296.778455 214.214183 
L 298.405796 237.385708 
L 299.219467 218.411861 
L 300.033137 226.231786 
L 300.846808 228.61871 
L 301.660478 234.690754 
L 302.474149 228.240058 
L 303.28782 230.747297 
L 304.10149 231.205439 
L 304.915161 227.396052 
L 305.728831 216.524043 
L 306.542502 228.889492 
L 307.356172 223.207658 
L 308.169843 233.822837 
L 308.983513 227.242546 
L 309.797184 235.975423 
L 310.610854 217.712516 
L 311.424525 227.893501 
L 313.051866 228.543889 
L 313.865537 220.399432 
L 314.679207 229.846069 
L 315.492878 224.784402 
L 316.306548 215.850558 
L 317.120219 219.668835 
L 317.933889 231.52953 
L 318.74756 228.363532 
L 319.56123 219.474956 
L 320.374901 227.175901 
L 321.188571 223.582271 
L 322.002242 227.936323 
L 322.815913 222.44366 
L 323.629583 223.342289 
L 324.443254 228.036801 
L 326.070595 221.303264 
L 326.884265 221.004209 
L 327.697936 220.171915 
L 328.511606 219.039323 
L 329.325277 224.345711 
L 330.138947 231.643079 
L 330.952618 222.391425 
L 331.766288 221.78708 
L 332.579959 219.612621 
L 333.39363 222.963375 
L 334.2073 222.595049 
L 335.020971 220.560959 
L 335.834641 214.904992 
L 336.648312 226.82918 
L 337.461982 228.908046 
L 338.275653 218.131622 
L 339.902994 226.134568 
L 340.716664 226.319351 
L 341.530335 225.59069 
L 342.344005 225.526294 
L 343.157676 226.520259 
L 343.971347 230.080973 
L 344.785017 231.468709 
L 345.598688 226.626456 
L 346.412358 219.153924 
L 347.226029 223.474254 
L 348.039699 217.385535 
L 348.85337 230.829564 
L 349.66704 223.844333 
L 350.480711 227.154007 
L 351.294381 228.448355 
L 352.108052 218.644283 
L 352.921722 223.306182 
L 353.735393 223.413332 
L 354.549064 226.520989 
L 355.362734 228.720543 
L 356.176405 224.578717 
L 356.990075 224.091483 
L 357.803746 225.656987 
L 358.617416 222.769647 
L 359.431087 221.579979 
L 360.244757 230.763673 
L 361.058428 227.512467 
L 361.872098 225.960477 
L 362.685769 220.07257 
L 364.31311 229.421954 
L 365.126781 225.089701 
L 365.940451 228.504818 
L 366.754122 219.508369 
L 367.567792 224.894929 
L 368.381463 227.153964 
L 369.195133 221.002197 
L 370.008804 219.251942 
L 370.822474 225.039836 
L 371.636145 224.838465 
L 372.449815 222.200291 
L 373.263486 230.684049 
L 374.077157 222.021916 
L 374.890827 230.653984 
L 375.704498 224.427499 
L 376.518168 227.491745 
L 377.331839 231.598153 
L 378.145509 227.765787 
L 378.95918 229.166648 
L 379.77285 231.757136 
L 380.586521 223.571373 
L 381.400191 218.754201 
L 382.213862 230.387569 
L 383.027532 226.734486 
L 383.841203 229.123358 
L 384.654874 224.261126 
L 385.468544 224.434778 
L 386.282215 226.778435 
L 387.095885 220.068681 
L 387.909556 224.380314 
L 388.723226 220.762681 
L 389.536897 226.830215 
L 390.350567 231.142713 
L 391.164238 227.013999 
L 391.977908 229.798157 
L 392.791579 225.350693 
L 393.605249 225.015715 
L 394.41892 219.921314 
L 395.232591 230.078112 
L 396.046261 218.192105 
L 396.859932 228.871455 
L 397.673602 226.827117 
L 398.487273 221.514249 
L 398.487273 221.514249 
" clip-path="url(#pc8a0705fd3)" style="fill: none; stroke-dasharray: 9.6,2.4,1.5,2.4; stroke-dashoffset: 0; stroke: #008000; stroke-width: 1.5"/>
   </g>
   <g id="line2d_34">
    <path d="M 73.832727 271.452314 
L 74.646398 265.792981 
L 75.460068 265.783613 
L 77.087409 230.035797 
L 77.90108 248.089701 
L 78.714751 248.107329 
L 79.528421 230.422145 
L 81.155762 263.813672 
L 81.969433 230.375587 
L 82.783103 230.419185 
L 83.596774 248.067941 
L 84.410444 248.107564 
L 85.224115 230.422098 
L 86.037785 265.599382 
L 86.851456 245.695428 
L 87.665126 246.2753 
L 88.478797 212.736706 
L 89.292468 248.011462 
L 90.106138 262.609607 
L 90.919809 193.320242 
L 91.733479 157.96133 
L 92.54715 141.909598 
L 93.36082 177.27952 
L 94.174491 141.918387 
L 94.988161 88.883604 
L 95.801832 88.905218 
L 96.615502 106.622531 
L 97.429173 140.030304 
L 99.056514 71.252912 
L 99.870185 159.590689 
L 100.683855 159.680453 
L 101.497526 124.30641 
L 102.311196 124.168978 
L 103.124867 141.945087 
L 103.938537 141.870277 
L 105.565878 106.234213 
L 107.193219 141.968725 
L 108.00689 177.365898 
L 108.82056 159.67502 
L 109.634231 177.351125 
L 110.447902 177.202026 
L 111.261572 141.950623 
L 112.075243 159.677927 
L 112.888913 159.680415 
L 113.702584 141.995059 
L 114.516254 177.06941 
L 115.329925 141.994631 
L 116.143595 141.932902 
L 116.957266 124.263386 
L 117.770936 159.680493 
L 118.584607 141.995077 
L 119.398278 141.994966 
L 120.211948 195.039755 
L 121.025619 159.666017 
L 121.839289 141.981011 
L 122.65296 195.049675 
L 124.280301 124.306533 
L 125.093971 124.309663 
L 125.907642 88.938833 
L 126.721312 123.541966 
L 127.534983 141.995078 
L 129.162324 141.995077 
L 130.789665 177.365907 
L 131.603336 211.442077 
L 132.417006 141.995077 
L 133.230677 106.624248 
L 134.044347 159.612804 
L 134.858018 194.172781 
L 135.671688 159.680493 
L 136.485359 177.365718 
L 137.299029 159.672859 
L 138.1127 105.283847 
L 138.92637 141.710721 
L 140.553712 106.518959 
L 141.367382 177.358787 
L 142.181053 176.925221 
L 142.994723 159.048438 
L 144.622064 194.839159 
L 145.435735 159.680493 
L 147.063076 124.309662 
L 147.876746 177.365884 
L 148.690417 141.861751 
L 149.504087 177.364393 
L 150.317758 124.308399 
L 151.131429 195.036639 
L 151.945099 159.680493 
L 152.75877 194.901262 
L 153.57244 194.519417 
L 154.386111 177.100005 
L 155.199781 195.048353 
L 156.013452 177.36311 
L 156.827122 124.309022 
L 157.640793 159.664163 
L 158.454463 141.969732 
L 159.268134 71.003692 
L 160.081805 141.783087 
L 160.895475 177.365714 
L 161.709146 159.642054 
L 162.522816 194.622183 
L 163.336487 141.786168 
L 164.150157 177.132139 
L 164.963828 124.191857 
L 165.777498 141.994729 
L 166.591169 176.089263 
L 167.404839 106.624248 
L 168.21851 159.679086 
L 169.03218 141.985939 
L 169.845851 141.983457 
L 170.659522 177.362609 
L 172.286863 141.995061 
L 173.100533 106.618216 
L 173.914204 177.32152 
L 174.727874 124.309256 
L 175.541545 88.624267 
L 176.355215 124.160518 
L 177.982556 88.844699 
L 178.796227 159.673249 
L 179.609897 141.993143 
L 180.423568 159.680146 
L 181.237239 141.967365 
L 182.050909 159.657032 
L 182.86458 159.680493 
L 183.67825 106.62388 
L 184.491921 176.861968 
L 186.119262 141.995067 
L 186.932932 141.995078 
L 187.746603 159.680354 
L 188.560273 195.04033 
L 189.373944 141.339209 
L 191.001285 177.34419 
L 191.814956 124.290558 
L 194.255967 177.350315 
L 195.069638 124.268059 
L 195.883308 159.099088 
L 196.696979 159.661261 
L 198.32432 159.641967 
L 199.13799 141.994842 
L 199.951661 159.583324 
L 200.765332 106.317624 
L 201.579002 159.643857 
L 202.392673 176.778121 
L 203.206343 177.355004 
L 204.020014 159.680388 
L 204.833684 124.309662 
L 205.647355 141.982469 
L 206.461025 88.938833 
L 207.274696 159.680492 
L 208.088366 177.365708 
L 208.902037 141.995078 
L 211.343049 195.01727 
L 212.156719 159.62949 
L 213.78406 124.309308 
L 214.597731 124.309308 
L 215.411401 106.500897 
L 216.225072 158.62361 
L 217.038742 123.398512 
L 217.852413 177.170706 
L 218.666083 177.365907 
L 219.479754 177.170706 
L 220.293424 141.09799 
L 221.107095 176.471484 
L 221.920766 176.471619 
L 222.734436 141.991395 
L 223.548107 177.363284 
L 224.361777 141.989897 
L 225.175448 177.365418 
L 225.989118 141.994625 
L 226.802789 177.365411 
L 227.616459 106.620822 
L 229.2438 177.364425 
L 230.057471 141.546454 
L 230.871141 124.309232 
L 231.684812 212.730231 
L 232.498483 195.051079 
L 233.312153 141.995076 
L 234.125824 124.30965 
L 234.939494 88.938805 
L 235.753165 88.846227 
L 236.566835 195.051299 
L 237.380506 159.680373 
L 238.194176 177.365907 
L 239.821517 141.994727 
L 240.635188 177.354447 
L 241.448859 177.227296 
L 242.262529 141.993974 
L 243.0762 141.994786 
L 243.88987 123.998414 
L 244.703541 141.9913 
L 245.517211 88.935055 
L 246.330882 106.547424 
L 247.144552 177.335581 
L 247.958223 193.968 
L 248.771893 175.586958 
L 249.585564 212.212902 
L 250.399234 106.622343 
L 251.212905 141.992383 
L 252.026576 106.619736 
L 252.840246 159.663116 
L 253.653917 141.990918 
L 254.467587 177.365906 
L 255.281258 141.993922 
L 256.094928 177.36584 
L 256.908599 106.612601 
L 257.722269 177.041328 
L 258.53594 141.994946 
L 259.34961 141.993728 
L 260.163281 177.365869 
L 260.976951 159.679588 
L 261.790622 159.680461 
L 262.604293 53.568 
L 263.417963 159.680492 
L 264.231634 106.624144 
L 265.045304 177.365903 
L 265.858975 177.278794 
L 266.672645 176.424043 
L 267.486316 194.988049 
L 268.299986 141.995078 
L 269.113657 158.940227 
L 269.927327 195.049423 
L 270.740998 194.448927 
L 271.554668 71.194468 
L 272.368339 193.892817 
L 273.18201 157.644036 
L 274.809351 194.519494 
L 275.623021 194.953026 
L 276.436692 141.99489 
L 277.250362 141.995054 
L 278.064033 194.941287 
L 278.877703 124.199234 
L 279.691374 159.680475 
L 280.505044 177.027577 
L 281.318715 159.583824 
L 282.132386 195.051322 
L 282.946056 195.04868 
L 283.759727 159.680111 
L 285.387068 194.984639 
L 286.200738 124.304764 
L 287.014409 159.672328 
L 287.828079 159.676695 
L 288.64175 176.817603 
L 289.45542 141.992696 
L 290.269091 177.324991 
L 291.082761 177.356989 
L 291.896432 194.45899 
L 292.710103 195.001038 
L 293.523773 141.991297 
L 294.337444 159.60569 
L 295.151114 159.653316 
L 295.964785 88.904896 
L 296.778455 124.270232 
L 297.592126 141.964464 
L 298.405796 195.019514 
L 299.219467 124.302827 
L 300.033137 177.351427 
L 300.846808 141.991643 
L 301.660478 194.921105 
L 302.474149 177.272433 
L 303.28782 194.91271 
L 304.10149 159.584287 
L 304.915161 177.361074 
L 305.728831 140.939818 
L 306.542502 177.220847 
L 307.356172 159.672761 
L 308.169843 211.10585 
L 308.983513 177.329133 
L 309.797184 194.609315 
L 310.610854 124.309662 
L 311.424525 159.680442 
L 312.238195 141.995078 
L 313.051866 159.680442 
L 313.865537 141.995078 
L 314.679207 159.594761 
L 315.492878 105.572152 
L 316.306548 106.540308 
L 317.933889 177.247334 
L 318.74756 177.334646 
L 319.56123 88.938809 
L 320.374901 158.918307 
L 321.188571 177.362344 
L 322.002242 159.680417 
L 322.815913 124.308032 
L 323.629583 159.632966 
L 324.443254 177.31012 
L 325.256924 177.343873 
L 326.070595 141.59986 
L 326.884265 124.309627 
L 328.511606 159.666241 
L 329.325277 159.675852 
L 330.138947 194.536679 
L 330.952618 159.680316 
L 331.766288 177.364771 
L 332.579959 124.302212 
L 333.39363 157.534936 
L 334.2073 176.048609 
L 335.020971 106.347138 
L 335.834641 88.882855 
L 336.648312 194.939474 
L 338.275653 124.307418 
L 339.089323 124.309646 
L 341.530335 177.235133 
L 342.344005 177.358916 
L 343.157676 141.755139 
L 343.971347 194.81103 
L 344.785017 194.090285 
L 345.598688 177.0151 
L 346.412358 123.20476 
L 347.226029 159.680268 
L 348.039699 141.956329 
L 348.85337 193.726706 
L 349.66704 124.011896 
L 350.480711 177.361496 
L 351.294381 177.325423 
L 352.921722 141.982013 
L 353.735393 141.993136 
L 354.549064 159.672077 
L 355.362734 159.678734 
L 356.176405 141.993413 
L 356.990075 177.239917 
L 358.617416 141.898908 
L 359.431087 159.640562 
L 360.244757 159.666737 
L 361.058428 177.328778 
L 361.872098 141.902055 
L 362.685769 159.640001 
L 363.49944 124.309505 
L 364.31311 177.324885 
L 365.126781 158.777153 
L 365.940451 177.365676 
L 366.754122 159.641498 
L 368.381463 159.679359 
L 369.195133 159.560742 
L 370.008804 141.980132 
L 370.822474 159.680493 
L 371.636145 106.62332 
L 372.449815 141.994189 
L 373.263486 195.044766 
L 374.077157 124.2999 
L 374.890827 176.9538 
L 375.704498 176.938358 
L 376.518168 177.363098 
L 377.331839 195.029756 
L 378.145509 159.660568 
L 378.95918 159.665926 
L 379.77285 177.361228 
L 381.400191 106.624248 
L 382.213862 194.744601 
L 383.027532 141.990022 
L 383.841203 159.680389 
L 384.654874 158.612993 
L 386.282215 195.048702 
L 387.095885 159.679915 
L 389.536897 159.680487 
L 390.350567 195.050989 
L 391.164238 177.365453 
L 392.791579 177.365905 
L 393.605249 159.680492 
L 394.41892 177.268361 
L 395.232591 177.364428 
L 396.046261 159.676782 
L 396.859932 124.309663 
L 397.673602 159.680493 
L 398.487273 159.604851 
L 398.487273 159.604851 
" clip-path="url(#pc8a0705fd3)" style="fill: none; stroke: #ff0000; stroke-width: 1.5; stroke-linecap: square"/>
   </g>
   <g id="patch_3">
    <path d="M 57.6 307.584 
L 57.6 41.472 
" style="fill: none; stroke: #000000; stroke-width: 0.8; stroke-linejoin: miter; stroke-linecap: square"/>
   </g>
   <g id="patch_4">
    <path d="M 414.72 307.584 
L 414.72 41.472 
" style="fill: none; stroke: #000000; stroke-width: 0.8; stroke-linejoin: miter; stroke-linecap: square"/>
   </g>
   <g id="patch_5">
    <path d="M 57.6 307.584 
L 414.72 307.584 
" style="fill: none; stroke: #000000; stroke-width: 0.8; stroke-linejoin: miter; stroke-linecap: square"/>
   </g>
   <g id="patch_6">
    <path d="M 57.6 41.472 
L 414.72 41.472 
" style="fill: none; stroke: #000000; stroke-width: 0.8; stroke-linejoin: miter; stroke-linecap: square"/>
   </g>
   <g id="text_18">
    <!-- Population's average and best fitness -->
    <g transform="translate(123.529687 35.472) scale(0.12 -0.12)">
     <defs>
      <path id="DejaVuSans-50" d="M 1259 4147 
L 1259 2394 
L 2053 2394 
Q 2494 2394 2734 2622 
Q 2975 2850 2975 3272 
Q 2975 3691 2734 3919 
Q 2494 4147 2053 4147 
L 1259 4147 
z
M 628 4666 
L 2053 4666 
Q 2838 4666 3239 4311 
Q 3641 3956 3641 3272 
Q 3641 2581 3239 2228 
Q 2838 1875 2053 1875 
L 1259 1875 
L 1259 0 
L 628 0 
L 628 4666 
z
" transform="scale(0.015625)"/>
      <path id="DejaVuSans-70" d="M 1159 525 
L 1159 -1331 
L 581 -1331 
L 581 3500 
L 1159 3500 
L 1159 2969 
Q 1341 3281 1617 3432 
Q 1894 3584 2278 3584 
Q 2916 3584 3314 3078 
Q 3713 2572 3713 1747 
Q 3713 922 3314 415 
Q 2916 -91 2278 -91 
Q 1894 -91 1617 61 
Q 1341 213 1159 525 
z
M 3116 1747 
Q 3116 2381 2855 2742 
Q 2594 3103 2138 3103 
Q 1681 3103 1420 2742 
Q 1159 2381 1159 1747 
Q 1159 1113 1420 752 
Q 1681 391 2138 391 
Q 2594 391 2855 752 
Q 3116 1113 3116 1747 
z
" transform="scale(0.015625)"/>
      <path id="DejaVuSans-75" d="M 544 1381 
L 544 3500 
L 1119 3500 
L 1119 1403 
Q 1119 906 1312 657 
Q 1506 409 1894 409 
Q 2359 409 2629 706 
Q 2900 1003 2900 1516 
L 2900 3500 
L 3475 3500 
L 3475 0 
L 2900 0 
L 2900 538 
Q 2691 219 2414 64 
Q 2138 -91 1772 -91 
Q 1169 -91 856 284 
Q 544 659 544 1381 
z
M 1991 3584 
L 1991 3584 
z
" transform="scale(0.015625)"/>
      <path id="DejaVuSans-6c" d="M 603 4863 
L 1178 4863 
L 1178 0 
L 603 0 
L 603 4863 
z
" transform="scale(0.015625)"/>
      <path id="DejaVuSans-27" d="M 1147 4666 
L 1147 2931 
L 616 2931 
L 616 4666 
L 1147 4666 
z
" transform="scale(0.015625)"/>
      <path id="DejaVuSans-20" transform="scale(0.015625)"/>
      <path id="DejaVuSans-76" d="M 191 3500 
L 800 3500 
L 1894 563 
L 2988 3500 
L 3597 3500 
L 2284 0 
L 1503 0 
L 191 3500 
z
" transform="scale(0.015625)"/>
      <path id="DejaVuSans-67" d="M 2906 1791 
Q 2906 2416 2648 2759 
Q 2391 3103 1925 3103 
Q 1463 3103 1205 2759 
Q 947 2416 947 1791 
Q 947 1169 1205 825 
Q 1463 481 1925 481 
Q 2391 481 2648 825 
Q 2906 1169 2906 1791 
z
M 3481 434 
Q 3481 -459 3084 -895 
Q 2688 -1331 1869 -1331 
Q 1566 -1331 1297 -1286 
Q 1028 -1241 775 -1147 
L 775 -588 
Q 1028 -725 1275 -790 
Q 1522 -856 1778 -856 
Q 2344 -856 2625 -561 
Q 2906 -266 2906 331 
L 2906 616 
Q 2728 306 2450 153 
Q 2172 0 1784 0 
Q 1141 0 747 490 
Q 353 981 353 1791 
Q 353 2603 747 3093 
Q 1141 3584 1784 3584 
Q 2172 3584 2450 3431 
Q 2728 3278 2906 2969 
L 2906 3500 
L 3481 3500 
L 3481 434 
z
" transform="scale(0.015625)"/>
      <path id="DejaVuSans-64" d="M 2906 2969 
L 2906 4863 
L 3481 4863 
L 3481 0 
L 2906 0 
L 2906 525 
Q 2725 213 2448 61 
Q 2172 -91 1784 -91 
Q 1150 -91 751 415 
Q 353 922 353 1747 
Q 353 2572 751 3078 
Q 1150 3584 1784 3584 
Q 2172 3584 2448 3432 
Q 2725 3281 2906 2969 
z
M 947 1747 
Q 947 1113 1208 752 
Q 1469 391 1925 391 
Q 2381 391 2643 752 
Q 2906 1113 2906 1747 
Q 2906 2381 2643 2742 
Q 2381 3103 1925 3103 
Q 1469 3103 1208 2742 
Q 947 2381 947 1747 
z
" transform="scale(0.015625)"/>
      <path id="DejaVuSans-62" d="M 3116 1747 
Q 3116 2381 2855 2742 
Q 2594 3103 2138 3103 
Q 1681 3103 1420 2742 
Q 1159 2381 1159 1747 
Q 1159 1113 1420 752 
Q 1681 391 2138 391 
Q 2594 391 2855 752 
Q 3116 1113 3116 1747 
z
M 1159 2969 
Q 1341 3281 1617 3432 
Q 1894 3584 2278 3584 
Q 2916 3584 3314 3078 
Q 3713 2572 3713 1747 
Q 3713 922 3314 415 
Q 2916 -91 2278 -91 
Q 1894 -91 1617 61 
Q 1341 213 1159 525 
L 1159 0 
L 581 0 
L 581 4863 
L 1159 4863 
L 1159 2969 
z
" transform="scale(0.015625)"/>
      <path id="DejaVuSans-66" d="M 2375 4863 
L 2375 4384 
L 1825 4384 
Q 1516 4384 1395 4259 
Q 1275 4134 1275 3809 
L 1275 3500 
L 2222 3500 
L 2222 3053 
L 1275 3053 
L 1275 0 
L 697 0 
L 697 3053 
L 147 3053 
L 147 3500 
L 697 3500 
L 697 3744 
Q 697 4328 969 4595 
Q 1241 4863 1831 4863 
L 2375 4863 
z
" transform="scale(0.015625)"/>
     </defs>
     <use xlink:href="#DejaVuSans-50"/>
     <use xlink:href="#DejaVuSans-6f" x="56.677734"/>
     <use xlink:href="#DejaVuSans-70" x="117.859375"/>
     <use xlink:href="#DejaVuSans-75" x="181.335938"/>
     <use xlink:href="#DejaVuSans-6c" x="244.714844"/>
     <use xlink:href="#DejaVuSans-61" x="272.498047"/>
     <use xlink:href="#DejaVuSans-74" x="333.777344"/>
     <use xlink:href="#DejaVuSans-69" x="372.986328"/>
     <use xlink:href="#DejaVuSans-6f" x="400.769531"/>
     <use xlink:href="#DejaVuSans-6e" x="461.951172"/>
     <use xlink:href="#DejaVuSans-27" x="525.330078"/>
     <use xlink:href="#DejaVuSans-73" x="552.820312"/>
     <use xlink:href="#DejaVuSans-20" x="604.919922"/>
     <use xlink:href="#DejaVuSans-61" x="636.707031"/>
     <use xlink:href="#DejaVuSans-76" x="697.986328"/>
     <use xlink:href="#DejaVuSans-65" x="757.166016"/>
     <use xlink:href="#DejaVuSans-72" x="818.689453"/>
     <use xlink:href="#DejaVuSans-61" x="859.802734"/>
     <use xlink:href="#DejaVuSans-67" x="921.082031"/>
     <use xlink:href="#DejaVuSans-65" x="984.558594"/>
     <use xlink:href="#DejaVuSans-20" x="1046.082031"/>
     <use xlink:href="#DejaVuSans-61" x="1077.869141"/>
     <use xlink:href="#DejaVuSans-6e" x="1139.148438"/>
     <use xlink:href="#DejaVuSans-64" x="1202.527344"/>
     <use xlink:href="#DejaVuSans-20" x="1266.003906"/>
     <use xlink:href="#DejaVuSans-62" x="1297.791016"/>
     <use xlink:href="#DejaVuSans-65" x="1361.267578"/>
     <use xlink:href="#DejaVuSans-73" x="1422.791016"/>
     <use xlink:href="#DejaVuSans-74" x="1474.890625"/>
     <use xlink:href="#DejaVuSans-20" x="1514.099609"/>
     <use xlink:href="#DejaVuSans-66" x="1545.886719"/>
     <use xlink:href="#DejaVuSans-69" x="1581.091797"/>
     <use xlink:href="#DejaVuSans-74" x="1608.875"/>
     <use xlink:href="#DejaVuSans-6e" x="1648.083984"/>
     <use xlink:href="#DejaVuSans-65" x="1711.462891"/>
     <use xlink:href="#DejaVuSans-73" x="1772.986328"/>
     <use xlink:href="#DejaVuSans-73" x="1825.085938"/>
    </g>
   </g>
   <g id="legend_1">
    <g id="patch_7">
     <path d="M 334.779375 108.1845 
L 407.72 108.1845 
Q 409.72 108.1845 409.72 106.1845 
L 409.72 48.472 
Q 409.72 46.472 407.72 46.472 
L 334.779375 46.472 
Q 332.779375 46.472 332.779375 48.472 
L 332.779375 106.1845 
Q 332.779375 108.1845 334.779375 108.1845 
z
" style="fill: #ffffff; opacity: 0.8; stroke: #cccccc; stroke-linejoin: miter"/>
    </g>
    <g id="line2d_35">
     <path d="M 336.779375 54.570438 
L 346.779375 54.570438 
L 356.779375 54.570438 
" style="fill: none; stroke: #0000ff; stroke-width: 1.5; stroke-linecap: square"/>
    </g>
    <g id="text_19">
     <!-- average -->
     <g transform="translate(364.779375 58.070438) scale(0.1 -0.1)">
      <use xlink:href="#DejaVuSans-61"/>
      <use xlink:href="#DejaVuSans-76" x="61.279297"/>
      <use xlink:href="#DejaVuSans-65" x="120.458984"/>
      <use xlink:href="#DejaVuSans-72" x="181.982422"/>
      <use xlink:href="#DejaVuSans-61" x="223.095703"/>
      <use xlink:href="#DejaVuSans-67" x="284.375"/>
      <use xlink:href="#DejaVuSans-65" x="347.851562"/>
     </g>
    </g>
    <g id="line2d_36">
     <path d="M 336.779375 69.248563 
L 346.779375 69.248563 
L 356.779375 69.248563 
" style="fill: none; stroke-dasharray: 9.6,2.4,1.5,2.4; stroke-dashoffset: 0; stroke: #008000; stroke-width: 1.5"/>
    </g>
    <g id="text_20">
     <!-- -1 sd -->
     <g transform="translate(364.779375 72.748563) scale(0.1 -0.1)">
      <defs>
       <path id="DejaVuSans-2d" d="M 313 2009 
L 1997 2009 
L 1997 1497 
L 313 1497 
L 313 2009 
z
" transform="scale(0.015625)"/>
      </defs>
      <use xlink:href="#DejaVuSans-2d"/>
      <use xlink:href="#DejaVuSans-31" x="36.083984"/>
      <use xlink:href="#DejaVuSans-20" x="99.707031"/>
      <use xlink:href="#DejaVuSans-73" x="131.494141"/>
      <use xlink:href="#DejaVuSans-64" x="183.59375"/>
     </g>
    </g>
    <g id="line2d_37">
     <path d="M 336.779375 83.926688 
L 346.779375 83.926688 
L 356.779375 83.926688 
" style="fill: none; stroke-dasharray: 9.6,2.4,1.5,2.4; stroke-dashoffset: 0; stroke: #008000; stroke-width: 1.5"/>
    </g>
    <g id="text_21">
     <!-- +1 sd -->
     <g transform="translate(364.779375 87.426688) scale(0.1 -0.1)">
      <defs>
       <path id="DejaVuSans-2b" d="M 2944 4013 
L 2944 2272 
L 4684 2272 
L 4684 1741 
L 2944 1741 
L 2944 0 
L 2419 0 
L 2419 1741 
L 678 1741 
L 678 2272 
L 2419 2272 
L 2419 4013 
L 2944 4013 
z
" transform="scale(0.015625)"/>
      </defs>
      <use xlink:href="#DejaVuSans-2b"/>
      <use xlink:href="#DejaVuSans-31" x="83.789062"/>
      <use xlink:href="#DejaVuSans-20" x="147.412109"/>
      <use xlink:href="#DejaVuSans-73" x="179.199219"/>
      <use xlink:href="#DejaVuSans-64" x="231.298828"/>
     </g>
    </g>
    <g id="line2d_38">
     <path d="M 336.779375 98.604813 
L 346.779375 98.604813 
L 356.779375 98.604813 
" style="fill: none; stroke: #ff0000; stroke-width: 1.5; stroke-linecap: square"/>
    </g>
    <g id="text_22">
     <!-- best -->
     <g transform="translate(364.779375 102.104813) scale(0.1 -0.1)">
      <use xlink:href="#DejaVuSans-62"/>
      <use xlink:href="#DejaVuSans-65" x="63.476562"/>
      <use xlink:href="#DejaVuSans-73" x="125"/>
      <use xlink:href="#DejaVuSans-74" x="177.099609"/>
     </g>
    </g>
   </g>
  </g>
 </g>
 <defs>
  <clipPath id="pc8a0705fd3">
   <rect x="57.6" y="41.472" width="357.12" height="266.112"/>
  </clipPath>
 </defs>
</svg>
